<?xml version="1.0" standalone="no"?>
<!DOCTYPE svg PUBLIC "-//W3C//DTD SVG 1.1//EN" "http://www.w3.org/Graphics/SVG/1.1/DTD/svg11.dtd" >
<svg xmlns="http://www.w3.org/2000/svg" xmlns:xlink="http://www.w3.org/1999/xlink" version="1.1">
<metadata></metadata>
<defs>
<font id="filson_probold_italic" horiz-adv-x="1347" >
<font-face units-per-em="2048" ascent="1481" descent="-567" />
<missing-glyph horiz-adv-x="499" />
<glyph unicode="&#xfb01;" horiz-adv-x="1423" d="M203 811l41 231h149l6 41q16 101 58.5 177.5t97 121.5t126.5 73.5t138 38t139 9.5q67 0 126 -13t111.5 -41t88 -79t47.5 -121l-301 -80q-10 47 -42 69t-75 22q-75 0 -133.5 -39.5t-74.5 -137.5l-7 -41h777l-185 -1042h-305l143 811h-471l-143 -811h-305l143 811h-149z " />
<glyph unicode="&#xfb02;" horiz-adv-x="1396" d="M203 811l41 231h149l6 41q16 101 58.5 177.5t97 121.5t126.5 73.5t138 38t139 9.5q131 0 295 -28.5t258 -71.5l-247 -1403h-306l216 1219q-62 22 -138.5 31.5t-122.5 9.5q-75 0 -133.5 -39.5t-74.5 -137.5l-7 -41h269l-41 -231h-269l-143 -811h-305l143 811h-149z" />
<glyph unicode="&#xfb03;" horiz-adv-x="2244" d="M203 811l41 231h147l6 41q16 101 58.5 177.5t97 121.5t126.5 73.5t138 38t139 9.5q194 0 301 -119l-194 -184q-53 60 -152 60q-34 0 -64.5 -7.5t-61.5 -26t-53 -55t-30 -88.5l-6 -41h516l7 41q16 101 58.5 177.5t97 121.5t126.5 73.5t138 38t139 9.5q67 0 125.5 -13 t111 -41t88 -79t47.5 -121l-301 -80q-19 91 -116 91q-34 0 -64.5 -7.5t-61.5 -26t-53 -55t-30 -88.5l-6 -41h776l-185 -1042h-305l144 811h-471l-144 -811h-305l143 811h-516l-143 -811h-305l143 811h-147z" />
<glyph unicode="&#xfb04;" horiz-adv-x="2217" d="M203 811l41 231h147l6 41q16 101 57 178t93 121.5t118.5 73t125.5 38t122 9.5q94 0 189.5 -26.5t154.5 -92.5l-194 -184q-53 60 -152 60q-34 0 -64.5 -7.5t-61.5 -26t-53 -55t-30 -88.5l-6 -41h516l7 41q16 101 58.5 177.5t97 121.5t126.5 73.5t138 38t139 9.5 q131 0 295 -28.5t258 -71.5l-248 -1403h-305l215 1219q-62 22 -138 31.5t-122 9.5q-34 0 -64.5 -7.5t-61.5 -26t-53 -55t-30 -88.5l-6 -41h268l-41 -231h-268l-144 -811h-305l143 811h-516l-143 -811h-305l143 811h-147z" />
<glyph horiz-adv-x="0" />
<glyph horiz-adv-x="682" />
<glyph horiz-adv-x="0" />
<glyph horiz-adv-x="0" />
<glyph unicode="&#xd;" horiz-adv-x="512" />
<glyph unicode=" "  horiz-adv-x="499" />
<glyph unicode="&#x09;" horiz-adv-x="499" />
<glyph unicode="&#xa0;" horiz-adv-x="499" />
<glyph unicode="!" horiz-adv-x="600" d="M131 154q13 78 77.5 129t149.5 51q82 0 127.5 -51t32.5 -129q-14 -75 -77.5 -126t-145.5 -51q-84 0 -131 51t-33 126zM270 479l88 895l9 60h370l-8 -60l-235 -895h-224z" />
<glyph unicode="&#x22;" horiz-adv-x="987" d="M315 868l39 588h314l-170 -588h-183zM797 868l39 588h313l-170 -588h-182z" />
<glyph unicode="#" horiz-adv-x="1570" d="M119 326l88 209h262l176 401h-264l88 207h262l125 291h227l-125 -291h265l123 291h229l-125 -291h258l-88 -207h-256l-176 -401h260l-90 -209h-254l-139 -326h-230l139 326h-264l-137 -326h-227l135 326h-262zM696 535h265l174 401h-265z" />
<glyph unicode="$" horiz-adv-x="1140" d="M141 430l281 53q9 -156 153 -178l52 291l-52 18q-76 28 -131 67.5t-82.5 80.5t-43.5 87.5t-14 88.5t7 82q29 160 155.5 261.5t305.5 119.5l29 170h131l-31 -174q266 -36 324 -293l-271 -121q-30 106 -102 137l-49 -270l47 -16q63 -22 113 -53t81 -64.5t53.5 -71t30.5 -73 t11.5 -71.5t-2.5 -65q-18 -91 -65.5 -165t-113.5 -122t-142.5 -76.5t-158.5 -37.5l-28 -178h-131l28 176q-116 12 -204.5 59.5t-138.5 135t-42 202.5zM606 1016q-16 -72 76 -119l39 229q-101 -25 -115 -110zM709 311q106 26 127 113q15 74 -84 127z" />
<glyph unicode="%" horiz-adv-x="2048" d="M252 1071q28 163 164 274t307 111t265.5 -110.5t66.5 -274.5q-29 -162 -163.5 -272.5t-305.5 -110.5q-170 0 -266.5 111t-67.5 272zM485 1071q-13 -79 28 -128.5t110 -49.5q71 0 130 49.5t72 128.5q17 82 -24 132t-113 50q-69 0 -127.5 -50t-75.5 -132zM504 0l1048 1434 h215l-1046 -1434h-217zM1243 360q28 163 164 274t307 111t265.5 -110.5t66.5 -274.5q-29 -162 -163.5 -272.5t-305.5 -110.5q-170 0 -266.5 111t-67.5 272zM1477 360q-13 -79 27.5 -128.5t109.5 -49.5q72 0 131 49.5t72 128.5q13 83 -27 133t-111 50q-68 0 -129 -52 t-73 -131z" />
<glyph unicode="&#x26;" horiz-adv-x="1622" d="M135 393q49 267 410 430q-100 149 -70 295q13 69 51.5 127.5t90 96.5t112.5 64.5t118.5 38t108.5 11.5q154 0 247.5 -101.5t68.5 -238.5q-19 -105 -107 -198t-215 -158l142 -197l137 156q16 16 51 61h279l-11 -61l-319 -359l55 -69q47 -53 98 -53q97 0 183 75l69 -202 q-159 -134 -315 -134q-93 0 -160.5 37.5t-124.5 104.5l-8 10q-85 -73 -199.5 -112.5t-242.5 -39.5q-143 0 -252.5 48.5t-165 144.5t-31.5 223zM444 408q-13 -79 42.5 -130t152.5 -51q124 0 248 115l-203 287q-93 -31 -161 -90t-79 -131zM754 1102q-12 -68 65 -172 q158 87 172 176q9 47 -13.5 83t-78.5 36q-53 0 -93.5 -36t-51.5 -87z" />
<glyph unicode="'" horiz-adv-x="505" d="M315 868l39 588h314l-170 -588h-183z" />
<glyph unicode="(" horiz-adv-x="710" d="M150.5 308q0.5 122 21.5 243q26 145 82.5 292t122 262t141 219.5t136 171.5t110.5 112l176 -113q-56 -63 -119 -155t-132 -214.5t-126 -275t-84 -299.5q-21 -119 -22 -243t12 -225.5t36.5 -197t48 -161.5t50.5 -115l-215 -113q-28 37 -57.5 90.5t-63 129.5t-59 169.5 t-42.5 197t-16.5 225.5z" />
<glyph unicode=")" horiz-adv-x="710" d="M-31 -391q54 62 115.5 153t131 215t126.5 276.5t82 297.5q22 118 23.5 242.5t-12 226.5t-37 198.5t-48 162.5t-49.5 114l213 113q28 -36 58 -89.5t64 -129.5t59.5 -170t42.5 -197.5t16 -226.5t-23 -244q-25 -143 -81.5 -289.5t-122.5 -261.5t-142 -220t-136 -172.5 t-110 -111.5z" />
<glyph unicode="*" horiz-adv-x="937" d="M268 1120l97 191l229 -99l33 269h204l-65 -267l268 97l27 -191l-266 -69l127 -213l-179 -113l-106 221l-197 -225l-133 119l207 207z" />
<glyph unicode="+" horiz-adv-x="1150" d="M158 516l43 238h379l67 374h260l-67 -374h377l-43 -238h-377l-68 -375h-260l68 375h-379z" />
<glyph unicode="," horiz-adv-x="538" d="M8 -219q86 30 159 99t85 136q-64 -4 -101.5 44t-29.5 106q11 71 65 118.5t140 47.5q40 0 68.5 -14.5t42 -36.5t21.5 -49.5t6 -52.5t-3 -46q-26 -140 -142.5 -280.5t-263.5 -184.5z" />
<glyph unicode="-" horiz-adv-x="976" d="M213 520l45 246h731l-45 -246h-731z" />
<glyph unicode="." horiz-adv-x="569" d="M117 154q13 78 77.5 129t149.5 51q82 0 127.5 -51t32.5 -129q-14 -75 -77.5 -126t-145.5 -51q-84 0 -131 51t-33 126z" />
<glyph unicode="/" horiz-adv-x="1134" d="M35 -74l1069 1587h250l-1071 -1587h-248z" />
<glyph unicode="0" horiz-adv-x="1449" d="M197.5 484q-5.5 110 13.5 233q27 154 95 288.5t166.5 234.5t230 158t276.5 58q192 0 322 -99.5t177 -266.5t11 -373q-27 -153 -96.5 -287.5t-169 -234t-231 -157.5t-275.5 -58q-117 0 -212.5 37.5t-158.5 104.5t-103 159.5t-45.5 202.5zM505 526.5q9 -89.5 38.5 -156 t86.5 -105t132 -38.5q151 0 267.5 140.5t154.5 349.5q20 101 10.5 190.5t-39.5 156t-87.5 105.5t-133.5 39q-152 0 -266 -140.5t-152 -350.5q-20 -101 -11 -190.5z" />
<glyph unicode="1" horiz-adv-x="841" d="M225 1202l559 232h174l-251 -1434h-312l189 1077q-54 -22 -171 -61t-153 -53z" />
<glyph unicode="2" horiz-adv-x="1259" d="M127 0v188l635 502q217 164 246 303q17 96 -33.5 149.5t-155.5 53.5q-54 0 -99 -14.5t-74.5 -37t-51 -53t-33 -59t-16.5 -57.5h-299q11 60 38.5 122.5t79 128t120 116t168 82.5t214.5 32q236 0 358.5 -124.5t86.5 -336.5q-43 -259 -389 -506l-338 -249q103 12 227 12h410 l-43 -252h-1051z" />
<glyph unicode="3" horiz-adv-x="1267" d="M70 150l186 194q101 -66 186 -87t170 -21q125 0 223.5 75.5t116.5 171.5q19 102 -46.5 168t-166.5 66q-99 0 -196 -39l-92 160l471 344h-588l45 252h1010l-29 -181l-447 -325q110 -11 198 -75t130 -162.5t23 -205.5q-18 -102 -76.5 -194t-147.5 -162t-213 -111t-264 -41 q-331 0 -493 173z" />
<glyph unicode="4" horiz-adv-x="1351" d="M98 358l33 187l928 889h211l-146 -820h285l-45 -256h-285l-61 -358h-311l61 358h-670zM492 614h321l68 369z" />
<glyph unicode="5" horiz-adv-x="1265" d="M92 150l187 194q101 -66 183.5 -87t166.5 -21q139 0 233.5 75t112.5 183q18 87 -43 154t-184 67q-79 0 -163.5 -26.5t-146.5 -78.5l-192 82l178 742h926l-45 -252h-656l-71 -303h10q110 75 286 75q130 0 232.5 -61.5t151.5 -168t28 -230.5q-42 -233 -225.5 -375 t-464.5 -142q-342 0 -504 173z" />
<glyph unicode="6" horiz-adv-x="1333" d="M207 684q24 129 70 244.5t115.5 212t156.5 167t197 109.5t233 39q151 0 273.5 -55t189.5 -156l-219 -170q-93 117 -281 117q-53 0 -112 -23.5t-115.5 -68t-102.5 -120t-67 -169.5h8q63 63 154.5 103t187.5 40q78 0 150 -21t132 -61t101 -99t57 -134.5t0 -167.5 q-37 -215 -219.5 -354.5t-433.5 -139.5q-182 0 -302.5 89.5t-164.5 249.5t-8 368zM504 485q-12 -63 7 -119t73.5 -93t134.5 -37q109 0 199.5 68.5t107.5 168.5q19 107 -39 173.5t-178 66.5q-130 0 -208 -66t-97 -162z" />
<glyph unicode="7" horiz-adv-x="1150" d="M127 0l842 1182h-709l45 252h1075l-32 -189l-871 -1245h-350z" />
<glyph unicode="8" horiz-adv-x="1351" d="M160 438q18 99 107 197t206 133q-80 33 -120 112t-27 162q32 189 201 301.5t407 112.5q237 0 365 -112t96 -302q-12 -80 -83 -161.5t-163 -112.5q103 -36 157.5 -133.5t36.5 -196.5q-24 -141 -119 -246.5t-238.5 -160t-315.5 -54.5q-263 0 -404.5 124.5t-105.5 336.5z M475 438q-14 -87 50 -143.5t190 -56.5t215.5 58t101.5 142q13 86 -45 145.5t-190 59.5q-137 4 -223 -57.5t-99 -147.5zM639 1042q-14 -72 31 -129t153 -57h4q108 0 174 57t80 129q12 68 -40.5 115t-153.5 47t-168 -46.5t-80 -115.5z" />
<glyph unicode="9" horiz-adv-x="1333" d="M143 188l217 170q85 -116 281 -116q53 0 112 23.5t115.5 68t102.5 120t67 169.5h-8q-50 -62 -146.5 -103t-195.5 -41q-98 0 -185.5 33.5t-152 93.5t-93.5 153.5t-9 203.5q37 215 219.5 354t433.5 139q182 0 303 -89t165.5 -249t6.5 -368q-30 -163 -95 -302t-161 -245 t-228.5 -166t-285.5 -60q-151 0 -273.5 55t-189.5 156zM557 961q-19 -108 37.5 -174t175.5 -66q131 0 210.5 66t98.5 161q16 100 -40.5 175t-176.5 75q-107 0 -197.5 -68.5t-107.5 -168.5z" />
<glyph unicode=":" horiz-adv-x="630" d="M147 154q13 78 78 129t150 51q82 0 127.5 -51t32.5 -129q-14 -75 -78 -126t-146 -51q-84 0 -131 51t-33 126zM281 893q14 78 76.5 129t146.5 51q82 0 129.5 -51.5t34.5 -128.5q-13 -75 -79.5 -125.5t-148.5 -50.5q-84 0 -128.5 50t-30.5 126z" />
<glyph unicode=";" horiz-adv-x="618" d="M51 -207q88 31 161.5 95.5t84.5 131.5q-70 -4 -108.5 46.5t-30.5 113.5q11 75 66.5 125.5t146.5 50.5q43 0 74 -15t45.5 -39t23.5 -52.5t7 -55.5t-3 -49q-16 -92 -77 -188t-153 -171.5t-190 -104.5zM272 893q14 78 77 129t147 51q82 0 129 -51.5t34 -128.5 q-13 -75 -79 -125.5t-148 -50.5q-84 0 -129 50t-31 126z" />
<glyph unicode="&#x3c;" horiz-adv-x="1210" d="M145 459l39 225l1067 426h41l-49 -274l-725 -265l631 -264l-47 -274h-41z" />
<glyph unicode="=" horiz-adv-x="1265" d="M168 260l45 246h1016l-45 -246h-1016zM266 803l43 246h1016l-43 -246h-1016z" />
<glyph unicode="&#x3e;" horiz-adv-x="1210" d="M117 33l49 274l727 264l-635 265l51 274h41l914 -426l-39 -225l-1067 -426h-41z" />
<glyph unicode="?" horiz-adv-x="1103" d="M258 1077q13 65 53.5 129.5t106 121.5t166 92.5t217.5 35.5q217 0 332.5 -114.5t83.5 -303.5q-24 -133 -129 -241.5t-314 -227.5q-19 -10 -29.5 -28t-14.5 -41l-5 -23h-285q10 46 13.5 61.5t14 49t22 49.5t32.5 41t50.5 46t70.5 44q131 74 192.5 129.5t77.5 134.5 q13 76 -33.5 120t-125.5 44q-76 0 -135.5 -40t-71.5 -109q-8 -35 4 -103h-291q-17 56 -2 133zM334 154q13 78 77.5 129t149.5 51q82 0 127.5 -51t32.5 -129q-14 -75 -77.5 -126t-145.5 -51q-84 0 -131 51t-33 126z" />
<glyph unicode="@" horiz-adv-x="2070" d="M146 236.5q-10 126.5 16 265.5q36 208 141 390t255.5 311t343 203.5t398.5 74.5q208 0 372 -67t265.5 -185.5t140.5 -286t5 -364.5q-30 -165 -83.5 -287t-125.5 -194.5t-155.5 -107t-182.5 -34.5q-139 0 -193.5 59t-46.5 166q-63 -70 -158.5 -107.5t-187.5 -37.5 q-128 0 -217 63.5t-124 169.5t-13 234q33 196 181 331.5t345 135.5q193 0 275 -135l20 114h203l-127 -717q-10 -56 10 -82t60 -26q117 5 205 117.5t128 337.5q38 207 -28 371t-223 256.5t-379 92.5q-165 0 -320.5 -61.5t-275.5 -167t-205 -253t-115 -314.5 q-22 -136 -11 -255t61 -217.5t126.5 -169.5t186 -110t239.5 -39q109 0 221.5 21t200.5 61l58 -158q-116 -50 -251 -78t-259 -28q-137 0 -256.5 33.5t-210 95t-159 149t-104.5 195.5t-46 234.5zM797 502q-21 -122 38.5 -204.5t182.5 -82.5q119 0 207.5 77t111.5 206 q23 128 -38 209t-185 81q-123 0 -209.5 -82t-107.5 -204z" />
<glyph unicode="A" horiz-adv-x="1443" d="M12 0l805 1434h309l310 -1434h-332l-57 268v-4h-564v4l-143 -268h-328zM616 524h388l-91 574z" />
<glyph unicode="B" horiz-adv-x="1355" d="M170 0l254 1436l537 -2q222 0 345 -106q98 -84 98 -215q0 -34 -7 -71q-18 -96 -93 -177.5t-194 -121.5q79 -16 139 -69q60 -54 86 -126q17 -48 18 -96q0 -24 -5 -49q-32 -182 -191 -292.5t-387 -110.5h-600zM530 252h283q81 0 142 43.5t73 114.5q3 30 3.5 58.5t-15 54 t-43.5 45t-82.5 31t-130.5 11.5h-166zM633 831h131q273 0 307 197q3 16 3 31q0 52 -36 83q-46 40 -123 40h-221z" />
<glyph unicode="C" horiz-adv-x="1421" d="M205 717q27 150 106 284t196 235t277 160.5t338 59.5q157 0 269.5 -45.5t214.5 -134.5l-174 -242q-78 68 -161.5 104t-197.5 36q-213 0 -363.5 -130.5t-183.5 -326.5q-8 -45 -7 -88q1 -47 9 -91q18 -84 64.5 -145.5t128 -97t188.5 -35.5q205 0 408 139l88 -241 q-135 -90 -261.5 -135.5t-283.5 -45.5q-177 0 -316 59.5t-221 161.5q-81 101 -113 235q-17 72 -17 149q0 66 12 135z" />
<glyph unicode="D" horiz-adv-x="1550" d="M170 0l252 1434h536q171 0 305.5 -56.5t214.5 -153.5t111 -228q17 -70 17 -145q0 -65 -13 -134q-27 -148 -103.5 -278.5t-190 -228t-267 -154t-325.5 -56.5h-537zM530 252h220q198 0 344.5 134t179.5 331q9 50 9 97q1 73 -21 137q-34 105 -125 168t-224 63h-219z" />
<glyph unicode="E" horiz-adv-x="1218" d="M170 0l252 1434h952l-45 -252h-635l-61 -353h551l-45 -251h-551l-58 -326h635l-43 -252h-952z" />
<glyph unicode="F" horiz-adv-x="1198" d="M170 0l252 1434h952l-45 -252h-635l-61 -353h551l-45 -251h-551l-101 -578h-317z" />
<glyph unicode="G" horiz-adv-x="1503" d="M205 717q27 150 105 284t193.5 235t273 160.5t333.5 59.5q156 0 269 -46.5t214 -137.5l-198 -236q-153 129 -326 129q-101 0 -187 -27.5t-146.5 -72.5t-106.5 -105t-71.5 -121.5t-37.5 -125.5q-8 -48 -8 -92q0 -134 76 -228q100 -125 295 -125q160 0 276 54l35 204h-363 l46 254h659l-102 -583q-285 -220 -598 -220q-162 0 -294.5 59t-214.5 158.5t-115 235.5q-19 75 -19 155q0 65 12 132z" />
<glyph unicode="H" horiz-adv-x="1519" d="M170 0l252 1434h317l-108 -623h545l108 623h318l-252 -1434h-318l98 559h-544l-99 -559h-317z" />
<glyph unicode="I" horiz-adv-x="657" d="M170 0l252 1434h317l-252 -1434h-317z" />
<glyph unicode="J" horiz-adv-x="1351" d="M125 382q2 50 8 99q21 127 115 240h293q-82 -107 -101 -217q-7 -27 -7 -55q0 -19 3 -37q8 -47 28 -84t66 -60.5t111 -23.5q153 0 234 95t118 294l144 803h315l-141 -803q-59 -327 -241 -491.5t-472 -164.5q-86 0 -157.5 16t-121.5 44t-89 66.5t-60 83.5t-34 95 q-11 42 -11 86v14z" />
<glyph unicode="K" horiz-adv-x="1359" d="M168 0l252 1434h313l-117 -658l541 658h326l-6 -41l-566 -662l125 -317q45 -110 75 -139t95 -29q37 0 109 35l74 -226q-137 -78 -291 -78q-251 0 -353 291l-149 391v-4l-115 -655h-313z" />
<glyph unicode="L" horiz-adv-x="1177" d="M170 0l252 1434h317l-209 -1182h650l-43 -252h-967z" />
<glyph unicode="M" horiz-adv-x="1921" d="M106 0l386 1434h319l231 -965l572 965h319l-118 -1434h-318l78 872l-512 -856h-205l-205 856l-229 -872h-318z" />
<glyph unicode="N" horiz-adv-x="1529" d="M166 2l254 1432h244l479 -865l151 865h318l-252 -1434h-242l-479 872l-156 -870h-317z" />
<glyph unicode="O" horiz-adv-x="1648" d="M205 717q35 201 165.5 371t319.5 269t391 99t355 -99q152 -99 222 -269q47 -114 47 -242q0 -63 -11 -129q-27 -150 -110.5 -287t-201 -236.5t-265.5 -158t-298 -58.5q-152 0 -279 58.5t-209 158t-117 236.5q-20 79 -20 161q0 62 11 126zM518 717q-8 -47 -8 -90 q0 -136 77 -232q101 -127 281 -127t330 128t182 321q8 47 8 90q0 135 -77 231q-101 126 -281 127q-181 0 -330.5 -127.5t-181.5 -320.5z" />
<glyph unicode="P" horiz-adv-x="1318" d="M170 0l252 1434h629q108 0 190.5 -38t126.5 -102t62 -149q9 -42 9 -86q0 -46 -9 -94q-35 -197 -182.5 -328t-360.5 -131h-312l-88 -506h-317zM621 756h270q84 0 142.5 58.5t76.5 152.5q5 30 5 56q-1 61 -27 101q-38 58 -123 58h-271z" />
<glyph unicode="Q" horiz-adv-x="1652" d="M203 717q37 201 168 371t321 269t393 99q201 0 356 -99t225 -269q47 -112 47 -237q0 -65 -13 -134q-29 -166 -134 -317.5t-254 -256t-313 -145.5q-2 -16 -2 -31q0 -56 37 -89q47 -40 137 -40q50 0 122 21t130 55l58 -223q-186 -113 -379 -113q-203 0 -317 120 q-93 98 -93 230q0 29 4 60q-124 25 -227 91.5t-170 161.5t-93 219q-14 65 -14 133q0 61 11 124zM520 717q-8 -47 -8 -89q0 -136 78 -233q102 -127 282 -127t329 128t181 321q8 47 8 90q0 135 -77 231q-101 127 -281 127q-181 0 -330.5 -127.5t-181.5 -320.5z" />
<glyph unicode="R" horiz-adv-x="1443" d="M168 0l252 1434h637q87 0 157 -24.5t115.5 -68t74.5 -103.5q29 -58 33 -128q1 -19 1 -38q0 -52 -8 -109q-30 -155 -130.5 -271t-248.5 -160q4 -63 14 -108.5t30 -85t56 -60t88 -20.5q84 0 158 61l73 -219q-95 -64 -168 -93.5t-174 -29.5q-96 0 -168 41.5t-110 101 t-60 137t-27 138.5q-3 34 -3 66q0 25 2 49h-191l-88 -510h-315zM616 764h281q85 0 142 54.5t75 146.5q5 29 5 54q1 55 -25 93q-38 54 -123 55h-281z" />
<glyph unicode="S" horiz-adv-x="1206" d="M127 399l293 56q11 -97 67 -147t156 -50q93 0 163 37t81 111q2 10 2 20q-1 34 -23 63q-28 37 -118 70l-148 53q-72 26 -126.5 60.5t-86 72.5t-51.5 76.5t-25.5 79t-5.5 72.5t6 65q32 190 189 304t370 114q168 0 277.5 -80t144.5 -233l-280 -129q-37 162 -193 162 q-79 0 -132 -33t-64 -101q-2 -10 -2 -20q0 -86 129 -133l139 -49q73 -26 129.5 -60t90.5 -71t55.5 -74.5t29.5 -78t8 -74.5t-6 -70q-20 -109 -79.5 -194.5t-142.5 -136.5t-177.5 -77.5t-192.5 -26.5q-138 0 -250 49q-110 48 -174 146q-54 83 -55 190q0 18 2 37z" />
<glyph unicode="T" horiz-adv-x="1222" d="M256 1167l45 267h1124l-45 -267h-407l-207 -1167h-313l206 1167h-403z" />
<glyph unicode="U" horiz-adv-x="1492" d="M250 543l156 891h317l-156 -891q-7 -40 -6 -75q1 -90 45 -146q62 -78 180 -78t213 78.5t119 220.5l156 891h317l-155 -891q-24 -135 -90.5 -243.5t-160.5 -178.5t-207.5 -107t-236.5 -37q-122 0 -222 37t-169 107q-68 71 -96 179q-15 58 -15 123q0 57 11 120z" />
<glyph unicode="V" horiz-adv-x="1384" d="M291 1434h336l139 -1018l496 1018h335l-759 -1434h-293z" />
<glyph unicode="W" horiz-adv-x="2039" d="M299 1434h324l112 -879l412 831h235l115 -831l424 879h324l-703 -1434h-252l-116 868l-424 -868h-252z" />
<glyph unicode="X" horiz-adv-x="1404" d="M8 0l6 41l641 717l-356 635l6 41h371l203 -426l354 426h371l-7 -41l-581 -635l387 -717l-6 -41h-373l-236 500l-407 -500h-373z" />
<glyph unicode="Y" horiz-adv-x="1492" d="M283 1393l6 41h368l240 -560h2l440 560h369l-6 -41l-694 -805l-103 -588h-317l102 584z" />
<glyph unicode="Z" horiz-adv-x="1376" d="M59 0l35 205l948 977h-716l45 252h1142l-34 -207l-957 -975h834l-43 -252h-1254z" />
<glyph unicode="[" horiz-adv-x="821" d="M49 -479l357 2015h632l-43 -242h-338l-270 -1532h338l-43 -241h-633z" />
<glyph unicode="\" horiz-adv-x="1134" d="M317 1513h250l504 -1587h-248z" />
<glyph unicode="]" horiz-adv-x="821" d="M-29 -479l39 241h338l270 1532h-337l43 242h632l-356 -2015h-629z" />
<glyph unicode="^" horiz-adv-x="1136" d="M190 670l517 764h227l248 -764h-277l-133 483q-44 -65 -155 -243.5t-152 -239.5h-275z" />
<glyph unicode="_" horiz-adv-x="1472" d="M-63 -371l45 246h1468l-45 -246h-1468z" />
<glyph unicode="`" horiz-adv-x="1150" d="M535 1536h321l139 -354h-221z" />
<glyph unicode="a" d="M162 530q18 111 69 209.5t127.5 172.5t181.5 117.5t224 43.5q103 0 183.5 -45.5t123.5 -120.5l27 144h305l-186 -1051h-306l25 154q-77 -87 -163 -132t-198 -45q-155 0 -259 75q-106 74 -144 199q-22 72 -22 154q0 60 12 125zM467 528q-7 -39 -8 -74q0 -82 42 -142 q59 -86 183 -87q118 0 209 75.5t115 211.5q8 42 8 79q0 90 -46 150q-64 84 -190 84q-121 0 -206.5 -85.5t-106.5 -211.5z" />
<glyph unicode="b" d="M131 0l260 1481h305l-100 -574q68 75 165 120.5t200 45.5q81 0 148.5 -19.5t115 -55.5t83 -86t51.5 -110q17 -60 21 -129q1 -17 1 -34q0 -53 -11 -109q-21 -115 -74 -216t-130.5 -176t-182.5 -118t-223 -43q-112 0 -183 45t-116 132l-25 -154h-305zM518 512 q-7 -37 -7 -69q-1 -87 47 -143q64 -76 183 -75q125 0 211.5 85.5t112.5 217.5q6 35 6 67q1 83 -39 145q-54 85 -178 85q-127 0 -219.5 -84t-116.5 -229z" />
<glyph unicode="c" horiz-adv-x="1130" d="M156 526q42 237 231 392t455 155q221 0 403 -155l-178 -224q-98 105 -260 105q-134 0 -228.5 -75.5t-117.5 -197.5q-5 -28 -5 -53q0 -86 53 -144q68 -75 202 -75q158 0 295 104l100 -223q-239 -155 -459 -155q-176 0 -298 71.5t-171 195.5q-32 80 -32 173q0 51 10 106z " />
<glyph unicode="d" horiz-adv-x="1349" d="M162 530q18 111 69 209.5t127.5 172.5t181.5 117.5t224 43.5q103 0 183.5 -45.5t123.5 -120.5l100 574h306l-260 -1481h-306l25 154q-77 -87 -163 -132t-198 -45q-155 0 -259 75q-106 74 -144 199q-22 72 -22 154q0 60 12 125zM467 528q-7 -39 -8 -74q0 -82 42 -142 q59 -86 183 -87q118 0 209 75.5t115 211.5q8 42 8 79q0 90 -46 150q-64 84 -190 84q-121 0 -206.5 -85.5t-106.5 -211.5z" />
<glyph unicode="e" horiz-adv-x="1261" d="M156 520q40 233 234 393t444 160q89 0 167 -24t141.5 -73t103.5 -123q41 -73 55 -173q6 -40 5 -84q0 -66 -12 -141h-845q-2 -16 -2 -31q1 -80 63 -134q74 -64 219 -63q79 0 160.5 34t150.5 91l148 -168q-123 -112 -261.5 -159.5t-264.5 -47.5q-142 0 -250 42.5 t-170 116.5q-62 75 -84 173q-12 52 -11 108q0 50 9 103zM485 639h527v8q0 43 -18 77q-20 38 -55.5 59t-74.5 31.5t-80 10.5q-39 0 -80 -9.5t-83.5 -30t-78.5 -58.5t-57 -88z" />
<glyph unicode="f" horiz-adv-x="821" d="M203 811l41 231h147l10 70q20 110 65 189t106.5 121.5t126.5 61.5t139 19q72 0 126.5 -17.5t86 -47.5t50.5 -70.5t20 -85.5v-13q0 -39 -5 -79q-7 -34 -20 -57h-236q10 8 17 34q2 12 2 23q0 25 -11 44q-16 26 -57 26t-64 -29t-30 -70l-21 -119h236l-41 -231h-236 l-143 -811h-305l143 811h-147z" />
<glyph unicode="g" horiz-adv-x="1349" d="M86 -356l162 237q40 -44 127 -81.5t168 -37.5q328 0 375 277l18 115q-77 -87 -163 -132t-198 -45q-155 0 -259.5 74.5t-143.5 199.5q-22 72 -22 154q0 60 12 125q18 111 69 209.5t127.5 172.5t181.5 117.5t224 43.5q103 0 183.5 -45.5t123.5 -120.5l27 144h305l-176 -977 q-21 -121 -69 -219t-112.5 -163.5t-145.5 -110t-167 -64t-178 -19.5q-320 0 -469 146zM467 528q-7 -39 -7 -74q0 -82 41 -142q59 -87 183 -87q116 0 209 76t117 211q7 42 7 78q0 91 -45 151q-65 84 -192 84q-121 0 -206.5 -85.5t-106.5 -211.5z" />
<glyph unicode="h" horiz-adv-x="1257" d="M133 0l260 1481h305l-100 -574q147 166 354 166q86 0 147.5 -27t95.5 -72q34 -44 49 -110q13 -56 12 -117v-21q-2 -72 -17 -155l-100 -571h-305l98 565q8 44 8 82q0 61 -22 104q-36 70 -134 70q-101 0 -164 -71t-83 -187l-99 -563h-305z" />
<glyph unicode="i" horiz-adv-x="575" d="M135 0l187 1051h305l-187 -1051h-305zM332 1329q13 77 76.5 125.5t148.5 48.5q83 -1 129 -49q36 -38 36 -92q0 -16 -3 -33q-13 -74 -77 -122t-146 -48q-85 -1 -131 47q-36 37 -36 91q0 15 3 32z" />
<glyph unicode="j" horiz-adv-x="655" d="M-229 -280q-1 11 -1 22q0 35 5 70q5 37 22 57h238q-4 -5 -6 -19.5t-2 -15.5q-3 -14 -3 -27q0 -22 10 -39q14 -26 56 -26q41 0 64 28.5t30 69.5l217 1211h306l-209 -1162q-20 -110 -64.5 -189.5t-105.5 -122t-126 -61t-139 -18.5q-71 0 -127 17.5t-88.5 48t-53.5 70.5 t-23 86zM410 1329q13 77 76.5 125.5t148.5 48.5q83 0 129 -49q36 -37 36 -92q0 -16 -3 -33q-13 -74 -77 -122t-147 -48q-85 0 -131 47q-35 37 -35 91q0 15 3 32z" />
<glyph unicode="k" horiz-adv-x="1222" d="M129 0l260 1481h305l-151 -856l377 426h337l-10 -41l-424 -439l97 -219q29 -54 56 -74t71 -20q22 0 56 9.5t62 27.5l78 -215q-134 -103 -293 -103q-206 0 -278 160l-156 340l-82 -477h-305z" />
<glyph unicode="l" horiz-adv-x="575" d="M135 0l260 1481h305l-260 -1481h-305z" />
<glyph unicode="m" horiz-adv-x="1863" d="M131 0l186 1051h306l-27 -144q140 166 309 166q118 0 191 -46.5t100 -129.5q126 176 363 176q304 0 304 -325q0 -79 -18 -177l-100 -571h-305l98 565q11 52 11 95q-1 53 -17 91q-30 70 -123 70q-172 0 -221 -258l-98 -563h-304l99 565q11 52 11 95q0 53 -16 91 q-30 70 -124 70q-172 0 -221 -258l-99 -563h-305z" />
<glyph unicode="n" horiz-adv-x="1255" d="M131 0l186 1051h306l-27 -144q147 166 354 166q86 0 147.5 -27t95.5 -72q34 -44 49 -110q13 -56 12 -117v-21q-2 -72 -17 -155l-100 -571h-306l99 565q8 44 8 82q0 61 -22 104q-36 70 -134 70q-101 0 -164 -71t-83 -187l-99 -563h-305z" />
<glyph unicode="o" horiz-adv-x="1286" d="M156 526q22 120 87.5 223.5t157 173.5t203.5 110t227 40q114 0 212 -40t165 -110.5t96 -174.5q16 -59 16 -122q0 -48 -9 -100q-20 -120 -86 -224t-158 -174.5t-204.5 -110.5t-225.5 -40q-115 0 -212.5 40t-164 110.5t-95.5 174.5q-17 61 -17 128q0 47 8 96zM453 526 q-6 -31 -6 -60q-1 -84 51 -144q70 -82 184 -82q116 0 211.5 82t120.5 204q6 31 6 60q0 80 -50 142q-68 82 -184 83q-115 0 -211.5 -81.5t-121.5 -203.5z" />
<glyph unicode="p" d="M45 -479l272 1530h306l-29 -154q76 87 162 131.5t198 44.5q155 0 260 -74.5t144 -199.5q22 -72 22 -154q0 -60 -12 -125q-18 -111 -69 -209.5t-127.5 -172.5t-181.5 -117.5t-224 -43.5q-103 0 -183.5 45.5t-123.5 120.5l-109 -622h-305zM520 539q-7 -42 -7 -78 q0 -91 45 -151q65 -85 192 -85q121 0 206.5 85.5t106.5 211.5q7 39 7 74q0 82 -41 142q-59 87 -183 87q-117 0 -209.5 -75.5t-116.5 -210.5z" />
<glyph unicode="q" d="M150 377q-1 17 -1 34q0 53 11 109q21 115 74 216t130.5 176t182.5 118t223 43q112 0 183 -45t116 -131l29 154h305l-273 -1530h-305l109 622q-68 -75 -165 -120.5t-200 -45.5q-81 0 -148.5 19.5t-115 55.5t-83 86t-51.5 110t-21 129zM465 522q-6 -35 -6 -67 q0 -84 39 -145q55 -85 178 -85q126 0 218 84t118 230q6 37 6 69q0 87 -47 142q-65 75 -183 75q-125 0 -211 -85t-112 -218z" />
<glyph unicode="r" horiz-adv-x="821" d="M131 0l186 1051h297l-41 -230q23 67 66 118.5t91.5 79t93 41t81.5 13.5q35 0 76 -8l-53 -301q-57 14 -127 14q-94 0 -169.5 -54t-94.5 -153l-101 -571h-305z" />
<glyph unicode="s" horiz-adv-x="985" d="M90 246l244 125q7 -84 62.5 -121t131.5 -37q55 0 98.5 20.5t53.5 59.5q1 5 1 10q0 40 -67 70l-170 73q-210 90 -210 267q0 19 2 39q27 152 159.5 236.5t309.5 84.5q261 0 339 -221l-253 -109q-7 39 -31.5 63t-49 31t-53.5 7q-45 0 -83 -23t-48 -63q-4 -17 0.5 -30 t19.5 -24.5t27 -18t37 -17.5l146 -56q218 -83 218 -262q0 -23 -3 -47q-19 -104 -92.5 -179t-175.5 -111t-220 -36q-65 0 -124 12t-117.5 40t-99 83.5t-52.5 133.5z" />
<glyph unicode="t" horiz-adv-x="937" d="M188 811l43 240h181l90 258h235l-43 -258h291l-43 -240h-291l-88 -492q-2 -13 -3 -25q0 -24 10 -41q14 -26 55 -26t65 28.5t31 70.5q7 34 7 58q0 20 -5 32h242q9 -26 10 -63q0 -28 -6 -62q-10 -60 -41 -115t-80.5 -100t-123.5 -72t-163 -27q-42 0 -78 4.5t-71.5 16 t-62 30t-49.5 47t-33 67.5t-13 90q-1 10 -1 20q0 44 11 96l82 463h-158z" />
<glyph unicode="u" horiz-adv-x="1257" d="M184 324q2 71 17 155l102 572h305l-100 -566q-8 -45 -9 -83q0 -60 22 -103q35 -70 136 -70t162.5 70.5t83.5 187.5l101 564h307l-187 -1051h-305l23 143q-147 -166 -355 -166q-86 0 -147.5 27t-95 72.5t-48.5 111.5q-13 56 -13 116q1 10 1 20z" />
<glyph unicode="v" horiz-adv-x="1226" d="M209 1051h334l129 -709l385 709h334l-625 -1051h-303z" />
<glyph unicode="w" horiz-adv-x="1699" d="M221 1051h336l68 -633l299 604h213l82 -604l297 633h335l-125 -240l-436 -811h-260l-78 596l-282 -596h-260l-150 811z" />
<glyph unicode="x" horiz-adv-x="1224" d="M12 0l6 41l506 502l-295 473l9 35h356l154 -289l256 289h356l-8 -35l-463 -473l330 -502l-7 -41h-348l-194 330l-310 -330h-348z" />
<glyph unicode="y" horiz-adv-x="1218" d="M129 -479l340 567l-260 963h344l131 -658l369 658h336l-953 -1530h-307z" />
<glyph unicode="z" horiz-adv-x="1198" d="M66 0l28 178l705 633h-561l43 240h1003l-33 -181l-700 -626h623l-41 -244h-1067z" />
<glyph unicode="{" horiz-adv-x="780" d="M96 -178q8 48 33.5 115.5t48 114t58.5 118.5q6 12 31.5 57.5t44.5 85.5t22 64q3 13 -25 22l-162 39l27 168l178 39q31 7 35 23q4 24 -1 63.5t-14.5 84t-11.5 58.5q-25 197 -23 277q1 40 7 72q13 80 55.5 141.5t102.5 98t129 55t143 18.5q67 0 219 -16l-37 -195 q-131 16 -174 16q-75 0 -111 -38.5t-48 -104.5q-11 -67 3 -157.5t28 -178t3 -147.5q-27 -137 -178 -176l-6 -33q75 -22 102.5 -69.5t16.5 -106.5q-8 -48 -39 -114.5t-64 -122.5t-65 -125t-41 -122q-26 -143 109 -143q41 0 180 16l-33 -194q-170 -17 -225 -17 q-75 0 -137 18.5t-108 55t-66 98.5t-7 142z" />
<glyph unicode="|" horiz-adv-x="446" d="M49 -479l361 2035h176l-361 -2035h-176z" />
<glyph unicode="}" horiz-adv-x="780" d="M-27 -475l31 194q129 -16 174 -16q136 0 162 143q11 66 -3 156.5t-28.5 179t-5.5 148.5q26 136 178 176l4 33q-73 22 -99.5 69.5t-14.5 106.5q9 48 40.5 114t64.5 121.5t64 124.5t40 123q26 143 -109 143q-43 0 -182 -16l35 195q152 16 223 16q75 0 136.5 -18.5t108 -55 t66 -98t6.5 -141.5q-19 -112 -139 -349q-6 -12 -31.5 -58t-44 -84.5t-22.5 -63.5q-4 -16 22 -23l164 -39l-29 -168l-176 -39q-33 -7 -33 -22q0 -26 3.5 -60t6.5 -56.5t8.5 -53.5t6.5 -37q32 -246 14 -348q-13 -80 -55 -142t-102 -98.5t-128.5 -55t-142.5 -18.5 q-60 0 -213 17z" />
<glyph unicode="~" horiz-adv-x="1167" d="M209 625q44 78 129 132t182 54q63 0 119.5 -21t91.5 -46.5t79.5 -46.5t84.5 -21q108 0 197 112l86 -163q-49 -87 -136 -140t-180 -53q-57 0 -109.5 21t-86 45.5t-81 45.5t-96.5 21q-56 0 -109 -28.5t-87 -81.5z" />
<glyph unicode="&#xa1;" horiz-adv-x="579" d="M35 -383h371l8 59l88 895h-223l-236 -895zM254 897q14 76 76.5 126t146.5 50q82 0 129.5 -50.5t34.5 -125.5q-13 -77 -79 -128.5t-148 -51.5q-84 0 -129 51t-31 129z" />
<glyph unicode="&#xa2;" horiz-adv-x="1169" d="M170 526q21 114 79 213t143.5 172.5t201.5 116.5t246 45l67 180h158l-76 -196q141 -30 271 -139l-181 -224q-75 78 -180 97l-197 -537h21q158 0 295 104l100 -223q-239 -155 -456 -155q-9 0 -27 1t-27 1l-71 -191h-156l76 217q-168 54 -245 193t-42 325zM475 526 q-27 -157 86 -231l180 496q-104 -23 -175.5 -94t-90.5 -171z" />
<glyph unicode="&#xa3;" horiz-adv-x="1304" d="M74 0l43 252q89 7 154 23.5t102 40t60.5 53.5t29 63t7.5 68t-3 69h-252l25 148h192q-45 210 -24 323q32 183 195 299.5t376 116.5q70 0 129.5 -13.5t101 -38t74.5 -57.5t51 -71t29.5 -80t10 -84.5t-6.5 -83.5h-287q13 72 -25 117t-130 45q-89 0 -150 -43.5t-74 -120.5 q-19 -96 29 -309h361l-25 -148h-305q11 -87 -28 -170.5t-120 -146.5l-4 -16q53 6 155.5 11t133.5 5h369l-43 -252h-1151z" />
<glyph unicode="&#xa4;" horiz-adv-x="1114" d="M143 352l152 127q-30 82 -12 193q19 98 77 180l-98 125l182 158l97 -123q88 49 202 49q117 0 187 -49l137 123l129 -158q-66 -53 -143 -125q31 -95 12 -180q-18 -111 -82 -193l107 -127l-179 -155l-108 131q-89 -45 -197 -45q-112 0 -180 45l-158 -131zM510 670 q-12 -71 27 -120.5t106 -49.5t125 49.5t70 120.5q12 72 -27.5 122t-105.5 50q-67 0 -125 -50.5t-70 -121.5z" />
<glyph unicode="&#xa5;" horiz-adv-x="1538" d="M303 252l29 158h350l27 151h-351l27 158h258l-338 674l6 41h369l242 -560h2l438 560h369l-7 -41l-581 -674h258l-27 -158h-348l-27 -151h349l-29 -158h-348l-43 -252h-318l43 252h-350z" />
<glyph unicode="&#xa6;" horiz-adv-x="471" d="M61 -479l148 839h176l-147 -839h-177zM272 717l150 839h176l-149 -839h-177z" />
<glyph unicode="&#xa7;" horiz-adv-x="1232" d="M53 -100l150 211q193 -172 409 -172q105 0 168.5 36.5t71.5 85.5q7 44 -33.5 71.5t-116.5 47.5l-178 47q-94 27 -160 70.5t-97 93t-41 97.5t-1 96q12 72 63.5 138t133.5 116q-126 95 -105 258q19 107 103 190.5t202.5 126.5t247.5 43q111 0 229.5 -33t221.5 -94 l-154 -221q-186 104 -331 104q-86 0 -147 -29.5t-71 -76.5q-5 -32 21 -61.5t104 -51.5l170 -45q182 -50 265 -134t59 -220q-37 -192 -186 -270q132 -101 102 -252q-26 -160 -186.5 -269.5t-401.5 -109.5q-175 0 -306.5 57.5t-205.5 149.5zM508 596q-14 -88 104 -119l219 -55 q48 19 82 55.5t41 77.5q4 14 0.5 33.5t-11 38t-30 35t-55.5 24.5l-211 49q-119 -47 -139 -139z" />
<glyph unicode="&#xa8;" horiz-adv-x="1433" d="M524 1360q12 72 70.5 119t136.5 47q74 0 118 -47.5t32 -118.5q-12 -68 -72.5 -115t-134.5 -47q-78 0 -120 46.5t-30 115.5zM1032 1360q12 72 71 119t134 47q76 0 120 -47.5t32 -118.5q-12 -69 -73 -115.5t-136 -46.5t-117.5 46.5t-30.5 115.5z" />
<glyph unicode="&#xa9;" horiz-adv-x="1609" d="M207 717q27 151 107 287.5t193.5 235.5t258.5 157.5t295 58.5t274 -58.5t202 -157.5t110 -235.5t6 -287.5q-36 -201 -160.5 -371t-309 -269.5t-384.5 -99.5t-348.5 99.5t-213.5 269t-30 371.5zM354 717q-29 -161 22 -297t169.5 -215.5t277.5 -79.5q119 0 234.5 47 t206 126.5t155 189t86.5 229.5q29 161 -23.5 297t-172 215.5t-277.5 79.5t-304 -79.5t-245.5 -215.5t-128.5 -297zM539 717q30 163 161 275t314 112q85 0 145 -25.5t119 -77.5l-111 -147q-71 68 -182 68q-95 0 -161.5 -58t-84.5 -147q-18 -88 29 -146.5t143 -58.5 q107 0 211 68l56 -148q-80 -52 -147 -77t-152 -25q-122 0 -207.5 53.5t-119 141t-13.5 192.5z" />
<glyph unicode="&#xaa;" horiz-adv-x="1026" d="M223 393l31 164h707l-31 -164h-707zM307 1085q26 154 125.5 257.5t243.5 103.5q40 0 77.5 -11t72.5 -41t48 -75l21 115h235l-122 -697h-236l21 115q-40 -65 -111.5 -96t-134.5 -31q-98 0 -159 49.5t-79.5 129.5t-1.5 181zM555 1087q-11 -65 19 -109t90 -44q63 0 110 39 t64 110q12 71 -21.5 112.5t-97.5 41.5q-60 0 -106.5 -44t-57.5 -106z" />
<glyph unicode="&#xab;" horiz-adv-x="1296" d="M172 588l10 57l492 469l143 -156l-356 -342l233 -337l-198 -158zM739 588l11 57l491 469l143 -156l-356 -342l234 -337l-199 -158z" />
<glyph unicode="&#xac;" horiz-adv-x="1275" d="M223 731l45 246h1047l-109 -596h-250l62 350h-795z" />
<glyph unicode="&#xad;" horiz-adv-x="1067" d="M213 520l45 246h821l-45 -246h-821z" />
<glyph unicode="&#xae;" horiz-adv-x="1609" d="M207 717q27 151 107 287.5t193.5 235.5t258.5 157.5t295 58.5t274 -58.5t202 -157.5t110 -235.5t6 -287.5q-36 -201 -160.5 -371t-309 -269.5t-384.5 -99.5t-348.5 99.5t-213.5 269t-30 371.5zM354 717q-29 -161 22 -297t169.5 -215.5t277.5 -79.5q119 0 234.5 47 t206 126.5t155 189t86.5 229.5q29 161 -23.5 297t-172 215.5t-277.5 79.5t-304 -79.5t-245.5 -215.5t-128.5 -297zM584 336l131 751h336q117 0 171 -73t33 -180q-14 -79 -62.5 -139.5t-121.5 -86.5l113 -235l-4 -37h-199l-100 252h-54l-45 -252h-198zM852 741h117 q31 0 55.5 28t30.5 65q6 38 -6.5 66t-42.5 28h-117z" />
<glyph unicode="&#xaf;" horiz-adv-x="1177" d="M483 1237l37 211h645l-37 -211h-645z" />
<glyph unicode="&#xb0;" horiz-adv-x="851" d="M272 1130q25 147 144 249t270 102t233.5 -101.5t57.5 -249.5q-25 -146 -144 -246t-270 -100q-150 0 -233 100t-58 246zM457 1130q-12 -74 24.5 -121.5t112.5 -47.5q77 0 132 48t67 121q12 76 -25 125.5t-113 49.5t-131 -50t-67 -125z" />
<glyph unicode="&#xb1;" horiz-adv-x="1269" d="M145 125l41 229h1016l-41 -229h-1016zM256 733l39 230h375l51 272h268l-51 -272h373l-39 -230h-373l-49 -274h-268l49 274h-375z" />
<glyph unicode="&#xb2;" horiz-adv-x="667" d="M246 977v108l315 254q94 70 107 134q8 37 -11.5 58t-60.5 21q-48 0 -78 -33.5t-39 -74.5l-170 2q7 41 28 83.5t57.5 83.5t97 67t133.5 26q124 0 186 -62.5t43 -170.5q-19 -125 -195 -254l-116 -95q21 4 80 4h186l-29 -151h-534z" />
<glyph unicode="&#xb3;" horiz-adv-x="673" d="M223 1049l111 114q31 -24 64 -36t52.5 -13.5t51.5 -1.5q49 0 92 34.5t49 72.5q7 42 -20 71t-72 29q-35 0 -82 -14l-49 90l198 145h-280l29 150h524l-21 -105l-204 -160q88 -10 136 -68t34 -136q-18 -106 -119 -182t-242 -76q-87 0 -146.5 18t-105.5 68z" />
<glyph unicode="&#xb4;" horiz-adv-x="1150" d="M471 1182l266 354h322l-367 -354h-221z" />
<glyph unicode="&#xb5;" horiz-adv-x="1251" d="M61 -336l248 1387h305l-102 -566q-22 -116 13.5 -186t136.5 -70t162 70.5t83 187.5l103 564h305l-187 -1051h-305l23 143q-147 -166 -354 -166q-48 0 -89 9l-57 -322h-285z" />
<glyph unicode="&#xb6;" horiz-adv-x="1374" d="M256 1090q25 144 140.5 244t256.5 100h334l-4 -39q-42 -28 -68.5 -64.5t-37.5 -101.5l-271 -1520h-180l184 1041h-78q-143 0 -222 99t-54 241zM735 -291l266 1497q24 122 110 186t198 64q126 0 182.5 -63t38.5 -164l-8 -33q-15 -44 -31 -72h-172q9 13 15 25.5t9.5 22 t5 15.5t2.5 12t1 7q7 39 -14 59.5t-56 20.5q-37 0 -65.5 -22.5t-38.5 -65.5l-265 -1489h-178z" />
<glyph unicode="&#xb7;" horiz-adv-x="595" d="M205 573q14 78 77.5 129.5t147.5 51.5q82 0 128.5 -51.5t33.5 -129.5q-13 -75 -78 -125.5t-147 -50.5q-84 0 -130 50.5t-32 125.5z" />
<glyph unicode="&#xb8;" horiz-adv-x="931" d="M123 -236l166 72q33 -108 110 -108q48 0 79 25.5t38 74.5q2 13 2.5 28.5t-5 40t-18 46t-40 43t-66.5 34.5l6 41h158q54 -24 93 -60.5t55 -74.5t23.5 -78.5t-1.5 -70.5q-12 -67 -48.5 -116.5t-85.5 -75.5t-96 -38t-90 -12q-112 0 -182.5 63.5t-97.5 165.5z" />
<glyph unicode="&#xb9;" horiz-adv-x="495" d="M289 1563l317 127h109l-127 -713h-193l92 512l-176 -66z" />
<glyph unicode="&#xba;" horiz-adv-x="1001" d="M217 393l31 164h706l-30 -164h-707zM303 1083q18 98 88 182.5t168 132.5t197 48q154 0 252 -108t69 -255q-29 -151 -163.5 -258.5t-288.5 -107.5q-101 0 -181.5 48t-120 133t-20.5 185zM549 1083q-12 -66 20 -108.5t95 -42.5q60 0 107.5 42.5t59.5 108.5 q12 63 -20.5 106.5t-93.5 43.5q-62 0 -109 -43t-59 -107z" />
<glyph unicode="&#xbb;" horiz-adv-x="1296" d="M129 279l352 337l-233 342l201 156l323 -469l-10 -57l-492 -467zM696 279l353 337l-234 342l201 156l323 -469l-10 -57l-491 -467z" />
<glyph unicode="&#xbc;" horiz-adv-x="1744" d="M156 -80l1400 1585h175l-1403 -1585h-172zM289 1307l317 127h109l-127 -713h-193l92 512l-172 -66zM1028 178l16 101l429 434h184l-66 -389h142l-27 -146h-141l-31 -178h-193l31 178h-344zM1251 324h158l33 188z" />
<glyph unicode="&#xbd;" horiz-adv-x="1744" d="M156 -80l1400 1585h175l-1403 -1585h-172zM289 1307l317 127h109l-127 -713h-193l92 512l-172 -66zM1128 0v109l312 253q97 70 108 134q6 37 -12 58t-59 21q-49 0 -79.5 -34.5t-35.5 -73.5l-172 2q7 41 27.5 83.5t56.5 83.5t96 67t133 26q124 0 187.5 -62.5t44.5 -170.5 q-21 -129 -195 -254l-117 -95q23 5 78 5h187l-25 -152h-535z" />
<glyph unicode="&#xbe;" horiz-adv-x="1869" d="M211 793l111 114q29 -24 62 -36t52 -13.5t51 -1.5q49 0 92.5 34.5t49.5 72.5q7 42 -19 71t-71 29q-35 0 -82 -14l-49 90l200 145h-280l24 150h525l-21 -105l-201 -160q86 -10 133 -68t33 -136q-18 -107 -118 -182.5t-240 -75.5q-87 0 -146.5 18t-105.5 68zM291 -80 l1403 1585h174l-1405 -1585h-172zM1155 178l16 101l431 434h184l-68 -389h142l-27 -146h-141l-29 -178h-193l29 178h-344zM1378 324h158l33 188z" />
<glyph unicode="&#xbf;" horiz-adv-x="1085" d="M59 12q24 136 129 244.5t314 224.5q19 10 29.5 28t14.5 41l5 23h285q-9 -56 -17.5 -88t-29.5 -69.5t-57.5 -68t-96.5 -64.5q-131 -74 -192.5 -130t-77.5 -135q-13 -76 32.5 -119.5t124.5 -43.5q76 0 137 40t72 109q7 30 -6 102h291q18 -61 4 -133q-11 -65 -52.5 -130 t-107.5 -121.5t-167 -92t-218 -35.5q-217 0 -332.5 114.5t-83.5 303.5zM561 897q13 75 78 125.5t147 50.5q84 0 130 -50.5t32 -125.5q-14 -78 -77 -129t-148 -51q-82 0 -128.5 51t-33.5 129z" />
<glyph unicode="&#xc0;" horiz-adv-x="1443" d="M12 0h328l143 268v-4h564v4l57 -268h332l-310 1434h-309zM616 524l297 574l91 -574h-388zM705 1851h321l121 -315h-221z" />
<glyph unicode="&#xc1;" horiz-adv-x="1443" d="M12 0h328l143 268v-4h564v4l57 -268h332l-310 1434h-309zM616 524l297 574l91 -574h-388zM838 1536l235 315h322l-336 -315h-221z" />
<glyph unicode="&#xc2;" horiz-adv-x="1443" d="M12 0h328l143 268v-4h564v4l57 -268h332l-310 1434h-309zM616 524l297 574l91 -574h-388zM637 1536l262 315h301l150 -315h-209l-117 162l-178 -162h-209z" />
<glyph unicode="&#xc3;" horiz-adv-x="1443" d="M12 0h328l143 268v-4h564v4l57 -268h332l-310 1434h-309zM610 1587q59 126 123 188t158 62q64 0 154.5 -35t117.5 -35q41 0 66.5 20t58.5 68l146 -45q-59 -125 -123 -187t-158 -62q-65 0 -153.5 34.5t-116.5 34.5q-41 0 -66.5 -20t-58.5 -68zM616 524l297 574l91 -574 h-388z" />
<glyph unicode="&#xc4;" horiz-adv-x="1443" d="M12 0h328l143 268v-4h564v4l57 -268h332l-310 1434h-309zM594 1692q12 71 67 112t134 41q75 0 117 -41.5t30 -111.5q-12 -68 -69 -109t-132 -41q-78 0 -118.5 40.5t-28.5 109.5zM616 524l297 574l91 -574h-388zM1102 1692q12 71 67 112t131 41q77 0 119.5 -41.5 t30.5 -111.5q-12 -68 -69 -109t-134 -41q-76 0 -116.5 41t-28.5 109z" />
<glyph unicode="&#xc5;" horiz-adv-x="1443" d="M12 0l803 1430q-83 66 -63 178q20 104 102.5 166.5t189.5 62.5q109 0 171 -63t42 -166q-20 -117 -129 -181l308 -1427h-332l-57 268v-4h-564v4l-143 -268h-328zM616 524h388l-91 574zM893 1608q-7 -45 19.5 -67.5t76.5 -22.5t84 22.5t41 67.5q7 46 -19 71t-75 25 t-84.5 -25t-42.5 -71z" />
<glyph unicode="&#xc6;" horiz-adv-x="1865" d="M-14 0l1013 1434h1022l-45 -252h-573l-66 -375h490l-45 -252h-490l-53 -303h573l-43 -252h-890l92 537h-277q-47 -70 -197.5 -284t-177.5 -253h-333zM854 786h162l59 334z" />
<glyph unicode="&#xc7;" horiz-adv-x="1421" d="M205 717q27 150 106.5 284t197.5 235t278 160.5t337 59.5q156 0 268 -45.5t214 -134.5l-174 -242q-76 67 -160.5 103.5t-198.5 36.5q-212 0 -363 -131t-184 -326q-33 -196 70.5 -326.5t314.5 -130.5q114 0 210 35.5t198 103.5l88 -241q-122 -80 -232.5 -124t-242.5 -54 q76 -88 57 -203q-12 -67 -48.5 -116.5t-85 -75.5t-95.5 -38t-90 -12q-112 0 -183 64t-98 165l166 72q33 -108 111 -108q100 0 118 100q7 33 -5.5 78.5t-59.5 81.5q-191 29 -320.5 135t-178 260t-15.5 334z" />
<glyph unicode="&#xc8;" horiz-adv-x="1218" d="M170 0l252 1434h952l-45 -252h-635l-61 -353h551l-45 -251h-551l-58 -326h635l-43 -252h-952zM614 1851h322l121 -315h-221z" />
<glyph unicode="&#xc9;" horiz-adv-x="1218" d="M170 0l252 1434h952l-45 -252h-635l-61 -353h551l-45 -251h-551l-58 -326h635l-43 -252h-952zM700 1536l236 315h321l-335 -315h-222z" />
<glyph unicode="&#xca;" horiz-adv-x="1218" d="M170 0l252 1434h952l-45 -252h-635l-61 -353h551l-45 -251h-551l-58 -326h635l-43 -252h-952zM555 1536l262 315h301l150 -315h-209l-117 162l-178 -162h-209z" />
<glyph unicode="&#xcb;" horiz-adv-x="1218" d="M170 0l252 1434h952l-45 -252h-635l-61 -353h551l-45 -251h-551l-58 -326h635l-43 -252h-952zM504 1692q12 71 67 112t134 41q75 0 117 -41.5t30 -111.5q-12 -68 -69 -109t-132 -41q-78 0 -118.5 40.5t-28.5 109.5zM1012 1692q12 71 67 112t131 41q77 0 119.5 -41.5 t30.5 -111.5q-12 -68 -69 -109t-134 -41q-76 0 -116.5 41t-28.5 109z" />
<glyph unicode="&#xcc;" horiz-adv-x="657" d="M170 0h317l252 1434h-317zM326 1851h321l121 -315h-221z" />
<glyph unicode="&#xcd;" horiz-adv-x="657" d="M170 0h317l252 1434h-317zM432 1536l236 315h321l-336 -315h-221z" />
<glyph unicode="&#xce;" horiz-adv-x="657" d="M170 0h317l252 1434h-317zM244 1536l262 315h301l149 -315h-208l-117 162l-178 -162h-209z" />
<glyph unicode="&#xcf;" horiz-adv-x="657" d="M170 0h317l252 1434h-317zM201 1692q12 71 66.5 112t133.5 41q75 0 117.5 -41.5t30.5 -111.5q-12 -68 -69 -109t-132 -41q-78 0 -118.5 40.5t-28.5 109.5zM709 1692q12 71 66.5 112t131.5 41t119.5 -41.5t30.5 -111.5q-12 -68 -69 -109t-134 -41q-76 0 -116.5 41 t-28.5 109z" />
<glyph unicode="&#xd0;" horiz-adv-x="1570" d="M127 600l41 221h168l106 613h537q171 0 305.5 -56.5t214.5 -153.5t111 -228t4 -279t-103.5 -278.5t-190 -228t-267.5 -154t-326 -56.5h-537l105 600h-168zM551 252h219q198 0 344.5 134t179.5 331q22 129 -12 234t-124.5 168t-223.5 63h-219l-62 -361h305l-40 -221h-306z " />
<glyph unicode="&#xd1;" horiz-adv-x="1529" d="M166 2h317l156 870l479 -872h242l252 1434h-318l-151 -865l-479 865h-244zM641 1587q59 126 123 188t158 62q64 0 154.5 -35t117.5 -35q41 0 66.5 20t58.5 68l145 -45q-59 -126 -122.5 -187.5t-157.5 -61.5q-65 0 -154 34.5t-117 34.5q-41 0 -66.5 -20t-58.5 -68z" />
<glyph unicode="&#xd2;" horiz-adv-x="1648" d="M205 717q35 201 165.5 371t319.5 269t391 99t355 -99t222.5 -269t35.5 -371q-27 -150 -110.5 -287t-201 -236.5t-265.5 -158t-298 -58.5q-152 0 -279 58.5t-209 158t-117 236.5t-9 287zM518 717q-32 -195 69 -322t281 -127t330 128t182 321q32 195 -69 321.5t-281 126.5 q-181 0 -330.5 -127.5t-181.5 -320.5zM788 1851h322l121 -315h-221z" />
<glyph unicode="&#xd3;" horiz-adv-x="1648" d="M205 717q35 201 165.5 371t319.5 269t391 99t355 -99t222.5 -269t35.5 -371q-27 -150 -110.5 -287t-201 -236.5t-265.5 -158t-298 -58.5q-152 0 -279 58.5t-209 158t-117 236.5t-9 287zM518 717q-32 -195 69 -322t281 -127t330 128t182 321q32 195 -69 321.5t-281 126.5 q-181 0 -330.5 -127.5t-181.5 -320.5zM918 1536l235 315h322l-336 -315h-221z" />
<glyph unicode="&#xd4;" horiz-adv-x="1648" d="M205 717q35 201 165.5 371t319.5 269t391 99t355 -99t222.5 -269t35.5 -371q-27 -150 -110.5 -287t-201 -236.5t-265.5 -158t-298 -58.5q-152 0 -279 58.5t-209 158t-117 236.5t-9 287zM518 717q-32 -195 69 -322t281 -127t330 128t182 321q32 195 -69 321.5t-281 126.5 q-181 0 -330.5 -127.5t-181.5 -320.5zM737 1536l262 315h301l150 -315h-209l-119 162l-176 -162h-209z" />
<glyph unicode="&#xd5;" horiz-adv-x="1648" d="M205 717q35 201 165.5 371t319.5 269t391 99t355 -99t222.5 -269t35.5 -371q-27 -150 -110.5 -287t-201 -236.5t-265.5 -158t-298 -58.5q-152 0 -279 58.5t-209 158t-117 236.5t-9 287zM518 717q-32 -195 69 -322t281 -127t330 128t182 321q32 195 -69 321.5t-281 126.5 q-181 0 -330.5 -127.5t-181.5 -320.5zM711 1587q59 126 122.5 188t157.5 62q64 0 155 -35t118 -35q41 0 66.5 20t58.5 68l143 -45q-59 -125 -123 -187t-158 -62q-64 0 -152.5 34.5t-115.5 34.5q-41 0 -68 -20.5t-59 -67.5z" />
<glyph unicode="&#xd6;" horiz-adv-x="1648" d="M205 717q35 201 165.5 371t319.5 269t391 99t355 -99t222.5 -269t35.5 -371q-27 -150 -110.5 -287t-201 -236.5t-265.5 -158t-298 -58.5q-152 0 -279 58.5t-209 158t-117 236.5t-9 287zM518 717q-32 -195 69 -322t281 -127t330 128t182 321q32 195 -69 321.5t-281 126.5 q-181 0 -330.5 -127.5t-181.5 -320.5zM692 1692q12 71 68 112t135 41q75 0 116 -41t29 -112q-12 -68 -68.5 -109t-131.5 -41q-78 0 -119 40.5t-29 109.5zM1200 1692q12 70 68 111.5t133 41.5t118 -41t29 -112q-12 -68 -69 -109t-133 -41t-117 41t-29 109z" />
<glyph unicode="&#xd7;" horiz-adv-x="1114" d="M141 332l348 295l-239 295l215 184l244 -295l344 297l143 -170l-352 -295l246 -293l-220 -184l-241 293l-350 -297z" />
<glyph unicode="&#xd8;" horiz-adv-x="1648" d="M205 717q34 200 165 370.5t321 269.5t392 99q176 0 320 -80l125 146l137 -109l-123 -145q100 -105 140.5 -246.5t11.5 -304.5q-27 -150 -110.5 -287t-201 -236.5t-265.5 -158t-298 -58.5q-172 0 -311 74l-139 -160l-136 109l132 156q-102 107 -145.5 252t-14.5 309z M518 717q-33 -180 62 -309l616 722q-78 35 -166 35q-119 0 -227.5 -57t-184.5 -160t-100 -231zM717 297q76 -29 153 -29q180 0 329 128t181 321q32 169 -51 299z" />
<glyph unicode="&#xd9;" horiz-adv-x="1492" d="M250 543l156 891h317l-156 -891q-24 -144 38.5 -221.5t180.5 -77.5t213 78.5t119 220.5l156 891h317l-155 -891q-24 -135 -90.5 -243.5t-160.5 -178.5t-207.5 -107t-236.5 -37q-122 0 -222 37t-169 107t-96.5 178.5t-3.5 243.5zM776 1851h322l119 -315h-222z" />
<glyph unicode="&#xda;" horiz-adv-x="1492" d="M250 543l156 891h317l-156 -891q-24 -144 38.5 -221.5t180.5 -77.5t213 78.5t119 220.5l156 891h317l-155 -891q-24 -135 -90.5 -243.5t-160.5 -178.5t-207.5 -107t-236.5 -37q-122 0 -222 37t-169 107t-96.5 178.5t-3.5 243.5zM799 1536l237 315h322l-338 -315h-221z " />
<glyph unicode="&#xdb;" horiz-adv-x="1492" d="M250 543l156 891h317l-156 -891q-24 -144 38.5 -221.5t180.5 -77.5t213 78.5t119 220.5l156 891h317l-155 -891q-24 -135 -90.5 -243.5t-160.5 -178.5t-207.5 -107t-236.5 -37q-122 0 -222 37t-169 107t-96.5 178.5t-3.5 243.5zM659 1536l265 315h301l147 -315h-209 l-116 162l-179 -162h-209z" />
<glyph unicode="&#xdc;" horiz-adv-x="1492" d="M250 543l156 891h317l-156 -891q-24 -144 38.5 -221.5t180.5 -77.5t213 78.5t119 220.5l156 891h317l-155 -891q-24 -135 -90.5 -243.5t-160.5 -178.5t-207.5 -107t-236.5 -37q-122 0 -222 37t-169 107t-96.5 178.5t-3.5 243.5zM616 1692q12 71 68 112t135 41 q75 0 116.5 -41.5t29.5 -111.5q-12 -68 -69 -109t-132 -41q-78 0 -119 40.5t-29 109.5zM1124 1692q12 70 68 111.5t133 41.5t118.5 -41t29.5 -112q-12 -68 -69 -109t-134 -41q-76 0 -117 41t-29 109z" />
<glyph unicode="&#xdd;" horiz-adv-x="1492" d="M283 1393l6 41h368l240 -560h2l440 560h369l-6 -41l-694 -805l-103 -588h-317l102 584zM821 1536l236 315h321l-336 -315h-221z" />
<glyph unicode="&#xde;" horiz-adv-x="1310" d="M170 0l252 1434h317l-55 -308h391q107 0 185 -57.5t109.5 -151t12.5 -200.5q-31 -167 -159 -287.5t-299 -120.5h-383l-54 -309h-317zM586 561h303q71 0 116 45.5t56 110.5q14 67 -12.5 112t-104.5 45h-303z" />
<glyph unicode="&#xdf;" horiz-adv-x="1275" d="M133 0l182 1038q41 223 193.5 345t374.5 122q218 0 328 -113t77 -296q-15 -91 -71.5 -167.5t-153.5 -115.5q124 -36 185.5 -138.5t37.5 -240.5q-32 -191 -194 -312.5t-390 -121.5h-122v252h165q100 0 161.5 55t74.5 133q14 92 -60.5 165t-230.5 73l2 182q126 23 198.5 81 t86.5 138q12 71 -29 115.5t-114 44.5q-76 0 -136 -55t-77 -146l-183 -1038h-305z" />
<glyph unicode="&#xe0;" d="M162 530q18 111 69 209.5t127.5 172.5t181.5 117.5t224 43.5q103 0 183.5 -45.5t123.5 -120.5l27 144h305l-186 -1051h-306l25 154q-77 -87 -163 -132t-198 -45q-155 0 -259.5 74.5t-143 199.5t-10.5 279zM467 528q-25 -130 34 -216.5t183 -86.5q118 0 209 75.5 t115 211.5q26 145 -37.5 229t-190.5 84q-121 0 -206.5 -85.5t-106.5 -211.5zM598 1536h322l139 -354h-221z" />
<glyph unicode="&#xe1;" d="M162 530q18 111 69 209.5t127.5 172.5t181.5 117.5t224 43.5q103 0 183.5 -45.5t123.5 -120.5l27 144h305l-186 -1051h-306l25 154q-77 -87 -163 -132t-198 -45q-155 0 -259.5 74.5t-143 199.5t-10.5 279zM467 528q-25 -130 34 -216.5t183 -86.5q118 0 209 75.5 t115 211.5q26 145 -37.5 229t-190.5 84q-121 0 -206.5 -85.5t-106.5 -211.5zM709 1182l266 354h321l-366 -354h-221z" />
<glyph unicode="&#xe2;" d="M162 530q18 111 69 209.5t127.5 172.5t181.5 117.5t224 43.5q103 0 183.5 -45.5t123.5 -120.5l27 144h305l-186 -1051h-306l25 154q-77 -87 -163 -132t-198 -45q-155 0 -259.5 74.5t-143 199.5t-10.5 279zM467 528q-25 -130 34 -216.5t183 -86.5q118 0 209 75.5 t115 211.5q26 145 -37.5 229t-190.5 84q-121 0 -206.5 -85.5t-106.5 -211.5zM510 1182l278 354h302l153 -354h-215l-117 188l-186 -188h-215z" />
<glyph unicode="&#xe3;" d="M162 530q18 111 69 209.5t127.5 172.5t181.5 117.5t224 43.5q103 0 183.5 -45.5t123.5 -120.5l27 144h305l-186 -1051h-306l25 154q-77 -87 -163 -132t-198 -45q-155 0 -259.5 74.5t-143 199.5t-10.5 279zM467 528q-25 -130 34 -216.5t183 -86.5q118 0 209 75.5 t115 211.5q26 145 -37.5 229t-190.5 84q-121 0 -206.5 -85.5t-106.5 -211.5zM498 1243q59 127 121.5 188.5t156.5 61.5q64 0 155 -35t118 -35q41 0 66.5 20t58.5 68l145 -45q-59 -126 -122 -187.5t-157 -61.5q-64 0 -154.5 34.5t-117.5 34.5q-41 0 -66.5 -20t-58.5 -68z" />
<glyph unicode="&#xe4;" d="M162 530q18 111 69 209.5t127.5 172.5t181.5 117.5t224 43.5q103 0 183.5 -45.5t123.5 -120.5l27 144h305l-186 -1051h-306l25 154q-77 -87 -163 -132t-198 -45q-155 0 -259.5 74.5t-143 199.5t-10.5 279zM467 528q-25 -130 34 -216.5t183 -86.5q118 0 209 75.5 t115 211.5q26 145 -37.5 229t-190.5 84q-121 0 -206.5 -85.5t-106.5 -211.5zM479 1360q12 72 70.5 119t136.5 47q74 0 118 -47.5t32 -118.5q-12 -68 -72.5 -115t-134.5 -47q-78 0 -120 46.5t-30 115.5zM987 1360q12 72 71 119t134 47q76 0 119.5 -47.5t31.5 -118.5 q-12 -69 -72.5 -115.5t-135.5 -46.5t-117.5 46.5t-30.5 115.5z" />
<glyph unicode="&#xe5;" d="M162 530q18 111 69 209.5t127.5 172.5t181.5 117.5t224 43.5q103 0 183.5 -45.5t123.5 -120.5l27 144h305l-186 -1051h-306l25 154q-77 -87 -163 -132t-198 -45q-155 0 -259.5 74.5t-143 199.5t-10.5 279zM467 528q-25 -130 34 -216.5t183 -86.5q118 0 209 75.5 t115 211.5q26 145 -37.5 229t-190.5 84q-121 0 -206.5 -85.5t-106.5 -211.5zM664 1397q20 104 104 170.5t190 66.5q107 0 168 -66.5t43 -170.5q-17 -103 -102.5 -169.5t-192.5 -66.5q-106 0 -166.5 66.5t-43.5 169.5zM805 1397q-7 -47 19 -77t73 -30q48 0 85 30t44 77 t-18.5 75.5t-73.5 28.5t-85 -29t-44 -75z" />
<glyph unicode="&#xe6;" horiz-adv-x="1910" d="M115 326q25 147 167.5 239t338.5 92q134 0 270 -43l4 27q7 44 -8 79t-44 55.5t-61.5 31t-62.5 10.5h-13.5h-20.5t-25.5 -1t-31.5 -2.5t-36 -5t-40.5 -8.5t-43 -12.5t-46.5 -17.5t-47.5 -23.5t-49.5 -29.5l-78 192q193 164 495 164q249 0 344 -153q153 153 387 153 q111 0 199 -37t148.5 -113t80.5 -191.5t-4 -272.5h-788q-13 -106 50 -169t220 -63q92 0 152 31t123 94l147 -168q-128 -117 -242 -162t-247 -45q-292 0 -428 177q-196 -177 -451 -177q-114 0 -200.5 38t-131.5 119t-26 192zM428 346q-11 -54 27.5 -86.5t113.5 -32.5 q81 0 148 21.5t137 73.5q-16 76 -8 131q-105 30 -197 30q-58 0 -101 -13t-67 -34.5t-36.5 -43.5t-16.5 -46zM1196 643h469q4 94 -50.5 139t-139.5 45q-84 0 -159.5 -43t-119.5 -141z" />
<glyph unicode="&#xe7;" horiz-adv-x="1124" d="M160 526q42 237 231 392t453 155q221 0 403 -155l-178 -224q-98 105 -260 105q-134 0 -227.5 -75t-116.5 -198q-23 -122 45 -197t203 -75q158 0 295 104l86 -223q-184 -122 -342 -147q47 -49 66 -105t11 -106q-12 -66 -49 -116t-86.5 -76t-96 -38t-89.5 -12 q-112 0 -183 64t-98 165l168 72q31 -108 111 -108q48 0 79 25.5t38 74.5q8 49 -20.5 97.5t-90.5 66.5q-200 41 -294.5 185.5t-57.5 348.5z" />
<glyph unicode="&#xe8;" horiz-adv-x="1261" d="M156 520q40 233 234 393t444 160q89 0 167 -24t141.5 -73t104 -123t54.5 -173.5t-7 -224.5h-845q-14 -101 60.5 -164.5t219.5 -63.5q79 0 160.5 34t150.5 91l148 -168q-123 -112 -261.5 -159.5t-264.5 -47.5q-142 0 -250 42.5t-169.5 117t-84 172.5t-2.5 211zM485 639 h527q2 48 -18.5 85.5t-55.5 58.5t-74 31.5t-80 10.5q-39 0 -80 -9.5t-83.5 -30t-78.5 -58.5t-57 -88zM512 1536h322l139 -354h-221z" />
<glyph unicode="&#xe9;" horiz-adv-x="1261" d="M156 520q40 233 234 393t444 160q89 0 167 -24t141.5 -73t104 -123t54.5 -173.5t-7 -224.5h-845q-14 -101 60.5 -164.5t219.5 -63.5q79 0 160.5 34t150.5 91l148 -168q-123 -112 -261.5 -159.5t-264.5 -47.5q-142 0 -250 42.5t-169.5 117t-84 172.5t-2.5 211zM485 639 h527q2 48 -18.5 85.5t-55.5 58.5t-74 31.5t-80 10.5q-39 0 -80 -9.5t-83.5 -30t-78.5 -58.5t-57 -88zM690 1182l266 354h322l-367 -354h-221z" />
<glyph unicode="&#xea;" horiz-adv-x="1261" d="M156 520q40 233 234 393t444 160q89 0 167 -24t141.5 -73t104 -123t54.5 -173.5t-7 -224.5h-845q-14 -101 60.5 -164.5t219.5 -63.5q79 0 160.5 34t150.5 91l148 -168q-123 -112 -261.5 -159.5t-264.5 -47.5q-142 0 -250 42.5t-169.5 117t-84 172.5t-2.5 211zM475 1182 l279 354h301l153 -354h-215l-116 188l-187 -188h-215zM485 639h527q2 48 -18.5 85.5t-55.5 58.5t-74 31.5t-80 10.5q-39 0 -80 -9.5t-83.5 -30t-78.5 -58.5t-57 -88z" />
<glyph unicode="&#xeb;" horiz-adv-x="1261" d="M156 520q40 233 234 393t444 160q89 0 167 -24t141.5 -73t104 -123t54.5 -173.5t-7 -224.5h-845q-14 -101 60.5 -164.5t219.5 -63.5q79 0 160.5 34t150.5 91l148 -168q-123 -112 -261.5 -159.5t-264.5 -47.5q-142 0 -250 42.5t-169.5 117t-84 172.5t-2.5 211zM442 1360 q12 72 70.5 119t136.5 47q74 0 118 -47.5t32 -118.5q-12 -68 -72.5 -115t-134.5 -47q-78 0 -120 46.5t-30 115.5zM485 639h527q2 48 -18.5 85.5t-55.5 58.5t-74 31.5t-80 10.5q-39 0 -80 -9.5t-83.5 -30t-78.5 -58.5t-57 -88zM950 1360q12 72 71 119t134 47q76 0 120 -47.5 t32 -118.5q-12 -69 -73 -115.5t-136 -46.5t-117.5 46.5t-30.5 115.5z" />
<glyph unicode="&#xec;" horiz-adv-x="577" d="M137 0l187 1051h305l-187 -1051h-305zM178 1536h322l139 -354h-221z" />
<glyph unicode="&#xed;" horiz-adv-x="577" d="M135 0l187 1051h305l-187 -1051h-305zM352 1182l266 354h322l-367 -354h-221z" />
<glyph unicode="&#xee;" horiz-adv-x="579" d="M131 1182l279 354h301l153 -354h-215l-117 188l-186 -188h-215zM137 0l187 1051h305l-187 -1051h-305z" />
<glyph unicode="&#xef;" horiz-adv-x="579" d="M98 1360q12 72 70.5 119t136.5 47q74 0 118 -47.5t32 -118.5q-12 -68 -72.5 -115t-134.5 -47q-78 0 -120 46.5t-30 115.5zM137 0l187 1051h305l-187 -1051h-305zM606 1360q12 72 71 119t134 47q76 0 120 -47.5t32 -118.5q-12 -69 -73 -115.5t-136 -46.5t-117.5 46.5 t-30.5 115.5z" />
<glyph unicode="&#xf0;" horiz-adv-x="1224" d="M147 494q20 109 81 198.5t142.5 143.5t169.5 83t171 29q38 0 92 -8t78 -20q-57 108 -140 204l-249 -102l-37 131l190 78l-131 133l258 156q62 -58 162 -172l244 100l43 -131l-197 -80q129 -174 190.5 -361.5t26.5 -371.5q-21 -122 -83.5 -223.5t-149 -167t-189.5 -101 t-209 -35.5q-115 0 -210 39.5t-156.5 108t-88 164.5t-8.5 205zM453 494q-20 -114 34.5 -187.5t163.5 -73.5q111 0 188 71.5t97 189.5q20 116 -33 179.5t-166 63.5q-110 0 -187 -65.5t-97 -177.5z" />
<glyph unicode="&#xf1;" horiz-adv-x="1255" d="M131 0l186 1051h306l-27 -144q147 166 354 166q86 0 147.5 -27t95.5 -72t49 -110.5t12.5 -137t-17.5 -155.5l-100 -571h-306l99 565q22 116 -13.5 186t-134.5 70q-101 0 -164 -71t-83 -187l-99 -563h-305zM455 1243q59 127 121.5 188.5t156.5 61.5q64 0 155 -35t118 -35 q41 0 66 20t58 68l148 -45q-59 -125 -123 -187t-158 -62q-64 0 -154.5 34.5t-117.5 34.5q-41 0 -66.5 -20t-58.5 -68z" />
<glyph unicode="&#xf2;" horiz-adv-x="1286" d="M156 526q22 120 87.5 223.5t157 173.5t203.5 110t227 40q114 0 212 -40t165 -110.5t96 -174t7 -222.5q-20 -120 -86 -224t-158 -174.5t-204.5 -110.5t-225.5 -40q-115 0 -212.5 40t-164 110.5t-95.5 174t-9 224.5zM453 526q-24 -121 45.5 -203.5t183.5 -82.5 q116 0 211.5 82t120.5 204q24 120 -44 202.5t-184 82.5q-115 0 -211.5 -81.5t-121.5 -203.5zM500 1536h321l140 -354h-222z" />
<glyph unicode="&#xf3;" horiz-adv-x="1286" d="M156 526q22 120 87.5 223.5t157 173.5t203.5 110t227 40q114 0 212 -40t165 -110.5t96 -174t7 -222.5q-20 -120 -86 -224t-158 -174.5t-204.5 -110.5t-225.5 -40q-115 0 -212.5 40t-164 110.5t-95.5 174t-9 224.5zM453 526q-24 -121 45.5 -203.5t183.5 -82.5 q116 0 211.5 82t120.5 204q24 120 -44 202.5t-184 82.5q-115 0 -211.5 -81.5t-121.5 -203.5zM713 1182l266 354h321l-366 -354h-221z" />
<glyph unicode="&#xf4;" horiz-adv-x="1286" d="M156 526q22 120 87.5 223.5t157 173.5t203.5 110t227 40q114 0 212 -40t165 -110.5t96 -174t7 -222.5q-20 -120 -86 -224t-158 -174.5t-204.5 -110.5t-225.5 -40q-115 0 -212.5 40t-164 110.5t-95.5 174t-9 224.5zM453 526q-24 -121 45.5 -203.5t183.5 -82.5 q116 0 211.5 82t120.5 204q24 120 -44 202.5t-184 82.5q-115 0 -211.5 -81.5t-121.5 -203.5zM483 1182l279 354h301l154 -354h-216l-116 188l-187 -188h-215z" />
<glyph unicode="&#xf5;" horiz-adv-x="1286" d="M156 526q22 120 87.5 223.5t157 173.5t203.5 110t227 40q114 0 212 -40t165 -110.5t96 -174t7 -222.5q-20 -120 -86 -224t-158 -174.5t-204.5 -110.5t-225.5 -40q-115 0 -212.5 40t-164 110.5t-95.5 174t-9 224.5zM453 526q-24 -121 45.5 -203.5t183.5 -82.5 q116 0 211.5 82t120.5 204q24 120 -44 202.5t-184 82.5q-115 0 -211.5 -81.5t-121.5 -203.5zM471 1243q59 126 122 188t157 62q64 0 154.5 -35t117.5 -35q41 0 66.5 20t58.5 68l145 -45q-59 -126 -122.5 -187.5t-157.5 -61.5q-65 0 -154 34.5t-117 34.5q-41 0 -68 -20.5 t-59 -67.5z" />
<glyph unicode="&#xf6;" horiz-adv-x="1286" d="M156 526q22 120 87.5 223.5t157 173.5t203.5 110t227 40q114 0 212 -40t165 -110.5t96 -174t7 -222.5q-20 -120 -86 -224t-158 -174.5t-204.5 -110.5t-225.5 -40q-115 0 -212.5 40t-164 110.5t-95.5 174t-9 224.5zM451 1360q12 72 70 119t136 47q74 0 118 -47.5 t32 -118.5q-12 -68 -73.5 -115t-135.5 -47q-77 0 -118 46t-29 116zM453 526q-24 -121 45.5 -203.5t183.5 -82.5q116 0 211.5 82t120.5 204q24 120 -44 202.5t-184 82.5q-115 0 -211.5 -81.5t-121.5 -203.5zM958 1360q12 72 71 119t134 47q76 0 120 -47.5t32 -118.5 q-12 -68 -73.5 -115t-137.5 -47q-75 0 -116.5 46.5t-29.5 115.5z" />
<glyph unicode="&#xf7;" horiz-adv-x="1280" d="M172 510l45 246h1114l-45 -246h-1114zM485 221q13 77 75.5 121.5t148.5 44.5q84 0 130 -45t33 -121q-13 -74 -75.5 -118t-145.5 -44q-86 0 -132.5 44t-33.5 118zM633 1044q17 78 76.5 122t144.5 44t134 -45.5t32 -120.5q-17 -74 -78.5 -117.5t-144.5 -43.5q-87 0 -134 44 t-30 117z" />
<glyph unicode="&#xf8;" horiz-adv-x="1286" d="M111 41l125 117q-116 155 -78 368q22 120 87 223.5t156.5 173.5t203 110t226.5 40q164 0 293 -80l136 127l104 -116l-125 -117q111 -148 74 -361q-29 -159 -131.5 -286t-245.5 -195t-297 -68q-168 0 -287 76l-137 -129zM455 526q-14 -79 12 -149l434 405q-56 29 -115 29 q-113 0 -212 -82.5t-119 -202.5zM573 264q47 -24 109 -24q115 0 212 82t122 204q16 80 -10 142z" />
<glyph unicode="&#xf9;" horiz-adv-x="1257" d="M183.5 324q2.5 71 17.5 155l102 572h305l-100 -566q-22 -116 13 -186t136 -70t162.5 70.5t83.5 187.5l101 564h307l-187 -1051h-305l23 143q-147 -166 -355 -166q-86 0 -147.5 27t-95 72.5t-48.5 111t-12.5 136.5zM565 1536h322l139 -354h-221z" />
<glyph unicode="&#xfa;" horiz-adv-x="1257" d="M183.5 324q2.5 71 17.5 155l102 572h305l-100 -566q-22 -116 13 -186t136 -70t162.5 70.5t83.5 187.5l101 564h307l-187 -1051h-305l23 143q-147 -166 -355 -166q-86 0 -147.5 27t-95 72.5t-48.5 111t-12.5 136.5zM680 1182l266 354h322l-367 -354h-221z" />
<glyph unicode="&#xfb;" horiz-adv-x="1257" d="M183.5 324q2.5 71 17.5 155l102 572h305l-100 -566q-22 -116 13 -186t136 -70t162.5 70.5t83.5 187.5l101 564h307l-187 -1051h-305l23 143q-147 -166 -355 -166q-86 0 -147.5 27t-95 72.5t-48.5 111t-12.5 136.5zM469 1182l279 354h301l153 -354h-215l-117 188 l-186 -188h-215z" />
<glyph unicode="&#xfc;" horiz-adv-x="1257" d="M183.5 324q2.5 71 17.5 155l102 572h305l-100 -566q-22 -116 13 -186t136 -70t162.5 70.5t83.5 187.5l101 564h307l-187 -1051h-305l23 143q-147 -166 -355 -166q-86 0 -147.5 27t-95 72.5t-48.5 111t-12.5 136.5zM436 1360q12 72 70.5 119t136.5 47q74 0 118 -47.5 t32 -118.5q-12 -68 -72.5 -115t-134.5 -47q-78 0 -120 46.5t-30 115.5zM944 1360q12 72 71 119t134 47q76 0 119.5 -47.5t31.5 -118.5q-12 -69 -72.5 -115.5t-135.5 -46.5t-117.5 46.5t-30.5 115.5z" />
<glyph unicode="&#xfd;" horiz-adv-x="1218" d="M129 -479l340 567l-260 963h344l131 -658l369 658h336l-953 -1530h-307zM659 1182l267 354h321l-366 -354h-222z" />
<glyph unicode="&#xfe;" horiz-adv-x="1349" d="M47 -479l346 1960h305l-100 -574q68 75 165 120.5t200 45.5q81 0 148.5 -19.5t115 -55.5t83 -86t51.5 -110t20.5 -129t-9.5 -143q-21 -115 -74 -216t-130.5 -176t-182.5 -118t-223 -43q-112 0 -183 45t-116 132l-111 -633h-305zM518 512q-24 -136 41.5 -211.5 t183.5 -75.5q125 0 211.5 85.5t112.5 217.5q21 127 -33.5 212t-177.5 85q-127 0 -219.5 -84t-118.5 -229z" />
<glyph unicode="&#xff;" horiz-adv-x="1218" d="M129 -479l340 567l-260 963h344l131 -658l369 658h336l-953 -1530h-307zM408 1360q12 72 70 119t136 47q74 0 118 -47.5t32 -118.5q-12 -68 -72.5 -115t-134.5 -47q-77 0 -119 46t-30 116zM915 1360q12 72 71 119t134 47q76 0 120 -47.5t32 -118.5q-12 -69 -73 -115.5 t-136 -46.5t-117.5 46.5t-30.5 115.5z" />
<glyph unicode="&#x152;" horiz-adv-x="1918" d="M211 737q57 306 297.5 501.5t556.5 195.5h92h918l-45 -252h-600l-62 -353h516l-45 -251h-516l-57 -326h600l-43 -252h-1010q-207 0 -358 99t-215.5 267.5t-28.5 370.5zM524 737q-24 -131 10.5 -242.5t119.5 -177t202 -65.5h94l164 930h-94q-181 0 -320.5 -123 t-175.5 -322z" />
<glyph unicode="&#x153;" horiz-adv-x="1990" d="M156 526q22 120 87.5 223.5t157 173.5t203.5 110t227 40q210 0 343 -121q180 121 389 121q89 0 167 -24t141.5 -73t104 -123t54.5 -173.5t-7 -224.5h-837q-14 -101 57 -164.5t215 -63.5q79 0 160.5 34t150.5 91l148 -168q-123 -112 -261.5 -159.5t-264.5 -47.5 q-236 0 -375 117q-179 -117 -379 -117q-115 0 -212.5 40t-164 110.5t-95.5 174t-9 224.5zM453 526q-24 -121 45.5 -203.5t183.5 -82.5t209 82q-21 92 0 198q21 110 74 205q-61 86 -179 86q-115 0 -211.5 -81.5t-121.5 -203.5zM1223 639h518q2 48 -18.5 85.5t-55.5 58.5 t-74 31.5t-80 10.5q-53 0 -105 -16t-104.5 -60t-80.5 -110z" />
<glyph unicode="&#x178;" horiz-adv-x="1492" d="M283 1393l6 41h368l240 -560h2l440 560h369l-6 -41l-694 -805l-103 -588h-317l102 584zM616 1692q12 71 67 112t134 41q75 0 117.5 -41.5t30.5 -111.5q-12 -68 -69 -109t-132 -41q-78 0 -119 40.5t-29 109.5zM1124 1692q12 71 67 112t132 41t119.5 -41.5t30.5 -111.5 q-12 -68 -69 -109t-134 -41q-76 0 -117 41t-29 109z" />
<glyph unicode="&#x2c6;" horiz-adv-x="1327" d="M504 1182l278 354h301l154 -354h-215l-117 188l-186 -188h-215z" />
<glyph unicode="&#x2dc;" horiz-adv-x="1015" d="M336 1243q59 127 121.5 188.5t156.5 61.5q65 0 154 -35t117 -35q41 0 68 20.5t59 67.5l145 -45q-59 -126 -122.5 -187.5t-157.5 -61.5q-65 0 -154 34.5t-117 34.5q-41 0 -68 -20.5t-59 -67.5z" />
<glyph unicode="&#x2000;" horiz-adv-x="927" />
<glyph unicode="&#x2001;" horiz-adv-x="1855" />
<glyph unicode="&#x2002;" horiz-adv-x="927" />
<glyph unicode="&#x2003;" horiz-adv-x="1855" />
<glyph unicode="&#x2004;" horiz-adv-x="618" />
<glyph unicode="&#x2005;" horiz-adv-x="463" />
<glyph unicode="&#x2006;" horiz-adv-x="309" />
<glyph unicode="&#x2007;" horiz-adv-x="309" />
<glyph unicode="&#x2008;" horiz-adv-x="231" />
<glyph unicode="&#x2009;" horiz-adv-x="371" />
<glyph unicode="&#x200a;" horiz-adv-x="103" />
<glyph unicode="&#x2010;" horiz-adv-x="976" d="M213 520l45 246h731l-45 -246h-731z" />
<glyph unicode="&#x2011;" horiz-adv-x="976" d="M213 520l45 246h731l-45 -246h-731z" />
<glyph unicode="&#x2012;" horiz-adv-x="976" d="M213 520l45 246h731l-45 -246h-731z" />
<glyph unicode="&#x2013;" horiz-adv-x="1202" d="M213 510l45 246h954l-45 -246h-954z" />
<glyph unicode="&#x2014;" horiz-adv-x="1638" d="M213 510l45 246h1391l-45 -246h-1391z" />
<glyph unicode="&#x2018;" horiz-adv-x="526" d="M269.5 1006q-4.5 34 2.5 59q27 145 113.5 258t230.5 156l48 -113q-84 -29 -127.5 -73t-57.5 -111q65 4 103 -44t30 -106q-11 -71 -64.5 -118.5t-139.5 -47.5q-49 0 -81.5 22t-42.5 53t-14.5 65z" />
<glyph unicode="&#x2019;" horiz-adv-x="520" d="M279 981q84 29 127 73t55 111q-64 -4 -101.5 44t-29.5 106q11 71 65 118.5t140 47.5q40 0 69.5 -14.5t43 -36.5t21.5 -49.5t6 -52.5t-3 -46q-27 -145 -113.5 -258t-230.5 -156z" />
<glyph unicode="&#x201a;" horiz-adv-x="538" d="M68 -174q84 29 127 73t55 111q-66 -4 -101 43t-30 107q8 70 63 118t142 48q40 0 68.5 -14.5t42 -36.5t21.5 -49.5t6 -52.5t-3 -46q-13 -68 -39.5 -130.5t-67.5 -119t-101.5 -100t-133.5 -64.5z" />
<glyph unicode="&#x201c;" horiz-adv-x="1046" d="M269.5 1006q-4.5 34 2.5 59q27 145 113.5 258t230.5 156l48 -113q-84 -29 -127.5 -73t-57.5 -111q65 4 103 -44t30 -106q-11 -71 -64.5 -118.5t-139.5 -47.5q-49 0 -81.5 22t-42.5 53t-14.5 65zM790 1019q2 25 3 46q27 145 113.5 258t230.5 156l47 -113 q-84 -29 -127.5 -73t-57.5 -111q65 4 103.5 -44t30.5 -106q-11 -71 -65 -118.5t-140 -47.5q-40 0 -68.5 14.5t-42 36.5t-21.5 49.5t-6 52.5z" />
<glyph unicode="&#x201d;" horiz-adv-x="1040" d="M279 981q84 29 127 73t55 111q-64 -4 -101.5 44t-29.5 106q11 71 65 118.5t140 47.5q40 0 69.5 -14.5t43 -36.5t21.5 -49.5t6 -52.5t-3 -46q-27 -145 -113.5 -258t-230.5 -156zM799 981q84 29 127 73t55 111q-64 -4 -101.5 44t-29.5 106q11 71 65 118.5t140 47.5 q40 0 69.5 -14.5t43 -36.5t21.5 -49.5t6 -52.5t-3 -46q-27 -145 -113.5 -258t-230.5 -156z" />
<glyph unicode="&#x201e;" horiz-adv-x="1058" d="M68 -174q84 29 127 73t55 111q-66 -4 -101 43t-30 107q8 70 63 118t142 48q40 0 68.5 -14.5t42 -36.5t21.5 -49.5t6 -52.5t-3 -46q-13 -68 -39.5 -130.5t-67.5 -119t-101.5 -100t-133.5 -64.5zM588 -174q84 29 127 73t55 111q-66 -4 -101 43t-30 107q8 70 63 118t142 48 q40 0 68.5 -14.5t42 -36.5t21.5 -49.5t6 -52.5t-3 -46q-13 -68 -39.5 -130.5t-67.5 -119t-101.5 -100t-133.5 -64.5z" />
<glyph unicode="&#x2022;" horiz-adv-x="825" d="M227 522q21 117 112 197t212 80q120 0 184 -80t43 -197q-22 -119 -113.5 -198.5t-211.5 -79.5t-183 79t-43 199z" />
<glyph unicode="&#x2026;" horiz-adv-x="1822" d="M117 154q13 78 77.5 129t149.5 51q82 0 127.5 -51t32.5 -129q-14 -75 -77.5 -126t-145.5 -51q-84 0 -131 51t-33 126zM743 154q13 78 78 129t150 51q82 0 127 -51t32 -129q-14 -75 -77.5 -126t-145.5 -51q-84 0 -131 51t-33 126zM1370 154q13 78 77.5 129t149.5 51 q82 0 127.5 -51t32.5 -129q-14 -75 -77.5 -126t-145.5 -51q-84 0 -131 51t-33 126z" />
<glyph unicode="&#x202f;" horiz-adv-x="371" />
<glyph unicode="&#x2039;" horiz-adv-x="729" d="M172 588l10 57l492 469l143 -156l-356 -342l233 -337l-198 -158z" />
<glyph unicode="&#x203a;" horiz-adv-x="729" d="M129 279l352 337l-233 342l201 156l323 -469l-10 -57l-492 -467z" />
<glyph unicode="&#x205f;" horiz-adv-x="463" />
<glyph unicode="&#x20ac;" horiz-adv-x="1443" d="M164 504l26 149h213q11 92 21 125h-211l27 150h225q90 237 295.5 382.5t488.5 145.5q203 0 365 -108l-137 -248q-25 16 -50 28.5t-44 20.5t-41.5 14t-35.5 9t-32.5 4.5t-26.5 1.5h-23.5h-17.5q-282 0 -418 -250h590l-84 -150h-565q-6 -21 -9.5 -41.5t-6 -46t-4.5 -37.5 h516l-84 -149h-424q24 -114 109 -181t223 -67q136 0 305 53l-49 -270q-138 -62 -299 -62q-147 0 -263.5 39.5t-191.5 110.5t-115.5 166.5t-44.5 210.5h-227z" />
<glyph unicode="&#x2122;" horiz-adv-x="1855" d="M299 1300l33 181h715l-33 -181h-258l-103 -585h-198l102 585h-258zM932 715l211 766h176l125 -504l297 504h182l-65 -766h-195l33 377l-223 -351h-144l-96 351l-103 -377h-198z" />
<glyph unicode="&#x25fc;" horiz-adv-x="1054" d="M0 0v1055h1055v-1055h-1055z" />
</font>
</defs>
</svg>
