<?xml version="1.0" standalone="no"?>
<!DOCTYPE svg PUBLIC "-//W3C//DTD SVG 1.1//EN" "http://www.w3.org/Graphics/SVG/1.1/DTD/svg11.dtd" >
<svg xmlns="http://www.w3.org/2000/svg" xmlns:xlink="http://www.w3.org/1999/xlink" version="1.1">
<metadata></metadata>
<defs>
<font id="filson_prolight_italic" horiz-adv-x="1327" >
<font-face units-per-em="2048" ascent="1481" descent="-567" />
<missing-glyph horiz-adv-x="573" />
<glyph unicode="&#xfb01;" horiz-adv-x="1167" d="M219 938l12 78h179l20 117q16 88 51 155t79 106.5t100 64.5t107.5 33.5t109.5 8.5q71 0 128.5 -19t103 -71t56.5 -133l-94 -25q-11 85 -70.5 124.5t-138.5 39.5q-286 0 -338 -284l-20 -117h657l-178 -1016h-94l166 938h-563l-166 -938h-95l166 938h-178z" />
<glyph unicode="&#xfb02;" horiz-adv-x="1150" d="M219 938l12 78h179l20 117q16 88 51 155t79 106.5t100 64.5t107.5 33.5t109.5 8.5q217 0 342 -67l-252 -1434h-95l244 1380q-101 37 -254 37q-286 0 -338 -284l-20 -117h305l-12 -78h-305l-166 -938h-95l166 938h-178z" />
<glyph unicode="&#xfb03;" horiz-adv-x="1855" d="M219 938l12 78h179l20 117q66 368 428 368q67 0 135 -25.5t109 -70.5l-66 -68q-35 39 -88 59.5t-104 20.5q-56 0 -102 -12t-91.5 -41t-78.5 -87.5t-48 -143.5l-20 -117h594l20 117q16 88 51 155t79 106.5t100 64.5t107.5 33.5t109.5 8.5q71 0 128.5 -19t103 -71 t56.5 -133l-94 -25q-11 85 -70.5 124.5t-138.5 39.5q-286 0 -338 -284l-20 -117h657l-178 -1016h-94l166 938h-563l-166 -938h-94l165 938h-593l-166 -938h-95l166 938h-178z" />
<glyph unicode="&#xfb04;" horiz-adv-x="1839" d="M219 938l12 78h179l20 117q66 368 428 368q67 0 135 -25.5t109 -70.5l-66 -68q-35 39 -88 59.5t-104 20.5q-56 0 -102 -12t-91.5 -41t-78.5 -87.5t-48 -143.5l-20 -117h594l20 117q16 88 51 155t79 106.5t100 64.5t107.5 33.5t109.5 8.5q217 0 342 -67l-252 -1434h-94 l243 1380q-101 37 -254 37q-286 0 -338 -284l-20 -117h305l-12 -78h-305l-166 -938h-94l165 938h-593l-166 -938h-95l166 938h-178z" />
<glyph horiz-adv-x="0" />
<glyph horiz-adv-x="682" />
<glyph horiz-adv-x="0" />
<glyph horiz-adv-x="0" />
<glyph unicode="&#xd;" horiz-adv-x="512" />
<glyph unicode=" "  horiz-adv-x="573" />
<glyph unicode="&#x09;" horiz-adv-x="573" />
<glyph unicode="&#xa0;" horiz-adv-x="573" />
<glyph unicode="!" horiz-adv-x="450" d="M154 59q6 35 32.5 58.5t61.5 23.5t55 -23.5t14 -58.5t-34.5 -58.5t-63.5 -23.5t-53 23t-12 59zM266 414l127 843l31 177h106l-30 -179l-172 -841h-62z" />
<glyph unicode="&#x22;" horiz-adv-x="770" d="M328 930l90 551h90l-102 -551h-78zM692 930l90 551h90l-102 -551h-78z" />
<glyph unicode="#" horiz-adv-x="1509" d="M141 369l35 77h303l256 584h-301l35 78h301l145 326h84l-145 -326h389l146 326h84l-146 -326h299l-35 -78h-299l-256 -584h299l-35 -77h-299l-161 -369h-86l164 369h-390l-161 -369h-84l161 369h-303zM563 446h389l256 584h-389z" />
<glyph unicode="$" horiz-adv-x="1073" d="M133 313l94 25q19 -82 95.5 -143.5t199.5 -71.5l105 571l-66 23q-86 34 -141.5 72.5t-79 77t-30 81.5t4.5 86q28 152 150 244t283 100l34 203h72l-35 -201q135 -10 219 -83.5t95 -186.5l-89 -25q-11 90 -73 145.5t-168 61.5l-94 -526q49 -20 70 -26t22 -7 q129 -45 197 -134.5t46 -211.5q-26 -140 -154.5 -241.5t-311.5 -108.5l-33 -195h-72l33 195q-154 7 -252.5 87t-120.5 189zM410.5 983.5q5.5 -32.5 19 -63t54.5 -60.5t104 -51q8 -5 28 -10t27 -8l88 503q-118 -8 -208.5 -76t-110.5 -176q-7 -26 -1.5 -58.5zM594 123 q141 7 238.5 82.5t115.5 181.5q18 98 -41 165t-149 97l-66 23z" />
<glyph unicode="%" horiz-adv-x="1759" d="M276 1126q25 141 135 235.5t248 94.5q139 0 214.5 -94.5t50.5 -235.5q-25 -136 -135.5 -231.5t-247.5 -95.5t-213.5 95.5t-51.5 231.5zM354 1126q-17 -106 39.5 -179t161.5 -73q104 0 188 73.5t101 178.5q20 110 -36.5 183t-162.5 73q-104 0 -187.5 -73.5t-103.5 -182.5z M426 0l1051 1434h92l-1053 -1434h-90zM1085 305q25 140 135 235t248 95q139 0 214.5 -95t50.5 -235q-25 -138 -134 -233t-247 -95t-215 95.5t-52 232.5zM1165 305q-17 -107 39.5 -180.5t161.5 -73.5q104 0 188 74t101 180q20 110 -36.5 182t-162.5 72q-105 0 -188 -72.5 t-103 -181.5z" />
<glyph unicode="&#x26;" horiz-adv-x="1624" d="M147 348q51 287 533 469q-85 99 -120 180.5t-17 173.5q11 61 41.5 111t70 81.5t87 53t91.5 30.5t85 9q151 0 229 -83.5t57 -194.5q-20 -107 -134.5 -216.5t-258.5 -168.5l281 -404l270 291h104l-329 -356l114 -164q42 -51 79.5 -75t99.5 -24q99 0 153 41l25 -71 q-77 -54 -191 -54q-89 0 -141 31t-107 96l-100 144l-29 -35q-233 -236 -497 -236q-69 0 -133 15.5t-117 47t-89.5 75t-52 104t-4.5 129.5zM242 354q-16 -88 27 -157t121 -103.5t173 -34.5q123 0 231 61.5t232 190.5l-301 441q-85 -30 -159.5 -66t-146 -85t-118.5 -113 t-59 -134zM637 1165q-16 -80 16 -151t113 -164q130 57 227.5 147.5t114.5 176.5q13 82 -42 141t-169 59q-83 0 -162 -56.5t-98 -152.5z" />
<glyph unicode="'" horiz-adv-x="405" d="M328 930l90 551h90l-102 -551h-78z" />
<glyph unicode="(" horiz-adv-x="571" d="M179.5 332q1.5 118 23.5 241q26 147 80 288t113 243t131 196t123.5 148t101.5 98l59 -41q-49 -46 -96 -98.5t-114.5 -144t-122 -188.5t-104.5 -230.5t-75 -272.5q-21 -116 -23 -227t12.5 -202t35 -169.5t51 -144t54.5 -108.5t50 -80l-71 -39q-27 35 -53.5 78.5t-60.5 111 t-58 149.5t-41 178t-15.5 214z" />
<glyph unicode=")" horiz-adv-x="571" d="M-33 -360q412 412 506 931q18 100 21.5 198.5t-4 177.5t-25.5 157t-37.5 134.5t-46 112.5t-45.5 88.5t-41 65.5l70 41q28 -36 54 -79t60 -111t57.5 -149.5t40.5 -177.5t15.5 -214.5t-23.5 -241.5q-27 -147 -81 -287.5t-113 -242.5t-131.5 -196t-124 -148t-101.5 -98z" />
<glyph unicode="*" horiz-adv-x="897" d="M326 1208l41 78l256 -108l47 303h82l-64 -303l297 108l12 -78l-297 -90l152 -227l-74 -49l-139 239l-219 -241l-55 47l227 229z" />
<glyph unicode="+" horiz-adv-x="1105" d="M201 571l14 84h410l71 412h84l-71 -412h411l-14 -84h-412l-73 -411h-84l73 411h-409z" />
<glyph unicode="," horiz-adv-x="495" d="M70 -207q77 36 133 101t73 145v22q-20 -10 -40 -10q-29 0 -44 20t-10 50q6 33 32 54.5t65 21.5q27 0 44 -14t22 -37.5t5 -46.5t-4 -48q-4 -29 -19.5 -65t-43.5 -79.5t-79 -85.5t-116 -71z" />
<glyph unicode="-" horiz-adv-x="915" d="M250 569l14 86h617l-15 -86h-616z" />
<glyph unicode="." horiz-adv-x="458" d="M156 59q6 35 33.5 58.5t62.5 23.5t55 -23.5t15 -58.5q-8 -35 -36 -58.5t-63 -23.5t-54 23.5t-13 58.5z" />
<glyph unicode="/" horiz-adv-x="1007" d="M49 -86l1065 1591h94l-1067 -1591h-92z" />
<glyph unicode="0" horiz-adv-x="1445" d="M246 719q29 154 94 288t158 234t217.5 157.5t263.5 57.5q182 0 304 -99t164.5 -266t4.5 -372q-35 -205 -136.5 -372.5t-259 -268.5t-339.5 -101t-302.5 101t-162 268t-6.5 373zM342 719q-33 -180 1 -328.5t135 -238t253 -89.5q116 0 221.5 52t185.5 141.5t136.5 208.5 t81.5 254q33 181 -1 328t-135.5 235t-254.5 88q-115 0 -220.5 -51t-185 -139.5t-136 -207t-81.5 -253.5z" />
<glyph unicode="1" horiz-adv-x="698" d="M260 1227l469 207h51l-252 -1434h-94l232 1313l-398 -170z" />
<glyph unicode="2" horiz-adv-x="1214" d="M117 0v72l725 563q62 48 105 87.5t86.5 90t71 106.5t38.5 119q29 157 -60.5 244.5t-269.5 87.5q-74 0 -137 -14.5t-107.5 -38.5t-78.5 -57t-54 -67t-30 -71h-99q8 46 33 91.5t69.5 89.5t103 78t141 54.5t177.5 20.5q221 0 334.5 -109.5t77.5 -304.5q-27 -143 -112 -249.5 t-234 -221.5l-649 -499q144 10 336 10h551l-13 -82h-1005z" />
<glyph unicode="3" horiz-adv-x="1208" d="M113 111l67 63q123 -111 367 -111q221 0 361 109t171 272q28 161 -69.5 256t-270.5 95q-157 0 -241 -54l-35 64l665 545h-757l14 84h915l-10 -58l-628 -510l2 -4q62 10 102 10q135 0 235.5 -49.5t149.5 -148t25 -230.5q-33 -202 -207 -334.5t-437 -132.5q-144 0 -253 36 t-166 98z" />
<glyph unicode="4" horiz-adv-x="1374" d="M123 416l8 61l1038 957h58l-166 -934h336l-13 -84h-335l-72 -416h-94l71 416h-831zM268 500h699l139 768z" />
<glyph unicode="5" horiz-adv-x="1208" d="M139 111l68 65q53 -49 164 -81t219 -32t198.5 32t153 87t102 124.5t54.5 148.5q13 75 -0.5 142.5t-53 122.5t-116 87.5t-180.5 32.5q-96 0 -210.5 -31t-183.5 -76l-69 35l164 666h806l-14 -84h-721l-131 -523q190 99 383 99q122 0 213.5 -39.5t141 -106t66.5 -150 t1 -175.5q-39 -207 -202.5 -342.5t-416.5 -135.5q-132 0 -252 38.5t-184 95.5z" />
<glyph unicode="6" horiz-adv-x="1267" d="M241.5 309.5q-34.5 155.5 0.5 368.5q29 163 94 304.5t158 247t216.5 166t262.5 60.5q106 0 188.5 -31.5t126.5 -81.5q-32 -28 -76 -59q-37 38 -103 62t-148 24q-110 0 -210.5 -45t-174 -118.5t-128.5 -165t-82.5 -187t-27.5 -182.5q0 -3 -1 -15.5t-1 -15.5h4 q55 86 144 148t182 90t182 28q97 0 179.5 -33.5t139.5 -93t81.5 -149.5t6.5 -195q-36 -203 -201.5 -331t-381.5 -128q-173 0 -284.5 88.5t-146 244zM324 410q0 -66 24 -127t68.5 -110.5t115 -79.5t156.5 -30q171 0 307.5 105t165.5 270q16 83 -5 156t-69 122t-115.5 77 t-144.5 28q-64 0 -133.5 -18t-135 -54t-118 -84.5t-84.5 -115t-32 -139.5z" />
<glyph unicode="7" horiz-adv-x="1069" d="M178 0l1004 1350h-883l14 84h987l-14 -76l-999 -1358h-109z" />
<glyph unicode="8" horiz-adv-x="1345" d="M184 401q24 127 122.5 223t258.5 138q-113 42 -163 127t-31 192q30 161 186.5 268t372.5 107q218 0 336 -106t90 -267q-19 -106 -101.5 -192.5t-210.5 -128.5q147 -41 214.5 -135.5t44.5 -220.5q-32 -185 -211 -307t-424 -122q-161 0 -279.5 55.5t-172 152.5t-32.5 216z M281 401q-25 -146 87 -242t314 -96q203 0 351 97.5t173 245.5q26 135 -82.5 222t-326.5 87q-223 0 -356.5 -88t-159.5 -226zM467 1081q-9 -51 4.5 -101t47.5 -92.5t97.5 -68.5t147.5 -26h96q82 0 154.5 26t122.5 68.5t82 93t41 102.5q21 125 -73.5 206t-271.5 81 q-176 0 -299.5 -81.5t-148.5 -207.5z" />
<glyph unicode="9" horiz-adv-x="1267" d="M231 90q50 43 76 60q37 -38 104.5 -62.5t149.5 -24.5q111 0 212 45.5t173.5 119.5t127 166t81.5 187.5t27 180.5q0 3 1 15.5t1 15.5h-4q-82 -128 -225.5 -197.5t-282.5 -69.5q-96 0 -179 34t-140.5 94t-83 149.5t-7.5 193.5q24 134 109.5 239.5t210 162.5t266.5 57 q172 0 283.5 -88t146.5 -243.5t0 -368.5q-29 -163 -94 -304.5t-158 -247.5t-216.5 -166.5t-262.5 -60.5q-106 0 -191 32t-125 81zM358 995q-28 -167 72 -275t262 -108q81 0 168.5 29.5t163 81t124 131.5t48.5 172q0 65 -24 125.5t-68.5 110t-115.5 79t-157 29.5 q-171 0 -307.5 -105t-165.5 -270z" />
<glyph unicode=":" horiz-adv-x="462" d="M158 59q6 35 33.5 58.5t62.5 23.5t55 -23.5t15 -58.5q-8 -35 -36 -58.5t-63 -23.5t-54 23.5t-13 58.5zM317 956q6 35 34 58.5t63 23.5t54 -23.5t13 -58.5t-33.5 -58.5t-62.5 -23.5t-54.5 23.5t-13.5 58.5z" />
<glyph unicode=";" horiz-adv-x="520" d="M98 -207q72 35 124.5 100t76.5 146q3 9 0 22q-17 -10 -39 -10q-29 0 -44.5 20t-10.5 50q5 33 30 54.5t64 21.5q34 0 53.5 -24.5t20.5 -57t-2 -64.5q-4 -30 -18.5 -65.5t-42.5 -79t-78 -85.5t-115 -71zM352 956q6 35 34 58.5t63 23.5t54 -23.5t13 -58.5t-33.5 -58.5 t-62.5 -23.5t-54.5 23.5t-13.5 58.5z" />
<glyph unicode="&#x3c;" horiz-adv-x="1253" d="M184 504l17 98l1073 379l-14 -88l-984 -340l863 -340l-19 -88z" />
<glyph unicode="=" horiz-adv-x="1224" d="M217 334l14 84h906l-15 -84h-905zM317 905l15 84h905l-14 -84h-906z" />
<glyph unicode="&#x3e;" horiz-adv-x="1253" d="M170 125l18 88l983 340l-864 340l17 88l938 -379l-17 -98z" />
<glyph unicode="?" horiz-adv-x="1048" d="M279 1071q-3 44 6 78q8 52 40 103t88 98t148 76.5t205 29.5q192 0 306 -105t83 -272q-7 -39 -23 -77t-33.5 -69t-48 -64t-53 -55.5t-61.5 -51t-60 -43.5t-63.5 -40t-57.5 -33t-55 -30q-20 -11 -36.5 -23t-27.5 -22t-20 -24.5t-14 -22.5t-10 -25.5t-6.5 -25.5t-5 -29.5 t-5.5 -29.5h-92l19 92q13 61 39.5 94.5t111.5 79.5q61 33 100.5 56.5t98 65t95 79t68 90.5t40.5 108q24 130 -64 210.5t-243 80.5q-164 0 -259.5 -68t-115.5 -161l-6 -70h-88zM387 59q6 36 31.5 59t60.5 23q36 0 57 -23.5t15 -58.5t-34.5 -58.5t-63.5 -23.5t-53.5 23.5 t-12.5 58.5z" />
<glyph unicode="@" horiz-adv-x="2174" d="M176 161q-14 150 14 322q38 211 145 396.5t260 318t350 209t407 76.5q212 0 380 -68t272 -188.5t144 -292t4 -371.5q-59 -318 -194.5 -466t-327.5 -148q-63 0 -105.5 16.5t-64 41.5t-29 68t-5 83.5t11.5 99.5q-71 -109 -177.5 -167t-232.5 -58q-132 0 -221.5 61.5 t-123 163t-11.5 225.5q33 191 175.5 321t340.5 130q124 0 207 -57.5t118 -167.5l39 198h84l-127 -717q-16 -88 21.5 -131t111.5 -43q153 0 266.5 136.5t162.5 410.5q33 181 -3.5 337.5t-131.5 268t-249 175t-348 63.5q-192 0 -373 -71t-321.5 -194t-239.5 -294t-133 -365 q-25 -129 -16 -247.5t42 -220.5t96.5 -185t147 -141.5t194 -90.5t237.5 -32q107 0 222.5 19t205.5 53l24 -68q-202 -80 -462 -80q-168 0 -308.5 48.5t-238.5 137t-162 212t-78 273.5zM760 483q-17 -102 9 -185t98.5 -134t181.5 -51q158 0 276.5 104t147.5 266t-52.5 266.5 t-240.5 104.5q-162 0 -278.5 -107t-141.5 -264z" />
<glyph unicode="A" horiz-adv-x="1349" d="M33 0l831 1434h123l330 -1434h-103l-75 322h-820l-184 -322h-102zM369 406h753l-211 935z" />
<glyph unicode="B" horiz-adv-x="1335" d="M223 0l252 1434h488q91 0 166 -22t129 -64q54 -44 78 -112q14 -41 14 -88q0 -32 -7 -67q-24 -128 -115.5 -221t-250.5 -133q178 -29 257 -129q60 -76 60 -179q0 -32 -6 -67q-29 -163 -169 -257.5t-339 -94.5h-557zM332 82h461q154 0 262.5 73.5t132.5 200.5q5 28 5 55 q0 103 -81 177q-102 92 -317 92h-357zM455 762h307q110 0 197.5 25.5t144.5 70t91.5 99.5t47.5 120q5 27 5 51q0 58 -26 102q-38 64 -109 92t-165 28h-391z" />
<glyph unicode="C" horiz-adv-x="1425" d="M220 524q-3 29 -3 58q0 66 14 135q27 150 104.5 284t193 235t273.5 160.5t335 59.5q264 0 440 -149l-53 -78q-156 139 -404 139q-155 0 -293.5 -52t-239 -141.5t-168 -207.5t-89.5 -250q-13 -62 -14 -121q0 -26 3 -50q8 -82 33 -154.5t74.5 -132t115 -102.5t155 -67 t192.5 -24q245 0 454 137l23 -78q-112 -73 -229 -110.5t-263 -37.5q-119 0 -221.5 27t-177.5 76t-132 117.5t-85.5 150.5t-37.5 176z" />
<glyph unicode="D" horiz-adv-x="1480" d="M223 0l252 1434h397q123 0 225 -25.5t174.5 -72.5t125.5 -112.5t78 -145.5q25 -78 31 -170q2 -22 2 -46q0 -70 -15 -145q-22 -120 -70 -226.5t-124 -196.5t-174.5 -155.5t-227.5 -102t-276 -36.5h-398zM332 84h301q158 0 292.5 49.5t229 136.5t155.5 201t83 246 q10 73 10 141q1 30 -1 58q-6 94 -46.5 174t-104.5 137.5t-165 90t-228 32.5h-301z" />
<glyph unicode="E" horiz-adv-x="1200" d="M223 0l252 1434h866l-14 -84h-770l-106 -607h673l-16 -84h-674l-102 -577h770l-12 -82h-867z" />
<glyph unicode="F" horiz-adv-x="1173" d="M223 0l252 1434h864l-14 -84h-768l-106 -607h671l-16 -84h-672l-115 -659h-96z" />
<glyph unicode="G" horiz-adv-x="1515" d="M231 717q28 153 113.5 291t203.5 235.5t262 155t286 57.5q155 0 273 -29t212 -102l-53 -78q-96 74 -200 97.5t-249 23.5q-165 0 -324.5 -84.5t-275 -235.5t-147.5 -331q-10 -58 -10 -114q0 -69 15 -135q27 -118 95.5 -207t185.5 -142t265 -53q255 0 446 129l70 393h-428 l14 86h520l-92 -516q-232 -181 -547 -181q-219 0 -378 101t-226 270q-44 109 -44 232q0 67 13 137z" />
<glyph unicode="H" horiz-adv-x="1466" d="M223 0l252 1434h96l-125 -711h828l125 711h96l-252 -1434h-96l113 639h-828l-113 -639h-96z" />
<glyph unicode="I" horiz-adv-x="542" d="M223 0l252 1434h96l-252 -1434h-96z" />
<glyph unicode="J" horiz-adv-x="1372" d="M150 356q-1 14 -1 28q0 50 11 101q18 94 55 150h98q-41 -62 -57 -146q-9 -41 -9 -81q0 -13 1 -26q4 -53 16.5 -100t42.5 -86.5t71 -68.5t101 -45t133 -16q230 0 381.5 151.5t200.5 433.5l139 783h94l-137 -783q-57 -328 -236 -501t-456 -173q-91 0 -165 19.5t-124.5 53.5 t-87 82t-52 104t-19.5 120z" />
<glyph unicode="K" horiz-adv-x="1239" d="M223 0l252 1434h96l-129 -740l738 740h112l-768 -772l189 -283q38 -57 62 -91.5t63.5 -81.5t71 -73t72.5 -45.5t81 -19.5q94 0 172 53q21 -53 33 -74q-50 -34 -117.5 -52t-118.5 -18q-53 0 -103.5 21.5t-89 53t-78 78.5t-66.5 86t-58 88q-13 20 -19 30l-188 293 l-111 -627h-96z" />
<glyph unicode="L" horiz-adv-x="1036" d="M223 0l252 1434h96l-239 -1352h692l-12 -82h-789z" />
<glyph unicode="M" horiz-adv-x="1998" d="M160 0l385 1434h123l354 -1297l811 1297h125l-121 -1434h-98l108 1298l-805 -1280h-90l-348 1280l-346 -1298h-98z" />
<glyph unicode="N" horiz-adv-x="1550" d="M223 0l252 1434h80l705 -1262l223 1262h96l-252 -1434h-78l-706 1264l-224 -1264h-96z" />
<glyph unicode="O" horiz-adv-x="1699" d="M231 717q35 200 165.5 370.5t319.5 269.5t390 99q151 0 278 -58.5t208.5 -157.5t116.5 -236q20 -79 20 -161q0 -62 -11 -126q-27 -150 -110 -287t-200.5 -236.5t-265.5 -158t-298 -58.5q-151 0 -278 58.5t-209 158t-117 236.5q-20 79 -20 161q0 62 11 126zM330 717 q-11 -59 -11 -116q1 -70 17 -137q30 -121 101 -208t181 -138.5t240 -51.5q175 0 338 87t275 237t145 327q11 59 11 116q-1 70 -17 137q-30 121 -100.5 208t-180 138.5t-239.5 51.5q-174 0 -337.5 -87t-277 -237t-145.5 -327z" />
<glyph unicode="P" horiz-adv-x="1257" d="M223 0l252 1434h543q123 0 207.5 -60t115.5 -158q18 -57 18 -120q0 -45 -9 -92q-30 -177 -164 -298.5t-318 -121.5h-446l-103 -584h-96zM436 666h434q146 0 250 96.5t129 241.5q7 40 7 77q0 97 -50 169q-68 100 -215 100h-434z" />
<glyph unicode="Q" horiz-adv-x="1699" d="M231 717q35 200 165.5 370.5t319.5 269.5t390 99q151 0 278.5 -58.5t210 -157.5t117.5 -236q20 -77 20 -159q0 -63 -12 -128q-32 -190 -151 -353t-291 -263.5t-360 -116.5q40 -291 278 -291q94 0 190 47l23 -74q-105 -55 -225 -55q-46 0 -86 8t-70 20t-56.5 33t-44 38.5 t-33.5 46.5t-25 48t-18.5 50t-13 46t-9.5 44t-7 35q-194 5 -342 104.5t-215 267.5q-45 111 -45 234q0 64 12 131zM330 717q-11 -59 -11 -116q0 -70 17 -137q29 -121 100.5 -208t181.5 -138.5t240 -51.5q174 0 337.5 87t277 237t145.5 327q11 59 11 116q0 70 -17 137 q-29 121 -100.5 208t-181.5 138.5t-240 51.5q-174 0 -337.5 -87t-277 -237t-145.5 -327z" />
<glyph unicode="R" horiz-adv-x="1378" d="M221 0l252 1434h574q123 0 207 -60t115 -158q18 -57 18 -120q0 -45 -9 -92q-30 -171 -150 -288.5t-292 -129.5q-5 -31 -5 -67q0 -17 1 -33q3 -56 8.5 -113.5t25.5 -112.5t47.5 -98t74.5 -69.5t106 -26.5q89 0 160 45l26 -70q-45 -31 -101 -47.5t-103 -16.5 q-67 0 -122 23.5t-91 62.5t-62 92t-39 108.5t-19 115.5q-5 51 -5 96v14q1 50 6 95h-424l-103 -584h-96zM434 666h465q146 0 250 96.5t129 241.5q7 40 7 77q1 97 -49 169q-68 100 -216 100h-465z" />
<glyph unicode="S" horiz-adv-x="1169" d="M131 279l102 26q23 -98 116.5 -168.5t248.5 -70.5q176 0 295.5 85.5t140.5 210.5q4 23 4 44q0 33 -9 63q-15 50 -48 85.5t-73 60t-87 40.5l-237 82q-255 85 -255 278q0 32 7 66q21 114 99 201t185.5 130.5t227.5 43.5q169 0 271.5 -81t113.5 -214l-94 -28 q-6 106 -90 170.5t-218 64.5q-144 0 -257.5 -77t-137.5 -206q-4 -23 -4 -44q0 -146 199 -214l235 -82q64 -21 117.5 -56.5t92 -83t54.5 -109.5q10 -36 10 -73q0 -27 -5 -56q-30 -166 -181.5 -278t-367.5 -112q-189 0 -308.5 88t-146.5 214z" />
<glyph unicode="T" horiz-adv-x="1220" d="M268 1350l13 84h1159l-13 -84h-530l-238 -1350h-96l238 1350h-533z" />
<glyph unicode="U" horiz-adv-x="1499" d="M293 516l162 918h96l-162 -918q-10 -54 -10 -103q1 -51 11 -95q20 -88 73.5 -141.5t129.5 -82t169 -28.5t178.5 28t157 82.5t123 142t71.5 197.5l162 918h96l-161 -918q-24 -130 -86 -234t-148.5 -169.5t-190 -100.5t-216.5 -35q-114 0 -207 35t-157.5 100.5t-89.5 169.5 q-13 53 -13 113q0 57 12 121z" />
<glyph unicode="V" horiz-adv-x="1273" d="M313 1434h103l241 -1305l705 1305h102l-776 -1434h-102z" />
<glyph unicode="W" horiz-adv-x="2033" d="M322 1434h98l186 -1287l608 1239h91l170 -1239l643 1287h98l-715 -1434h-96l-170 1235l-606 -1235h-99z" />
<glyph unicode="X" horiz-adv-x="1341" d="M16 0l723 741l-432 693h115l391 -617l606 617h115l-676 -693l465 -741h-117l-422 662l-651 -662h-117z" />
<glyph unicode="Y" horiz-adv-x="1284" d="M309 1434h113l340 -748l606 748h111l-686 -838l-103 -596h-96l102 596z" />
<glyph unicode="Z" horiz-adv-x="1263" d="M53 0l13 78l1202 1272h-924l14 84h1051l-14 -80l-1207 -1272h1031l-13 -82h-1153z" />
<glyph unicode="[" horiz-adv-x="557" d="M92 -383l338 1899h352l-16 -78h-262l-309 -1743h262l-13 -78h-352z" />
<glyph unicode="\" horiz-adv-x="1007" d="M332 1505h94l500 -1591h-92z" />
<glyph unicode="]" horiz-adv-x="557" d="M-23 -383l13 78h258l309 1743h-262l16 78h353l-338 -1899h-349z" />
<glyph unicode="^" horiz-adv-x="978" d="M262 821l447 660h82l217 -660h-86l-187 574l-387 -574h-86z" />
<glyph unicode="_" horiz-adv-x="1433" d="M-47 -272l14 86h1430l-15 -86h-1429z" />
<glyph unicode="`" horiz-adv-x="860" d="M526 1481h111l133 -307h-80z" />
<glyph unicode="a" d="M182 510q25 145 110 264.5t219.5 191.5t289.5 72q151 0 254.5 -75.5t134.5 -200.5l45 254h94l-178 -1016h-94l43 256q-80 -127 -210.5 -203t-279.5 -76q-153 0 -260 71q-108 72 -150 193q-27 77 -27 166q0 50 9 103zM279 510q-8 -49 -9 -94q0 -131 72 -227 q96 -128 287 -128q189 0 337.5 129.5t180.5 319.5q8 47 8 90q0 72 -22 134q-36 100 -126.5 160t-220.5 60q-192 0 -333 -127.5t-174 -316.5z" />
<glyph unicode="b" d="M176 0l260 1481h94l-124 -719q77 126 205.5 201t279.5 75q158 0 265.5 -72t148.5 -191q25 -74 26 -158q0 -51 -10 -107q-37 -225 -212 -379t-404 -154q-149 0 -252.5 76t-139.5 203l-43 -256h-94zM356 510q-8 -45 -8 -87q0 -75 24 -141q38 -102 128 -161.5t215 -59.5 q191 0 334 128.5t176 320.5q9 50 9 95q0 69 -20 129q-33 100 -120.5 160t-216.5 60q-195 0 -341.5 -128t-179.5 -316z" />
<glyph unicode="c" horiz-adv-x="1095" d="M180 504q21 112 76.5 209t140 169.5t201.5 114t252 41.5q193 0 332 -114l-60 -68q-116 98 -284 98q-220 0 -373 -126t-191 -320q-7 -43 -7 -82q1 -78 27 -146q40 -100 139 -159.5t245 -59.5q165 0 319 99l37 -68q-180 -115 -372 -115q-133 0 -234.5 41t-161.5 112 q-60 72 -82 168q-12 53 -12 111q0 46 8 95z" />
<glyph unicode="d" d="M182 510q25 145 110 264.5t219.5 191.5t289.5 72q151 0 254.5 -75.5t134.5 -200.5l127 719h94l-260 -1481h-94l43 256q-80 -127 -210.5 -203t-279.5 -76q-153 0 -260 71q-108 72 -150 193q-27 77 -27 166q0 50 9 103zM279 510q-8 -49 -9 -94q0 -131 72 -227 q96 -128 287 -128q189 0 337.5 129.5t180.5 319.5q8 47 8 90q0 72 -22 134q-36 100 -126.5 160t-220.5 60q-192 0 -333 -127.5t-174 -316.5z" />
<glyph unicode="e" horiz-adv-x="1214" d="M180 504q18 109 77 207.5t143.5 170.5t194.5 114t226 42q97 0 177.5 -29.5t140.5 -88t85 -157.5q14 -55 14 -119q0 -51 -9 -107h-946q0 -2 -4 -16t-5 -23q-8 -44 -8 -84q0 -131 84 -227q110 -126 320 -126q219 0 387 140q7 -11 23.5 -28.5t23.5 -29.5 q-186 -166 -449 -166q-169 0 -287 72q-118 71 -166 191q-31 78 -31 168q0 46 9 96zM307 612h838q1 12 1 23q0 75 -23 133q-26 68 -74.5 107.5t-109.5 59t-132 19.5q-162 0 -300.5 -94.5t-199.5 -247.5z" />
<glyph unicode="f" horiz-adv-x="688" d="M219 938l12 78h179l16 94q16 90 46 159.5t67 112.5t82.5 71t89.5 39t92 11q132 0 192 -67q46 -51 46 -125q0 -23 -5 -49l-4 -17q-4 -19 -14 -37h-86q16 18 16 47q3 18 3 35q0 50 -32 84q-43 45 -133 45q-41 0 -79 -15t-74.5 -47.5t-66 -93.5t-44.5 -145l-18 -102h305 l-12 -78h-305l-166 -938h-95l166 938h-178z" />
<glyph unicode="g" horiz-adv-x="1325" d="M133 -350q12 13 28 39t27 39q135 -125 369 -125q191 0 328 115t174 305l41 233q-80 -127 -210.5 -203t-279.5 -76q-153 0 -260 71.5t-150 192.5q-27 77 -27 166q0 50 9 103q25 145 110 264.5t219.5 191.5t289.5 72q151 0 254.5 -75.5t134.5 -200.5l45 254h94l-178 -1000 q-41 -229 -208.5 -363t-397.5 -134q-130 0 -228.5 31.5t-183.5 99.5zM279 510q-8 -49 -8 -94q0 -132 71 -227q97 -128 287 -128q189 0 337.5 129.5t180.5 319.5q8 47 8 90q0 71 -22 134q-36 100 -126.5 160t-220.5 60q-192 0 -333 -127.5t-174 -316.5z" />
<glyph unicode="h" horiz-adv-x="1226" d="M176 0l260 1481h94l-124 -701q52 90 128.5 150.5t149 84t143.5 23.5q67 0 123 -13.5t107 -45t80 -83.5t41 -128q5 -29 5 -62q0 -54 -12 -118l-102 -588h-94l102 588q10 51 10 94q-1 29 -5 55q-12 63 -35 104.5t-63.5 66.5t-82 35.5t-88.5 10.5q-36 0 -80 -9.5 t-103.5 -38.5t-110 -74.5t-94.5 -125.5t-63 -182l-92 -524h-94z" />
<glyph unicode="i" horiz-adv-x="462" d="M184 0l178 1016h95l-178 -1016h-95zM397 1374q6 36 31.5 59t58.5 23q32 0 48 -22.5t10 -59.5q-6 -36 -30.5 -59t-57.5 -23q-32 0 -49 22.5t-11 59.5z" />
<glyph unicode="j" horiz-adv-x="536" d="M-227 -240l6 23q2 15 18 47h88q-22 -36 -22 -61q-3 -18 -3 -34q0 -49 28 -85q36 -47 112 -47q28 0 53.5 5.5t54 22t50.5 42t40.5 68.5t28.5 99l209 1176h94l-211 -1180q-15 -91 -50 -156t-82 -98.5t-95 -48t-102 -14.5q-124 0 -180 67q-42 51 -42 123q0 24 5 51z M473 1374q6 36 30.5 59t57.5 23q32 0 49 -22.5t11 -59.5q-6 -36 -31 -59t-58 -23q-32 0 -48.5 22.5t-10.5 59.5z" />
<glyph unicode="k" horiz-adv-x="1038" d="M174 0l260 1481h94l-161 -918l542 453h117l-561 -475l209 -308q27 -41 45.5 -66.5t45 -52t56 -39t64.5 -12.5q80 0 137 41l25 -69q-78 -58 -183 -58q-22 0 -43 4.5t-38.5 10t-36 17.5t-31 20t-29 25t-24.5 25.5t-23 28.5l-19.5 26t-18.5 27t-15 23l-226 342l-92 -526h-94 z" />
<glyph unicode="l" horiz-adv-x="462" d="M184 0l260 1481h95l-260 -1481h-95z" />
<glyph unicode="m" horiz-adv-x="1955" d="M176 0l178 1016h95l-41 -228q72 126 184 188t217 62q45 0 86 -7t84.5 -25.5t76.5 -48.5t56.5 -79.5t30.5 -113.5q41 76 97 132t114.5 85.5t111 43t101.5 13.5q57 0 105.5 -9t93 -30.5t74.5 -55.5t51 -84.5t22 -118.5v-10q0 -64 -12 -146l-103 -584h-94l102 584 q11 56 11 103q0 25 -3 47q-9 64 -30.5 105.5t-60 67.5t-81 36.5t-94.5 10.5q-39 0 -82.5 -11t-96.5 -41.5t-98 -76t-84.5 -122t-60.5 -173.5l-92 -530h-94l102 584q11 56 11 103q0 25 -3 47q-9 64 -30.5 105.5t-60 67.5t-81 36.5t-94.5 10.5q-40 0 -84.5 -12t-97.5 -43 t-98 -77.5t-84 -123.5t-58 -174l-92 -524h-94z" />
<glyph unicode="n" horiz-adv-x="1224" d="M176 0l178 1016h95l-43 -236q51 90 128.5 150.5t149.5 84t141 23.5q68 0 124 -14t107 -46t79.5 -84t40.5 -129q5 -30 6 -63q0 -54 -13 -118l-102 -584h-94l102 584q11 54 11 99q0 27 -4 51q-10 64 -32.5 105.5t-63 67.5t-84 36.5t-95.5 10.5q-41 0 -87.5 -11.5t-103 -43 t-105 -78t-89.5 -123.5t-60 -174l-92 -524h-94z" />
<glyph unicode="o" horiz-adv-x="1253" d="M180 506q24 144 118.5 267t230.5 194t278 71q146 0 256.5 -72t160.5 -194q33 -82 32 -174q0 -45 -7 -92q-24 -142 -118 -264t-231 -193.5t-282 -71.5q-143 0 -252.5 70t-159.5 192q-34 82 -34 175q0 45 8 92zM276 506q-8 -43 -8 -83q0 -131 80 -231q104 -130 285 -131 q119 0 231.5 59.5t190 162t98.5 223.5q7 43 7 84q0 132 -80 232q-105 132 -287 132q-117 0 -228.5 -60t-189.5 -163.5t-99 -224.5z" />
<glyph unicode="p" d="M92 -459l262 1475h95l-46 -256q79 127 209.5 202.5t280.5 75.5q152 0 260 -71t151 -192q27 -75 27 -160q0 -52 -10 -109q-25 -145 -110 -265t-219.5 -192t-289.5 -72q-151 0 -253.5 75.5t-135.5 201.5l-127 -713h-94zM356 506q-8 -46 -8 -89q0 -131 76 -227 q101 -129 295 -129q193 0 333 127.5t173 317.5q8 49 8 93q0 131 -72 227q-97 128 -287 128q-124 0 -235.5 -59t-186.5 -162t-96 -227z" />
<glyph unicode="q" horiz-adv-x="1325" d="M182 506q20 111 76 208.5t136 169t185.5 113t219.5 41.5q150 0 254 -76t135 -202l47 256h94l-262 -1475h-94l127 713q-77 -126 -207 -201.5t-281 -75.5q-119 0 -211 42t-145 114t-72 168q-11 50 -11 103q0 50 9 102zM279 506q-9 -49 -9 -94q0 -69 20 -130 q34 -101 121.5 -161t215.5 -60q195 0 341 128.5t179 316.5q8 47 8 90q0 133 -76 230q-101 128 -291 128q-191 0 -333.5 -128t-175.5 -320z" />
<glyph unicode="r" horiz-adv-x="688" d="M176 0l178 1016h95l-48 -268q128 290 387 290q48 0 72 -8l-14 -94q-37 12 -78 12q-163 0 -273 -152.5t-157 -404.5l-68 -391h-94z" />
<glyph unicode="s" horiz-adv-x="858" d="M113 188l94 25q17 -71 79.5 -108t157.5 -37q100 0 179 52t96 140q3 17 3 33q0 104 -132 151l-146 48q-198 58 -198 217q0 23 4 49q22 112 122.5 196t248.5 84q96 0 167 -49.5t89 -142.5l-86 -25q-16 65 -68 96t-119 31q-103 0 -174 -57t-84 -133q-2 -17 -2 -32 q0 -52 30 -84q38 -40 111 -64l146 -48q112 -37 157 -108q32 -51 32 -112q0 -24 -5 -50q-24 -127 -135.5 -205t-251.5 -78q-126 0 -210.5 56t-104.5 155z" />
<glyph unicode="t" horiz-adv-x="782" d="M197 938l12 78h182l82 327h72l-60 -327h336l-12 -78h-336l-113 -631q-7 -44 -8 -81q0 -165 150 -165q87 0 147 50.5t60 113.5l1 13q2 12 2 25.5t-3 23.5h88q2 -16 2 -47q0 -15 -2 -23q-19 -106 -102.5 -173t-207.5 -67q-232 0 -232 227q0 48 11 107l113 627h-182z" />
<glyph unicode="u" horiz-adv-x="1226" d="M224 251q-5 30 -5 63q0 54 12 118l105 584h94l-104 -584q-11 -54 -10 -99q0 -27 3 -51q10 -64 33 -106t63 -67.5t83.5 -36.5t95.5 -11q40 0 87 12t103 43t104.5 77.5t90.5 124t63 174.5l93 524h94l-178 -1016h-95l41 233q-77 -130 -194 -193t-228 -63q-68 0 -124 14 t-106.5 46t-79.5 84.5t-41 129.5z" />
<glyph unicode="v" horiz-adv-x="1040" d="M236 1016h100l203 -910l522 910h100l-590 -1016h-102z" />
<glyph unicode="w" horiz-adv-x="1697" d="M238 1016h98l190 -897l449 858h88l143 -858l512 897h99l-580 -1016h-92l-152 846l-440 -846h-92z" />
<glyph unicode="x" horiz-adv-x="1095" d="M20 0l558 539l-324 477h115l284 -418l432 418h113l-496 -477l373 -539h-117l-327 481l-494 -481h-117z" />
<glyph unicode="y" horiz-adv-x="1083" d="M229 -459l260 443l-260 1032h107l225 -922l539 922h108l-880 -1475h-99z" />
<glyph unicode="z" horiz-adv-x="1110" d="M55 0l11 72l972 864h-762l13 80h891l-15 -72l-970 -864h866l-12 -80h-994z" />
<glyph unicode="{" horiz-adv-x="557" d="M104 -158q7 44 33.5 110t47 107.5t59.5 116.5q92 174 106 248q1 16 3 27.5t-3 20.5t-8 15t-12.5 10.5t-16.5 7t-21 5.5t-25 4.5t-28 5t-32 6.5l12 78q20 4 49.5 9t43 7.5t31.5 9t27 15t17 24t12 38.5q15 75 -18 247q-39 228 -19 334q19 115 102.5 174.5t186.5 59.5 q44 0 88 -13l-12 -71q-41 8 -82 8q-73 0 -123 -42.5t-67 -129.5q-20 -88 14 -277q2 -14 7.5 -48.5t7 -47.5t5 -39.5t4 -40t1.5 -33.5t-0.5 -35.5t-4.5 -31.5q-11 -62 -41 -94.5t-90 -61.5q51 -28 69.5 -60.5t8.5 -94.5q-3 -14 -7.5 -29t-8.5 -27.5t-12.5 -32t-14 -31.5 t-18 -36.5t-18.5 -36t-21.5 -41.5t-22.5 -43q-96 -188 -110 -276q-16 -87 20 -129.5t109 -42.5q45 0 86 8l-12 -72q-47 -12 -93 -12q-104 0 -166 58.5t-43 174.5z" />
<glyph unicode="|" horiz-adv-x="407" d="M78 -459l360 2026h84l-360 -2026h-84z" />
<glyph unicode="}" horiz-adv-x="557" d="M14 -379l13 72q36 -8 82 -8q73 0 124 42.5t68 129.5q12 75 -16 276q-3 22 -10 66t-10 64t-6 50.5t-2 53t5 43.5q10 61 40.5 93.5t92.5 61.5q-52 29 -70.5 61.5t-7.5 94.5q5 26 18 60t24.5 58t38 77l40.5 81q98 195 115 277q16 87 -21 129.5t-110 42.5q-48 0 -84 -8l12 71 q50 13 92 13q104 0 165 -59t42 -175q-21 -110 -137 -334q-97 -183 -109 -247q-3 -15 -3 -27t3 -20.5t7 -15t12.5 -11t16.5 -7.5t21 -5.5t24.5 -4.5t29.5 -5.5t33 -6.5l-15 -78q-21 -4 -49.5 -9t-42.5 -7.5t-32 -8.5t-27 -15t-17 -24t-12 -38q-13 -68 19 -236q1 -8 2 -12 q37 -219 18 -334t-102 -174t-187 -59q-47 0 -88 12z" />
<glyph unicode="~" horiz-adv-x="1308" d="M262 602q38 84 111 136.5t172 52.5q49 0 99 -21.5t91 -52.5t80.5 -62.5t83.5 -53t84 -21.5q71 0 131 37.5t103 103.5l51 -51q-121 -178 -297 -178q-50 0 -98.5 21.5t-89 52.5t-79.5 62t-85 52.5t-91 21.5q-69 0 -126.5 -39.5t-88.5 -105.5z" />
<glyph unicode="&#xa1;" horiz-adv-x="423" d="M80 -428l31 176l172 844h61l-125 -842l-33 -178h-106zM297 946q6 35 33.5 58.5t62.5 23.5t54.5 -23.5t13.5 -58.5t-34.5 -58.5t-64.5 -23.5q-35 0 -53 23t-12 59z" />
<glyph unicode="&#xa2;" horiz-adv-x="1153" d="M197 504q21 112 76.5 209t140.5 169.5t203.5 114t256.5 41.5l72 193h74l-74 -199q154 -28 252 -108l-59 -68q-91 77 -224 94l-321 -880q46 -9 102 -9q166 0 320 99l35 -68q-180 -115 -373 -115q-46 0 -117 11l-76 -209h-75l82 223q-170 49 -247.5 184.5t-47.5 317.5z M293 508q-23 -151 37 -263t194 -159l320 868q-216 -4 -364.5 -129.5t-186.5 -316.5z" />
<glyph unicode="&#xa3;" horiz-adv-x="1263" d="M80 0l12 82q67 0 129.5 16.5t122.5 51.5t103.5 100t58.5 153q15 92 8 152h-272l12 68h252l-19 104q-6 32 -17.5 87.5t-15 75t-9 54.5t-6 52t0 40t4.5 45q32 170 179.5 272.5t343.5 102.5q69 0 126.5 -13t95.5 -36t66.5 -53t40.5 -64.5t17.5 -70.5t-2.5 -70h-99 q14 88 -50.5 153.5t-209.5 65.5q-158 0 -270.5 -77t-136.5 -210q-3 -42 -4 -62.5t6.5 -68t14.5 -83t19.5 -106.5t22.5 -138h400l-13 -68h-381q6 -78 -6 -152q-39 -225 -246 -321l-2 -6q49 6 142 6h680l-13 -82h-1085z" />
<glyph unicode="&#xa4;" horiz-adv-x="1050" d="M207 340l119 104q-58 93 -39 220q22 111 106 208l-76 101l74 59l76 -96q109 82 238 82q127 0 215 -82l108 96l47 -59l-112 -101q57 -88 32 -208q-21 -121 -110 -220l80 -104l-70 -59l-86 104q-107 -76 -229 -76q-116 0 -205 76l-117 -104zM371 664q-22 -117 43 -198 t178 -81q115 0 208 81t113 198t-44 197.5t-179 80.5q-111 0 -204 -81t-115 -197z" />
<glyph unicode="&#xa5;" horiz-adv-x="1318" d="M258 289l14 84h404l31 162h-404l14 83h390l-379 816h112l342 -748l604 748h111l-666 -816h392l-15 -83h-405l-31 -162h406l-15 -84h-405l-49 -289h-97l50 289h-404z" />
<glyph unicode="&#xa6;" horiz-adv-x="432" d="M90 -459l152 850h84l-152 -850h-84zM299 717l152 852h84l-152 -852h-84z" />
<glyph unicode="&#xa7;" horiz-adv-x="1167" d="M82 -254l55 70q139 -83 400 -95q160 0 271 56t126 157q12 63 -45 127t-199 117l-223 80q-124 48 -183 130.5t-40 184.5q17 95 100.5 171.5t206.5 119.5q-251 122 -223 295q24 137 167 217t341 80q298 -13 438 -108l-55 -70q-126 81 -400 94q-160 0 -267.5 -55.5 t-127.5 -157.5q-19 -146 242 -246l223 -79q124 -48 184 -130t41 -184q-18 -96 -102.5 -174.5t-208.5 -120.5q255 -122 227 -291q-24 -137 -168 -218t-342 -81q-291 13 -438 111zM340 573q-13 -73 33 -136.5t139 -100.5l188 -70q125 24 215 99.5t103 154.5q12 74 -35 137.5 t-139 98.5l-189 69q-128 -25 -214.5 -97.5t-100.5 -154.5z" />
<glyph unicode="&#xa8;" horiz-adv-x="1110" d="M498 1319q6 32 31.5 55t56.5 23q32 0 49.5 -23t11.5 -55q-5 -31 -30.5 -52.5t-57.5 -21.5q-31 0 -49 21.5t-12 52.5zM926 1319q6 32 31.5 55t56.5 23q32 0 49.5 -23t11.5 -55q-5 -31 -30.5 -52.5t-57.5 -21.5q-31 0 -49 21.5t-12 52.5z" />
<glyph unicode="&#xa9;" horiz-adv-x="1685" d="M240 717q38 203 162.5 372t309 268t386.5 99q121 0 226.5 -37.5t182 -104.5t128.5 -159.5t66 -203t-5 -234.5q-35 -202 -162 -372t-312 -269t-386 -99q-152 0 -276.5 58.5t-203.5 157.5t-111 235.5t-5 288.5zM311 717q-24 -136 4.5 -260t99.5 -214.5t183 -144t248 -53.5 q181 0 349 90.5t282 245t147 336.5q24 136 -5 260t-100 214.5t-183.5 144t-248.5 53.5q-181 0 -348.5 -90.5t-281 -245t-146.5 -336.5zM592 707q29 160 156 268t309 108q137 0 229 -82l-41 -55q-85 68 -198 68q-150 0 -253 -89.5t-124 -215.5q-14 -81 9.5 -150t90 -113.5 t166.5 -44.5q114 0 225 72l21 -59q-127 -82 -256 -82q-181 0 -272.5 108.5t-61.5 266.5z" />
<glyph unicode="&#xaa;" horiz-adv-x="1048" d="M276 494l13 67h659l-12 -67h-660zM354 1104q25 149 136.5 249.5t265.5 100.5q93 0 157.5 -42t94.5 -118l26 144h78l-119 -672h-78l25 143q-55 -73 -136 -115t-171 -42q-151 0 -229.5 101t-49.5 251zM434 1104q-21 -122 37 -201.5t180 -79.5q117 0 210.5 79t113.5 200 q21 120 -42.5 200t-184.5 80q-123 0 -208 -79.5t-106 -198.5z" />
<glyph unicode="&#xab;" horiz-adv-x="1058" d="M209 600l428 410l51 -47l-379 -363l250 -362l-67 -50zM618 600l429 410l51 -47l-379 -363l250 -362l-68 -50z" />
<glyph unicode="&#xac;" horiz-adv-x="1269" d="M305 819l14 88h945l-86 -469h-84l69 381h-858z" />
<glyph unicode="&#xad;" horiz-adv-x="1179" d="M285 672l14 88h838l-15 -88h-837z" />
<glyph unicode="&#xae;" horiz-adv-x="1685" d="M240 717q35 201 160.5 371t311 269t386.5 99q121 0 226.5 -37.5t181.5 -105t128 -160t66 -203t-4 -233.5q-35 -202 -162 -372t-312 -269t-386 -99q-152 0 -276.5 58.5t-203.5 157.5t-111 235.5t-5 288.5zM311 717q-24 -138 4.5 -262t99.5 -214t183 -143t248 -53t267.5 53 t235.5 143t177.5 214t97.5 262q33 183 -26.5 336.5t-195 243t-317.5 89.5t-349 -89.5t-279.5 -243t-145.5 -336.5zM668 354l129 727h276q99 0 144.5 -63.5t27.5 -159.5q-14 -81 -67 -137.5t-136 -73.5l125 -293h-90l-119 289h-167l-52 -289h-71zM803 707h198q66 0 112.5 43 t57.5 108q11 69 -19 114.5t-95 45.5h-199z" />
<glyph unicode="&#xaf;" horiz-adv-x="1030" d="M494 1296l14 78h498l-15 -78h-497z" />
<glyph unicode="&#xb0;" horiz-adv-x="849" d="M309 1155q25 139 133.5 232.5t243.5 93.5q137 0 212 -93.5t50 -232.5q-25 -134 -134 -227.5t-245 -93.5q-135 0 -210 93.5t-50 227.5zM387 1155q-17 -104 39.5 -176t159.5 -72t184 72t98 176q19 109 -35.5 180.5t-158.5 71.5q-103 0 -185 -72.5t-102 -179.5z" />
<glyph unicode="&#xb1;" horiz-adv-x="1273" d="M223 223l13 82h905l-13 -82h-905zM328 813l14 84h410l59 344h84l-59 -344h411l-14 -84h-412l-61 -346h-84l61 346h-409z" />
<glyph unicode="&#xb2;" horiz-adv-x="657" d="M236 911q0 1 1 20.5t5 33.5l358 266q121 86 139 190q12 71 -27 108.5t-122 37.5q-79 0 -124.5 -35.5t-59.5 -85.5h-80q14 75 87 132.5t191 57.5q115 0 171.5 -59t39.5 -158q-20 -122 -174 -237l-274 -203q17 0 47 1t45 1h311l-12 -70h-522z" />
<glyph unicode="&#xb3;" horiz-adv-x="653" d="M229 971l58 53q29 -29 77 -46t99 -17q100 0 165.5 48.5t78.5 120.5q13 76 -33 121t-127 45q-70 0 -119 -28l-22 49l313 248h-361l11 63h477l-6 -39l-289 -235h14q112 0 173.5 -62t43.5 -164q-20 -103 -106.5 -169t-222.5 -66q-146 0 -224 78z" />
<glyph unicode="&#xb4;" horiz-adv-x="860" d="M471 1174l244 307h110l-276 -307h-78z" />
<glyph unicode="&#xb5;" horiz-adv-x="1208" d="M102 -291l234 1307h94l-104 -584q-17 -86 -7 -149.5t33 -106t63 -68t83.5 -36.5t95.5 -11q40 0 86.5 12t103.5 43t105.5 77.5t90 124.5t60.5 174l95 524h94l-178 -1016h-95l41 233q-77 -130 -194 -193t-228 -63q-225 0 -305 136l-73 -404h-95z" />
<glyph unicode="&#xb6;" horiz-adv-x="1224" d="M274 1141q20 126 127 216.5t236 90.5h309l-2 -10q-49 -30 -76 -71.5t-39 -111.5l-274 -1542h-82l197 1118h-144q-128 0 -202.5 90.5t-49.5 219.5zM692 -287l269 1520q20 111 78.5 172t170.5 61q97 0 141.5 -49t30.5 -125l-4 -22q-2 -15 -18 -47h-78q18 30 18 63 q6 49 -20 77t-84 28q-127 0 -152 -156l-270 -1522h-82z" />
<glyph unicode="&#xb7;" horiz-adv-x="462" d="M246 553q6 35 32.5 58.5t61.5 23.5t55.5 -23.5t16.5 -58.5q-7 -35 -37 -58.5t-66 -23.5q-35 0 -52 23t-11 59z" />
<glyph unicode="&#xb8;" horiz-adv-x="933" d="M162 -238l61 31q5 -75 53.5 -124.5t122.5 -49.5q72 0 135.5 47t77.5 127q9 53 -12.5 109.5t-87.5 101.5l4 16h64q73 -51 94.5 -115.5t11.5 -123.5q-20 -112 -109 -175t-190 -63t-160.5 61.5t-64.5 157.5z" />
<glyph unicode="&#xb9;" horiz-adv-x="395" d="M299 1522l242 106h43l-127 -717h-78l110 625l-184 -78z" />
<glyph unicode="&#xba;" horiz-adv-x="1028" d="M270 494l13 67h659l-12 -67h-660zM354 1100q25 145 146.5 248.5t267.5 103.5t232 -105t61 -247q-28 -146 -149 -248t-269 -102t-231 101t-58 249zM432 1100q-22 -117 44.5 -198t180.5 -81q111 0 207.5 81.5t118.5 197.5q20 115 -47 197.5t-180 82.5t-208.5 -82.5 t-115.5 -197.5z" />
<glyph unicode="&#xbb;" horiz-adv-x="1058" d="M168 238l381 362l-252 363l70 47l282 -410l-428 -412zM578 238l380 362l-251 363l69 47l283 -410l-428 -412z" />
<glyph unicode="&#xbc;" horiz-adv-x="1654" d="M156 -84l1409 1591h94l-1409 -1591h-94zM309 1327l242 107h43l-129 -721h-78l115 628l-185 -77zM975 195l4 45l514 477h49l-82 -457h160l-8 -65h-160l-35 -195h-76l35 195h-401zM1079 260h305l60 332z" />
<glyph unicode="&#xbd;" horiz-adv-x="1714" d="M145 -84l1409 1591h95l-1409 -1591h-95zM309 1327l242 107h43l-129 -721h-78l115 628l-185 -77zM1108 0q-2 16 4 53l358 271q125 93 142 190q12 71 -27.5 108t-122.5 37q-80 0 -127 -35.5t-59 -84.5h-80q13 74 88 132t191 58q115 0 172.5 -59t40.5 -158 q-20 -122 -175 -238l-274 -206q17 0 47 1t45 1h311l-12 -70h-522z" />
<glyph unicode="&#xbe;" horiz-adv-x="1812" d="M227 776l56 53q31 -29 79 -46t99 -17q100 0 164 48.5t77 121.5q13 76 -32 121t-125 45q-68 0 -121 -29l-21 49l314 248h-361l9 64h477l-4 -39l-289 -236h14q112 0 172.5 -61t42.5 -164t-104.5 -169.5t-222.5 -66.5q-68 0 -128 20.5t-96 57.5zM313 -84l1411 1591h95 l-1411 -1591h-95zM1133 195l6 45l514 477h49l-84 -457h160l-9 -65h-159l-33 -195h-76l33 195h-401zM1237 260h305l62 332z" />
<glyph unicode="&#xbf;" horiz-adv-x="1030" d="M59 -74q12 67 49.5 130t80 107.5t105.5 90.5t105 71t100 57q9 5 13 7q23 13 40.5 25t30 28t20 25t14 30t8 27.5t6.5 34t6 33.5h90l-16 -92q-8 -58 -36 -92.5t-114 -81.5q-44 -25 -71 -40t-71 -43.5t-72.5 -50.5t-64 -54.5t-57.5 -63.5t-40 -69.5t-25 -78.5 q-24 -129 66.5 -210t244.5 -81q85 0 154 20t112.5 54.5t69.5 73.5t35 82l6 69h88q4 -56 -2 -77q-8 -51 -41 -103t-90 -99t-149.5 -76.5t-204.5 -29.5q-193 0 -306 104.5t-84 272.5zM664 946q6 35 35 58.5t65 23.5q35 0 52 -23t11 -59q-6 -35 -32.5 -58.5t-61.5 -23.5 t-55 23.5t-14 58.5z" />
<glyph unicode="&#xc0;" horiz-adv-x="1349" d="M33 0l831 1434h123l330 -1434h-103l-75 322h-820l-184 -322h-102zM369 406h753l-211 935zM795 1851h108l119 -284h-78z" />
<glyph unicode="&#xc1;" horiz-adv-x="1349" d="M33 0l831 1434h123l330 -1434h-103l-75 322h-820l-184 -322h-102zM369 406h753l-211 935zM879 1567l223 284h106l-252 -284h-77z" />
<glyph unicode="&#xc2;" horiz-adv-x="1349" d="M33 0l831 1434h123l330 -1434h-103l-75 322h-820l-184 -322h-102zM369 406h753l-211 935zM686 1567l264 284h107l162 -284h-76q-96 145 -154 223q-112 -112 -229 -223h-74z" />
<glyph unicode="&#xc3;" horiz-adv-x="1349" d="M33 0l831 1434h123l330 -1434h-103l-75 322h-820l-184 -322h-102zM369 406h753l-211 935zM684 1622q43 92 81.5 127t90.5 35q48 0 130 -45t122 -45q35 0 55 18t58 76l47 -10q-43 -91 -80 -124.5t-90 -33.5q-48 0 -129 44t-125 44q-35 0 -55 -19t-58 -79z" />
<glyph unicode="&#xc4;" horiz-adv-x="1349" d="M33 0l831 1434h123l330 -1434h-103l-75 322h-820l-184 -322h-102zM369 406h753l-211 935zM686 1690q6 31 31 53t55 22q32 0 50.5 -22t13.5 -53q-6 -31 -32.5 -53.5t-58.5 -22.5q-31 0 -48 22.5t-11 53.5zM1114 1690q6 31 31 53t55 22q32 0 50.5 -22t13.5 -53 q-6 -31 -32 -53.5t-58 -22.5q-31 0 -48.5 22.5t-11.5 53.5z" />
<glyph unicode="&#xc5;" horiz-adv-x="1349" d="M33 0l831 1434h123l330 -1434h-103l-75 322h-820l-184 -322h-102zM369 406h753l-211 935zM793 1726q13 76 76 124t143 48t125 -47.5t32 -124.5q-13 -76 -76 -123t-143 -47t-125 47t-32 123zM852 1726q-10 -53 20 -85.5t86 -32.5q55 0 97.5 32.5t52.5 85.5t-21 86t-86 33 q-56 0 -97.5 -32.5t-51.5 -86.5z" />
<glyph unicode="&#xc6;" horiz-adv-x="1845" d="M-10 0l1102 1434h895l-15 -84h-727l-110 -619h637l-15 -84h-637l-100 -565h727l-12 -82h-824l113 649h-430l-498 -649h-106zM655 731h383l111 619h-19z" />
<glyph unicode="&#xc7;" horiz-adv-x="1427" d="M233 717q27 150 104 284t192.5 235t273.5 160.5t336 59.5q264 0 440 -149l-53 -78q-156 139 -404 139q-155 0 -293 -52t-238.5 -141.5t-167.5 -207.5t-89 -250q-17 -107 -8 -203t53.5 -178t113 -142t171.5 -94t227 -34q246 0 455 137l22 -78q-104 -70 -213 -107t-244 -41 q76 -82 58 -196q-20 -112 -109 -175t-190 -63t-161 61.5t-65 157.5l62 31q5 -75 53.5 -124.5t122.5 -49.5q72 0 135.5 47t77.5 127q19 104 -68 187q-166 8 -292.5 70t-199.5 162t-100 229.5t-2 275.5z" />
<glyph unicode="&#xc8;" horiz-adv-x="1200" d="M223 0l252 1434h866l-14 -84h-770l-106 -607h673l-16 -84h-674l-102 -577h770l-12 -82h-867zM762 1851h108l119 -284h-78z" />
<glyph unicode="&#xc9;" horiz-adv-x="1200" d="M223 0l252 1434h866l-14 -84h-770l-106 -607h673l-16 -84h-674l-102 -577h770l-12 -82h-867zM831 1567l224 284h106l-252 -284h-78z" />
<glyph unicode="&#xca;" horiz-adv-x="1200" d="M223 0l252 1434h866l-14 -84h-770l-106 -607h673l-16 -84h-674l-102 -577h770l-12 -82h-867zM649 1567l264 284h107l162 -284h-76l-154 223l-229 -223h-74z" />
<glyph unicode="&#xcb;" horiz-adv-x="1200" d="M223 0l252 1434h866l-14 -84h-770l-106 -607h673l-16 -84h-674l-102 -577h770l-12 -82h-867zM629 1690q6 31 31 53t55 22q32 0 50 -22t13 -53q-6 -31 -32 -53.5t-58 -22.5q-31 0 -48 22.5t-11 53.5zM1057 1690q6 31 31 53t55 22q32 0 50 -22t13 -53q-6 -31 -32 -53.5 t-58 -22.5q-31 0 -48 22.5t-11 53.5z" />
<glyph unicode="&#xcc;" horiz-adv-x="542" d="M223 0l252 1434h96l-252 -1434h-96zM389 1851h109l118 -284h-77z" />
<glyph unicode="&#xcd;" horiz-adv-x="542" d="M223 0l252 1434h96l-252 -1434h-96zM477 1567l223 284h107l-252 -284h-78z" />
<glyph unicode="&#xce;" horiz-adv-x="542" d="M223 0l252 1434h96l-252 -1434h-96zM281 1567l264 284h106l162 -284h-76l-153 223l-230 -223h-73z" />
<glyph unicode="&#xcf;" horiz-adv-x="542" d="M223 0l252 1434h96l-252 -1434h-96zM281 1690q6 31 31 53t55 22q32 0 50 -22t13 -53q-6 -31 -32 -53.5t-58 -22.5q-31 0 -48 22.5t-11 53.5zM709 1690q6 31 31 53t55 22q32 0 50 -22t13 -53q-6 -31 -32 -53.5t-58 -22.5q-31 0 -48 22.5t-11 53.5z" />
<glyph unicode="&#xd0;" horiz-adv-x="1480" d="M168 659l12 76h170l123 699h397q123 0 225 -25.5t175 -72.5t126 -112.5t78.5 -145t32 -171t-13.5 -190.5q-22 -120 -70 -226.5t-124 -196.5t-174.5 -155.5t-227.5 -102t-276 -36.5h-398l115 659h-170zM332 84h301q158 0 292.5 49.5t229 136.5t155.5 201t83 246 q15 105 8.5 199.5t-46.5 174t-104 137t-165 90t-228 32.5h-301l-111 -615h396l-13 -76h-395z" />
<glyph unicode="&#xd1;" horiz-adv-x="1550" d="M223 0l252 1434h80l705 -1262l223 1262h96l-252 -1434h-78l-706 1264l-224 -1264h-96zM780 1622q43 92 81.5 127t90.5 35q48 0 130 -45t122 -45q35 0 55 18t58 76l47 -10q-43 -91 -80 -124.5t-90 -33.5q-48 0 -129 44t-125 44q-35 0 -55 -19t-58 -79z" />
<glyph unicode="&#xd2;" horiz-adv-x="1699" d="M231 717q35 200 165.5 370.5t319.5 269.5t390 99q151 0 278 -58.5t208.5 -157.5t116.5 -236t9 -287q-27 -150 -110 -287t-200.5 -236.5t-265.5 -158t-298 -58.5q-151 0 -278 58.5t-209 158t-117 236.5t-9 287zM330 717q-24 -132 5.5 -253t101 -208t181.5 -138.5 t240 -51.5q175 0 338 87t275 237t145 327q24 132 -5.5 253t-100.5 208t-180.5 138.5t-239.5 51.5q-174 0 -337.5 -87t-277 -237t-145.5 -327zM909 1851h109l117 -284h-78z" />
<glyph unicode="&#xd3;" horiz-adv-x="1699" d="M231 717q35 200 165.5 370.5t319.5 269.5t390 99q151 0 278 -58.5t208.5 -157.5t116.5 -236t9 -287q-27 -150 -110 -287t-200.5 -236.5t-265.5 -158t-298 -58.5q-151 0 -278 58.5t-209 158t-117 236.5t-9 287zM330 717q-24 -132 5.5 -253t101 -208t181.5 -138.5 t240 -51.5q175 0 338 87t275 237t145 327q24 132 -5.5 253t-100.5 208t-180.5 138.5t-239.5 51.5q-174 0 -337.5 -87t-277 -237t-145.5 -327zM1038 1567l226 284h106l-254 -284h-78z" />
<glyph unicode="&#xd4;" horiz-adv-x="1699" d="M231 717q35 200 165.5 370.5t319.5 269.5t390 99q151 0 278 -58.5t208.5 -157.5t116.5 -236t9 -287q-27 -150 -110 -287t-200.5 -236.5t-265.5 -158t-298 -58.5q-151 0 -278 58.5t-209 158t-117 236.5t-9 287zM330 717q-24 -132 5.5 -253t101 -208t181.5 -138.5 t240 -51.5q175 0 338 87t275 237t145 327q24 132 -5.5 253t-100.5 208t-180.5 138.5t-239.5 51.5q-174 0 -337.5 -87t-277 -237t-145.5 -327zM858 1567l266 284h107l160 -284h-76l-154 223l-229 -223h-74z" />
<glyph unicode="&#xd5;" horiz-adv-x="1699" d="M231 717q35 200 165.5 370.5t319.5 269.5t390 99q151 0 278 -58.5t208.5 -157.5t116.5 -236t9 -287q-27 -150 -110 -287t-200.5 -236.5t-265.5 -158t-298 -58.5q-151 0 -278 58.5t-209 158t-117 236.5t-9 287zM330 717q-24 -132 5.5 -253t101 -208t181.5 -138.5 t240 -51.5q175 0 338 87t275 237t145 327q24 132 -5.5 253t-100.5 208t-180.5 138.5t-239.5 51.5q-174 0 -337.5 -87t-277 -237t-145.5 -327zM858 1622q44 92 81 127t89 35q48 0 130 -45t122 -45q36 0 58 19t55 75l47 -10q-42 -91 -78.5 -124.5t-89.5 -33.5q-48 0 -129 44 t-125 44q-35 0 -57 -20t-56 -78z" />
<glyph unicode="&#xd6;" horiz-adv-x="1699" d="M231 717q35 200 165.5 370.5t319.5 269.5t390 99q151 0 278 -58.5t208.5 -157.5t116.5 -236t9 -287q-27 -150 -110 -287t-200.5 -236.5t-265.5 -158t-298 -58.5q-151 0 -278 58.5t-209 158t-117 236.5t-9 287zM330 717q-24 -132 5.5 -253t101 -208t181.5 -138.5 t240 -51.5q175 0 338 87t275 237t145 327q24 132 -5.5 253t-100.5 208t-180.5 138.5t-239.5 51.5q-174 0 -337.5 -87t-277 -237t-145.5 -327zM858 1690q6 31 31.5 53t56.5 22q32 0 50 -22t12 -53q-5 -31 -30.5 -53.5t-57.5 -22.5q-31 0 -49.5 22.5t-12.5 53.5zM1286 1690 q6 31 31.5 53t56.5 22q32 0 50 -22t12 -53q-5 -31 -30.5 -53.5t-57.5 -22.5q-31 0 -49.5 22.5t-12.5 53.5z" />
<glyph unicode="&#xd7;" horiz-adv-x="1011" d="M195 309l356 305l-248 306l68 59l252 -305l356 305l53 -59l-362 -306l254 -305l-72 -61l-250 307l-360 -307z" />
<glyph unicode="&#xd8;" horiz-adv-x="1697" d="M231 717q37 201 167 371t319 269t391 99q204 0 358 -104l140 161l59 -47l-137 -161q119 -105 170.5 -258t19.5 -330q-27 -150 -110 -287t-200.5 -236.5t-265.5 -158t-298 -58.5q-201 0 -357 99l-125 -152q-33 23 -57 47l125 150q-125 106 -179 260.5t-20 335.5zM332 717 q-29 -156 15.5 -291.5t146.5 -228.5l909 1079q-142 92 -313 92q-174 0 -337 -87t-276 -237t-145 -327zM553 152q133 -86 305 -86q174 0 337.5 87t277 237t145.5 327q29 153 -12.5 286.5t-141.5 225.5z" />
<glyph unicode="&#xd9;" horiz-adv-x="1499" d="M293 516l162 918h96l-162 -918q-20 -110 0.5 -197.5t74 -141.5t129.5 -82.5t169 -28.5t178.5 28t157 82.5t123 142t71.5 197.5l162 918h96l-161 -918q-24 -130 -86 -234t-148.5 -169.5t-190 -100.5t-216.5 -35q-114 0 -207 35t-157.5 100.5t-89.5 169.5t-1 234zM870 1851 h109l117 -284h-78z" />
<glyph unicode="&#xda;" horiz-adv-x="1499" d="M293 516l162 918h96l-162 -918q-20 -110 0.5 -197.5t74 -141.5t129.5 -82.5t169 -28.5t178.5 28t157 82.5t123 142t71.5 197.5l162 918h96l-161 -918q-24 -130 -86 -234t-148.5 -169.5t-190 -100.5t-216.5 -35q-114 0 -207 35t-157.5 100.5t-89.5 169.5t-1 234zM942 1567 l225 284h107l-254 -284h-78z" />
<glyph unicode="&#xdb;" horiz-adv-x="1499" d="M293 516l162 918h96l-162 -918q-20 -110 0.5 -197.5t74 -141.5t129.5 -82.5t169 -28.5t178.5 28t157 82.5t123 142t71.5 197.5l162 918h96l-161 -918q-24 -130 -86 -234t-148.5 -169.5t-190 -100.5t-216.5 -35q-114 0 -207 35t-157.5 100.5t-89.5 169.5t-1 234zM760 1567 l266 284h107l159 -284h-75l-154 223l-229 -223h-74z" />
<glyph unicode="&#xdc;" horiz-adv-x="1499" d="M293 516l162 918h96l-162 -918q-20 -110 0.5 -197.5t74 -141.5t129.5 -82.5t169 -28.5t178.5 28t157 82.5t123 142t71.5 197.5l162 918h96l-161 -918q-24 -130 -86 -234t-148.5 -169.5t-190 -100.5t-216.5 -35q-114 0 -207 35t-157.5 100.5t-89.5 169.5t-1 234zM760 1690 q6 31 31 53t55 22q32 0 50.5 -22t12.5 -53t-31 -53.5t-57 -22.5q-31 0 -49 22.5t-12 53.5zM1188 1690q6 31 31 53t55 22q32 0 50.5 -22t12.5 -53t-31 -53.5t-57 -22.5q-31 0 -49 22.5t-12 53.5z" />
<glyph unicode="&#xdd;" horiz-adv-x="1284" d="M309 1434h113l340 -748l606 748h111l-686 -838l-103 -596h-96l102 596zM848 1567l223 284h107l-252 -284h-78z" />
<glyph unicode="&#xde;" horiz-adv-x="1165" d="M223 0l252 1434h96l-59 -344h444q94 0 159.5 -52t90.5 -136.5t8 -182.5q-26 -150 -138.5 -258.5t-260.5 -108.5h-436l-60 -352h-96zM395 436h436q102 0 182 84t101 199q22 115 -28 201t-146 86h-444z" />
<glyph unicode="&#xdf;" horiz-adv-x="1185" d="M176 0l191 1085q35 198 152.5 303t303.5 105q177 0 266 -89.5t60 -250.5q-21 -116 -106.5 -206.5t-227.5 -127.5q189 -25 282.5 -146t63.5 -294q-30 -163 -169 -271t-328 -108h-107q-3 12 -3.5 25.5t0.5 31.5t1 25h121q144 0 256.5 86.5t132.5 210.5q30 159 -74.5 268 t-310.5 121l-6 90q158 11 260.5 96.5t118.5 192.5q23 126 -44 194t-200 68q-140 0 -228.5 -83.5t-117.5 -240.5l-191 -1085h-96z" />
<glyph unicode="&#xe0;" d="M182 510q25 145 110 264.5t219.5 191.5t289.5 72q151 0 254.5 -75.5t134.5 -200.5l45 254h94l-178 -1016h-94l43 256q-80 -127 -210.5 -203t-279.5 -76q-153 0 -260 71.5t-149.5 192.5t-18.5 269zM279 510q-33 -193 63.5 -321t286.5 -128q189 0 337.5 129.5t180.5 319.5 q22 123 -14 223.5t-126.5 160.5t-220.5 60q-192 0 -333 -127.5t-174 -316.5zM659 1481h111l133 -307h-80z" />
<glyph unicode="&#xe1;" d="M182 510q25 145 110 264.5t219.5 191.5t289.5 72q151 0 254.5 -75.5t134.5 -200.5l45 254h94l-178 -1016h-94l43 256q-80 -127 -210.5 -203t-279.5 -76q-153 0 -260 71.5t-149.5 192.5t-18.5 269zM279 510q-33 -193 63.5 -321t286.5 -128q189 0 337.5 129.5t180.5 319.5 q22 123 -14 223.5t-126.5 160.5t-220.5 60q-192 0 -333 -127.5t-174 -316.5zM762 1174l244 307h110l-276 -307h-78z" />
<glyph unicode="&#xe2;" d="M182 510q25 145 110 264.5t219.5 191.5t289.5 72q151 0 254.5 -75.5t134.5 -200.5l45 254h94l-178 -1016h-94l43 256q-80 -127 -210.5 -203t-279.5 -76q-153 0 -260 71.5t-149.5 192.5t-18.5 269zM279 510q-33 -193 63.5 -321t286.5 -128q189 0 337.5 129.5t180.5 319.5 q22 123 -14 223.5t-126.5 160.5t-220.5 60q-192 0 -333 -127.5t-174 -316.5zM532 1174l285 307h109l174 -307h-74l-166 243l-254 -243h-74z" />
<glyph unicode="&#xe3;" d="M182 510q25 145 110 264.5t219.5 191.5t289.5 72q151 0 254.5 -75.5t134.5 -200.5l45 254h94l-178 -1016h-94l43 256q-80 -127 -210.5 -203t-279.5 -76q-153 0 -260 71.5t-149.5 192.5t-18.5 269zM279 510q-33 -193 63.5 -321t286.5 -128q189 0 337.5 129.5t180.5 319.5 q22 123 -14 223.5t-126.5 160.5t-220.5 60q-192 0 -333 -127.5t-174 -316.5zM535 1262q46 94 83 127.5t89 33.5q49 0 130 -44t121 -44q35 0 56 18.5t59 76.5l47 -11q-43 -93 -80.5 -126t-91.5 -33q-49 0 -128.5 45t-123.5 45q-34 0 -54 -19t-60 -80z" />
<glyph unicode="&#xe4;" d="M182 510q25 145 110 264.5t219.5 191.5t289.5 72q151 0 254.5 -75.5t134.5 -200.5l45 254h94l-178 -1016h-94l43 256q-80 -127 -210.5 -203t-279.5 -76q-153 0 -260 71.5t-149.5 192.5t-18.5 269zM279 510q-33 -193 63.5 -321t286.5 -128q189 0 337.5 129.5t180.5 319.5 q22 123 -14 223.5t-126.5 160.5t-220.5 60q-192 0 -333 -127.5t-174 -316.5zM532 1319q6 32 32 55t57 23q32 0 49.5 -23t11.5 -55q-5 -31 -30.5 -52.5t-57.5 -21.5q-31 0 -49.5 21.5t-12.5 52.5zM961 1319q6 32 31.5 55t56.5 23q32 0 49.5 -23t11.5 -55q-5 -31 -30.5 -52.5 t-57.5 -21.5q-31 0 -49 21.5t-12 52.5z" />
<glyph unicode="&#xe5;" d="M182 510q25 145 110 264.5t219.5 191.5t289.5 72q151 0 254.5 -75.5t134.5 -200.5l45 254h94l-178 -1016h-94l43 256q-80 -127 -210.5 -203t-279.5 -76q-153 0 -260 71.5t-149.5 192.5t-18.5 269zM279 510q-33 -193 63.5 -321t286.5 -128q189 0 337.5 129.5t180.5 319.5 q22 123 -14 223.5t-126.5 160.5t-220.5 60q-192 0 -333 -127.5t-174 -316.5zM662 1362q12 76 78 132t143 56q78 0 123.5 -55t31.5 -133q-12 -78 -78.5 -133t-144.5 -55t-122.5 55t-30.5 133zM721 1362q-11 -56 19 -92.5t85 -36.5q54 0 98 37t54 92q10 54 -20.5 90.5 t-84.5 36.5q-55 0 -97.5 -36.5t-53.5 -90.5z" />
<glyph unicode="&#xe6;" horiz-adv-x="1968" d="M123 289q27 134 144 223.5t308 89.5q214 0 392 -65l14 75q8 57 8.5 107.5t-17.5 93.5t-49.5 73.5t-86.5 48t-129 17.5q-204 0 -367 -108q-7 17 -25 74q79 57 188.5 88.5t225.5 31.5q96 0 165 -23.5t106 -65.5t54 -87t19 -100q88 127 219.5 201.5t288.5 74.5 q77 0 144 -18.5t123 -56.5t91 -97.5t49 -141.5t-3 -187h-932q-13 -78 -9.5 -148.5t31.5 -130.5t73.5 -104t118 -68.5t163.5 -24.5q214 0 382 140l43 -58q-184 -166 -440 -166q-163 0 -272.5 66t-155.5 182q-219 -248 -520 -248q-75 0 -141.5 20.5t-116.5 58.5t-74 98.5 t-12 134.5zM221 291q-19 -106 62 -168t213 -62q112 0 239 60t223 180q-1 9 -3.5 31t-3.5 32t-1.5 27.5t0.5 34t4 35.5q-86 30 -189.5 45.5t-174.5 15.5q-172 0 -260.5 -65.5t-108.5 -165.5zM1071 612h827q7 172 -87 257t-244 85q-161 0 -295 -93.5t-201 -248.5z" />
<glyph unicode="&#xe7;" horiz-adv-x="1095" d="M180 504q21 112 76.5 209t140 169.5t201.5 114t252 41.5q193 0 332 -114l-60 -68q-116 98 -284 98q-221 0 -372.5 -125.5t-189.5 -320.5q-15 -95 4.5 -176.5t69 -141.5t134 -94.5t194.5 -34.5q165 0 319 99l37 -68q-152 -94 -313 -110q76 -82 57 -201q-20 -112 -109 -175 t-190 -63t-160.5 61.5t-64.5 157.5l61 31q5 -75 54 -124.5t123 -49.5q72 0 135.5 47t77.5 127q20 100 -68 184q-127 4 -223.5 46t-152.5 113t-77 165t-4 203z" />
<glyph unicode="&#xe8;" horiz-adv-x="1214" d="M180 504q18 109 77 207.5t143.5 170.5t194.5 114t226 42q97 0 177.5 -29.5t140.5 -88t85 -157.5t5 -226h-946q0 -2 -4 -16t-5 -23q-34 -185 75.5 -311t320.5 -126q219 0 387 140q7 -11 23.5 -28.5t23.5 -29.5q-186 -166 -449 -166q-169 0 -287 72t-165.5 191.5 t-22.5 263.5zM307 612h838q4 88 -22 155.5t-74.5 107.5t-109.5 59.5t-132 19.5q-162 0 -300.5 -94.5t-199.5 -247.5zM641 1481h111l133 -307h-80z" />
<glyph unicode="&#xe9;" horiz-adv-x="1214" d="M180 504q18 109 77 207.5t143.5 170.5t194.5 114t226 42q97 0 177.5 -29.5t140.5 -88t85 -157.5t5 -226h-946q0 -2 -4 -16t-5 -23q-34 -185 75.5 -311t320.5 -126q219 0 387 140q7 -11 23.5 -28.5t23.5 -29.5q-186 -166 -449 -166q-169 0 -287 72t-165.5 191.5 t-22.5 263.5zM307 612h838q4 88 -22 155.5t-74.5 107.5t-109.5 59.5t-132 19.5q-162 0 -300.5 -94.5t-199.5 -247.5zM750 1174l243 307h111l-277 -307h-77z" />
<glyph unicode="&#xea;" horiz-adv-x="1214" d="M180 504q18 109 77 207.5t143.5 170.5t194.5 114t226 42q97 0 177.5 -29.5t140.5 -88t85 -157.5t5 -226h-946q0 -2 -4 -16t-5 -23q-34 -185 75.5 -311t320.5 -126q219 0 387 140q7 -11 23.5 -28.5t23.5 -29.5q-186 -166 -449 -166q-169 0 -287 72t-165.5 191.5 t-22.5 263.5zM307 612h838q4 88 -22 155.5t-74.5 107.5t-109.5 59.5t-132 19.5q-162 0 -300.5 -94.5t-199.5 -247.5zM530 1174l285 307h109l174 -307h-74l-166 243l-254 -243h-74z" />
<glyph unicode="&#xeb;" horiz-adv-x="1214" d="M180 504q18 109 77 207.5t143.5 170.5t194.5 114t226 42q97 0 177.5 -29.5t140.5 -88t85 -157.5t5 -226h-946q0 -2 -4 -16t-5 -23q-34 -185 75.5 -311t320.5 -126q219 0 387 140q7 -11 23.5 -28.5t23.5 -29.5q-186 -166 -449 -166q-169 0 -287 72t-165.5 191.5 t-22.5 263.5zM307 612h838q4 88 -22 155.5t-74.5 107.5t-109.5 59.5t-132 19.5q-162 0 -300.5 -94.5t-199.5 -247.5zM553 1319q6 32 31.5 55t56.5 23q32 0 49.5 -23t11.5 -55q-5 -31 -30.5 -52.5t-57.5 -21.5q-31 0 -49 21.5t-12 52.5zM981 1319q6 32 31.5 55t56.5 23 q32 0 49.5 -23t11.5 -55q-5 -31 -30.5 -52.5t-57.5 -21.5q-31 0 -49 21.5t-12 52.5z" />
<glyph unicode="&#xec;" horiz-adv-x="462" d="M184 0l178 1016h95l-178 -1016h-95zM260 1481h111l133 -307h-80z" />
<glyph unicode="&#xed;" horiz-adv-x="462" d="M184 0l178 1016h95l-178 -1016h-95zM369 1174l243 307h111l-277 -307h-77z" />
<glyph unicode="&#xee;" horiz-adv-x="462" d="M141 1174l285 307h109l174 -307h-74l-166 243l-254 -243h-74zM184 0l178 1016h95l-178 -1016h-95z" />
<glyph unicode="&#xef;" horiz-adv-x="462" d="M164 1319q6 32 31.5 55t56.5 23q32 0 49.5 -23t11.5 -55q-5 -31 -30.5 -52.5t-57.5 -21.5q-31 0 -49 21.5t-12 52.5zM184 0l178 1016h95l-178 -1016h-95zM592 1319q6 32 31.5 55t56.5 23q32 0 49.5 -23t11.5 -55q-5 -31 -30.5 -52.5t-57.5 -21.5q-31 0 -49 21.5t-12 52.5 z" />
<glyph unicode="&#xf0;" horiz-adv-x="1257" d="M180 504q27 145 119 266.5t225 191.5t275 70q87 0 168.5 -32t132.5 -95q-69 194 -215 365l-318 -125l-20 59l293 115q-50 58 -148 141l80 58q105 -90 162 -160l268 106l25 -59l-250 -98q93 -116 160.5 -246t100 -279.5t9.5 -279.5q-41 -224 -222.5 -374.5t-401.5 -150.5 q-145 0 -256.5 70t-162 191.5t-24.5 265.5zM276 506q-22 -122 18.5 -224.5t130.5 -161.5t208 -59q187 0 335 127.5t185 315.5q25 189 -74 317.5t-284 128.5q-183 0 -335 -130t-184 -314z" />
<glyph unicode="&#xf1;" horiz-adv-x="1224" d="M176 0l178 1016h95l-43 -236q51 90 128.5 150.5t149.5 84t141 23.5q68 0 124 -14t107 -46t79.5 -84t41 -129t-7.5 -181l-102 -584h-94l102 584q17 86 7 149.5t-32.5 105.5t-63 68t-84 36.5t-95.5 10.5q-41 0 -87.5 -11.5t-103 -43t-105 -78t-89.5 -123.5t-60 -174 l-92 -524h-94zM553 1262q46 94 83 127.5t89 33.5q49 0 132 -44t122 -44q35 0 55 18t58 77l47 -11q-43 -93 -80.5 -126t-91.5 -33q-49 0 -128.5 45t-123.5 45q-34 0 -55 -19.5t-60 -79.5z" />
<glyph unicode="&#xf2;" horiz-adv-x="1253" d="M180 506q24 144 118.5 267t230.5 194t278 71q146 0 256.5 -72t160 -194t25.5 -266q-24 -142 -118 -264t-231 -193.5t-282 -71.5q-143 0 -252.5 70t-159.5 192t-26 267zM276 506q-32 -184 72.5 -314.5t284.5 -130.5q119 0 231.5 59.5t190 162t98.5 223.5q32 185 -73 316.5 t-287 131.5q-117 0 -228.5 -60t-189.5 -163.5t-99 -224.5zM606 1481h111l133 -307h-80z" />
<glyph unicode="&#xf3;" horiz-adv-x="1253" d="M180 506q24 144 118.5 267t230.5 194t278 71q146 0 256.5 -72t160 -194t25.5 -266q-24 -142 -118 -264t-231 -193.5t-282 -71.5q-143 0 -252.5 70t-159.5 192t-26 267zM276 506q-32 -184 72.5 -314.5t284.5 -130.5q119 0 231.5 59.5t190 162t98.5 223.5q32 185 -73 316.5 t-287 131.5q-117 0 -228.5 -60t-189.5 -163.5t-99 -224.5zM756 1174l243 307h111l-276 -307h-78z" />
<glyph unicode="&#xf4;" horiz-adv-x="1253" d="M180 506q24 144 118.5 267t230.5 194t278 71q146 0 256.5 -72t160 -194t25.5 -266q-24 -142 -118 -264t-231 -193.5t-282 -71.5q-143 0 -252.5 70t-159.5 192t-26 267zM276 506q-32 -184 72.5 -314.5t284.5 -130.5q119 0 231.5 59.5t190 162t98.5 223.5q32 185 -73 316.5 t-287 131.5q-117 0 -228.5 -60t-189.5 -163.5t-99 -224.5zM547 1174l284 307h109l174 -307h-74l-166 243l-253 -243h-74z" />
<glyph unicode="&#xf5;" horiz-adv-x="1253" d="M180 506q24 144 118.5 267t230.5 194t278 71q146 0 256.5 -72t160 -194t25.5 -266q-24 -142 -118 -264t-231 -193.5t-282 -71.5q-143 0 -252.5 70t-159.5 192t-26 267zM276 506q-32 -184 72.5 -314.5t284.5 -130.5q119 0 231.5 59.5t190 162t98.5 223.5q32 185 -73 316.5 t-287 131.5q-117 0 -228.5 -60t-189.5 -163.5t-99 -224.5zM569 1262q46 94 83 127.5t89 33.5q49 0 131 -44t121 -44q35 0 56 18.5t59 76.5l47 -11q-43 -93 -80.5 -126t-91.5 -33q-49 0 -128.5 45t-123.5 45q-34 0 -55 -19.5t-60 -79.5z" />
<glyph unicode="&#xf6;" horiz-adv-x="1253" d="M180 506q24 144 118.5 267t230.5 194t278 71q146 0 256.5 -72t160 -194t25.5 -266q-24 -142 -118 -264t-231 -193.5t-282 -71.5q-143 0 -252.5 70t-159.5 192t-26 267zM276 506q-32 -184 72.5 -314.5t284.5 -130.5q119 0 231.5 59.5t190 162t98.5 223.5q32 185 -73 316.5 t-287 131.5q-117 0 -228.5 -60t-189.5 -163.5t-99 -224.5zM569 1319q6 32 31.5 55t56.5 23q32 0 50 -23t12 -55q-5 -31 -30.5 -52.5t-57.5 -21.5q-31 0 -49.5 21.5t-12.5 52.5zM997 1319q6 32 31.5 55t56.5 23q32 0 50 -23t12 -55q-5 -31 -30.5 -52.5t-57.5 -21.5 q-31 0 -49.5 21.5t-12.5 52.5z" />
<glyph unicode="&#xf7;" horiz-adv-x="1320" d="M258 569l14 86h1006l-14 -86h-1006zM616 215q6 36 32 59t61 23q36 0 56.5 -23.5t14.5 -58.5t-35 -58.5t-65 -23.5q-35 0 -52.5 23t-11.5 59zM758 1020q6 35 32.5 58.5t61.5 23.5t55.5 -23.5t14.5 -58.5t-34 -58.5t-63 -23.5t-54 23.5t-13 58.5z" />
<glyph unicode="&#xf8;" horiz-adv-x="1253" d="M180 506q24 144 118.5 267t230.5 194t278 71q147 0 266 -82l121 134l49 -48l-117 -127q78 -76 112 -183t11 -226q-24 -142 -118 -264t-231 -193.5t-282 -71.5q-155 0 -270 80l-112 -127l-50 47l113 123q-77 74 -109.5 180t-9.5 226zM276 506q-18 -97 6 -183.5t83 -148.5 l645 713q-94 67 -217 67q-117 0 -228.5 -60t-189.5 -163.5t-99 -224.5zM414 129q95 -68 219 -68q119 0 231.5 59.5t190 162t98.5 223.5q18 97 -7.5 184.5t-84.5 151.5z" />
<glyph unicode="&#xf9;" horiz-adv-x="1226" d="M223.5 251q-12.5 77 7.5 181l105 584h94l-104 -584q-17 -86 -7 -149.5t33 -106t63 -68t83.5 -36.5t95.5 -11q40 0 87 12t103 43t104.5 77.5t90.5 124t63 174.5l93 524h94l-178 -1016h-95l41 233q-77 -130 -194 -193t-228 -63q-68 0 -124 14t-106.5 46t-79.5 84.5 t-41.5 129.5zM623 1481h110l133 -307h-80z" />
<glyph unicode="&#xfa;" horiz-adv-x="1226" d="M223.5 251q-12.5 77 7.5 181l105 584h94l-104 -584q-17 -86 -7 -149.5t33 -106t63 -68t83.5 -36.5t95.5 -11q40 0 87 12t103 43t104.5 77.5t90.5 124t63 174.5l93 524h94l-178 -1016h-95l41 233q-77 -130 -194 -193t-228 -63q-68 0 -124 14t-106.5 46t-79.5 84.5 t-41.5 129.5zM729 1174l244 307h110l-276 -307h-78z" />
<glyph unicode="&#xfb;" horiz-adv-x="1226" d="M223.5 251q-12.5 77 7.5 181l105 584h94l-104 -584q-17 -86 -7 -149.5t33 -106t63 -68t83.5 -36.5t95.5 -11q40 0 87 12t103 43t104.5 77.5t90.5 124t63 174.5l93 524h94l-178 -1016h-95l41 233q-77 -130 -194 -193t-228 -63q-68 0 -124 14t-106.5 46t-79.5 84.5 t-41.5 129.5zM537 1174l284 307h109l174 -307h-74l-166 243l-254 -243h-73z" />
<glyph unicode="&#xfc;" horiz-adv-x="1226" d="M223.5 251q-12.5 77 7.5 181l105 584h94l-104 -584q-17 -86 -7 -149.5t33 -106t63 -68t83.5 -36.5t95.5 -11q40 0 87 12t103 43t104.5 77.5t90.5 124t63 174.5l93 524h94l-178 -1016h-95l41 233q-77 -130 -194 -193t-228 -63q-68 0 -124 14t-106.5 46t-79.5 84.5 t-41.5 129.5zM559 1319q6 32 31.5 55t56.5 23q32 0 49.5 -23t10.5 -55q-5 -31 -29.5 -52.5t-56.5 -21.5q-31 0 -49.5 21.5t-12.5 52.5zM987 1319q6 32 31.5 55t56.5 23q32 0 49.5 -23t10.5 -55q-5 -31 -29.5 -52.5t-56.5 -21.5q-31 0 -49.5 21.5t-12.5 52.5z" />
<glyph unicode="&#xfd;" horiz-adv-x="1083" d="M229 -459l260 443l-260 1032h107l225 -922l539 922h108l-880 -1475h-99zM649 1174l244 307h111l-277 -307h-78z" />
<glyph unicode="&#xfe;" d="M92 -459l344 1940h94l-124 -719q77 126 205.5 201t279.5 75q158 0 265.5 -72t148.5 -191t16 -265q-37 -225 -212 -379t-404 -154q-149 0 -252.5 76t-139.5 203l-127 -715h-94zM356 510q-21 -125 17 -227.5t128.5 -162t215.5 -59.5q190 0 332.5 128.5t175.5 320.5 q22 124 -11 224t-120.5 160t-216.5 60q-195 0 -341.5 -128t-179.5 -316z" />
<glyph unicode="&#xff;" horiz-adv-x="1083" d="M229 -459l260 443l-260 1032h107l225 -922l539 922h108l-880 -1475h-99zM477 1319q6 32 31.5 55t56.5 23q32 0 50 -23t12 -55q-5 -31 -30.5 -52.5t-57.5 -21.5q-31 0 -49.5 21.5t-12.5 52.5zM905 1319q6 32 31.5 55t56.5 23q32 0 50 -23t12 -55q-5 -31 -30.5 -52.5 t-57.5 -21.5q-31 0 -49.5 21.5t-12.5 52.5z" />
<glyph unicode="&#x152;" horiz-adv-x="2037" d="M236 723q37 202 163.5 365t310.5 254.5t388 91.5h1079l-12 -84h-766l-109 -605h668l-14 -83h-668l-102 -580h765l-12 -82h-1079q-203 0 -356 94.5t-222 261t-34 367.5zM334 723q-24 -133 5.5 -252.5t100.5 -204.5t180.5 -134.5t239.5 -49.5h217l226 1268h-218 q-175 0 -335.5 -81t-272 -225t-143.5 -321z" />
<glyph unicode="&#x153;" horiz-adv-x="2009" d="M178 506q24 143 117.5 266t229.5 194.5t280 71.5q121 0 216.5 -52.5t152.5 -145.5q185 198 444 198q99 0 179.5 -30.5t138.5 -90t82.5 -157t6.5 -223.5h-921q-1 -4 -1 -11.5t-1 -11.5q-19 -92 -2.5 -174t58 -144t122 -98.5t188.5 -36.5q219 0 387 140l46 -58 q-186 -166 -449 -166q-281 0 -397 195q-87 -92 -201.5 -143.5t-237.5 -51.5q-145 0 -255 70t-160 192t-23 267zM272 504q-21 -121 19.5 -223t130.5 -161t209 -59q109 0 210.5 50t174.5 137q-39 117 -15 254q23 135 105 258q-42 90 -124.5 142t-190.5 52q-180 0 -333.5 -133 t-185.5 -317zM1126 612h818q4 88 -22.5 155.5t-75.5 107.5t-110 59.5t-132 19.5q-157 0 -283.5 -91.5t-194.5 -250.5z" />
<glyph unicode="&#x178;" horiz-adv-x="1284" d="M309 1434h113l340 -748l606 748h111l-686 -838l-103 -596h-96l102 596zM653 1690q6 31 31 53t55 22q32 0 50.5 -22t13.5 -53q-6 -31 -32 -53.5t-58 -22.5q-31 0 -48.5 22.5t-11.5 53.5zM1081 1690q6 31 31 53t55 22q32 0 50.5 -22t13.5 -53q-6 -31 -32 -53.5t-58 -22.5 q-31 0 -48.5 22.5t-11.5 53.5z" />
<glyph unicode="&#x2c6;" horiz-adv-x="1107" d="M475 1174l285 307h108l174 -307h-73l-166 243l-254 -243h-74z" />
<glyph unicode="&#x2dc;" horiz-adv-x="1046" d="M465 1262q46 94 83 127.5t89 33.5q49 0 131 -44t121 -44q35 0 56 18.5t59 76.5l47 -11q-43 -93 -80.5 -126t-91.5 -33q-49 0 -128.5 45t-123.5 45q-34 0 -55 -19.5t-60 -79.5z" />
<glyph unicode="&#x2000;" horiz-adv-x="949" />
<glyph unicode="&#x2001;" horiz-adv-x="1898" />
<glyph unicode="&#x2002;" horiz-adv-x="949" />
<glyph unicode="&#x2003;" horiz-adv-x="1898" />
<glyph unicode="&#x2004;" horiz-adv-x="632" />
<glyph unicode="&#x2005;" horiz-adv-x="474" />
<glyph unicode="&#x2006;" horiz-adv-x="316" />
<glyph unicode="&#x2007;" horiz-adv-x="316" />
<glyph unicode="&#x2008;" horiz-adv-x="237" />
<glyph unicode="&#x2009;" horiz-adv-x="379" />
<glyph unicode="&#x200a;" horiz-adv-x="105" />
<glyph unicode="&#x2010;" horiz-adv-x="915" d="M250 569l14 86h617l-15 -86h-616z" />
<glyph unicode="&#x2011;" horiz-adv-x="915" d="M250 569l14 86h617l-15 -86h-616z" />
<glyph unicode="&#x2012;" horiz-adv-x="915" d="M250 569l14 86h617l-15 -86h-616z" />
<glyph unicode="&#x2013;" horiz-adv-x="1114" d="M244 580l14 86h832l-15 -86h-831z" />
<glyph unicode="&#x2014;" horiz-adv-x="1624" d="M244 580l14 86h1339l-14 -86h-1339z" />
<glyph unicode="&#x2018;" horiz-adv-x="428" d="M331 1150q0 32 3 64q4 26 15.5 56t32.5 68t58.5 76t85.5 67l23 -43q-54 -37 -95 -92.5t-51 -112.5q-3 -16 0 -29q17 10 41 10q29 0 44 -19.5t10 -49.5q-5 -32 -30 -54t-65 -22q-34 0 -53 24.5t-19 56.5z" />
<glyph unicode="&#x2019;" horiz-adv-x="417" d="M334 1112q54 36 92.5 90.5t48.5 114.5q2 10 2 29q-22 -11 -41 -11q-29 0 -43.5 20t-9.5 50q6 33 30.5 54.5t63.5 21.5q34 0 53 -24.5t19.5 -57t-2.5 -64.5q-4 -26 -15.5 -56t-32.5 -67.5t-59 -75.5t-88 -67z" />
<glyph unicode="&#x201a;" horiz-adv-x="499" d="M133 -158q53 37 92 92t49 113q4 24 2 29q-18 -10 -40 -10q-29 0 -43 19.5t-9 49.5q5 33 29 54.5t63 21.5q34 0 53 -24.5t19.5 -56.5t-2.5 -64q-4 -26 -15.5 -56t-32.5 -68t-58.5 -76t-85.5 -67z" />
<glyph unicode="&#x201c;" horiz-adv-x="739" d="M331 1150q0 32 3 64q4 26 15.5 56t32.5 68t58.5 76t85.5 67l23 -43q-54 -37 -95 -92.5t-51 -112.5q-3 -16 0 -29q17 10 41 10q29 0 44 -19.5t10 -49.5q-5 -32 -30 -54t-65 -22q-34 0 -53 24.5t-19 56.5zM642.5 1150q-0.5 32 2.5 64q6 37 23 78t62 96t108 93l22 -43 q-54 -37 -94.5 -92.5t-50.5 -112.5q-3 -16 0 -29q17 10 41 10q29 0 43.5 -19.5t9.5 -49.5q-5 -33 -30 -54.5t-64 -21.5q-34 0 -53 24.5t-19.5 56.5z" />
<glyph unicode="&#x201d;" horiz-adv-x="729" d="M334 1112q54 36 92.5 90.5t48.5 114.5q2 10 2 29q-22 -11 -41 -11q-29 0 -43.5 20t-9.5 50q6 33 30.5 54.5t63.5 21.5q34 0 53 -24.5t19.5 -57t-2.5 -64.5q-4 -26 -15.5 -56t-32.5 -67.5t-59 -75.5t-88 -67zM645 1112q54 36 92.5 90.5t48.5 114.5q2 10 2 29 q-22 -11 -40 -11q-29 0 -44 20t-10 50q6 33 30.5 54.5t63.5 21.5q34 0 53 -24.5t19.5 -57t-2.5 -64.5q-4 -26 -15 -55.5t-32 -67.5t-59 -76t-88 -67z" />
<glyph unicode="&#x201e;" horiz-adv-x="813" d="M135 -158q53 37 92 92t49 113q4 27 3 29q-17 -10 -41 -10q-29 0 -43 19.5t-9 49.5q5 33 29.5 54.5t63.5 21.5q34 0 53 -24.5t19 -56.5t-3 -64q-4 -26 -15.5 -56t-32.5 -68t-58.5 -76t-85.5 -67zM446 -158q53 37 92.5 92t49.5 113q4 25 2 29q-18 -10 -41 -10 q-29 0 -42.5 19.5t-8.5 49.5q5 33 29 54.5t63 21.5q34 0 53 -24.5t19 -56.5t-3 -64q-4 -26 -15.5 -56t-32.5 -68t-58.5 -76t-85.5 -67z" />
<glyph unicode="&#x2022;" horiz-adv-x="800" d="M274 492q17 86 89.5 147t158.5 61q87 0 137.5 -60.5t38.5 -147.5q-17 -87 -89.5 -149t-159.5 -62q-88 0 -140 61t-35 150z" />
<glyph unicode="&#x2026;" horiz-adv-x="1466" d="M156 59q6 35 33.5 58.5t62.5 23.5t55 -23.5t15 -58.5q-8 -35 -36 -58.5t-63 -23.5t-54 23.5t-13 58.5zM659 59q6 35 34 58.5t63 23.5t54.5 -23t14.5 -59q-8 -35 -35.5 -58.5t-62.5 -23.5t-54.5 23.5t-13.5 58.5zM1165 59q6 35 33 58.5t62 23.5t54.5 -23t14.5 -59 q-8 -35 -35.5 -58.5t-62.5 -23.5t-53.5 23.5t-12.5 58.5z" />
<glyph unicode="&#x202f;" horiz-adv-x="379" />
<glyph unicode="&#x2039;" horiz-adv-x="649" d="M209 600l428 410l51 -47l-379 -363l250 -362l-67 -50z" />
<glyph unicode="&#x203a;" horiz-adv-x="649" d="M168 238l381 362l-252 363l70 47l282 -410l-428 -412z" />
<glyph unicode="&#x205f;" horiz-adv-x="474" />
<glyph unicode="&#x20ac;" horiz-adv-x="1343" d="M180 526l13 74h198l17 105q14 78 20 96h-197l11 73h207q33 100 82 186t118 159.5t152.5 125.5t191 81.5t228.5 29.5q160 0 282 -65q-10 -14 -27.5 -41.5t-23.5 -36.5q-98 55 -250 55q-125 0 -231.5 -37t-186 -105t-138.5 -155.5t-99 -196.5h706l-30 -73h-695 q-6 -14 -10 -28.5t-7.5 -37t-4.5 -28.5l-17 -107h639l-32 -74h-604q5 -207 127.5 -333.5t355.5 -126.5q113 0 209 36q0 -14 -1 -41t-1 -41q-115 -43 -226 -43q-185 0 -314.5 71.5t-191 193.5t-61.5 284h-209z" />
<glyph unicode="&#x2122;" horiz-adv-x="1732" d="M322 1370l8 64h606l-8 -64h-269l-114 -647h-70l115 647h-268zM848 723l188 711h78l176 -605l383 605h80l-57 -711h-70l47 592l-373 -584h-61l-164 584l-157 -592h-70z" />
<glyph unicode="&#x25fc;" horiz-adv-x="1013" d="M0 0v1014h1014v-1014h-1014z" />
</font>
</defs>
</svg>
