<?xml version="1.0" standalone="no"?>
<!DOCTYPE svg PUBLIC "-//W3C//DTD SVG 1.1//EN" "http://www.w3.org/Graphics/SVG/1.1/DTD/svg11.dtd" >
<svg xmlns="http://www.w3.org/2000/svg" xmlns:xlink="http://www.w3.org/1999/xlink" version="1.1">
<metadata></metadata>
<defs>
<font id="filson_proregular_italic" horiz-adv-x="1234" >
<font-face units-per-em="2048" ascent="1481" descent="-567" />
<missing-glyph horiz-adv-x="540" />
<glyph unicode="&#xfb01;" horiz-adv-x="1316" d="M215 868l29 156h159l13 74q16 96 54.5 169.5t86.5 117t110 70.5t119 36.5t119 9.5q57 0 107 -12.5t95 -40t75.5 -76.5t40.5 -115l-185 -38q-19 112 -157 112q-220 0 -260 -233l-13 -74h727l-182 -1024h-199l154 868h-526l-154 -868h-205l154 868h-162z" />
<glyph unicode="&#xfb02;" horiz-adv-x="1288" d="M215 868l29 156h159l13 74q13 80 45 145.5t76.5 108t94.5 73t107.5 46.5t108 23t102.5 7q110 0 235.5 -20t190.5 -49l-252 -1432h-198l227 1296q-88 31 -229 31q-46 0 -89.5 -9.5t-89.5 -33t-79 -71.5t-45 -115l-13 -74h271l-29 -156h-268l-154 -868h-205l154 868h-162z " />
<glyph unicode="&#xfb03;" horiz-adv-x="2078" d="M215 868l29 156h159l13 74q16 96 54.5 169.5t86.5 117t110 70.5t119 36.5t119 9.5q80 0 150 -32t116 -93l-155 -112q-56 67 -135 67q-220 0 -260 -233l-13 -74h557l13 74q16 96 54.5 169.5t86.5 117t110 70.5t119 36.5t119 9.5q57 0 107 -12.5t95 -40t75.5 -76.5 t40.5 -115l-185 -38q-19 112 -158 112q-220 0 -260 -233l-12 -74h727l-182 -1024h-199l154 868h-527l-153 -868h-205l154 868h-557l-154 -868h-205l154 868h-162z" />
<glyph unicode="&#xfb04;" horiz-adv-x="2050" d="M215 868l29 156h159l13 74q16 96 54.5 169.5t86.5 117t110 70.5t119 36.5t119 9.5q183 0 269 -115l-156 -112q-47 57 -137 57q-220 0 -260 -233l-13 -74h557l13 74q13 80 45 145.5t76.5 108t94.5 73t107.5 46.5t108 23t102.5 7q110 0 235.5 -20t190.5 -49l-252 -1432 h-198l227 1296q-88 31 -229 31q-46 0 -89.5 -9.5t-90 -33t-79.5 -71.5t-45 -115l-12 -74h270l-28 -156h-269l-153 -868h-205l154 868h-557l-154 -868h-205l154 868h-162z" />
<glyph horiz-adv-x="0" />
<glyph horiz-adv-x="682" />
<glyph horiz-adv-x="0" />
<glyph horiz-adv-x="0" />
<glyph unicode="&#xd;" horiz-adv-x="512" />
<glyph unicode=" "  horiz-adv-x="540" />
<glyph unicode="&#x09;" horiz-adv-x="540" />
<glyph unicode="&#xa0;" horiz-adv-x="540" />
<glyph unicode="!" horiz-adv-x="528" d="M137 127q11 63 62 107.5t114 44.5t99.5 -44.5t25.5 -107.5q-10 -63 -61.5 -106.5t-114.5 -43.5t-99.5 43.5t-25.5 106.5zM270 449l127 985h234l-217 -985h-144z" />
<glyph unicode="&#x22;" horiz-adv-x="892" d="M315 909l80 572h197l-121 -572h-156zM741 909l80 572h197l-121 -572h-156z" />
<glyph unicode="#" horiz-adv-x="1544" d="M131 340l68 158h295l204 477h-295l68 158h291l133 301h172l-129 -301h268l131 301h174l-129 -301h289l-67 -158h-287l-203 -477h289l-70 -158h-286l-146 -340h-176l145 340h-268l-145 -340h-174l143 340h-295zM670 498h268l203 477h-271z" />
<glyph unicode="$" horiz-adv-x="1110" d="M133 358l186 48q0 -77 60 -133t162 -66l77 434l-61 23q-71 24 -122 58t-76.5 71t-40.5 78t-13 78.5t6 72.5q28 151 152 247.5t287 114.5l41 232h120l-41 -234q141 -17 221 -99.5t85 -207.5l-177 -53q-11 159 -159 184l-74 -415l65 -27q147 -48 214 -144.5t47 -207.5 q-29 -158 -154.5 -258t-306.5 -121l-37 -215h-121l37 215q-168 12 -268.5 102.5t-108.5 222.5zM505.5 983.5q3.5 -23.5 14 -46t42 -48t81.5 -49.5l8 -4l68 372q-81 -12 -137.5 -59t-73.5 -123q-6 -19 -2.5 -42.5zM662 209q98 17 157.5 67t73.5 125q12 69 -27 110.5 t-127 82.5l-8 4z" />
<glyph unicode="%" horiz-adv-x="1818" d="M262 1094q25 153 150 257.5t278 104.5q154 0 238 -103.5t59 -258.5q-25 -151 -149 -255t-277 -104t-238.5 103t-60.5 256zM426 1094q-17 -92 29 -151.5t133 -59.5t153.5 59t83.5 152q17 92 -29 153.5t-134 61.5q-86 0 -152.5 -61t-83.5 -154zM428 0l1047 1434h161 l-1046 -1434h-162zM1079 336q28 154 151 258t277 104t239.5 -104t57.5 -258q-29 -153 -150.5 -256t-275.5 -103t-241 103.5t-58 255.5zM1243 336q-17 -92 28.5 -151.5t131.5 -59.5q88 0 155 59.5t84 151.5q17 93 -28.5 154t-132.5 61q-86 0 -153.5 -61t-84.5 -154z" />
<glyph unicode="&#x26;" horiz-adv-x="1628" d="M147 375q51 279 469 442q-65 57 -97 143.5t-15 172.5q12 71 49.5 128.5t85.5 92.5t106 59t108 33.5t95 9.5q145 0 229 -93t62 -220q-19 -113 -127 -214t-242 -155l224 -311l245 272h199l-4 -18l-352 -381l82 -113q31 -39 61 -55t74 -16q45 0 95 15.5t79 43.5l43 -137 q-112 -97 -256 -97q-90 0 -147.5 33.5t-114.5 104.5l-49 67q-76 -97 -204.5 -151t-264.5 -54q-139 0 -244 45.5t-158 137.5t-31 215zM350 383q-17 -105 57 -173.5t201 -68.5q194 0 350 170l-258 375q-53 -15 -106.5 -41t-106 -63t-90 -89t-47.5 -110zM705 1124 q-22 -130 83 -241q117 54 182.5 121.5t76.5 132.5q11 64 -27.5 112.5t-116.5 48.5q-71 0 -126 -45.5t-72 -128.5z" />
<glyph unicode="'" horiz-adv-x="466" d="M315 909l80 572h197l-121 -572h-156z" />
<glyph unicode="(" horiz-adv-x="643" d="M172.5 342q1.5 119 22.5 242q26 144 80 284.5t112.5 243t130 197.5t123 150t100.5 100l115 -78q-377 -425 -465 -901q-19 -105 -22 -207t9.5 -191t27.5 -159.5t43 -143t44.5 -109.5t41.5 -89l-140 -76q-27 37 -52.5 80.5t-58.5 112t-56 151t-40 178.5t-15.5 215z" />
<glyph unicode=")" horiz-adv-x="643" d="M-8 -319q35 42 46 56t51.5 65t60 80.5t58.5 88t62.5 103t56 110t53.5 123.5t41.5 130t33.5 143q20 106 23.5 209t-9.5 192.5t-28.5 161t-44 143t-45.5 109t-42 86.5l140 78q27 -35 54 -79.5t60 -112.5t57 -151.5t41 -179.5t15.5 -213.5t-23.5 -238.5q-25 -146 -79 -287 t-113.5 -244.5t-132 -199t-125 -150.5t-101.5 -98z" />
<glyph unicode="*" horiz-adv-x="942" d="M291 1147l74 147l247 -102l37 289h160l-66 -289l287 102l27 -145l-295 -78l141 -225l-141 -92l-115 239l-205 -239l-108 90l219 225z" />
<glyph unicode="+" horiz-adv-x="1122" d="M178 543l31 174h391l68 389h174l-68 -389h389l-30 -174h-390l-71 -391h-174l71 391h-391z" />
<glyph unicode="," horiz-adv-x="522" d="M80 -193q88 25 139 92.5t60 135.5q-72 -23 -110 11.5t-28 90.5q8 57 51.5 94t114.5 37q40 0 67.5 -18.5t36 -45t12 -55t-2.5 -49.5q-24 -131 -106 -230t-208 -136z" />
<glyph unicode="-" horiz-adv-x="958" d="M229 535l31 182h684l-31 -182h-684z" />
<glyph unicode="." horiz-adv-x="530" d="M135 127q11 63 62 107.5t114 44.5t99.5 -44.5t25.5 -107.5q-10 -63 -61.5 -106.5t-114.5 -43.5t-99.5 43.5t-25.5 106.5z" />
<glyph unicode="/" horiz-adv-x="1085" d="M37 -80l1061 1585h200l-1062 -1585h-199z" />
<glyph unicode="0" horiz-adv-x="1447" d="M231 717q27 154 94 289t163 235.5t223.5 158.5t267.5 58q187 0 311.5 -100t168 -267.5t7.5 -373.5q-26 -153 -93.5 -288t-164 -235t-224 -158.5t-267.5 -58.5q-187 0 -311 100.5t-167 267t-8 372.5zM419.5 497.5q12.5 -102.5 50 -179t109 -120.5t166.5 -44q127 0 238 76 t184 203.5t101 283.5q23 117 10.5 220t-50.5 179.5t-110 121t-168 44.5q-190 0 -334 -162t-186 -403q-23 -117 -10.5 -219.5z" />
<glyph unicode="1" horiz-adv-x="763" d="M246 1212l514 222h100l-252 -1434h-198l208 1192l-350 -145z" />
<glyph unicode="2" horiz-adv-x="1245" d="M123 131l694 539q110 83 176.5 164t83.5 176q23 127 -46 198.5t-206 71.5q-85 0 -151 -23t-103 -60.5t-57 -76t-27 -78.5h-202q9 52 32.5 105t70 109.5t108.5 100t156 71.5t206 28q230 0 343.5 -119.5t76.5 -322.5q-14 -79 -46.5 -147.5t-82.5 -127t-98.5 -102 t-116.5 -94.5l-490 -375l-2 -8q96 8 326 8h418l-29 -168h-1028z" />
<glyph unicode="3" horiz-adv-x="1245" d="M94 143l142 131q82 -69 158 -92.5t200 -23.5q90 0 169 28.5t131.5 74.5t85.5 100t42 108q22 124 -56.5 205.5t-215.5 81.5q-47 0 -109 -15t-111 -53l-77 117l553 461h-652l29 168h960l-22 -125l-504 -400q91 0 171 -29t139 -82.5t85.5 -138.5t8.5 -188q-18 -102 -73 -192 t-138 -157t-199.5 -106t-249.5 -39q-316 0 -467 166z" />
<glyph unicode="4" horiz-adv-x="1374" d="M113 385l24 133l996 916h122l-153 -879h313l-33 -170h-313l-65 -385h-199l65 385h-757zM395 555h508l96 549z" />
<glyph unicode="5" horiz-adv-x="1230" d="M121 143l141 131q39 -46 149 -81t203 -35q181 0 288 90.5t134 230.5q9 36 5 71.5t-15 68.5t-35 61t-56.5 49t-79 33t-101.5 12q-193 0 -355 -106l-133 63l170 703h858l-28 -168h-678l-111 -424q136 112 334 112q115 0 204 -39.5t140 -106t70.5 -151.5t3.5 -178 q-37 -226 -211.5 -364t-439.5 -138q-151 0 -271.5 47.5t-185.5 118.5z" />
<glyph unicode="6" horiz-adv-x="1290" d="M227 684q40 217 139.5 390t257.5 277.5t349 104.5q128 0 222.5 -44.5t145.5 -115.5l-153 -120q-31 47 -100 73.5t-146 26.5q-177 0 -318 -148.5t-186 -396.5q179 203 430 203q100 0 185.5 -34.5t143.5 -95.5t83.5 -152t7.5 -197q-37 -208 -207 -343t-397 -135 q-181 0 -298 89t-157 248.5t-2 369.5zM414 457q-24 -131 64.5 -215t228.5 -84q138 0 247 83.5t133 215.5t-56 215.5t-218 83.5q-140 0 -257.5 -84t-141.5 -215z" />
<glyph unicode="7" horiz-adv-x="1116" d="M154 0l942 1266h-811l28 168h1028l-24 -140l-944 -1294h-219z" />
<glyph unicode="8" horiz-adv-x="1347" d="M176 420q22 112 115.5 207t226.5 141q-93 43 -139 123t-29 172q33 168 196.5 280.5t385.5 112.5q219 0 344.5 -113.5t93.5 -279.5q-17 -92 -91 -172t-179 -123q117 -45 178 -140.5t41 -207.5q-33 -186 -218 -314.5t-431 -128.5q-163 0 -284 59.5t-176 160.5t-34 223z M377 420q-21 -112 69 -189t252 -77q163 0 281 77t139 189q21 108 -62 184t-253 76h-17q-172 0 -279.5 -75t-129.5 -185zM551 1063q-19 -94 48 -165t210 -71h14q143 0 235 70.5t111 165.5q18 94 -55.5 155.5t-212.5 61.5q-138 0 -236.5 -62t-113.5 -155z" />
<glyph unicode="9" horiz-adv-x="1282" d="M190 137l154 121q34 -48 102.5 -74t145.5 -26q185 0 330.5 161.5t189.5 413.5q-78 -122 -198 -177.5t-240 -55.5q-100 0 -185 34.5t-143 95.5t-83 152t-7 197q37 207 207 342t397 135q180 0 294.5 -89t151.5 -247.5t-1 -369.5q-29 -162 -94.5 -301.5t-159 -245t-220 -166 t-270.5 -60.5q-128 0 -224 44.5t-147 115.5zM457 977q-24 -132 56 -215.5t218 -83.5q139 0 252 83.5t137 215.5t-59.5 215.5t-222.5 83.5q-138 0 -247.5 -83.5t-133.5 -215.5z" />
<glyph unicode=":" horiz-adv-x="575" d="M158 127q11 63 62 107.5t114 44.5t99.5 -44.5t25.5 -107.5q-10 -63 -61.5 -106.5t-114.5 -43.5t-99 43.5t-26 106.5zM295 895q11 63 62 107.5t114 44.5t99.5 -44.5t25.5 -107.5q-10 -63 -62.5 -106.5t-115.5 -43.5t-98.5 43.5t-24.5 106.5z" />
<glyph unicode=";" horiz-adv-x="569" d="M102 -193q88 25 139 92.5t60 135.5q-72 -23 -109.5 11.5t-27.5 90.5q8 57 51.5 94t114.5 37q33 0 57 -12t35 -31t18 -42t5.5 -44.5t-3.5 -38.5q-24 -131 -105.5 -230t-207.5 -136zM293 895q11 63 62 107.5t114 44.5t99.5 -44.5t25.5 -107.5q-10 -63 -62.5 -106.5 t-115.5 -43.5t-98.5 43.5t-24.5 106.5z" />
<glyph unicode="&#x3c;" horiz-adv-x="1173" d="M158 471l32 180l1045 402l-33 -179l-858 -313l746 -313l-31 -178z" />
<glyph unicode="=" horiz-adv-x="1245" d="M203 328l30 174h955l-31 -174h-954zM297 872l33 175h954l-33 -175h-954z" />
<glyph unicode="&#x3e;" horiz-adv-x="1173" d="M135 70l29 178l862 313l-750 313l35 179l897 -402l-32 -180z" />
<glyph unicode="?" horiz-adv-x="1073" d="M270 1024q-10 44 0 92q12 58 47 114.5t93.5 108.5t154 84.5t211.5 32.5q133 0 231.5 -48t145 -139.5t25.5 -211.5q-10 -57 -34.5 -110.5t-62 -97.5t-74 -79.5t-86 -69.5t-81 -53.5t-76.5 -45t-57 -32.5q-29 -16 -38.5 -38t-21.5 -82h-184q10 55 14.5 76t14.5 53t18.5 43 t28 31t41.5 33t61 34q158 84 234 158t94 180q17 105 -44 166t-190 61q-116 0 -191.5 -52t-92.5 -145q-4 -32 -2 -63h-179zM348 127q11 63 62 107.5t114 44.5t99.5 -44.5t25.5 -107.5q-10 -63 -62.5 -106.5t-115.5 -43.5t-98.5 43.5t-24.5 106.5z" />
<glyph unicode="@" horiz-adv-x="2119" d="M162.5 266.5q-1.5 110.5 17.5 231.5q36 208 142.5 390.5t257.5 312.5t345 205t400 75q210 0 375 -67.5t267 -187t141.5 -287.5t5.5 -366q-30 -165 -83 -286t-123.5 -193t-153.5 -106.5t-181 -34.5q-148 0 -197.5 70.5t-25.5 197.5q-58 -89 -165 -137.5t-212 -48.5 q-124 0 -211.5 62.5t-122.5 167.5t-14 233q33 194 179 327t341 133q210 0 293 -172l26 152h172l-129 -717q-11 -64 16 -97.5t74 -31.5q128 5 221 122.5t136 358.5q41 216 -28.5 388t-234 269t-395.5 97q-229 0 -434 -109t-343.5 -298.5t-178.5 -421.5q-22 -141 -11 -265 t62.5 -227.5t130.5 -177.5t193.5 -115t251.5 -41q251 0 430 80l45 -135q-109 -47 -241 -72.5t-257 -25.5q-118 0 -223.5 24.5t-190 71t-153 112.5t-114 149t-72.5 181.5t-28.5 209zM797 498q-25 -131 41.5 -221.5t197.5 -90.5q129 0 225.5 84.5t120.5 223.5 q25 137 -40.5 225t-198.5 88q-135 0 -227.5 -88t-118.5 -221z" />
<glyph unicode="A" horiz-adv-x="1394" d="M27 0l802 1434h238l301 -1434h-207l-63 297h-701l-159 -297h-211zM492 463h577l-156 774z" />
<glyph unicode="B" horiz-adv-x="1347" d="M201 0l252 1434h510q208 0 322 -100q91 -80 91 -203q0 -31 -6 -66q-21 -119 -105.5 -208.5t-226.5 -123.5q162 -17 234 -115q53 -72 54 -166q0 -34 -7 -71q-32 -172 -181 -276.5t-362 -104.5h-575zM434 168h371q118 0 203 60t102 159q4 20 4 39q0 28 -9 56 q-14 44 -50.5 80.5t-106 57.5t-164.5 21h-266zM547 801h223q176 0 273 72.5t116 177.5q4 22 4 43q1 71 -51 115q-66 57 -178 57h-305z" />
<glyph unicode="C" horiz-adv-x="1398" d="M208 524q-3 29 -3 58q0 66 14 135q27 150 104 284t192 235t273 160.5t336 59.5q150 0 255.5 -39t191.5 -114l-107 -154q-65 55 -164.5 89t-207.5 34q-132 0 -247.5 -44t-199.5 -120t-140 -176.5t-77 -214.5q-11 -60 -11 -116q1 -86 27 -162q44 -125 160 -201t289 -76 q109 0 223 34t193 89l53 -154q-113 -75 -232 -114.5t-268 -39.5q-119 0 -221.5 27t-177.5 76t-132 117.5t-85.5 150.5t-37.5 176z" />
<glyph unicode="D" horiz-adv-x="1490" d="M201 0l252 1434h456q168 0 298.5 -56.5t207 -154t104.5 -227.5q14 -66 14 -138q0 -68 -13 -141q-27 -148 -101 -278.5t-184 -228t-259.5 -154t-318.5 -56.5h-456zM434 168h252q160 0 294.5 74.5t218.5 198t112 276.5q9 61 9 118q0 27 -2 55q-7 82 -41 151t-87.5 119 t-133 78t-175.5 28h-252z" />
<glyph unicode="E" horiz-adv-x="1212" d="M201 0l252 1434h911l-29 -168h-706l-86 -480h616l-29 -168h-616l-80 -450h707l-29 -168h-911z" />
<glyph unicode="F" horiz-adv-x="1187" d="M201 0l252 1434h911l-29 -168h-706l-86 -480h616l-29 -168h-616l-108 -618h-205z" />
<glyph unicode="G" horiz-adv-x="1505" d="M217 713q35 203 166 374.5t320 270t391 98.5q157 0 275 -36.5t218 -121.5l-106 -157q-53 38 -103 64t-86 39t-82.5 19.5t-72.5 7.5t-76 1q-144 0 -280 -73.5t-231 -202t-122 -281.5q-11 -50 -11 -99q0 -20 2 -39q6 -68 23.5 -129.5t57 -113.5t93 -90.5t130 -60 t168.5 -21.5q188 0 354 96l55 293h-403l29 166h590l-97 -539q-261 -201 -569 -201q-163 0 -295.5 58t-215 157.5t-115.5 234.5q-19 75 -19 154q0 65 12 132z" />
<glyph unicode="H" horiz-adv-x="1480" d="M201 0l252 1434h204l-118 -668h669l119 668h205l-252 -1434h-205l105 600h-670l-104 -600h-205z" />
<glyph unicode="I" horiz-adv-x="606" d="M201 0l252 1434h204l-251 -1434h-205z" />
<glyph unicode="J" horiz-adv-x="1363" d="M136 366q-1 15 -1 29q0 49 12 99q6 35 27 93t43 83h195q-22 -39 -40.5 -89t-23.5 -77q-9 -39 -9 -75q0 -27 5 -53q11 -62 41 -109.5t92.5 -76t149.5 -28.5q189 0 308 127t161 360l139 785h205l-137 -785q-57 -328 -240.5 -500t-466.5 -172q-93 0 -169.5 20.5t-128 56.5 t-89 85t-53 106.5t-20.5 120.5z" />
<glyph unicode="K" horiz-adv-x="1300" d="M199 0l252 1434h204l-123 -701l629 701h221l-4 -23l-655 -721l205 -362q42 -78 89 -125t107 -47q85 0 160 53l47 -143q-43 -43 -123 -66t-139 -23q-31 0 -60 5.5t-51.5 12.5t-46 23t-38.5 26.5t-34.5 33.5t-29 33.5t-26 37.5t-21.5 35.5t-20 36.5t-17 31l-209 385 l-113 -637h-204z" />
<glyph unicode="L" horiz-adv-x="1091" d="M201 0l252 1434h204l-223 -1266h656l-29 -168h-860z" />
<glyph unicode="M" horiz-adv-x="1957" d="M137 0l387 1434h230l276 -1143l678 1143h229l-116 -1434h-207l100 1130l-659 -1112h-152l-262 1112l-297 -1130h-207z" />
<glyph unicode="N" horiz-adv-x="1544" d="M201 0l252 1434h151l598 -1057l187 1057h206l-252 -1434h-151l-600 1061l-186 -1061h-205z" />
<glyph unicode="O" horiz-adv-x="1675" d="M219 717q35 200 165.5 370.5t319.5 269.5t390 99q151 0 278 -58.5t208.5 -157.5t116.5 -236q20 -79 20 -161q0 -62 -11 -126q-27 -150 -110.5 -287t-201 -236.5t-265.5 -158t-298 -58.5q-151 0 -278 58.5t-208.5 158t-116.5 236.5q-20 79 -20 161q0 62 11 126zM428 717 q-10 -56 -10 -108q0 -93 32 -175q48 -128 157 -200t255 -72q144 0 280 72t232 200t123 283q11 57 11 110q0 92 -32 173q-50 128 -160.5 200t-254.5 72q-147 0 -281.5 -72t-228.5 -199.5t-123 -283.5z" />
<glyph unicode="P" horiz-adv-x="1277" d="M201 0l252 1434h573q132 0 220 -63q90 -63 122 -165q19 -61 19 -128q0 -46 -9 -95q-22 -121 -89.5 -220t-178 -159.5t-242.5 -60.5h-368l-94 -543h-205zM528 707h326q121 0 205 76.5t108 201.5q7 37 7 70q0 79 -40 133q-58 78 -180 78h-325z" />
<glyph unicode="Q" horiz-adv-x="1673" d="M217 717q35 200 165.5 370.5t319.5 269.5t390 99q150 0 277.5 -58.5t210.5 -157.5t118 -236q19 -76 19 -155q0 -65 -13 -132q-32 -179 -140.5 -335.5t-267 -259.5t-335.5 -132q5 -99 56 -152t163 -53q45 0 109 19.5t97 45.5l48 -147q-126 -88 -293 -88q-358 0 -379 367 q-185 16 -321.5 118t-196.5 264q-39 105 -39 222q0 64 12 131zM426 717q-10 -56 -10 -108q0 -94 32 -175q48 -128 157 -200t255 -72q144 0 280 72t232 200t123 283q11 57 11 110q0 92 -32 173q-50 128 -160.5 200t-254.5 72q-147 0 -281.5 -72t-228.5 -199.5t-123 -283.5z " />
<glyph unicode="R" horiz-adv-x="1402" d="M199 0l252 1434h598q132 0 220.5 -63t120.5 -165q19 -61 20 -128q0 -46 -9 -95q-30 -164 -141 -282t-273 -150q-1 -19 -1 -39q0 -44 6 -90q9 -66 31 -128t65 -102t100 -40q102 0 180 65l47 -139q-115 -101 -270 -101q-69 0 -126 22t-94 59.5t-65.5 86.5t-41.5 102 q-12 53 -22 107q-8 45 -8 86v17q2 48 3 86h-293l-95 -543h-204zM526 707h351q121 0 205 76.5t108 201.5q7 37 7 70q-1 79 -41 133q-58 78 -179 78h-350z" />
<glyph unicode="S" horiz-adv-x="1187" d="M125 336l201 49q5 -95 83.5 -160t208.5 -65q138 0 231.5 61.5t111.5 157.5q4 19 4 38q0 124 -179 187l-198 72q-271 100 -271 314q0 34 7 71q21 119 101 210.5t192.5 138t236.5 46.5q188 0 295.5 -93.5t112.5 -246.5l-193 -55q-15 211 -248 211q-107 0 -190.5 -56 t-100.5 -151q-3 -17 -3 -32q0 -115 155 -173l203 -78q159 -60 229 -164q53 -79 54 -170q0 -27 -5 -55q-34 -190 -191 -303t-382 -113q-209 0 -330.5 101t-134.5 258z" />
<glyph unicode="T" horiz-adv-x="1232" d="M260 1266l29 168h1159l-29 -168h-477l-223 -1266h-205l223 1266h-477z" />
<glyph unicode="U" horiz-adv-x="1495" d="M274 530l160 904h205l-160 -904q-9 -48 -9 -90q0 -113 63 -183q86 -95 241 -95q156 0 277 95.5t153 272.5l160 904h205l-160 -904q-24 -131 -88.5 -237.5t-154.5 -174.5t-198.5 -104.5t-224.5 -36.5t-212 36.5t-162.5 104.5t-92.5 174q-14 55 -14 118q0 57 12 120z" />
<glyph unicode="V" horiz-adv-x="1310" d="M303 1434h209l186 -1182l605 1182h208l-751 -1434h-209z" />
<glyph unicode="W" horiz-adv-x="2035" d="M315 1434h205l150 -1090l508 1042h168l139 -1042l534 1090h205l-698 -1434h-176l-144 1077l-520 -1077h-176z" />
<glyph unicode="X" horiz-adv-x="1437" d="M2 0l2 23l729 737l-420 651l4 23h226l336 -523l520 523h225l-4 -23l-649 -651l467 -737l-2 -23h-234l-381 596l-585 -596h-234z" />
<glyph unicode="Y" horiz-adv-x="1388" d="M297 1411l4 23h225l301 -670l539 670h225l-4 -23l-688 -821l-102 -590h-205l102 590z" />
<glyph unicode="Z" horiz-adv-x="1316" d="M61 0l27 156l1069 1110h-819l29 168h1089l-26 -156l-1078 -1110h928l-29 -168h-1190z" />
<glyph unicode="[" horiz-adv-x="669" d="M76 -403l342 1923h469l-29 -156h-287l-284 -1612h286l-28 -155h-469z" />
<glyph unicode="\" horiz-adv-x="1085" d="M319 1505h201l496 -1585h-199z" />
<glyph unicode="]" horiz-adv-x="669" d="M-18 -403l26 155h285l285 1612h-287l28 156h469l-342 -1923h-464z" />
<glyph unicode="^" horiz-adv-x="1054" d="M227 764l486 717h149l232 -717h-187l-153 520l-342 -520h-185z" />
<glyph unicode="_" horiz-adv-x="1443" d="M-51 -293l31 182h1439l-30 -182h-1440z" />
<glyph unicode="`" horiz-adv-x="1028" d="M524 1481h224l122 -307h-174z" />
<glyph unicode="a" horiz-adv-x="1316" d="M172 512q24 147 108.5 269t214.5 194t279 72q236 0 338 -187l29 164h198l-180 -1024h-198l26 164q-165 -187 -403 -187q-149 0 -253.5 72t-144.5 194q-24 73 -25 155q0 55 11 114zM369 512q-7 -41 -7 -79q0 -103 52 -177q70 -102 225 -102q153 0 270 101t146 257 q6 37 6 72q0 110 -61 186q-80 100 -234 100q-155 0 -263 -103t-134 -255z" />
<glyph unicode="b" horiz-adv-x="1318" d="M158 0l260 1481h198l-108 -621q165 187 403 187q149 0 254 -72t146 -194q25 -74 25 -156q0 -54 -11 -113q-28 -148 -111.5 -269t-213 -193.5t-279.5 -72.5q-239 0 -336 187l-29 -164h-198zM442 512q-8 -42 -8 -79q0 -104 58 -178q80 -101 235 -101t263 103t134 255 q7 41 7 79q0 103 -51 177q-70 102 -224 102t-269.5 -101t-144.5 -257z" />
<glyph unicode="c" horiz-adv-x="1081" d="M168 500q21 114 77 212.5t140.5 173.5t202.5 118t254 43q199 0 344 -125l-119 -136q-96 84 -250 84q-167 0 -293.5 -100.5t-154.5 -257.5q-7 -37 -7 -71q0 -111 70 -187q91 -100 256 -100q157 0 281 84l71 -136q-188 -125 -389 -125q-177 0 -297 71q-119 70 -165 188 q-30 76 -30 165q0 48 9 99z" />
<glyph unicode="d" horiz-adv-x="1318" d="M174 512q28 148 111 269t212 193.5t279 72.5q236 0 338 -187l109 621h198l-260 -1481h-198l26 164q-165 -187 -403 -187q-149 0 -253.5 72t-144.5 194q-24 73 -25 155q0 55 11 114zM371 512q-7 -41 -7 -79q0 -103 52 -177q70 -102 225 -102q153 0 270 101t146 257 q6 37 6 72q0 110 -61 186q-80 100 -234 100q-155 0 -263 -103t-134 -255z" />
<glyph unicode="e" horiz-adv-x="1218" d="M168 508q42 228 226 383.5t421 155.5q82 0 154 -21t131 -64.5t96 -109.5q37 -64 50 -154q5 -35 5 -75q0 -60 -12 -129h-874q-8 -39 -9 -74q0 -99 68 -170q90 -96 260 -96q186 0 358 129l91 -115q-203 -191 -482 -191q-130 0 -232 42.5t-162 114.5q-59 74 -83 170 q-13 55 -14 112q0 45 8 92zM410 647h651q-8 66 -36 113t-69 70t-82 32.5t-88 9.5q-49 0 -97 -10.5t-99.5 -34.5t-98.5 -70t-81 -110z" />
<glyph unicode="f" horiz-adv-x="761" d="M215 868l29 156h159l15 78q72 399 411 399q145 0 213 -72q53 -55 53 -135q0 -24 -5 -51l-5 -16q-3 -5 -8.5 -18.5t-9.5 -20.5h-170q8 18 10 35q2 14 2 26q0 37 -23 55q-32 23 -87 23q-58 0 -104.5 -46t-65.5 -153l-19 -104h269l-29 -156h-268l-154 -868h-205l154 868 h-162z" />
<glyph unicode="g" horiz-adv-x="1316" d="M125 -334l106 156q126 -129 336 -129q154 0 260.5 86t135.5 248l24 137q-165 -187 -403 -187q-149 0 -253.5 72t-144.5 194q-25 73 -25 155q0 55 11 114q28 148 111 269t212 193.5t279 72.5q236 0 338 -187l29 164h198l-182 -1016q-22 -123 -82.5 -219t-145.5 -153.5 t-184 -87t-206 -29.5q-150 0 -247.5 39t-166.5 108zM369 512q-7 -41 -7 -79q0 -102 52 -177q70 -102 225 -102q153 0 270 101t146 257q6 37 6 72q0 109 -61 186q-80 100 -234 100q-155 0 -263 -103t-134 -255z" />
<glyph unicode="h" d="M158 0l260 1481h198l-114 -662q50 109 152 168.5t231 59.5q85 0 150 -27t110 -84q45 -58 57 -146q5 -33 5 -70q0 -64 -13 -142l-100 -578h-199l100 578q9 55 9 100q0 78 -28 122q-46 70 -136 70q-36 0 -77.5 -9.5t-93.5 -37t-96.5 -69.5t-81.5 -114.5t-53 -164.5 l-82 -475h-198z" />
<glyph unicode="i" horiz-adv-x="526" d="M164 0h198l181 1024h-199zM362 1354q11 60 56.5 99.5t105.5 39.5q60 1 92 -39q25 -30 26 -73q0 -13 -3 -27q-10 -60 -56 -98.5t-106 -38.5q-61 1 -93 39q-25 29 -24 71q0 13 2 27z" />
<glyph unicode="j" horiz-adv-x="602" d="M-221 -221q-5 -28 -5 -53q0 -79 50 -134q66 -73 209 -73q84 0 160 30t134 97t74 159l217 1219h-198l-215 -1208q-10 -60 -51 -91.5t-95 -31.5q-48 0 -76 29q-21 21 -21 56q0 13 3 27q6 41 31 84h-180q-13 -22 -29 -71zM438 1354q11 60 56.5 99.5t105.5 39.5t92 -39 q25 -31 25 -73q0 -13 -2 -27q-10 -60 -56 -98.5t-106 -38.5t-93 39q-24 29 -24 71q0 13 2 27z" />
<glyph unicode="k" horiz-adv-x="1103" d="M156 0l260 1481h198l-157 -887l430 430h221l-6 -23l-453 -448l129 -264q35 -74 66 -105.5t88 -31.5q89 0 139 38l45 -133q-92 -80 -237 -80q-66 0 -115 18t-81.5 57t-46 63t-33.5 71q-4 8 -5 11l-154 329l-90 -526h-198z" />
<glyph unicode="l" horiz-adv-x="526" d="M164 0l260 1481h199l-261 -1481h-198z" />
<glyph unicode="m" horiz-adv-x="1896" d="M158 0l180 1024h199l-35 -205q50 110 148.5 169t217.5 59q33 0 63.5 -5t66 -19t64 -37t54 -63t39.5 -92q138 216 387 216q325 0 324 -322q0 -67 -13 -147l-100 -578h-199l101 578q9 55 9 99q0 78 -29 123q-46 70 -136 70q-32 0 -67 -8t-80 -33t-83.5 -64t-73.5 -108.5 t-54 -158.5l-86 -498h-199l100 578q9 55 9 100q-1 78 -29 122q-46 70 -135 70q-35 0 -73 -9.5t-84.5 -37t-85 -70t-71.5 -114.5t-49 -164l-82 -475h-198z" />
<glyph unicode="n" horiz-adv-x="1236" d="M158 0l180 1024h199l-35 -205q50 109 152 168.5t231 59.5q175 -1 263 -117q60 -79 59 -212q0 -64 -13 -140l-100 -578h-199l100 578q9 55 9 100q0 78 -28 122q-46 70 -136 70q-36 0 -77.5 -9.5t-93.5 -37t-96.5 -69.5t-81.5 -114.5t-53 -164.5l-82 -475h-198z" />
<glyph unicode="o" d="M170 512q24 145 118 268.5t231 195t282 71.5q147 0 258 -72q111 -73 161 -195q33 -82 33 -175q0 -45 -8 -93q-27 -145 -121 -268t-230.5 -195t-283.5 -72q-144 0 -255 71q-111 70 -161 194q-33 80 -33 171q0 48 9 99zM365 510q-6 -35 -5 -67q0 -105 61 -185 q81 -104 220 -104q140 0 259 104.5t144 251.5q6 35 6 68q0 106 -61 186q-80 106 -221 106q-139 0 -256.5 -105.5t-146.5 -254.5z" />
<glyph unicode="p" horiz-adv-x="1316" d="M74 -459l264 1483h199l-29 -164q165 187 403 187q149 0 254 -72t146 -194q25 -74 25 -156q0 -55 -11 -113q-28 -148 -111.5 -269t-213 -193.5t-279.5 -72.5q-239 0 -336 187l-113 -623h-198zM442 512q-8 -42 -8 -79q0 -104 58 -178q80 -101 235 -101q154 0 263.5 103.5 t135.5 254.5q7 41 7 79q0 102 -51 177q-71 102 -226 102q-154 0 -269.5 -101t-144.5 -257z" />
<glyph unicode="q" horiz-adv-x="1316" d="M172 512q28 148 111 269t212 193.5t279 72.5q236 0 338 -187l29 164h198l-264 -1483h-198l110 623q-165 -187 -403 -187q-149 0 -253.5 72t-144.5 194q-25 73 -25 155q0 55 11 114zM369 512q-7 -41 -7 -79q0 -102 52 -177q70 -102 225 -102q153 0 270 101t146 257 q6 37 6 72q0 109 -61 186q-80 100 -234 100q-155 0 -263 -103t-134 -255z" />
<glyph unicode="r" horiz-adv-x="749" d="M158 0l180 1024h199l-41 -231q46 120 133 187t186 67q46 0 90 -23l-35 -195q-46 27 -104 27q-27 0 -55 -6.5t-72.5 -34.5t-81.5 -75t-74 -138.5t-59 -214.5l-68 -387h-198z" />
<glyph unicode="s" horiz-adv-x="903" d="M100 246l185 43q8 -62 63 -102t133 -40q83 0 143 45.5t60 112.5q0 70 -106 111l-127 47q-107 33 -160 87.5t-53 137.5q0 149 117 254t282 105q75 0 135 -21.5t106.5 -78t57.5 -144.5l-182 -39q-22 113 -142 113q-72 0 -124 -44.5t-52 -105.5q0 -68 103 -104l139 -50 q199 -63 199 -235q0 -109 -63 -193t-159 -126t-206 -42q-139 0 -238 71.5t-111 197.5z" />
<glyph unicode="t" horiz-adv-x="858" d="M193 868l28 156h168l94 295h154l-49 -295h325l-28 -156h-326l-98 -559q-6 -30 -6 -55q1 -40 17 -64q26 -38 81 -38q51 0 93 29t52 83q4 27 4 48t-4 36h174q4 -14 4 -36q0 -15 -2 -33l-6 -41q-18 -115 -109.5 -188t-236.5 -73q-64 0 -115.5 17.5t-92.5 57.5 q-41 42 -53 108q-5 30 -5 65q0 45 8 99l96 544h-167z" />
<glyph unicode="u" d="M219 446l103 578h198l-102 -578q-9 -55 -9 -100q1 -78 29 -122q46 -70 135 -70q36 0 77.5 9.5t93.5 37t96.5 69.5t81.5 114.5t53 164.5l84 475h198l-180 -1024h-198l34 205q-54 -109 -155 -168.5t-230 -59.5q-176 0 -262 116q-59 80 -59 216q0 63 12 137z" />
<glyph unicode="v" horiz-adv-x="1110" d="M227 1024h209l156 -805l442 805h209l-575 -1024h-226z" />
<glyph unicode="w" horiz-adv-x="1683" d="M231 1024h207l129 -758l365 727h168l102 -727l404 758h206l-550 -1024h-189l-108 713l-355 -713h-188z" />
<glyph unicode="x" horiz-adv-x="1179" d="M16 0l533 530l-324 494h224l253 -379l390 379h223l-500 -494l348 -530h-235l-266 408l-410 -408h-236z" />
<glyph unicode="y" horiz-adv-x="1134" d="M195 -459l278 494l-256 989h227l177 -764l428 764h231l-893 -1483h-192z" />
<glyph unicode="z" horiz-adv-x="1140" d="M61 0l19 125l825 739h-647l29 160h925l-22 -125l-823 -739h737l-29 -160h-1014z" />
<glyph unicode="{" horiz-adv-x="659" d="M111 -135q15 91 109.5 273t113.5 237q9 15 12 35q5 27 -10 46t-64 29l-100 19l18 106l109 19q51 10 72 29t26 47q0 1 -2 4q-45 58 -45 378q0 126 8 162q16 91 70.5 154t125 90t151.5 27q41 0 147 -13l-23 -137q-68 8 -131 8q-128 0 -153 -147q-14 -71 1 -160.5t31 -174.5 t5 -144q-12 -68 -56.5 -122.5t-111.5 -64.5q-2 -2 -2 -8v-8q63 -10 87.5 -64.5t12.5 -122.5q-11 -59 -56 -144t-91 -174.5t-60 -160.5q-13 -77 12 -112t89 -35q61 0 133 8l-23 -137q-119 -13 -154 -13q-127 0 -200.5 69t-50.5 202z" />
<glyph unicode="|" horiz-adv-x="464" d="M66 -459l360 2026h166l-361 -2026h-165z" />
<glyph unicode="}" horiz-adv-x="659" d="M6 -393l21 137q66 -8 129 -8q64 0 101 35t50 112q14 71 -0.5 160.5t-30 174.5t-4.5 144q12 68 55.5 122.5t110.5 64.5l2 2v6q0 4 2 6v2q-62 10 -87 64.5t-13 122.5q11 59 55.5 144t90 174.5t59.5 160.5q13 77 -10.5 112t-87.5 35q-62 0 -134 -8l25 137q119 13 152 13 q126 0 199 -68.5t50 -202.5q-12 -69 -54 -160.5t-95.5 -192.5t-75.5 -157q-4 -7 -8 -34q-12 -60 72 -76l100 -19l-18 -106l-107 -19q-89 -17 -100 -75q-4 -28 -4 -35q2 -49 13.5 -123t21.5 -130.5t15 -131.5t-5 -125q-16 -90 -70.5 -153t-126 -90.5t-152.5 -27.5 q-39 0 -141 13z" />
<glyph unicode="~" horiz-adv-x="1269" d="M240 606q39 89 126 151t191 62q49 0 96.5 -18.5t85 -45.5t73.5 -54t75 -45.5t76 -18.5q127 0 208 149l84 -118q-48 -100 -133 -159.5t-186 -59.5q-50 0 -95 18.5t-80 45.5t-69.5 54t-76.5 45.5t-87 18.5q-59 0 -117 -39t-92 -109z" />
<glyph unicode="&#xa1;" horiz-adv-x="503" d="M57 -410h234l131 985h-143zM262 897q10 63 61.5 106.5t114.5 43.5t99.5 -43.5t25.5 -106.5q-10 -63 -63.5 -107.5t-116.5 -44.5q-62 0 -97 44t-24 108z" />
<glyph unicode="&#xa2;" horiz-adv-x="1134" d="M182 500q20 111 74 208t135.5 171.5t194.5 119t243 48.5l72 194h117l-74 -203q151 -26 256 -116l-117 -136q-83 67 -200 80l-254 -706q37 -6 76 -6q154 0 278 84l72 -136q-188 -125 -387 -125q-54 0 -103 9l-76 -209h-116l82 231q-159 54 -231.5 186.5t-41.5 305.5z M385 512q-20 -109 17 -190.5t124 -126.5l238 671q-144 -21 -249.5 -117t-129.5 -237z" />
<glyph unicode="&#xa3;" horiz-adv-x="1302" d="M82 0l29 168q89 0 155 17t103.5 41t63 63.5t34.5 70t18 76.5q10 66 0 162h-258l21 119h215q-37 169 -40 239q-3 55 5 101q21 120 102 212t197.5 139.5t249.5 47.5q68 0 125.5 -11t98.5 -31t73.5 -46.5t51 -58t30.5 -65.5t12 -68.5t-4 -67.5h-197q14 80 -42 128t-169 48 q-130 0 -215 -61t-104 -166q-5 -24 -7 -48t-1 -51t2.5 -46t6.5 -50.5t8 -46t10.5 -50.5t9.5 -48h389l-21 -119h-348q10 -101 0 -172q-36 -202 -194 -258l-3 -6q63 6 287 6h463l-29 -168h-1128z" />
<glyph unicode="&#xa4;" horiz-adv-x="1081" d="M180 365l123 100q-44 96 -24 205q22 111 90 194l-82 99l143 120l80 -96q102 60 215 60q110 0 195 -60l112 96l98 -120l-114 -99q39 -85 20 -194q-21 -114 -94 -205l82 -100l-141 -121l-88 102q-95 -53 -203 -53q-109 0 -186 53l-125 -102zM440 668q-17 -93 34.5 -160.5 t141.5 -67.5q88 0 164.5 68t93.5 160q17 94 -35 161.5t-141 67.5t-165 -67.5t-93 -161.5z" />
<glyph unicode="&#xa5;" horiz-adv-x="1439" d="M281 352l22 123h397l21 115l-6 12h-389l22 123h307l-338 698l2 11h234l299 -670l541 670h233l-2 -11l-586 -698h305l-22 -123h-385l-10 -12l-21 -115h393l-22 -123h-393l-60 -352h-205l60 352h-397z" />
<glyph unicode="&#xa6;" horiz-adv-x="489" d="M78 -459l153 856h166l-153 -856h-166zM285 713l153 856h166l-153 -856h-166z" />
<glyph unicode="&#xa7;" horiz-adv-x="1210" d="M59 -150l97 140q179 -156 419 -156q146 0 229 50t97 132q6 37 -9 68t-45.5 52.5t-63.5 35t-72 23.5l-195 51q-93 26 -155.5 65.5t-89.5 84.5t-34.5 86t-0.5 83q17 92 86 165.5t174 115.5q-55 29 -92.5 66.5t-52.5 73t-20.5 73t3.5 67.5q16 98 93.5 174t190.5 116t240 40 q244 0 416 -102l-107 -150q-90 52 -165.5 70t-159.5 18q-270 0 -303 -166q-6 -46 28 -90.5t138 -74.5l184 -50q179 -46 260 -122t59 -199q-17 -87 -82.5 -166t-164.5 -133q177 -88 147 -262q-26 -155 -177.5 -257t-385.5 -102q-170 0 -294.5 50.5t-191.5 129.5zM446 588 q-23 -132 109 -164l227 -64q89 23 146 76.5t69 122.5q21 112 -92 152l-229 61q-96 -30 -158 -78t-72 -106z" />
<glyph unicode="&#xa8;" horiz-adv-x="1226" d="M500 1327q11 56 53 92.5t96 36.5q56 0 86.5 -37t20.5 -92q-11 -54 -55 -90.5t-99 -36.5q-54 0 -83.5 36.5t-18.5 90.5zM938 1327q11 56 53 92.5t96 36.5q56 0 86.5 -37t20.5 -92q-11 -54 -55 -90.5t-99 -36.5q-54 0 -83.5 36.5t-18.5 90.5z" />
<glyph unicode="&#xa9;" horiz-adv-x="1650" d="M227 717q27 151 107 287.5t193.5 235.5t258.5 157.5t295 58.5t274 -58.5t202 -157.5t110 -235.5t6 -287.5q-36 -201 -160.5 -371t-309 -269.5t-384.5 -99.5t-348.5 99.5t-213.5 269t-30 371.5zM350 717q-29 -168 25.5 -309.5t178 -224.5t288.5 -83q166 0 319 83 t256.5 224.5t132.5 309.5q22 126 -4.5 239.5t-91.5 196.5t-168 131.5t-227 48.5q-166 0 -319 -82.5t-257 -224t-133 -309.5zM561 715q28 161 166 273t320 112q77 0 124.5 -21t112.5 -71l-90 -107q-45 29 -83 43t-93 14q-128 0 -203.5 -73.5t-89.5 -167.5q-5 -33 -4.5 -67 t15.5 -65.5t38.5 -56t65 -39t94.5 -14.5q38 0 73 8.5t57 18t64 30.5l54 -106q-62 -36 -91 -50.5t-77.5 -28t-102.5 -13.5q-181 0 -279.5 112t-70.5 269z" />
<glyph unicode="&#xaa;" horiz-adv-x="1030" d="M240 444l22 125h688l-22 -125h-688zM342 1100q25 147 136.5 248.5t258.5 101.5q143 0 203 -102l16 86h154l-121 -674h-153l18 90q-50 -48 -118.5 -76.5t-129.5 -28.5q-142 0 -215.5 102.5t-48.5 252.5zM496 1100q-18 -93 26 -154t135 -61q88 0 154.5 57.5t83.5 153.5 q17 93 -28 154t-136 61q-93 0 -155 -60t-80 -151z" />
<glyph unicode="&#xab;" horiz-adv-x="1130" d="M195 594l8 33l456 436l105 -94l-375 -359l248 -356l-137 -94zM625 594l8 33l457 436l104 -94l-375 -359l248 -356l-137 -94z" />
<glyph unicode="&#xac;" horiz-adv-x="1267" d="M260 762l29 182h987l-94 -536h-176l63 354h-809z" />
<glyph unicode="&#xad;" horiz-adv-x="1173" d="M264 604l33 182h854l-33 -182h-854z" />
<glyph unicode="&#xae;" horiz-adv-x="1650" d="M227 717q27 151 107 287.5t193.5 235.5t258.5 157.5t295 58.5t274 -58.5t202 -157.5t110 -235.5t6 -287.5q-36 -201 -160.5 -371t-309 -269.5t-384.5 -99.5t-348.5 99.5t-213.5 269t-30 371.5zM350 717q-29 -168 25.5 -309.5t178 -224.5t288.5 -83q166 0 319 83 t256.5 224.5t132.5 309.5q22 126 -4.5 239.5t-91.5 196.5t-168 131.5t-227 48.5q-166 0 -319 -82.5t-257 -224t-133 -309.5zM651 358l129 734h297q105 0 155 -69.5t32 -170.5q-14 -80 -63 -136t-128 -79l111 -279h-170l-82 269h-86l-47 -269h-148zM866 745h129q46 0 77 29 t42 78t-11.5 85t-68.5 36h-129z" />
<glyph unicode="&#xaf;" horiz-adv-x="1103" d="M483 1235l29 156h571l-28 -156h-572z" />
<glyph unicode="&#xb0;" horiz-adv-x="872" d="M287 1133q25 142 145.5 245t263.5 103q145 0 228.5 -102.5t58.5 -245.5q-25 -142 -146 -243.5t-264 -101.5q-145 0 -228 101t-58 244zM440 1133q-17 -85 31 -145t129 -60q83 0 149.5 60t81.5 145q17 87 -28 148.5t-129 61.5q-79 0 -148 -62t-86 -148z" />
<glyph unicode="&#xb1;" horiz-adv-x="1261" d="M180 160l33 168h954l-32 -168h-955zM291 774l28 174h392l57 314h174l-57 -314h389l-29 -174h-389l-57 -315h-174l57 315h-391z" />
<glyph unicode="&#xb2;" horiz-adv-x="684" d="M240 1006l354 264q99 74 117 157q10 55 -19 85t-86 30q-68 0 -106 -33.5t-47 -76.5h-142q6 36 28 73.5t58.5 73t96.5 58t133 22.5q119 0 176 -66.5t39 -162.5q-12 -75 -55.5 -129.5t-116.5 -110.5l-213 -156q22 0 52 0.5t52.5 1t24.5 0.5h225l-18 -108h-551z" />
<glyph unicode="&#xb3;" horiz-adv-x="669" d="M225 1008l86 88q35 -36 84.5 -55t96.5 -19q73 0 122 38.5t60 96.5q10 60 -28 101.5t-99 41.5q-62 0 -107 -24l-45 67l262 205h-313l21 101h509l-14 -72l-242 -193q103 -10 153.5 -74t33.5 -157q-20 -104 -110 -172t-226 -68q-154 0 -244 95z" />
<glyph unicode="&#xb4;" horiz-adv-x="1028" d="M469 1174l233 307h224l-283 -307h-174z" />
<glyph unicode="&#xb5;" horiz-adv-x="1222" d="M88 -305l238 1329h198l-112 -625q-23 -123 28 -184t135 -61q36 0 77.5 9.5t93.5 37t96.5 69.5t81.5 114.5t53 164.5l84 475h201l-183 -1024h-198l37 205q-53 -109 -155 -168.5t-231 -59.5q-110 0 -186 43l-57 -325h-201z" />
<glyph unicode="&#xb6;" horiz-adv-x="1335" d="M264 1098q25 140 139.5 238t253.5 98h326l-4 -19q-27 -19 -44.5 -36.5t-37 -54t-27.5 -85.5l-270 -1526h-154l187 1051h-94q-140 0 -220 96.5t-55 237.5zM711 -287l268 1504q13 79 58.5 134t106 80t130.5 25q121 0 176 -60.5t37 -156.5l-8 -33q-9 -36 -21 -59h-145 q13 25 22 70q7 45 -18 69.5t-66 24.5q-45 0 -78 -25.5t-43 -77.5l-266 -1495h-153z" />
<glyph unicode="&#xb7;" horiz-adv-x="571" d="M233 565q12 63 63 107.5t114 44.5t100 -44.5t25 -107.5t-63 -106t-114 -43t-100 43t-25 106z" />
<glyph unicode="&#xb8;" horiz-adv-x="931" d="M162 -238l96 50q37 -121 145 -121q47 0 90.5 34.5t53.5 90.5q8 42 -4.5 96.5t-48.5 105.5l4 17h84q131 -113 102 -260q-19 -113 -109.5 -172.5t-191.5 -59.5q-97 0 -156.5 62t-64.5 157z" />
<glyph unicode="&#xb9;" horiz-adv-x="434" d="M293 1532l270 117h72l-127 -723h-135l100 573l-164 -67z" />
<glyph unicode="&#xba;" horiz-adv-x="1001" d="M236 444l22 125h686l-22 -125h-686zM340 1092q25 146 145.5 249t266.5 103q147 0 233.5 -103.5t61.5 -248.5q-25 -146 -149 -249.5t-271 -103.5t-229.5 103t-57.5 250zM492 1090q-17 -87 30 -149t131 -62q83 0 152 62t86 149t-31.5 151t-130.5 64q-84 0 -151.5 -63 t-85.5 -152z" />
<glyph unicode="&#xbb;" horiz-adv-x="1130" d="M150 254l374 356l-248 359l138 94l305 -436l-8 -33l-457 -434zM580 254l374 356l-247 359l137 94l305 -436l-8 -33l-457 -434z" />
<glyph unicode="&#xbc;" horiz-adv-x="1681" d="M197 -80l1402 1585h146l-1405 -1585h-143zM299 1317l268 117h72l-129 -723h-135l104 573l-164 -67zM1004 190l12 72l477 461h88l-78 -434h148l-17 -99h-147l-33 -190h-131l33 190h-352zM1161 289h211l43 233z" />
<glyph unicode="&#xbd;" horiz-adv-x="1742" d="M188 -80l1401 1585h146l-1403 -1585h-144zM299 1317l268 117h72l-129 -723h-135l104 573l-164 -67zM1110 0v78l352 264q102 76 115 158q10 56 -17.5 85t-84.5 29q-68 0 -105.5 -33.5t-46.5 -76.5h-141q7 37 27.5 74t56.5 72.5t96 58t133 22.5q119 0 176 -66.5t39 -162.5 q-12 -75 -55 -130t-115 -110l-215 -156q22 0 52 1t52.5 1.5t24.5 0.5h225l-18 -109h-551z" />
<glyph unicode="&#xbe;" horiz-adv-x="1734" d="M223 793l86 88q33 -36 82 -55t96 -19q73 0 122.5 38.5t60.5 96.5q10 61 -27 102t-98 41q-64 0 -109 -24l-43 67l262 205h-313l18 101h510l-12 -72l-242 -193q103 -10 152.5 -74t32.5 -157q-18 -104 -107.5 -172t-226.5 -68q-157 0 -244 95zM233 -80l1403 1585h146 l-1405 -1585h-144zM1063 190l14 72l477 461h88l-79 -434h147l-16 -99h-148l-30 -190h-132l31 190h-352zM1221 289h211l43 233z" />
<glyph unicode="&#xbf;" horiz-adv-x="1052" d="M59 -33q10 57 35 110.5t62.5 97.5t75 79.5t87 69t82 54t77 45t57.5 32.5q27 16 36 37.5t21 82.5h184q-9 -46 -13.5 -66t-11.5 -48.5t-15 -40.5t-19 -29t-29 -29t-38.5 -25.5t-53.5 -31.5q-157 -84 -233 -157.5t-95 -180.5q-19 -105 44.5 -166t193.5 -61q116 0 189.5 51.5 t90.5 145.5q7 56 7 63h178q7 -32 -2 -92q-9 -57 -44 -114t-95 -109t-155.5 -84.5t-211.5 -32.5q-133 0 -232 48t-146 139.5t-26 211.5zM590 897q10 63 62.5 106.5t115.5 43.5t98.5 -43.5t24.5 -106.5q-10 -63 -62.5 -107.5t-115.5 -44.5t-98.5 44.5t-24.5 107.5z" />
<glyph unicode="&#xc0;" horiz-adv-x="1394" d="M27 0h211l159 297h701l63 -297h207l-301 1434h-238zM492 463l421 774l156 -774h-577zM782 1851h211l109 -284h-170z" />
<glyph unicode="&#xc1;" horiz-adv-x="1394" d="M27 0h211l159 297h701l63 -297h207l-301 1434h-238zM492 463l421 774l156 -774h-577zM842 1567l211 284h211l-252 -284h-170z" />
<glyph unicode="&#xc2;" horiz-adv-x="1394" d="M27 0h211l159 297h701l63 -297h207l-301 1434h-238zM492 463l421 774l156 -774h-577zM645 1567l275 284h208l172 -284h-155l-141 176l-203 -176h-156z" />
<glyph unicode="&#xc3;" horiz-adv-x="1394" d="M27 0h211l159 297h701l63 -297h207l-301 1434h-238zM492 463l421 774l156 -774h-577zM657 1616q49 115 99 164t118 49q45 0 129 -41t115 -41q36 0 59.5 21.5t55.5 78.5l84 -26q-47 -114 -98 -163.5t-119 -49.5q-46 0 -128 41t-112 41q-36 0 -61 -22t-58 -79z" />
<glyph unicode="&#xc4;" horiz-adv-x="1394" d="M27 0h211l159 297h701l63 -297h207l-301 1434h-238zM492 463l421 774l156 -774h-577zM647 1694q10 55 53 92t97 37q56 0 86 -37t20 -92q-11 -54 -53.5 -90.5t-97.5 -36.5q-54 0 -84.5 36.5t-20.5 90.5zM1085 1694q10 55 53 92t97 37q56 0 86 -37t20 -92 q-11 -54 -53.5 -90.5t-97.5 -36.5q-54 0 -84.5 36.5t-20.5 90.5z" />
<glyph unicode="&#xc5;" horiz-adv-x="1394" d="M27 0h211l159 297h701l63 -297h207l-301 1434h-238zM492 463l421 774l156 -774h-577zM788 1737q17 91 87.5 149t162.5 58q94 0 147 -58t36 -149q-15 -88 -89.5 -146.5t-166.5 -58.5t-143 57.5t-34 147.5zM891 1737q-8 -48 18.5 -80.5t73.5 -32.5t86.5 33t46.5 80 t-20 78.5t-74 31.5q-48 0 -86 -31.5t-45 -78.5z" />
<glyph unicode="&#xc6;" horiz-adv-x="1898" d="M-12 0l1026 1434h1032l-29 -168h-674l-90 -502h607l-31 -168h-606l-74 -428h674l-29 -168h-879l105 598h-393l-418 -598h-221zM743 764h306l90 502h-41z" />
<glyph unicode="&#xc7;" horiz-adv-x="1398" d="M209 508.5q-7 99.5 10 208.5q27 150 104.5 284t193 235t274 160.5t335.5 59.5q149 0 254 -39t191 -114l-107 -154q-63 55 -163.5 89t-208.5 34q-132 0 -247.5 -44t-199.5 -120t-140 -176.5t-77 -214.5q-14 -92 -7 -174t44.5 -152t94.5 -121t143.5 -79.5t191.5 -28.5 q109 0 222 34t194 89l51 -154q-113 -75 -232 -114.5t-268 -39.5h-12q69 -91 49 -202q-19 -113 -109.5 -172.5t-191.5 -59.5q-97 0 -156.5 62t-64.5 157l96 50q37 -121 145 -121q47 0 90.5 34.5t53.5 90.5q15 86 -33 172q-116 16 -210.5 62.5t-158 114.5t-104 156 t-47.5 187.5z" />
<glyph unicode="&#xc8;" horiz-adv-x="1212" d="M201 0l252 1434h911l-29 -168h-706l-86 -480h616l-29 -168h-616l-80 -450h707l-29 -168h-911zM729 1851h211l109 -284h-170z" />
<glyph unicode="&#xc9;" horiz-adv-x="1212" d="M201 0l252 1434h911l-29 -168h-706l-86 -480h616l-29 -168h-616l-80 -450h707l-29 -168h-911zM799 1567l211 284h211l-252 -284h-170z" />
<glyph unicode="&#xca;" horiz-adv-x="1212" d="M201 0l252 1434h911l-29 -168h-706l-86 -480h616l-29 -168h-616l-80 -450h707l-29 -168h-911zM575 1567l275 284h209l172 -284h-156l-141 176l-203 -176h-156z" />
<glyph unicode="&#xcb;" horiz-adv-x="1212" d="M201 0l252 1434h911l-29 -168h-706l-86 -480h616l-29 -168h-616l-80 -450h707l-29 -168h-911zM578 1694q11 56 53 92.5t96 36.5q56 0 86.5 -37t20.5 -92q-11 -54 -54 -90.5t-98 -36.5q-54 0 -84 36.5t-20 90.5zM1016 1694q11 56 53 92.5t96 36.5q56 0 86.5 -37t20.5 -92 q-11 -54 -54 -90.5t-98 -36.5q-54 0 -84 36.5t-20 90.5z" />
<glyph unicode="&#xcc;" horiz-adv-x="606" d="M201 0h205l251 1434h-204zM373 1851h211l108 -284h-170z" />
<glyph unicode="&#xcd;" horiz-adv-x="606" d="M201 0h205l251 1434h-204zM467 1567l211 284h211l-252 -284h-170z" />
<glyph unicode="&#xce;" horiz-adv-x="606" d="M201 0h205l251 1434h-204zM254 1567l274 284h209l172 -284h-155l-142 176l-202 -176h-156z" />
<glyph unicode="&#xcf;" horiz-adv-x="606" d="M201 0h205l251 1434h-204zM256 1694q10 55 53 92t97 37q56 0 86 -37t20 -92q-11 -54 -54 -90.5t-98 -36.5q-54 0 -84 36.5t-20 90.5zM694 1694q10 55 53 92t97 37q56 0 86 -37t20 -92q-11 -54 -53.5 -90.5t-97.5 -36.5q-54 0 -84.5 36.5t-20.5 90.5z" />
<glyph unicode="&#xd0;" horiz-adv-x="1492" d="M156 643l26 143h160l113 648h456q168 0 299 -56.5t207.5 -154t105 -228t1.5 -278.5t-101.5 -278.5t-185 -228t-260.5 -154t-318 -56.5h-456l112 643h-159zM436 168h252q160 0 294.5 74.5t218.5 198t112 276.5q27 153 -13 276.5t-148 198t-267 74.5h-252l-86 -480h332 l-27 -143h-332z" />
<glyph unicode="&#xd1;" horiz-adv-x="1544" d="M201 0h205l186 1061l600 -1061h151l252 1434h-206l-187 -1057l-598 1057h-151zM743 1616q49 115 99.5 164t118.5 49q45 0 129 -41t114 -41q36 0 59.5 21.5t55.5 78.5l84 -26q-47 -114 -98 -163.5t-119 -49.5q-46 0 -128 41t-112 41q-36 0 -61 -22t-58 -79z" />
<glyph unicode="&#xd2;" horiz-adv-x="1675" d="M219 717q35 200 165.5 370.5t319.5 269.5t390 99q151 0 278 -58.5t208.5 -157.5t116.5 -236t9 -287q-27 -150 -110.5 -287t-201 -236.5t-265.5 -158t-298 -58.5q-151 0 -278 58.5t-208.5 158t-116.5 236.5t-9 287zM428 717q-27 -156 21.5 -283.5t157.5 -199.5t255 -72 q144 0 280 72t232 200t123 283q29 155 -21 283t-160.5 200t-254.5 72q-147 0 -281.5 -72t-228.5 -199.5t-123 -283.5zM883 1851h211l106 -284h-170z" />
<glyph unicode="&#xd3;" horiz-adv-x="1675" d="M219 717q35 200 165.5 370.5t319.5 269.5t390 99q151 0 278 -58.5t208.5 -157.5t116.5 -236t9 -287q-27 -150 -110.5 -287t-201 -236.5t-265.5 -158t-298 -58.5q-151 0 -278 58.5t-208.5 158t-116.5 236.5t-9 287zM428 717q-27 -156 21.5 -283.5t157.5 -199.5t255 -72 q144 0 280 72t232 200t123 283q29 155 -21 283t-160.5 200t-254.5 72q-147 0 -281.5 -72t-228.5 -199.5t-123 -283.5zM1014 1567l213 284h211l-254 -284h-170z" />
<glyph unicode="&#xd4;" horiz-adv-x="1675" d="M219 717q35 200 165.5 370.5t319.5 269.5t390 99q151 0 278 -58.5t208.5 -157.5t116.5 -236t9 -287q-27 -150 -110.5 -287t-201 -236.5t-265.5 -158t-298 -58.5q-151 0 -278 58.5t-208.5 158t-116.5 236.5t-9 287zM428 717q-27 -156 21.5 -283.5t157.5 -199.5t255 -72 q144 0 280 72t232 200t123 283q29 155 -21 283t-160.5 200t-254.5 72q-147 0 -281.5 -72t-228.5 -199.5t-123 -283.5zM784 1567l277 284h209l170 -284h-156l-139 176l-205 -176h-156z" />
<glyph unicode="&#xd5;" horiz-adv-x="1675" d="M219 717q35 200 165.5 370.5t319.5 269.5t390 99q151 0 278 -58.5t208.5 -157.5t116.5 -236t9 -287q-27 -150 -110.5 -287t-201 -236.5t-265.5 -158t-298 -58.5q-151 0 -278 58.5t-208.5 158t-116.5 236.5t-9 287zM428 717q-27 -156 21.5 -283.5t157.5 -199.5t255 -72 q144 0 280 72t232 200t123 283q29 155 -21 283t-160.5 200t-254.5 72q-147 0 -281.5 -72t-228.5 -199.5t-123 -283.5zM811 1616q49 115 99 164t118 49q46 0 130 -41t114 -41q36 0 59 21t55 79l84 -26q-49 -115 -99 -164t-118 -49q-47 0 -129 41t-112 41q-36 0 -60.5 -22 t-56.5 -79z" />
<glyph unicode="&#xd6;" horiz-adv-x="1675" d="M219 717q35 200 165.5 370.5t319.5 269.5t390 99q151 0 278 -58.5t208.5 -157.5t116.5 -236t9 -287q-27 -150 -110.5 -287t-201 -236.5t-265.5 -158t-298 -58.5q-151 0 -278 58.5t-208.5 158t-116.5 236.5t-9 287zM428 717q-27 -156 21.5 -283.5t157.5 -199.5t255 -72 q144 0 280 72t232 200t123 283q29 155 -21 283t-160.5 200t-254.5 72q-147 0 -281.5 -72t-228.5 -199.5t-123 -283.5zM786 1694q10 55 54 92t98 37q55 0 85 -36.5t19 -92.5q-11 -54 -53.5 -90.5t-97.5 -36.5q-54 0 -84.5 36.5t-20.5 90.5zM1225 1694q10 55 53.5 92t97.5 37 q56 0 85.5 -37t19.5 -92q-11 -54 -54 -90.5t-98 -36.5q-54 0 -84 36.5t-20 90.5z" />
<glyph unicode="&#xd7;" horiz-adv-x="1056" d="M174 340l342 291l-240 289l148 122l235 -288l342 288l103 -122l-342 -289l239 -291l-145 -125l-240 293l-342 -293z" />
<glyph unicode="&#xd8;" horiz-adv-x="1675" d="M219 717q37 201 167 371t319 269t391 99q191 0 344 -94l137 160l113 -88l-140 -162q101 -105 143 -249t13 -306q-27 -150 -110.5 -287t-201 -236.5t-265.5 -158t-298 -58.5q-181 0 -315 76l-123 -141l-110 88l114 137q-113 105 -161.5 255.5t-16.5 324.5zM428 717 q-23 -126 6.5 -234.5t100.5 -185.5l770 907q-109 68 -244 68q-147 0 -281.5 -72t-228.5 -199.5t-123 -283.5zM649 211q100 -49 215 -49q222 0 407 160t226 395q22 113 -1 213.5t-83 177.5z" />
<glyph unicode="&#xd9;" horiz-adv-x="1495" d="M274 530l160 904h205l-160 -904q-32 -178 54 -273t241 -95q156 0 277 95.5t153 272.5l160 904h205l-160 -904q-24 -131 -88.5 -237.5t-154.5 -174.5t-198.5 -104.5t-224.5 -36.5t-212 36.5t-162.5 104.5t-92.5 174.5t-2 237.5zM821 1851h211l107 -284h-170z" />
<glyph unicode="&#xda;" horiz-adv-x="1495" d="M274 530l160 904h205l-160 -904q-32 -178 54 -273t241 -95q156 0 277 95.5t153 272.5l160 904h205l-160 -904q-24 -131 -88.5 -237.5t-154.5 -174.5t-198.5 -104.5t-224.5 -36.5t-212 36.5t-162.5 104.5t-92.5 174.5t-2 237.5zM899 1567l213 284h211l-254 -284h-170z" />
<glyph unicode="&#xdb;" horiz-adv-x="1495" d="M274 530l160 904h205l-160 -904q-32 -178 54 -273t241 -95q156 0 277 95.5t153 272.5l160 904h205l-160 -904q-24 -131 -88.5 -237.5t-154.5 -174.5t-198.5 -104.5t-224.5 -36.5t-212 36.5t-162.5 104.5t-92.5 174.5t-2 237.5zM696 1567l277 284h209l170 -284h-156 l-139 176l-205 -176h-156z" />
<glyph unicode="&#xdc;" horiz-adv-x="1495" d="M274 530l160 904h205l-160 -904q-32 -178 54 -273t241 -95q156 0 277 95.5t153 272.5l160 904h205l-160 -904q-24 -131 -88.5 -237.5t-154.5 -174.5t-198.5 -104.5t-224.5 -36.5t-212 36.5t-162.5 104.5t-92.5 174.5t-2 237.5zM698 1694q10 55 54 92t98 37q55 0 85 -36.5 t19 -92.5q-11 -54 -53.5 -90.5t-97.5 -36.5q-54 0 -84.5 36.5t-20.5 90.5zM1137 1694q10 55 53.5 92t97.5 37q56 0 85.5 -37t19.5 -92q-11 -54 -54 -90.5t-98 -36.5q-54 0 -84 36.5t-20 90.5z" />
<glyph unicode="&#xdd;" horiz-adv-x="1388" d="M297 1411l4 23h225l301 -670l539 670h225l-4 -23l-688 -821l-102 -590h-205l102 590zM854 1567l211 284h211l-252 -284h-170z" />
<glyph unicode="&#xde;" horiz-adv-x="1296" d="M201 0l252 1434h204l-57 -330h485q96 0 165.5 -55t97 -143.5t8.5 -188.5q-31 -159 -146.5 -272t-269.5 -113h-477l-57 -332h-205zM492 500h393q109 0 177 64t81 153q9 42 4 81t-21 70t-57 49.5t-104 18.5h-394z" />
<glyph unicode="&#xdf;" horiz-adv-x="1224" d="M158 0l186 1065q36 208 168.5 318t333.5 110q203 0 299 -97.5t65 -271.5q-44 -244 -323 -311q173 -18 267.5 -128.5t62.5 -278.5q-30 -174 -181 -290t-360 -116h-117l-18 168h164q114 0 201.5 71.5t105.5 172.5q25 138 -80 223.5t-301 85.5l-15 160q177 0 271.5 63 t113.5 166q19 105 -30 162t-154 57q-110 0 -179.5 -68t-92.5 -196l-187 -1065h-200z" />
<glyph unicode="&#xe0;" horiz-adv-x="1318" d="M174 512q-27 -147 13.5 -269t145 -194t253.5 -72q238 0 403 187l-26 -164h198l180 1024h-198l-29 -164q-102 187 -338 187q-150 0 -279 -72.5t-212 -193.5t-111 -269zM371 512q26 152 134 255t263 103q154 0 234 -100.5t55 -257.5q-29 -156 -146 -257t-270 -101 q-155 0 -225.5 102.5t-44.5 255.5zM598 1481h223l123 -307h-174z" />
<glyph unicode="&#xe1;" horiz-adv-x="1316" d="M172 512q-27 -147 13.5 -269t145 -194t253.5 -72q238 0 403 187l-26 -164h198l180 1024h-198l-29 -164q-102 187 -338 187q-150 0 -279 -72.5t-212 -193.5t-111 -269zM369 512q26 152 134 255t263 103q154 0 234 -100.5t55 -257.5q-29 -156 -146 -257t-270 -101 q-155 0 -225.5 102.5t-44.5 255.5zM725 1174l233 307h224l-283 -307h-174z" />
<glyph unicode="&#xe2;" horiz-adv-x="1316" d="M172 512q-27 -147 13.5 -269t145 -194t253.5 -72q238 0 403 187l-26 -164h198l180 1024h-198l-29 -164q-102 187 -338 187q-150 0 -279 -72.5t-212 -193.5t-111 -269zM369 512q26 152 134 255t263 103q154 0 234 -100.5t55 -257.5q-29 -156 -146 -257t-270 -101 q-155 0 -225.5 102.5t-44.5 255.5zM494 1174l297 307h208l187 -307h-156l-156 188l-225 -188h-155z" />
<glyph unicode="&#xe3;" horiz-adv-x="1316" d="M172 512q-27 -147 13.5 -269t145 -194t253.5 -72q238 0 403 187l-26 -164h198l180 1024h-198l-29 -164q-102 187 -338 187q-150 0 -279 -72.5t-212 -193.5t-111 -269zM369 512q26 152 134 255t263 103q154 0 234 -100.5t55 -257.5q-29 -156 -146 -257t-270 -101 q-155 0 -225.5 102.5t-44.5 255.5zM545 1227q51 115 101 164t118 49q46 0 128 -41t112 -41q36 0 60 21.5t56 78.5l86 -26q-49 -115 -100 -164t-119 -49q-47 0 -129.5 40.5t-112.5 40.5q-35 0 -57.5 -20.5t-56.5 -79.5z" />
<glyph unicode="&#xe4;" horiz-adv-x="1316" d="M172 512q-27 -147 13.5 -269t145 -194t253.5 -72q238 0 403 187l-26 -164h198l180 1024h-198l-29 -164q-102 187 -338 187q-150 0 -279 -72.5t-212 -193.5t-111 -269zM369 512q26 152 134 255t263 103q154 0 234 -100.5t55 -257.5q-29 -156 -146 -257t-270 -101 q-155 0 -225.5 102.5t-44.5 255.5zM528 1327q10 55 53 92t97 37q56 0 86 -37t20 -92q-11 -54 -53.5 -90.5t-97.5 -36.5q-54 0 -84.5 36.5t-20.5 90.5zM967 1327q11 56 53 92.5t96 36.5q56 0 86.5 -37t20.5 -92q-11 -54 -54 -90.5t-98 -36.5q-54 0 -84 36.5t-20 90.5z" />
<glyph unicode="&#xe5;" horiz-adv-x="1316" d="M172 512q-27 -147 13.5 -269t145 -194t253.5 -72q238 0 403 187l-26 -164h198l180 1024h-198l-29 -164q-102 187 -338 187q-150 0 -279 -72.5t-212 -193.5t-111 -269zM369 512q26 152 134 255t263 103q154 0 234 -100.5t55 -257.5q-29 -156 -146 -257t-270 -101 q-155 0 -225.5 102.5t-44.5 255.5zM659 1389q17 91 89.5 154t162.5 63q91 0 144.5 -63.5t36.5 -153.5q-15 -89 -91 -152t-167 -63t-141.5 62t-33.5 153zM762 1389q-8 -48 18.5 -80.5t73.5 -32.5t86.5 33t46.5 80q8 47 -19.5 79.5t-74.5 32.5t-85.5 -32.5t-45.5 -79.5z" />
<glyph unicode="&#xe6;" horiz-adv-x="1912" d="M117 309q26 142 146 232t317 90q192 0 317 -47l6 34q42 252 -221 252q-174 0 -338 -110l-47 143q85 73 201.5 108.5t232.5 35.5q295 0 350 -185q88 88 203 136.5t242 48.5q103 0 186.5 -33t143 -101.5t80 -172.5t-2.5 -246h-862q-32 -147 59.5 -243.5t262.5 -96.5 q91 0 173 31t171 98l90 -115q-203 -191 -465 -191q-162 0 -272.5 62t-161.5 172q-70 -104 -191 -169t-272 -65q-111 0 -195.5 37.5t-128 114t-24.5 180.5zM315 311q-14 -72 37 -126t170 -54q91 0 184.5 48.5t176.5 148.5l6 116q-79 22 -173.5 32.5t-142.5 10.5 q-116 0 -180 -52.5t-78 -123.5zM1120 647h635q-28 225 -258 225q-49 0 -97 -10.5t-99.5 -34.5t-99 -70t-81.5 -110z" />
<glyph unicode="&#xe7;" horiz-adv-x="1083" d="M168 500q21 114 77 212.5t140.5 173.5t202.5 118t254 43q199 0 344 -125l-119 -136q-94 84 -248 84q-167 0 -293.5 -100.5t-154.5 -257.5t63 -257.5t256 -100.5q155 0 279 84l71 -136q-172 -112 -370 -125q69 -91 49 -202q-19 -113 -109.5 -172.5t-191.5 -59.5 q-97 0 -156.5 62t-64.5 157l96 50q37 -121 145 -121q47 0 90.5 34.5t53.5 90.5q15 82 -31 170q-216 29 -318 171.5t-65 342.5z" />
<glyph unicode="&#xe8;" horiz-adv-x="1218" d="M168 508q42 228 226 383.5t421 155.5q82 0 154 -21t131 -64.5t96 -109t50 -155t-7 -203.5h-874q-32 -148 58.5 -244t260.5 -96q186 0 358 129l91 -115q-203 -191 -482 -191q-130 0 -232 42.5t-162 115t-83.5 169t-5.5 204.5zM410 647h651q-8 66 -36 113t-69 70t-82 32.5 t-88 9.5q-49 0 -97 -10.5t-99.5 -34.5t-98.5 -70t-81 -110zM606 1481h223l123 -307h-174z" />
<glyph unicode="&#xe9;" horiz-adv-x="1218" d="M168 508q42 228 226 383.5t421 155.5q82 0 154 -21t131 -64.5t96 -109t50 -155t-7 -203.5h-874q-32 -148 58.5 -244t260.5 -96q186 0 358 129l91 -115q-203 -191 -482 -191q-130 0 -232 42.5t-162 115t-83.5 169t-5.5 204.5zM410 647h651q-8 66 -36 113t-69 70t-82 32.5 t-88 9.5q-49 0 -97 -10.5t-99.5 -34.5t-98.5 -70t-81 -110zM705 1174l233 307h223l-282 -307h-174z" />
<glyph unicode="&#xea;" horiz-adv-x="1218" d="M168 508q42 228 226 383.5t421 155.5q82 0 154 -21t131 -64.5t96 -109t50 -155t-7 -203.5h-874q-32 -148 58.5 -244t260.5 -96q186 0 358 129l91 -115q-203 -191 -482 -191q-130 0 -232 42.5t-162 115t-83.5 169t-5.5 204.5zM410 647h651q-8 66 -36 113t-69 70t-82 32.5 t-88 9.5q-49 0 -97 -10.5t-99.5 -34.5t-98.5 -70t-81 -110zM469 1174l297 307h209l186 -307h-155l-156 188l-225 -188h-156z" />
<glyph unicode="&#xeb;" horiz-adv-x="1218" d="M168 508q42 228 226 383.5t421 155.5q82 0 154 -21t131 -64.5t96 -109t50 -155t-7 -203.5h-874q-32 -148 58.5 -244t260.5 -96q186 0 358 129l91 -115q-203 -191 -482 -191q-130 0 -232 42.5t-162 115t-83.5 169t-5.5 204.5zM410 647h651q-8 66 -36 113t-69 70t-82 32.5 t-88 9.5q-49 0 -97 -10.5t-99.5 -34.5t-98.5 -70t-81 -110zM498 1327q11 56 53 92.5t96 36.5q56 0 86.5 -37t20.5 -92q-11 -54 -54 -90.5t-98 -36.5q-54 0 -84 36.5t-20 90.5zM936 1327q11 56 53 92.5t96 36.5q56 0 86.5 -37t20.5 -92q-11 -54 -54 -90.5t-98 -36.5 q-54 0 -84 36.5t-20 90.5z" />
<glyph unicode="&#xec;" horiz-adv-x="526" d="M164 0h198l181 1024h-199zM231 1481h224l123 -307h-175z" />
<glyph unicode="&#xed;" horiz-adv-x="526" d="M164 0h198l181 1024h-199zM358 1174l234 307h223l-283 -307h-174z" />
<glyph unicode="&#xee;" horiz-adv-x="526" d="M115 1174l297 307h209l186 -307h-156l-155 188l-226 -188h-155zM164 0h198l181 1024h-199z" />
<glyph unicode="&#xef;" horiz-adv-x="526" d="M143 1327q10 55 53 92t97 37q56 0 86 -37t20 -92q-11 -54 -54.5 -90.5t-98.5 -36.5q-54 0 -83.5 36.5t-19.5 90.5zM164 0h198l181 1024h-199zM582 1327q11 56 53 92.5t96 36.5q56 0 86.5 -37t20.5 -92q-11 -54 -55 -90.5t-99 -36.5q-54 0 -83.5 36.5t-18.5 90.5z" />
<glyph unicode="&#xf0;" horiz-adv-x="1243" d="M170 510q41 221 214 369.5t384 148.5q163 0 205 -65q-51 107 -156 227l-264 -105l-27 107l209 84q-25 24 -72.5 65.5t-60.5 53.5l172 104q15 -15 47.5 -44t58 -53.5t46.5 -49.5l250 100l34 -106l-209 -84q142 -176 210.5 -372.5t33.5 -387.5q-21 -122 -82 -222.5 t-146 -166t-186.5 -101t-207.5 -35.5q-152 0 -265 71.5t-162.5 193.5t-25.5 268zM369 512q-25 -152 54.5 -255t221.5 -103q160 0 267 101.5t137 262.5q17 95 -8 171.5t-92 122.5t-167 46q-152 0 -270 -99t-143 -247z" />
<glyph unicode="&#xf1;" horiz-adv-x="1236" d="M158 0h198l82 475q16 92 53 164.5t81.5 114.5t96.5 69.5t93.5 37t77.5 9.5q90 0 135.5 -70t19.5 -222l-100 -578h199l100 578q42 236 -46 352.5t-263 116.5q-129 0 -231 -59.5t-152 -168.5l35 205h-199zM502 1227q49 115 99 164t118 49q45 0 127 -41t112 -41 q36 0 61 21.5t58 78.5l84 -26q-49 -115 -99 -164t-118 -49q-46 0 -130 40.5t-114 40.5q-35 0 -57.5 -20.5t-56.5 -79.5z" />
<glyph unicode="&#xf2;" d="M170 512q24 145 118 268.5t231 195t282 71.5q147 0 258 -72t160.5 -194.5t25.5 -268.5q-27 -145 -121 -268t-230.5 -195t-283.5 -72q-144 0 -255 71t-161.5 194.5t-23.5 269.5zM365 510q-25 -148 56 -252t220 -104q140 0 259 104.5t144 251.5q25 149 -55 254.5 t-221 105.5q-139 0 -256.5 -105.5t-146.5 -254.5zM571 1481h224l123 -307h-175z" />
<glyph unicode="&#xf3;" d="M170 512q24 145 118 268.5t231 195t282 71.5q147 0 258 -72t160.5 -194.5t25.5 -268.5q-27 -145 -121 -268t-230.5 -195t-283.5 -72q-144 0 -255 71t-161.5 194.5t-23.5 269.5zM365 510q-25 -148 56 -252t220 -104q140 0 259 104.5t144 251.5q25 149 -55 254.5 t-221 105.5q-139 0 -256.5 -105.5t-146.5 -254.5zM709 1174l233 307h223l-282 -307h-174z" />
<glyph unicode="&#xf4;" d="M170 512q24 145 118 268.5t231 195t282 71.5q147 0 258 -72t160.5 -194.5t25.5 -268.5q-27 -145 -121 -268t-230.5 -195t-283.5 -72q-144 0 -255 71t-161.5 194.5t-23.5 269.5zM365 510q-25 -148 56 -252t220 -104q140 0 259 104.5t144 251.5q25 149 -55 254.5 t-221 105.5q-139 0 -256.5 -105.5t-146.5 -254.5zM477 1174l297 307h209l186 -307h-155l-156 188l-225 -188h-156z" />
<glyph unicode="&#xf5;" d="M170 512q24 145 118 268.5t231 195t282 71.5q147 0 258 -72t160.5 -194.5t25.5 -268.5q-27 -145 -121 -268t-230.5 -195t-283.5 -72q-144 0 -255 71t-161.5 194.5t-23.5 269.5zM365 510q-25 -148 56 -252t220 -104q140 0 259 104.5t144 251.5q25 149 -55 254.5 t-221 105.5q-139 0 -256.5 -105.5t-146.5 -254.5zM516 1227q51 115 101 164t118 49q45 0 127 -41t113 -41q36 0 61 21.5t56 78.5l86 -26q-49 -115 -100.5 -164t-119.5 -49q-47 0 -129 40.5t-112 40.5q-35 0 -58 -21t-57 -79z" />
<glyph unicode="&#xf6;" d="M170 512q24 145 118 268.5t231 195t282 71.5q147 0 258 -72t160.5 -194.5t25.5 -268.5q-27 -145 -121 -268t-230.5 -195t-283.5 -72q-144 0 -255 71t-161.5 194.5t-23.5 269.5zM365 510q-25 -148 56 -252t220 -104q140 0 259 104.5t144 251.5q25 149 -55 254.5 t-221 105.5q-139 0 -256.5 -105.5t-146.5 -254.5zM504 1327q11 56 53 92.5t96 36.5q56 0 86.5 -37t20.5 -92q-11 -54 -54 -90.5t-98 -36.5q-54 0 -84 36.5t-20 90.5zM942 1327q10 55 53 92t97 37q56 0 86 -37t20 -92q-11 -54 -53.5 -90.5t-97.5 -36.5q-54 0 -84.5 36.5 t-20.5 90.5z" />
<glyph unicode="&#xf7;" horiz-adv-x="1284" d="M205 535l31 182h1058l-30 -182h-1059zM530 238q12 63 63 107t114 44t99.5 -44t24.5 -107t-62.5 -106.5t-113.5 -43.5t-100 43.5t-25 106.5zM672 1022q11 63 61 107.5t113 44.5t100 -44.5t27 -107.5t-63.5 -106.5t-116.5 -43.5t-97.5 43.5t-23.5 106.5z" />
<glyph unicode="&#xf8;" horiz-adv-x="1236" d="M109 31l135 127q-108 153 -72 354q20 109 80.5 208t145 170.5t190.5 114t215 42.5q166 0 282 -95l127 119l84 -88l-125 -117q113 -151 76 -354q-27 -145 -121 -268t-230.5 -195t-283.5 -72q-163 0 -284 93l-135 -127zM369 510q-22 -122 28 -209l545 514q-76 55 -170 55 q-139 0 -258.5 -106.5t-144.5 -253.5zM473 209q74 -55 170 -55q140 0 259.5 104.5t144.5 251.5q22 123 -27 213z" />
<glyph unicode="&#xf9;" d="M219 446q-39 -237 46.5 -353t262.5 -116q129 0 230 59.5t155 168.5l-34 -205h198l180 1024h-198l-84 -475q-16 -92 -53 -164.5t-81.5 -114.5t-96.5 -69.5t-93.5 -37t-77.5 -9.5q-90 0 -135.5 70t-19.5 222l102 578h-198zM590 1481h223l123 -307h-174z" />
<glyph unicode="&#xfa;" d="M219 446q-39 -237 46.5 -353t262.5 -116q129 0 230 59.5t155 168.5l-34 -205h198l180 1024h-198l-84 -475q-16 -92 -53 -164.5t-81.5 -114.5t-96.5 -69.5t-93.5 -37t-77.5 -9.5q-90 0 -135.5 70t-19.5 222l102 578h-198zM711 1174l233 307h223l-282 -307h-174z" />
<glyph unicode="&#xfb;" d="M219 446q-39 -237 46.5 -353t262.5 -116q129 0 230 59.5t155 168.5l-34 -205h198l180 1024h-198l-84 -475q-16 -92 -53 -164.5t-81.5 -114.5t-96.5 -69.5t-93.5 -37t-77.5 -9.5q-90 0 -135.5 70t-19.5 222l102 578h-198zM473 1174l297 307h209l186 -307h-155l-156 188 l-225 -188h-156z" />
<glyph unicode="&#xfc;" d="M219 446q-39 -237 46.5 -353t262.5 -116q129 0 230 59.5t155 168.5l-34 -205h198l180 1024h-198l-84 -475q-16 -92 -53 -164.5t-81.5 -114.5t-96.5 -69.5t-93.5 -37t-77.5 -9.5q-90 0 -135.5 70t-19.5 222l102 578h-198zM510 1327q10 55 54 92t98 37q55 0 85 -36.5 t19 -92.5q-11 -54 -54 -90.5t-98 -36.5q-54 0 -84 36.5t-20 90.5zM948 1327q10 55 54 92t98 37q55 0 85 -36.5t19 -92.5q-11 -54 -53.5 -90.5t-97.5 -36.5q-54 0 -84.5 36.5t-20.5 90.5z" />
<glyph unicode="&#xfd;" horiz-adv-x="1134" d="M195 -459l278 494l-256 989h227l177 -764l428 764h231l-893 -1483h-192zM647 1174l234 307h223l-283 -307h-174z" />
<glyph unicode="&#xfe;" horiz-adv-x="1316" d="M74 -459l344 1940h198l-108 -621q165 187 403 187q149 0 254 -72t146 -194t14 -269q-28 -148 -111.5 -269t-213 -193.5t-279.5 -72.5q-239 0 -336 187l-113 -623h-198zM442 512q-29 -156 50.5 -257t234.5 -101q154 0 263.5 103.5t135.5 254.5q26 153 -44.5 255.5 t-225.5 102.5q-154 0 -269.5 -101t-144.5 -257z" />
<glyph unicode="&#xff;" horiz-adv-x="1134" d="M195 -459l278 494l-256 989h227l177 -764l428 764h231l-893 -1483h-192zM455 1327q10 55 53.5 92t97.5 37q56 0 85.5 -37t19.5 -92q-11 -54 -54 -90.5t-98 -36.5q-54 0 -84 36.5t-20 90.5zM893 1327q10 55 53.5 92t97.5 37q56 0 85.5 -37t19.5 -92q-11 -54 -54 -90.5 t-98 -36.5q-54 0 -84 36.5t-20 90.5z" />
<glyph unicode="&#x152;" horiz-adv-x="1984" d="M225 739q37 201 159 360t301.5 247t383.5 88h1067l-29 -168h-692l-84 -469h600l-30 -168h-601l-81 -461h-2h694l-27 -168h-1067q-151 0 -275 58.5t-201.5 157.5t-109.5 235.5t-6 287.5zM430 739q-26 -156 17 -286.5t148 -207.5t249 -77h170l196 1098h-170 q-224 0 -395 -146t-215 -381z" />
<glyph unicode="&#x153;" horiz-adv-x="1902" d="M170 512q24 145 118 268.5t231 195t282 71.5q195 0 327 -129q161 129 375 129q104 0 188.5 -33t146.5 -101.5t83.5 -172.5t-0.5 -246h-838q-33 -152 43.5 -246t245.5 -94q186 0 359 129l90 -115q-203 -191 -482 -191q-238 0 -354 129q-182 -129 -375 -129q-144 0 -255 71 t-161.5 194.5t-23.5 269.5zM367 510q-25 -148 55 -252t219 -104t256 100q-36 118 -12 254q20 121 104 258q-38 48 -95.5 76t-125.5 28q-138 0 -257 -106.5t-144 -253.5zM1120 647h629q-7 54 -27 95t-46.5 65t-62 39t-68.5 20.5t-70 5.5q-234 0 -355 -225z" />
<glyph unicode="&#x178;" horiz-adv-x="1388" d="M297 1411l4 23h225l301 -670l539 670h225l-4 -23l-688 -821l-102 -590h-205l102 590zM645 1694q10 55 53 92t97 37q56 0 86 -37t20 -92q-11 -54 -53.5 -90.5t-97.5 -36.5q-54 0 -84.5 36.5t-20.5 90.5zM1083 1694q10 55 53 92t97 37q56 0 86 -37t20 -92 q-11 -54 -53.5 -90.5t-97.5 -36.5q-54 0 -84.5 36.5t-20.5 90.5z" />
<glyph unicode="&#x2c6;" horiz-adv-x="1253" d="M485 1174l297 307h209l187 -307h-156l-156 188l-225 -188h-156z" />
<glyph unicode="&#x2dc;" horiz-adv-x="1015" d="M412 1227q51 116 100.5 164.5t116.5 48.5q47 0 129 -41t112 -41q36 0 61 21.5t56 78.5l84 -26q-47 -114 -98 -163.5t-119 -49.5q-46 0 -130 40.5t-114 40.5q-34 0 -54.5 -19.5t-59.5 -80.5z" />
<glyph unicode="&#x2000;" horiz-adv-x="972" />
<glyph unicode="&#x2001;" horiz-adv-x="1944" />
<glyph unicode="&#x2002;" horiz-adv-x="972" />
<glyph unicode="&#x2003;" horiz-adv-x="1944" />
<glyph unicode="&#x2004;" horiz-adv-x="648" />
<glyph unicode="&#x2005;" horiz-adv-x="486" />
<glyph unicode="&#x2006;" horiz-adv-x="324" />
<glyph unicode="&#x2007;" horiz-adv-x="324" />
<glyph unicode="&#x2008;" horiz-adv-x="243" />
<glyph unicode="&#x2009;" horiz-adv-x="388" />
<glyph unicode="&#x200a;" horiz-adv-x="108" />
<glyph unicode="&#x2010;" horiz-adv-x="958" d="M229 535l31 182h684l-31 -182h-684z" />
<glyph unicode="&#x2011;" horiz-adv-x="958" d="M229 535l31 182h684l-31 -182h-684z" />
<glyph unicode="&#x2012;" horiz-adv-x="958" d="M229 535l31 182h684l-31 -182h-684z" />
<glyph unicode="&#x2013;" horiz-adv-x="1161" d="M229 535l31 182h887l-31 -182h-887z" />
<glyph unicode="&#x2014;" horiz-adv-x="1630" d="M229 535l31 182h1356l-31 -182h-1356z" />
<glyph unicode="&#x2018;" horiz-adv-x="505" d="M298.5 1083.5q-3.5 28.5 2.5 49.5q23 128 105 219t212 129l23 -74q-91 -29 -139 -85t-60 -124q72 23 110 -11.5t28 -90.5q-8 -57 -51.5 -94t-114.5 -37q-40 0 -67.5 18.5t-36 45t-12 55z" />
<glyph unicode="&#x2019;" horiz-adv-x="503" d="M305 1038q91 28 138 84.5t59 124.5q-73 -23 -107.5 11t-29.5 92q6 56 50 93.5t115 37.5q40 0 67.5 -18.5t36 -45t12 -55t-2.5 -49.5q-24 -129 -103.5 -219.5t-207.5 -128.5z" />
<glyph unicode="&#x201a;" horiz-adv-x="524" d="M80 -186q169 53 196 209q-72 -23 -109.5 11.5t-27.5 90.5q11 58 53.5 94.5t112.5 36.5q40 0 67.5 -18.5t36 -45t12 -55t-2.5 -49.5q-23 -128 -104.5 -219t-209.5 -129z" />
<glyph unicode="&#x201c;" horiz-adv-x="907" d="M298.5 1083.5q-3.5 28.5 2.5 49.5q23 128 105 219t212 129l23 -74q-91 -29 -139 -85t-60 -124q72 23 110 -11.5t28 -90.5q-8 -57 -51.5 -94t-114.5 -37q-40 0 -67.5 18.5t-36 45t-12 55zM699.5 1083.5q-3.5 28.5 2.5 49.5q24 129 104.5 219.5t209.5 128.5l26 -74 q-91 -28 -138.5 -84.5t-59.5 -124.5q72 23 109.5 -11.5t27.5 -90.5q-8 -57 -51.5 -94t-114.5 -37q-40 0 -67.5 18.5t-36 45t-12 55z" />
<glyph unicode="&#x201d;" horiz-adv-x="903" d="M305 1038q91 28 138 84.5t59 124.5q-73 -23 -107.5 11t-29.5 92q6 56 50 93.5t115 37.5q40 0 67.5 -18.5t36 -45t12 -55t-2.5 -49.5q-24 -129 -103.5 -219.5t-207.5 -128.5zM707 1038q169 53 196 209q-73 -23 -107.5 11t-29.5 92q6 56 50.5 93.5t115.5 37.5q33 0 57 -12 t35 -31t18 -42t5.5 -44.5t-3.5 -38.5q-23 -128 -105 -219t-210 -129z" />
<glyph unicode="&#x201e;" horiz-adv-x="925" d="M80 -186q169 53 196 209q-72 -23 -109.5 11.5t-27.5 90.5q11 58 53.5 94.5t112.5 36.5q40 0 67.5 -18.5t36 -45t12 -55t-2.5 -49.5q-24 -129 -103 -219.5t-206 -128.5zM481 -186q91 28 138 84.5t59 124.5q-72 -23 -109.5 11.5t-27.5 90.5q11 58 53.5 94.5t112.5 36.5 q33 0 57 -12t35 -31t18 -42t5.5 -44.5t-3.5 -38.5q-23 -129 -104 -219.5t-209 -128.5z" />
<glyph unicode="&#x2022;" horiz-adv-x="823" d="M254 508q20 102 104.5 174t186.5 72q103 0 163 -72.5t40 -173.5q-17 -101 -103 -173.5t-188 -72.5t-161 71t-42 175z" />
<glyph unicode="&#x2026;" horiz-adv-x="1665" d="M135 127q11 63 62 107.5t114 44.5t99.5 -44.5t25.5 -107.5q-10 -63 -61.5 -106.5t-114.5 -43.5t-99.5 43.5t-25.5 106.5zM702 127q11 63 62.5 107.5t114.5 44.5t99.5 -44.5t25.5 -107.5q-10 -63 -62 -106.5t-115 -43.5t-99 43.5t-26 106.5zM1270 127q11 63 62 107.5 t114 44.5t99.5 -44.5t25.5 -107.5q-10 -63 -61.5 -106.5t-114.5 -43.5t-99 43.5t-26 106.5z" />
<glyph unicode="&#x202f;" horiz-adv-x="388" />
<glyph unicode="&#x2039;" horiz-adv-x="700" d="M195 594l8 33l456 436l105 -94l-375 -359l248 -356l-137 -94z" />
<glyph unicode="&#x203a;" horiz-adv-x="700" d="M150 254l374 356l-248 359l138 94l305 -436l-8 -33l-457 -434z" />
<glyph unicode="&#x205f;" horiz-adv-x="486" />
<glyph unicode="&#x20ac;" horiz-adv-x="1368" d="M170 508l27 139h184q1 8 1 21.5t1 25t4 21.5l10 57h-178l25 139h198q44 120 112.5 217.5t162 172t218 115t269.5 40.5q189 0 328 -88l-90 -162q-109 68 -262 68q-193 0 -327 -98t-204 -265h664l-70 -139h-643l-8 -51q-3 -15 -8 -74h600l-70 -139h-532q18 -162 115.5 -255 t281.5 -93q164 0 270 43l-35 -176q-135 -50 -258 -50q-150 0 -262 39.5t-180 112t-102.5 167t-38.5 212.5h-203z" />
<glyph unicode="&#x2122;" horiz-adv-x="1783" d="M307 1319l21 115h649l-21 -115h-258l-108 -619h-133l108 619h-258zM903 700l199 734h133l133 -535l313 535h140l-64 -734h-129l45 506l-293 -497h-98l-115 495l-133 -504h-131z" />
<glyph unicode="&#x25fc;" horiz-adv-x="1024" d="M0 0v1024h1024v-1024h-1024z" />
</font>
</defs>
</svg>
