<?xml version="1.0" standalone="no"?>
<!DOCTYPE svg PUBLIC "-//W3C//DTD SVG 1.1//EN" "http://www.w3.org/Graphics/SVG/1.1/DTD/svg11.dtd" >
<svg xmlns="http://www.w3.org/2000/svg" xmlns:xlink="http://www.w3.org/1999/xlink" version="1.1">
<metadata></metadata>
<defs>
<font id="filson_probold" horiz-adv-x="1347" >
<font-face units-per-em="2048" ascent="1481" descent="-567" />
<missing-glyph horiz-adv-x="499" />
<glyph unicode="&#xfb01;" horiz-adv-x="1423" d="M59 811v231h150v41q0 101 29.5 177.5t75.5 121.5t112 73.5t129.5 38t136.5 9.5q91 0 169.5 -22t149 -81t101.5 -151l-289 -80q-16 47 -52 69t-79 22q-34 0 -63 -7.5t-56.5 -26t-43 -55t-15.5 -88.5v-41h776v-1042h-305v811h-471v-811h-305v811h-150z" />
<glyph unicode="&#xfb02;" horiz-adv-x="1396" d="M59 811v231h150v41q0 101 29.5 177.5t75.5 121.5t112 73.5t129.5 38t136.5 9.5q132 0 302.5 -28.5t269.5 -71.5v-1403h-306v1219q-122 41 -266 41q-34 0 -63 -7.5t-56.5 -26t-43 -55t-15.5 -88.5v-41h268v-231h-268v-811h-305v811h-150z" />
<glyph unicode="&#xfb03;" horiz-adv-x="2244" d="M59 811v231h148v41q0 101 29.5 177.5t75.5 121.5t112 73.5t129.5 38t136.5 9.5q198 0 324 -119l-162 -184q-62 60 -162 60q-34 0 -63 -7.5t-56.5 -26t-43 -55t-15.5 -88.5v-41h516v41q0 101 29.5 177.5t75.5 121.5t112 73.5t129.5 38t136.5 9.5q91 0 169.5 -22t149 -81 t101.5 -151l-289 -80q-16 47 -52 69t-79 22q-34 0 -63 -7.5t-56.5 -26t-43 -55t-15.5 -88.5v-41h776v-1042h-305v811h-471v-811h-305v811h-516v-811h-305v811h-148z" />
<glyph unicode="&#xfb04;" horiz-adv-x="2217" d="M59 811v231h148v41q0 101 28 178t71.5 121.5t104 73t117 38t119.5 9.5q95 0 196 -26.5t171 -92.5l-162 -184q-62 60 -162 60q-34 0 -63 -7.5t-56.5 -26t-43 -55t-15.5 -88.5v-41h516v41q0 101 29.5 177.5t75.5 121.5t112 73.5t129.5 38t136.5 9.5q132 0 302.5 -28.5 t269.5 -71.5v-1403h-305v1219q-122 41 -267 41q-34 0 -63 -7.5t-56.5 -26t-43 -55t-15.5 -88.5v-41h269v-231h-269v-811h-305v811h-516v-811h-305v811h-148z" />
<glyph horiz-adv-x="0" />
<glyph horiz-adv-x="682" />
<glyph horiz-adv-x="0" />
<glyph horiz-adv-x="0" />
<glyph unicode="&#xd;" horiz-adv-x="512" />
<glyph unicode=" "  horiz-adv-x="499" />
<glyph unicode="&#x09;" horiz-adv-x="499" />
<glyph unicode="&#xa0;" horiz-adv-x="499" />
<glyph unicode="!" horiz-adv-x="600" d="M106 154q0 78 54.5 129t138.5 51q82 0 138.5 -51.5t56.5 -128.5q0 -75 -56.5 -126t-138.5 -51q-84 0 -138.5 50.5t-54.5 126.5zM115 1374v60h370v-60l-73 -895h-224z" />
<glyph unicode="&#x22;" horiz-adv-x="987" d="M96 1456h314l-66 -588h-182zM578 1456h313l-66 -588h-182z" />
<glyph unicode="#" horiz-adv-x="1570" d="M63 326l52 209h262l102 401h-264l53 207h262l74 291h227l-73 -291h264l72 291h229l-74 -291h258l-53 -207h-256l-102 -401h260l-53 -209h-254l-84 -326h-230l84 326h-264l-82 -326h-227l80 326h-263zM604 535h264l101 401h-264z" />
<glyph unicode="$" horiz-adv-x="1140" d="M68 430l270 53q41 -157 186 -178v291l-53 18q-81 28 -143 68t-98 80.5t-58.5 88t-30.5 87.5t-8 82q0 160 108 261.5t283 119.5v170h131v-174q131 -18 227.5 -91t149.5 -202l-250 -121q-53 109 -127 137v-270l52 -16q100 -35 172.5 -85.5t110 -105.5t54.5 -106t17 -101 q0 -91 -33.5 -165t-91.5 -122t-129 -76.5t-152 -37.5v-178h-131v176q-186 18 -311 121t-145 276zM428 1016q0 -74 96 -119v229q-96 -24 -96 -110zM655 311q50 13 79.5 41.5t29.5 71.5q0 76 -109 127v-240z" />
<glyph unicode="%" horiz-adv-x="2048" d="M63 1071q0 163 116 274t286 111q171 0 286 -111t115 -274q0 -162 -115 -272.5t-286 -110.5q-170 0 -286 111t-116 272zM297 1071q0 -79 49.5 -128.5t118.5 -49.5q71 0 121.5 49.5t50.5 128.5q0 82 -50 132t-122 50q-69 0 -118.5 -50t-49.5 -132zM504 0l796 1434h216 l-795 -1434h-217zM1182 360q0 163 115.5 274t285.5 111q171 0 286.5 -111t115.5 -274q0 -162 -115.5 -272.5t-286.5 -110.5q-170 0 -285.5 110.5t-115.5 272.5zM1415 360q0 -79 49.5 -128.5t118.5 -49.5q71 0 121.5 49.5t50.5 128.5q0 82 -50 132.5t-122 50.5 q-69 0 -118.5 -50.5t-49.5 -132.5z" />
<glyph unicode="&#x26;" horiz-adv-x="1622" d="M68 393q0 267 333 430q-122 147 -122 295q0 69 28 127.5t72 96.5t100.5 64.5t111.5 38t107 11.5q154 0 265.5 -101.5t111.5 -238.5q0 -105 -71 -198t-187 -158l176 -197l111 156q7 9 20.5 30.5t20.5 30.5h278v-61l-256 -359l66 -69q59 -53 110 -53q98 0 168 75l105 -202 q-134 -134 -291 -134q-167 0 -309 142l-10 10q-72 -73 -180 -112.5t-236 -39.5q-144 0 -261.5 48.5t-189 144.5t-71.5 223zM373 408q0 -79 65 -130t162 -51q129 0 227 115l-254 287q-86 -31 -143 -90t-57 -131zM559 1102q0 -66 96 -172q142 87 142 176q0 47 -29.5 83 t-85.5 36q-53 0 -88 -36t-35 -87z" />
<glyph unicode="'" horiz-adv-x="505" d="M96 1456h314l-66 -588h-182z" />
<glyph unicode="(" horiz-adv-x="710" d="M76 551q0 144 30.5 291t75.5 262.5t101.5 220.5t105 172t90.5 111l195 -113q-44 -62 -90.5 -153.5t-93.5 -215t-77 -276t-30 -299.5q0 -146 30 -298.5t77 -275.5t93.5 -214.5t90.5 -153.5l-195 -113q-42 44 -90.5 111.5t-105 172.5t-102 220t-75.5 261.5t-30 289.5z" />
<glyph unicode=")" horiz-adv-x="710" d="M37 -391q44 62 90.5 153.5t93.5 214.5t77 275.5t30 298.5q0 147 -30 299.5t-77 276t-93.5 215t-90.5 153.5l194 113q55 -57 117.5 -152.5t130 -232t112 -315.5t44.5 -357q0 -143 -30.5 -289.5t-75.5 -261.5t-102 -220t-105.5 -172.5t-90.5 -111.5z" />
<glyph unicode="*" horiz-adv-x="937" d="M72 1120l63 191l248 -99l-16 269h204l-18 -267l252 97l59 -191l-256 -69l170 -213l-160 -113l-145 221l-156 -225l-155 119l168 207z" />
<glyph unicode="+" horiz-adv-x="1150" d="M68 516v238h378v374h261v-374h376v-238h-376v-375h-261v375h-378z" />
<glyph unicode="," horiz-adv-x="538" d="M49 -219q78 28 140.5 99t62.5 136q-63 -4 -110.5 44.5t-47.5 105.5q-5 70 41 118t133 48q49 0 85 -21t53.5 -54t25.5 -64t8 -60q0 -88 -40 -183.5t-116 -174.5t-167 -107z" />
<glyph unicode="-" horiz-adv-x="976" d="M123 520v246h731v-246h-731z" />
<glyph unicode="." horiz-adv-x="569" d="M92 154q0 78 54.5 129t138.5 51q82 0 138 -51t56 -129q0 -75 -56 -126t-138 -51q-84 0 -138.5 50.5t-54.5 126.5z" />
<glyph unicode="/" horiz-adv-x="1134" d="M49 -74l787 1587h249l-788 -1587h-248z" />
<glyph unicode="0" horiz-adv-x="1449" d="M86 717q0 154 44.5 288.5t125 234.5t201.5 158t266 58q144 0 265.5 -58t203 -158t127 -235t45.5 -288t-45.5 -287.5t-127 -234t-203 -157.5t-265.5 -58q-145 0 -266 58t-201.5 157.5t-125 234t-44.5 287.5zM391 717q0 -136 39 -246.5t115.5 -177t177.5 -66.5 q151 0 243.5 141t92.5 349t-92.5 349.5t-243.5 141.5q-101 0 -177.5 -66.5t-115.5 -177.5t-39 -247z" />
<glyph unicode="1" horiz-adv-x="841" d="M14 1202l518 232h175v-1434h-312v1077q-50 -21 -158 -59.5t-145 -54.5z" />
<glyph unicode="2" horiz-adv-x="1259" d="M74 975q0 49 12 101t37 107t68.5 103t100.5 86.5t138.5 61t177.5 22.5q237 0 382 -124.5t145 -336.5q0 -79 -25.5 -154.5t-73 -140t-93 -112.5t-105.5 -99l-293 -249q98 12 223 12h410v-252h-1051l-31 188l545 502q193 172 193 303q0 96 -60.5 149.5t-165.5 53.5 q-54 0 -96.5 -14.5t-68 -37t-42 -53t-22.5 -59t-6 -57.5h-299z" />
<glyph unicode="3" horiz-adv-x="1267" d="M45 150l152 194q114 -66 202.5 -87t173.5 -21q125 0 210 75.5t85 171.5q0 103 -75.5 168.5t-178.5 65.5q-95 0 -190 -39l-119 160l410 344h-588v252h1010v-181l-387 -325q113 -11 212 -75t158.5 -162.5t59.5 -205.5q0 -102 -42.5 -194t-119.5 -162t-193.5 -111 t-255.5 -41q-337 0 -524 173z" />
<glyph unicode="4" horiz-adv-x="1351" d="M37 358v187l770 889h211v-820h285v-256h-285v-358h-311v358h-670zM385 614h322v369z" />
<glyph unicode="5" horiz-adv-x="1265" d="M68 150l151 194q187 -108 371 -108q139 0 219 75t80 183q0 88 -72 154.5t-194 66.5q-79 0 -159 -26.5t-132 -78.5l-207 82l47 742h926v-252h-656l-20 -303h10q100 75 275 75q129 0 242.5 -61.5t182 -168t68.5 -230.5q0 -233 -159 -375t-439 -142q-347 0 -534 173z" />
<glyph unicode="6" horiz-adv-x="1333" d="M88 684q0 162 40.5 301.5t118 245t199.5 165.5t275 60q151 0 283 -55t217 -156l-187 -170q-112 117 -301 117q-54 0 -108.5 -23.5t-103 -68t-81.5 -120t-39 -169.5h9q52 63 136.5 103t180.5 40q97 0 190.5 -33.5t168.5 -93t121 -153t46 -203.5q0 -215 -157.5 -354.5 t-407.5 -139.5q-182 0 -318.5 89.5t-209 249.5t-72.5 368zM420 485q0 -99 70.5 -174t189.5 -75q107 0 185.5 68.5t78.5 168.5q0 108 -69 174t-189 66q-131 0 -198.5 -66.5t-67.5 -161.5z" />
<glyph unicode="7" horiz-adv-x="1150" d="M53 1182v252h1075v-189l-651 -1245h-350l635 1182h-709z" />
<glyph unicode="8" horiz-adv-x="1351" d="M84 438q0 99 72 196.5t182 133.5q-86 33 -141.5 112.5t-55.5 161.5q0 189 149 301.5t386 112.5t385.5 -112.5t148.5 -301.5q0 -82 -55 -161.5t-141 -112.5q110 -36 182 -133.5t72 -196.5q0 -212 -164 -336.5t-428 -124.5t-428 124.5t-164 336.5zM397 438 q0 -87 76.5 -143.5t202.5 -56.5t202 56.5t76 143.5q0 85 -69.5 145t-200.5 60q-139 4 -213 -57t-74 -148zM455 1042q0 -72 55.5 -129t163.5 -57h4q108 0 163.5 57t55.5 129q0 69 -60 115.5t-161 46.5t-161 -46.5t-60 -115.5z" />
<glyph unicode="9" horiz-adv-x="1333" d="M80 963q0 215 157.5 354t407.5 139q274 0 437 -195t163 -511q0 -162 -40.5 -301.5t-118 -245t-199.5 -166t-275 -60.5q-151 0 -282.5 54.5t-216.5 156.5l186 170q112 -116 301 -116q54 0 108.5 23.5t103 68t81.5 120t39 169.5h-8q-42 -62 -130.5 -103t-187.5 -41 q-97 0 -190.5 33.5t-168.5 93.5t-121 153.5t-46 203.5zM389 961q0 -108 69 -174t189 -66q131 0 198.5 66t67.5 161q0 99 -70.5 174.5t-189.5 75.5q-107 0 -185.5 -68.5t-78.5 -168.5z" />
<glyph unicode=":" horiz-adv-x="630" d="M123 154q0 78 54 129t138 51q82 0 138.5 -51.5t56.5 -128.5q0 -75 -56.5 -126t-138.5 -51q-84 0 -138 50.5t-54 126.5zM123 893q0 78 54 129t138 51q82 0 138.5 -51.5t56.5 -128.5q0 -75 -56.5 -125.5t-138.5 -50.5q-84 0 -138 50t-54 126z" />
<glyph unicode=";" horiz-adv-x="618" d="M90 -207q82 31 143.5 95t61.5 132q-68 -4 -118 47t-50 113q-5 74 43.5 125t140.5 51q52 0 90 -22.5t57 -57.5t27.5 -68t8.5 -63q0 -92 -43.5 -188.5t-122 -171.5t-170.5 -104zM115 893q0 78 54 129t138 51q82 0 138.5 -51.5t56.5 -128.5q0 -75 -56.5 -125.5t-138.5 -50.5 q-84 0 -138 50t-54 126z" />
<glyph unicode="&#x3c;" horiz-adv-x="1210" d="M66 459v225l991 426h41v-274l-680 -265l680 -264v-274h-41z" />
<glyph unicode="=" horiz-adv-x="1265" d="M125 260v246h1016v-246h-1016zM125 803v246h1016v-246h-1016z" />
<glyph unicode="&#x3e;" horiz-adv-x="1210" d="M113 33v274l680 264l-680 265v274h41l991 -426v-225l-991 -426h-41z" />
<glyph unicode="?" horiz-adv-x="1103" d="M68 1077q0 65 29.5 130t85 121.5t149.5 92t211 35.5q217 0 354 -114.5t137 -303.5q0 -136 -84.5 -243t-275.5 -226q-31 -18 -31 -73v-19h-285q0 47 1.5 72t9 58.5t23 56.5t44.5 50t72 54q119 75 170 130.5t51 133.5q0 76 -53.5 120t-132.5 44q-76 0 -129.5 -40 t-53.5 -109q0 -38 27 -103h-291q-28 53 -28 133zM309 154q0 78 54.5 129t138.5 51q82 0 138 -51t56 -129q0 -75 -56 -126t-138 -51q-84 0 -138.5 50.5t-54.5 126.5z" />
<glyph unicode="@" horiz-adv-x="2070" d="M76 502q0 208 73 390t200 311t306 203.5t385 74.5q208 0 384.5 -67t299.5 -185.5t192 -286t69 -364.5q0 -165 -32.5 -287t-92.5 -194.5t-138 -107t-176 -34.5q-138 0 -202.5 58.5t-75.5 166.5q-52 -70 -140 -107.5t-180 -37.5q-127 0 -228 63.5t-155.5 169.5t-54.5 234 t54.5 234t156.5 169.5t233 63.5q190 0 299 -135v114h201v-717q0 -56 25.5 -82t66.5 -26q115 5 182.5 117.5t67.5 337.5q0 155 -55 288.5t-153.5 228.5t-239.5 149t-308 54q-221 0 -399 -104.5t-277.5 -286.5t-99.5 -405t92.5 -403t262.5 -284t387 -104q238 0 409 82l82 -158 q-104 -50 -235 -78t-256 -28q-205 0 -379.5 74t-295 203.5t-188 309t-67.5 386.5zM711 502q0 -122 74 -204.5t196 -82.5q119 0 194.5 77t75.5 206t-75 209.5t-199 80.5q-125 0 -195.5 -81.5t-70.5 -204.5z" />
<glyph unicode="A" horiz-adv-x="1443" d="M12 0l553 1434h309l562 -1434h-332l-103 268v-4h-563v4l-98 -268h-328zM524 524h387l-190 574z" />
<glyph unicode="B" horiz-adv-x="1355" d="M170 0v1436l539 -2q221 0 362 -106t141 -286q0 -96 -60 -177.5t-173 -121.5q126 -24 212.5 -125.5t86.5 -214.5q0 -182 -140 -292.5t-368 -110.5h-600zM487 252h283q81 0 133.5 43.5t52.5 114.5q0 33 -6 59t-25 53.5t-51 45.5t-88.5 30t-132.5 12h-166v-358zM487 831h131 q80 0 136 17t84.5 47t40.5 62t12 71q0 74 -52.5 114t-129.5 40h-222v-351z" />
<glyph unicode="C" horiz-adv-x="1421" d="M80 717q0 150 55.5 284t155 235t249 160.5t326.5 59.5q157 0 276 -45t238 -135l-131 -242q-88 68 -177.5 104t-203.5 36q-213 0 -340 -130.5t-127 -326.5t127 -326.5t340 -130.5q114 0 204 36t177 103l131 -241q-120 -90 -238.5 -135.5t-275.5 -45.5q-177 0 -326.5 59.5 t-249 161t-155 235.5t-55.5 284z" />
<glyph unicode="D" horiz-adv-x="1550" d="M170 0v1434h537q172 0 316 -56.5t241 -154t150.5 -228t53.5 -278.5t-53.5 -278.5t-150.5 -228t-241 -154t-316 -56.5h-537zM487 252h220q199 0 320.5 134t121.5 331t-121.5 331t-320.5 134h-220v-930z" />
<glyph unicode="E" horiz-adv-x="1218" d="M170 0v1434h952v-252h-635v-353h551v-251h-551v-326h635v-252h-952z" />
<glyph unicode="F" horiz-adv-x="1198" d="M170 0v1434h952v-252h-635v-353h551v-251h-551v-578h-317z" />
<glyph unicode="G" horiz-adv-x="1503" d="M80 717q0 150 54 284t152 235t245 160.5t323 59.5q155 0 276 -46t240 -138l-158 -236q-68 54 -159.5 91.5t-188.5 37.5q-101 0 -182.5 -27.5t-133.5 -72.5t-87 -105t-49.5 -121t-14.5 -126q0 -194 124.5 -319.5t318.5 -125.5q159 0 264 54v204h-363v254h660v-583 q-247 -220 -559 -220q-162 0 -304.5 59t-242 158.5t-157.5 236t-58 286.5z" />
<glyph unicode="H" horiz-adv-x="1519" d="M170 0v1434h317v-623h545v623h318v-1434h-318v559h-545v-559h-317z" />
<glyph unicode="I" horiz-adv-x="657" d="M170 0v1434h317v-1434h-317z" />
<glyph unicode="J" horiz-adv-x="1351" d="M51 481q0 139 72 240h293q-64 -103 -64 -217q0 -48 14 -92.5t42 -83t77.5 -61.5t114.5 -23q154 0 218.5 95t64.5 294v803h317v-803q0 -327 -153 -491.5t-443 -164.5q-118 0 -214 31t-158 81t-104 117t-59.5 135.5t-17.5 139.5z" />
<glyph unicode="K" horiz-adv-x="1359" d="M168 0v1434h313v-658l424 658h326v-41l-447 -662l181 -317q65 -110 100.5 -139t99.5 -29q39 0 101 35l114 -226q-122 -78 -276 -78q-255 0 -404 291l-219 391v-4v-655h-313z" />
<glyph unicode="L" horiz-adv-x="1177" d="M170 0v1434h317v-1182h650v-252h-967z" />
<glyph unicode="M" horiz-adv-x="1921" d="M106 0l134 1434h319l402 -965l401 965h319l134 -1434h-318l-76 872l-358 -856h-205l-358 856l-76 -872h-318z" />
<glyph unicode="N" horiz-adv-x="1529" d="M168 2v1432h244l630 -865v865h318v-1434h-242l-633 872v-870h-317z" />
<glyph unicode="O" horiz-adv-x="1648" d="M80 717q0 150 59 287t158.5 236t237.5 157.5t290 58.5q202 0 373 -99t271 -269t100 -371q0 -150 -59 -287t-158.5 -236.5t-237.5 -158t-289 -58.5q-152 0 -290 58.5t-237.5 158t-158.5 236.5t-59 287zM393 717q0 -194 125.5 -321.5t306.5 -127.5t305.5 127.5t124.5 321.5 t-124.5 321t-305.5 127t-306.5 -127t-125.5 -321z" />
<glyph unicode="P" horiz-adv-x="1318" d="M170 0v1434h629q143 0 249.5 -65.5t159 -170.5t52.5 -233q0 -198 -123.5 -328.5t-337.5 -130.5h-312v-506h-317zM487 756h271q85 0 133.5 58.5t48.5 152.5q0 98 -48.5 156.5t-133.5 58.5h-271v-426z" />
<glyph unicode="Q" horiz-adv-x="1652" d="M78 717q0 150 59.5 287t160 236t239 157.5t290.5 58.5q202 0 374 -99t273 -269.5t101 -370.5q0 -166 -77.5 -317.5t-208 -256t-288.5 -145.5q4 -79 58 -119.5t143 -40.5q49 0 117.5 21t120.5 55l98 -223q-168 -113 -360 -113q-205 0 -337.5 119t-140.5 291 q-129 25 -243 91.5t-198 161.5t-132.5 219t-48.5 257zM395 717q0 -194 125.5 -321.5t306.5 -127.5t305.5 127.5t124.5 321.5t-124.5 321t-305.5 127t-306.5 -127t-125.5 -321z" />
<glyph unicode="R" horiz-adv-x="1443" d="M168 0v1434h637q143 0 248.5 -65.5t157 -171t51.5 -234.5q0 -154 -81.5 -270.5t-222.5 -160.5q16 -64 34 -109t45.5 -85t67 -60t91.5 -20q84 0 145 61l113 -219q-79 -63 -148 -93t-171 -30q-97 0 -176.5 41.5t-128.5 101.5t-84.5 136.5t-50.5 138t-21 115.5h-191v-510 h-315zM483 764h281q85 0 132.5 54.5t47.5 146.5q0 93 -47.5 147.5t-132.5 54.5h-281v-403z" />
<glyph unicode="S" horiz-adv-x="1206" d="M57 399l283 56q60 -197 260 -197q94 0 154.5 36.5t60.5 111.5q0 46 -35.5 83t-130.5 70l-155 53q-91 31 -159.5 75t-106.5 87.5t-61.5 94t-30.5 89.5t-7 80q0 191 134.5 304.5t348.5 113.5q167 0 291 -79.5t189 -233.5l-258 -129q-66 162 -222 162q-79 0 -126.5 -33 t-47.5 -101q0 -99 154 -153l151 -53q92 -28 162 -69.5t110.5 -84.5t66 -93.5t34 -92t8.5 -84.5q0 -109 -44.5 -194.5t-118.5 -136.5t-163.5 -77.5t-187.5 -26.5q-138 0 -257.5 49t-201 146.5t-94.5 226.5z" />
<glyph unicode="T" horiz-adv-x="1222" d="M49 1167v267h1125v-267h-408v-1167h-313v1167h-404z" />
<glyph unicode="U" horiz-adv-x="1492" d="M154 543v891h317v-891q0 -143 78.5 -221t195.5 -78t197 78.5t80 220.5v891h317v-891q0 -135 -47.5 -243.5t-129 -178.5t-188.5 -107t-229 -37t-228.5 37t-187.5 107t-128 178.5t-47 243.5z" />
<glyph unicode="V" horiz-adv-x="1384" d="M39 1434h336l317 -1018l318 1018h336l-508 -1434h-293z" />
<glyph unicode="W" horiz-adv-x="2039" d="M47 1434h324l268 -879l264 831h236l262 -831l268 879h324l-451 -1434h-252l-270 868l-270 -868h-252z" />
<glyph unicode="X" horiz-adv-x="1404" d="M8 0v41l514 717l-469 635v41h371l278 -426l279 426h371v-41l-469 -635l514 -717v-41h-373l-322 500l-321 -500h-373z" />
<glyph unicode="Y" horiz-adv-x="1492" d="M37 1393v41h369l339 -560h3l339 560h369v-41l-551 -805v-588h-317v584z" />
<glyph unicode="Z" horiz-adv-x="1376" d="M59 0v205l777 977h-717v252h1143v-207l-783 -975h834v-252h-1254z" />
<glyph unicode="[" horiz-adv-x="821" d="M135 -479v2015h633v-242h-338v-1532h338v-241h-633z" />
<glyph unicode="\" horiz-adv-x="1134" d="M49 1513h250l786 -1587h-247z" />
<glyph unicode="]" horiz-adv-x="821" d="M53 -238h338v1532h-338v242h633v-2015h-633v241z" />
<glyph unicode="^" horiz-adv-x="1136" d="M74 670l383 764h227l381 -764h-277l-219 483q-34 -67 -112.5 -245.5t-108.5 -237.5h-274z" />
<glyph unicode="_" horiz-adv-x="1472" d="M0 -125h1473v-246h-1473v246z" />
<glyph unicode="`" horiz-adv-x="1150" d="M264 1536h322l202 -354h-221z" />
<glyph unicode="a" d="M70 530q0 112 33.5 209.5t95.5 172.5t159 118t217 43q102 0 191 -45.5t145 -120.5v144h306v-1051h-306v154q-61 -87 -139 -132t-190 -45q-155 0 -273 74.5t-178.5 199.5t-60.5 279zM375 528q0 -131 73 -217t197 -86q118 0 196.5 75.5t78.5 211.5q0 145 -78 229t-205 84 q-122 0 -192 -85t-70 -212z" />
<glyph unicode="b" d="M131 0v1481h305v-574q56 75 145 120.5t191 45.5q159 0 275.5 -75t173.5 -196.5t57 -271.5q0 -154 -60.5 -279t-178.5 -199.5t-273 -74.5q-112 0 -191 45t-139 132v-154h-305zM428 512q0 -136 78 -211.5t196 -75.5q124 0 197.5 86t73.5 217q0 127 -70 212t-192 85 q-127 0 -205 -84t-78 -229z" />
<glyph unicode="c" horiz-adv-x="1130" d="M66 526q0 238 161 392.5t426 154.5q220 0 430 -155l-139 -224q-67 60 -142 82.5t-134 22.5q-134 0 -215.5 -75.5t-81.5 -197.5t81.5 -197t215.5 -75q161 0 276 104l139 -223q-210 -155 -430 -155q-176 0 -310.5 71.5t-205.5 195.5t-71 279z" />
<glyph unicode="d" horiz-adv-x="1349" d="M70 530q0 112 33.5 209.5t95.5 172.5t159 118t217 43q102 0 191 -45.5t145 -120.5v574h306v-1481h-306v154q-61 -87 -139 -132t-190 -45q-155 0 -273 74.5t-178.5 199.5t-60.5 279zM375 528q0 -131 73 -217t197 -86q118 0 196.5 75.5t78.5 211.5q0 145 -78 229t-205 84 q-122 0 -192 -85t-70 -212z" />
<glyph unicode="e" horiz-adv-x="1261" d="M66 520q0 153 73.5 279.5t206.5 200t299 73.5q88 0 170 -23.5t155 -74t127 -122t85.5 -174t31.5 -224.5h-845q5 -101 91 -164.5t230 -63.5q79 0 156 34.5t135 90.5l176 -168q-53 -59 -117.5 -101t-130.5 -64t-124.5 -32t-116.5 -10q-142 0 -257.5 42.5t-190 117 t-114.5 172.5t-40 211zM375 639h526q-9 63 -53.5 107t-97.5 61.5t-109 17.5q-54 0 -104 -16t-97 -60t-65 -110z" />
<glyph unicode="f" horiz-adv-x="821" d="M59 811v231h148v70q0 110 30 189t83 121.5t114.5 61.5t136.5 19q89 0 156.5 -26.5t105.5 -72t56 -99.5t18 -115q0 -34 -10 -57h-235q8 8 8 34q0 41 -19.5 67t-60.5 26t-59.5 -29t-18.5 -70v-119h236v-231h-236v-811h-305v811h-148z" />
<glyph unicode="g" horiz-adv-x="1349" d="M70 530q0 112 33.5 209.5t95.5 172.5t159 118t217 43q102 0 191 -45.5t145 -120.5v144h306v-977q0 -121 -31 -219t-83.5 -163.5t-126 -110t-155.5 -64t-174 -19.5q-321 0 -497 146l120 237q48 -43 142 -81t174 -38q325 0 325 277v115q-61 -87 -139 -132t-190 -45 q-155 0 -273 74.5t-178.5 199.5t-60.5 279zM375 528q0 -131 73 -217t197 -86q118 0 196.5 75.5t78.5 211.5q0 145 -78 229t-205 84q-122 0 -192 -85t-70 -212z" />
<glyph unicode="h" horiz-adv-x="1257" d="M133 0v1481h305v-574q119 166 326 166q375 0 375 -502v-571h-305v565q0 117 -47.5 186.5t-147.5 69.5q-101 0 -151 -71t-50 -187v-563h-305z" />
<glyph unicode="i" horiz-adv-x="575" d="M98 1329q0 78 54 126t139 48q83 0 138.5 -48.5t55.5 -125.5q0 -74 -55.5 -122t-138.5 -48q-85 0 -139 47.5t-54 122.5zM135 0v1051h305v-1051h-305z" />
<glyph unicode="j" horiz-adv-x="655" d="M-195 -188q0 31 13 57h241q-2 -8 -2 -35q0 -40 19.5 -66t60.5 -26t59.5 28.5t18.5 69.5v1211h305v-1162q0 -110 -30 -189t-83 -121.5t-114.5 -61.5t-136.5 -19q-89 0 -158.5 27t-110.5 72t-61.5 99.5t-20.5 115.5zM176 1329q0 78 54 126t139 48q83 0 138.5 -48.5 t55.5 -125.5q0 -74 -55.5 -122t-138.5 -48q-85 0 -139 47.5t-54 122.5z" />
<glyph unicode="k" horiz-adv-x="1222" d="M129 0v1481h305v-856l299 426h338v-41l-348 -439l137 -219q35 -53 67 -73.5t77 -20.5q59 0 112 37l115 -215q-118 -103 -275 -103q-98 0 -174.5 36.5t-136.5 123.5l-211 340v-477h-305z" />
<glyph unicode="l" horiz-adv-x="575" d="M135 0v1481h305v-1481h-305z" />
<glyph unicode="m" horiz-adv-x="1863" d="M131 0v1051h305v-144q109 166 281 166q230 0 321 -176q94 176 332 176q375 0 375 -502v-571h-305v565q0 256 -176 256q-174 0 -174 -258v-563h-304v565q0 256 -176 256q-174 0 -174 -258v-563h-305z" />
<glyph unicode="n" horiz-adv-x="1255" d="M131 0v1051h305v-144q119 166 326 166q375 0 375 -502v-571h-306v565q0 117 -47 186.5t-147 69.5q-101 0 -151 -71t-50 -187v-563h-305z" />
<glyph unicode="o" horiz-adv-x="1286" d="M66 526q0 120 47.5 223.5t126.5 173.5t184 110t219 40t219 -40t184.5 -110.5t127 -174t47.5 -222.5q0 -120 -47.5 -223.5t-127 -174.5t-184.5 -111t-219 -40q-153 0 -284 67.5t-212 194.5t-81 287zM362 526q0 -122 83 -204t198 -82q117 0 199 82t82 204q0 120 -82 202.5 t-199 82.5q-115 0 -198 -82t-83 -203z" />
<glyph unicode="p" d="M131 -479v1530h305v-154q60 86 139 131t191 45q155 0 273 -74.5t178.5 -199.5t60.5 -279q0 -150 -57 -271.5t-173.5 -196.5t-275.5 -75q-102 0 -191 45.5t-145 120.5v-622h-305zM428 539q0 -145 78 -229.5t205 -84.5q122 0 192 85t70 212q0 131 -73.5 217t-197.5 86 q-118 0 -196 -75t-78 -211z" />
<glyph unicode="q" d="M70 520q0 154 60.5 279t178.5 199.5t273 74.5q112 0 190.5 -44.5t138.5 -131.5v154h306v-1530h-306v622q-56 -75 -145 -120.5t-191 -45.5q-120 0 -217 43t-159 118t-95.5 172.5t-33.5 209.5zM375 522q0 -127 70 -212t192 -85q127 0 205 84.5t78 229.5q0 135 -78.5 210.5 t-196.5 75.5q-124 0 -197 -86t-73 -217z" />
<glyph unicode="r" horiz-adv-x="821" d="M131 0v1051h297v-230q12 67 46 118.5t78 79t86 41t79 13.5q34 0 78 -8v-301q-60 14 -129 14q-94 0 -162 -54.5t-68 -152.5v-571h-305z" />
<glyph unicode="s" horiz-adv-x="985" d="M49 246l221 125q23 -83 85 -120.5t137 -37.5q56 0 96.5 20.5t40.5 59.5q0 26 -17.5 44.5t-60.5 35.5l-184 78q-71 24 -123 60t-78 69t-41 71t-18 59.5t-3 41.5q0 102 57 176t149 109.5t206 35.5q265 0 379 -221l-236 -109q-35 101 -149 101q-46 0 -81.5 -23.5 t-35.5 -62.5q0 -32 24 -50.5t75 -39.5l157 -62q71 -20 123.5 -52.5t79.5 -64.5t43.5 -70.5t20.5 -64t4 -51.5q0 -154 -124 -240t-307 -86q-65 0 -126 12t-124.5 40t-113.5 83.5t-76 133.5z" />
<glyph unicode="t" horiz-adv-x="937" d="M45 811v240h180l47 258h236v-258h291v-240h-291v-492q0 -40 18.5 -66t59.5 -26t60.5 28.5t19.5 70.5q0 50 -15 90h242q25 -54 25 -125q0 -61 -20.5 -115.5t-61.5 -99.5t-110.5 -72t-158.5 -27q-60 0 -109.5 9t-98.5 34.5t-82 66t-53.5 107t-20.5 154.5v463h-158z" />
<glyph unicode="u" horiz-adv-x="1257" d="M119 479v572h305v-566q0 -117 47 -186.5t147 -69.5q101 0 151 71t50 187v564h305v-1051h-305v143q-119 -166 -325 -166q-375 0 -375 502z" />
<glyph unicode="v" horiz-adv-x="1226" d="M23 1051h333l256 -709l258 709h334l-438 -1051h-303z" />
<glyph unicode="w" horiz-adv-x="1699" d="M35 1051h336l182 -633l190 604h213l191 -604l182 633h336l-82 -240l-293 -811h-260l-180 596l-180 -596h-260l-293 811z" />
<glyph unicode="x" horiz-adv-x="1224" d="M12 0v41l418 502l-379 473v35h357l204 -289l205 289h357v-35l-379 -473l417 -502v-41h-348l-252 330l-252 -330h-348z" />
<glyph unicode="y" horiz-adv-x="1218" d="M23 1051h344l249 -658l250 658h336l-680 -1530h-307l240 567z" />
<glyph unicode="z" horiz-adv-x="1198" d="M66 0v178l589 633h-561v240h1004v-181l-588 -626h623v-244h-1067z" />
<glyph unicode="{" horiz-adv-x="780" d="M72 438v168l170 39q28 7 28 23q0 19 -8 50.5t-16 54.5t-21.5 59t-15.5 42q-78 243 -78 349t54 178.5t136 103.5t183 31q69 0 221 -16v-195q-137 16 -178 16q-135 0 -135 -143q0 -53 19 -122t42.5 -124.5t42.5 -122t19 -114.5q0 -135 -148 -176v-33q148 -41 148 -176 q0 -60 -30.5 -148t-61.5 -179t-31 -157q0 -143 135 -143q41 0 178 16v-194q-162 -17 -221 -17q-75 0 -140.5 18.5t-118 55t-83.5 98.5t-31 142q0 105 78 348q0 1 11.5 31t17 46t15 44t13.5 49t4 37q0 15 -28 22z" />
<glyph unicode="|" horiz-adv-x="446" d="M135 -479v2035h176v-2035h-176z" />
<glyph unicode="}" horiz-adv-x="780" d="M55 -281q135 -16 178 -16q136 0 136 143q0 53 -19 122t-42.5 125t-42.5 122.5t-19 114.5q0 136 147 176v33q-147 40 -147 176q0 48 19 114.5t42.5 122t42.5 124.5t19 122q0 143 -136 143q-43 0 -178 -16v195q152 16 221 16q101 0 183 -31t136 -103.5t54 -178.5t-78 -349 q-2 -6 -15.5 -42t-21.5 -59t-16 -54.5t-8 -50.5q0 -16 29 -23l170 -39v-168l-170 -39q-29 -7 -29 -22q0 -16 4 -37t13.5 -49t15 -44t17 -46t11.5 -31q78 -243 78 -348q0 -80 -31 -142t-83.5 -98.5t-118 -55t-140.5 -18.5q-59 0 -221 17v194z" />
<glyph unicode="~" horiz-adv-x="1167" d="M100 625q28 77 104.5 131.5t172.5 54.5q62 0 122.5 -21t100 -46.5t87 -46.5t87.5 -21q111 0 178 112l117 -163q-35 -87 -112.5 -140t-170.5 -53q-56 0 -112 21t-94.5 45.5t-90 45.5t-100.5 21q-56 0 -103 -28.5t-73 -81.5z" />
<glyph unicode="&#xa1;" horiz-adv-x="579" d="M96 897q0 76 54.5 126t138.5 50q82 0 138 -50.5t56 -125.5q0 -78 -56 -129t-138 -51q-84 0 -138.5 51t-54.5 129zM104 -324v-59h371v59l-74 895h-223z" />
<glyph unicode="&#xa2;" horiz-adv-x="1169" d="M78 526q0 114 40.5 213.5t113.5 172.5t181.5 116t237.5 45l33 180h158l-37 -196q141 -30 291 -139l-140 -224q-90 78 -198 97l-99 -537h21q161 0 276 104l140 -223q-210 -155 -430 -155q-9 0 -28 1t-28 1l-35 -191h-155l39 217q-179 54 -280 192.5t-101 325.5zM383 526 q0 -156 127 -231l90 496q-100 -23 -158.5 -94.5t-58.5 -170.5z" />
<glyph unicode="&#xa3;" horiz-adv-x="1304" d="M74 0v252q75 6 131 19.5t91 30.5t56 43t29 49.5t7 57t-6 58t-15 59.5h-252v148h192q-82 209 -82 323q0 184 141.5 300t354.5 116q97 0 177 -26.5t133 -69.5t89 -99.5t52 -115t16 -117.5h-287q0 72 -46 117t-138 45q-89 0 -142 -43.5t-53 -120.5q0 -93 84 -309h361v-148 h-305q27 -85 3.5 -170t-94.5 -147v-16q53 6 153 11t132 5h369v-252h-1151z" />
<glyph unicode="&#xa4;" horiz-adv-x="1114" d="M84 352l129 127q-47 83 -47 193q0 97 45 180l-121 125l156 158l116 -123q80 49 195 49t195 -49l116 123l156 -158l-121 -125q45 -83 45 -180q0 -110 -47 -193l129 -127l-151 -155l-134 131q-80 -45 -188 -45t-188 45l-133 -131zM393 670q0 -71 48.5 -120.5t115.5 -49.5 t115.5 49.5t48.5 120.5t-48.5 121.5t-115.5 50.5t-115.5 -50.5t-48.5 -121.5z" />
<glyph unicode="&#xa5;" horiz-adv-x="1538" d="M59 1393v41h369l340 -560h2l340 560h369v-41l-461 -674h258v-158h-348v-151h348v-158h-348v-252h-318v252h-350v158h350v151h-350v158h258z" />
<glyph unicode="&#xa6;" horiz-adv-x="471" d="M147 360h177v-839h-177v839zM147 717v839h177v-839h-177z" />
<glyph unicode="&#xa7;" horiz-adv-x="1232" d="M74 -100l110 211q223 -172 441 -172q105 0 162 36.5t57 85.5q0 76 -172 119l-187 47q-100 27 -173.5 70t-113 93t-57.5 98t-18 96q0 73 39.5 139t113.5 115q-151 99 -151 258q0 107 68.5 190.5t179 126.5t239.5 43q233 0 475 -127l-114 -221q-203 104 -350 104 q-87 0 -143 -29.5t-56 -76.5q0 -74 143 -113l181 -45q191 -49 289 -133.5t98 -220.5q0 -75 -32.5 -149.5t-107.5 -120.5q146 -99 146 -252q0 -161 -140 -270t-380 -109q-175 0 -314.5 57t-232.5 150zM406 596q0 -88 124 -119l228 -55q45 19 72.5 55.5t27.5 77.5 q0 39 -28 77.5t-93 53.5l-219 49q-112 -45 -112 -139z" />
<glyph unicode="&#xa8;" horiz-adv-x="1433" d="M285 1360q0 72 50 119t128 47q74 0 126 -47.5t52 -118.5q0 -69 -52 -115.5t-126 -46.5q-77 0 -127.5 46.5t-50.5 115.5zM793 1360q0 72 50.5 119t125.5 47q76 0 128 -47.5t52 -118.5q0 -69 -52.5 -115.5t-127.5 -46.5t-125.5 46.5t-50.5 115.5z" />
<glyph unicode="&#xa9;" horiz-adv-x="1609" d="M82 717q0 151 56 287.5t151.5 235.5t230 157.5t285.5 58.5t285.5 -58.5t230 -157.5t151.5 -235.5t56 -287.5q0 -202 -94.5 -371.5t-261 -269t-367.5 -99.5t-367.5 99.5t-261 269t-94.5 371.5zM229 717q0 -161 76 -297t208.5 -215.5t291.5 -79.5t291.5 79.5t208 215.5 t75.5 297t-75.5 297t-208 215.5t-291.5 79.5t-291.5 -79.5t-208.5 -215.5t-76 -297zM414 717q0 162 112 274.5t295 112.5q85 0 150.5 -25.5t132.5 -77.5l-84 -147q-86 68 -197 68q-96 0 -152.5 -58t-56.5 -147t56.5 -147t152.5 -58q112 0 197 68l84 -148q-67 -51 -132 -76.5 t-151 -25.5q-183 0 -295 112.5t-112 274.5z" />
<glyph unicode="&#xaa;" horiz-adv-x="1026" d="M117 1085q0 101 33 181t103 130t167 50q64 0 129 -31t94 -96v115h236v-697h-236v115q-29 -65 -94 -96t-129 -31q-97 0 -167 49.5t-103 129.5t-33 181zM156 393v164h706v-164h-706zM362 1087q0 -64 39 -108.5t99 -44.5q63 0 103 39t44 110q0 71 -41.5 112.5t-105.5 41.5 q-60 0 -99 -44t-39 -106z" />
<glyph unicode="&#xab;" horiz-adv-x="1296" d="M70 588v57l407 469l172 -156l-295 -342l293 -337l-170 -158zM637 588v57l407 469l173 -156l-295 -342l292 -337l-170 -158z" />
<glyph unicode="&#xac;" horiz-adv-x="1275" d="M96 731v246h1047l-2 -596h-250v350h-795z" />
<glyph unicode="&#xad;" horiz-adv-x="1067" d="M123 520v246h821v-246h-821z" />
<glyph unicode="&#xae;" horiz-adv-x="1609" d="M82 717q0 151 56 287.5t151.5 235.5t230 157.5t285.5 58.5t285.5 -58.5t230 -157.5t151.5 -235.5t56 -287.5q0 -202 -94.5 -371.5t-261 -269t-367.5 -99.5t-367.5 99.5t-261 269t-94.5 371.5zM229 717q0 -161 76 -297t208.5 -215.5t291.5 -79.5t291.5 79.5t208 215.5 t75.5 297t-75.5 297t-208 215.5t-291.5 79.5t-291.5 -79.5t-208.5 -215.5t-76 -297zM526 336v751h336q117 0 182.5 -72.5t65.5 -180.5q0 -79 -37.5 -139.5t-105.5 -86.5l155 -235v-37h-198l-146 252h-53v-252h-199zM725 741h117q31 0 49 27.5t18 65.5t-18 66t-49 28h-117 v-187z" />
<glyph unicode="&#xaf;" horiz-adv-x="1177" d="M266 1237v211h645v-211h-645z" />
<glyph unicode="&#xb0;" horiz-adv-x="851" d="M74 1130q0 148 100.5 249.5t251.5 101.5t251.5 -101.5t100.5 -249.5q0 -146 -100.5 -246t-251.5 -100t-251.5 100t-100.5 246zM258 1130q0 -74 45.5 -121.5t122.5 -47.5t122.5 47.5t45.5 121.5q0 75 -46 125t-122 50t-122 -50t-46 -125z" />
<glyph unicode="&#xb1;" horiz-adv-x="1269" d="M127 125v229h1016v-229h-1016zM127 733v230h375v272h268v-272h373v-230h-373v-274h-268v274h-375z" />
<glyph unicode="&#xb2;" horiz-adv-x="667" d="M53 1446q0 41 14 83.5t43 83.5t84 67t128 26q124 0 198 -62.5t74 -170.5q0 -131 -150 -254l-100 -95q18 4 78 4h186v-151h-534l-19 108l269 254q84 72 84 134q0 37 -22.5 58t-63.5 21q-49 0 -73 -34t-24 -74z" />
<glyph unicode="&#xb3;" horiz-adv-x="673" d="M39 1049l90 114q35 -24 71 -36t55.5 -13.5t51.5 -1.5q49 0 85 34t36 73q0 42 -32 71t-77 29q-36 0 -79 -14l-66 90l174 145h-280v150h524v-105l-176 -160q90 -10 147.5 -68t57.5 -136q0 -107 -86.5 -182.5t-227.5 -75.5q-87 0 -149.5 18t-118.5 68z" />
<glyph unicode="&#xb4;" horiz-adv-x="1150" d="M264 1182l203 354h321l-303 -354h-221z" />
<glyph unicode="&#xb5;" horiz-adv-x="1251" d="M123 -336v1387h305v-566q0 -117 47.5 -186.5t147.5 -69.5q101 0 150.5 71t49.5 187v564h305v-1051h-305v143q-119 -166 -325 -166q-50 0 -90 9v-322h-285z" />
<glyph unicode="&#xb6;" horiz-adv-x="1374" d="M63 1090q0 144 99.5 244t240.5 100h334v-39q-36 -28 -55.5 -64.5t-19.5 -101.5v-1520h-181v1041h-78q-141 0 -240.5 99.5t-99.5 240.5zM791 -291v1497q0 121 75 185.5t187 64.5q126 0 194 -63t68 -164q0 -23 -2 -33q-3 -31 -19 -72h-172q19 50 19 82q0 39 -25.5 59.5 t-60.5 20.5q-37 0 -61.5 -23t-24.5 -65v-1489h-178z" />
<glyph unicode="&#xb7;" horiz-adv-x="595" d="M104 573q0 78 54.5 129.5t138.5 51.5q82 0 138.5 -51.5t56.5 -129.5q0 -75 -56.5 -125.5t-138.5 -50.5q-84 0 -138.5 50t-54.5 126z" />
<glyph unicode="&#xb8;" horiz-adv-x="931" d="M166 -236l156 72q50 -108 129 -108q98 0 98 100q0 17 -5.5 39t-20.5 52.5t-50 58t-86 42.5v41h158q112 -45 166.5 -126.5t54.5 -157.5q0 -67 -28 -116.5t-72.5 -75.5t-89 -38t-87.5 -12q-115 0 -196.5 63.5t-126.5 165.5z" />
<glyph unicode="&#xb9;" horiz-adv-x="495" d="M12 1563l295 127h109v-713h-193v512l-162 -66z" />
<glyph unicode="&#xba;" horiz-adv-x="1001" d="M113 1083q0 149 116.5 256t270.5 107q100 0 189.5 -48.5t143.5 -133t54 -181.5q0 -150 -116.5 -258t-270.5 -108q-101 0 -190 48t-143 133t-54 185zM150 393v164h706v-164h-706zM358 1083q0 -66 39.5 -108.5t102.5 -42.5q60 0 100.5 42.5t40.5 108.5q0 64 -40 107 t-101 43q-62 0 -102 -43t-40 -107z" />
<glyph unicode="&#xbb;" horiz-adv-x="1296" d="M80 958l172 156l407 -469v-57l-407 -467l-170 158l293 337zM647 958l172 156l408 -469v-57l-408 -467l-170 158l293 337z" />
<glyph unicode="&#xbc;" horiz-adv-x="1744" d="M59 1307l295 127h109v-713h-193v512l-161 -66zM172 -80l1118 1585h174l-1120 -1585h-172zM997 178v101l353 434h184v-389h141v-146h-141v-178h-193v178h-344zM1194 324h158v188z" />
<glyph unicode="&#xbd;" horiz-adv-x="1744" d="M59 1307l295 127h109v-713h-193v512l-161 -66zM172 -80l1118 1585h174l-1120 -1585h-172zM1108 469q0 32 8 65.5t27.5 69t49 63t77 45t106.5 17.5q124 0 198.5 -62.5t74.5 -170.5q0 -131 -150 -254l-100 -95q23 5 78 5h186v-152h-535l-18 109l268 253q84 72 84 134 q0 37 -22.5 58t-63.5 21q-49 0 -72.5 -34t-23.5 -74z" />
<glyph unicode="&#xbe;" horiz-adv-x="1869" d="M72 793l90 114q35 -24 71 -36t55.5 -13.5t51.5 -1.5q49 0 85 34t36 73q0 42 -32 71t-77 29q-37 0 -80 -14l-65 90l174 145h-281v150h525v-105l-176 -160q90 -10 147 -67.5t57 -136.5q0 -107 -86 -182.5t-227 -75.5q-87 0 -149.5 18t-118.5 68zM309 -80l1118 1585h175 l-1121 -1585h-172zM1126 178v101l353 434h184v-389h141v-146h-141v-178h-193v178h-344zM1323 324h158v188z" />
<glyph unicode="&#xbf;" horiz-adv-x="1085" d="M59 12q0 136 85 243t276 226q31 18 31 74v18h284q0 -40 -1 -60.5t-5 -50.5t-13.5 -48.5t-25.5 -42t-42 -44.5t-62 -44q-79 -50 -121.5 -84t-71 -80.5t-28.5 -100.5q0 -76 53.5 -119.5t132.5 -43.5q76 0 129 40t53 109q0 40 -26 102h290q29 -55 29 -133q0 -65 -29.5 -130 t-85 -121.5t-149.5 -92t-211 -35.5q-217 0 -354.5 114.5t-137.5 303.5zM403 897q0 75 56.5 125.5t138.5 50.5q84 0 138.5 -50t54.5 -126q0 -78 -54.5 -129t-138.5 -51q-82 0 -138.5 51.5t-56.5 128.5z" />
<glyph unicode="&#xc0;" horiz-adv-x="1443" d="M12 0h328l98 268v-4h563v4l103 -268h332l-562 1434h-309zM377 1851h321l179 -315h-222zM524 524l197 574l190 -574h-387z" />
<glyph unicode="&#xc1;" horiz-adv-x="1443" d="M12 0h328l98 268v-4h563v4l103 -268h332l-562 1434h-309zM524 524l197 574l190 -574h-387zM567 1536l178 315h322l-279 -315h-221z" />
<glyph unicode="&#xc2;" horiz-adv-x="1443" d="M12 0h328l98 268v-4h563v4l103 -268h332l-562 1434h-309zM367 1536l204 315h301l207 -315h-209l-147 162l-148 -162h-208zM524 524l197 574l190 -574h-387z" />
<glyph unicode="&#xc3;" horiz-adv-x="1443" d="M12 0h328l98 268v-4h563v4l103 -268h332l-562 1434h-309zM332 1587q35 125 88 187.5t147 62.5q65 0 161 -35t124 -35q41 0 64 20.5t45 67.5l153 -45q-35 -125 -88 -187t-147 -62q-65 0 -161 34.5t-124 34.5q-41 0 -64 -20.5t-45 -67.5zM524 524l197 574l190 -574h-387z " />
<glyph unicode="&#xc4;" horiz-adv-x="1443" d="M12 0h328l98 268v-4h563v4l103 -268h332l-562 1434h-309zM295 1692q0 71 47.5 112t126.5 41q76 0 125 -41.5t49 -111.5q0 -68 -49.5 -109t-124.5 -41q-78 0 -126 40.5t-48 109.5zM524 524l197 574l190 -574h-387zM803 1692q0 71 48 112t124 41q77 0 126.5 -41.5 t49.5 -111.5q0 -68 -50 -109t-126 -41t-124 41t-48 109z" />
<glyph unicode="&#xc5;" horiz-adv-x="1443" d="M12 0l551 1430q-94 64 -94 178q0 102 72.5 165.5t179.5 63.5q109 0 181.5 -63t72.5 -166q0 -116 -98 -181l559 -1427h-332l-103 268v-4h-563v4l-98 -268h-328zM524 524h387l-190 574zM610 1608q0 -45 30.5 -67.5t80.5 -22.5t80 22.5t30 67.5q0 46 -30.5 71t-79.5 25 t-80 -25t-31 -71z" />
<glyph unicode="&#xc6;" horiz-adv-x="1865" d="M-14 0l762 1434h1021v-252h-573v-375h490v-252h-490v-303h573v-252h-890v537h-277q-46 -95 -283 -537h-333zM717 786h162v334z" />
<glyph unicode="&#xc7;" horiz-adv-x="1421" d="M80 717q0 150 55.5 284t155 235t249 160.5t326.5 59.5q157 0 276 -45t238 -135l-131 -242q-88 68 -177.5 104t-203.5 36q-213 0 -340 -130.5t-127 -326.5t127 -326.5t340 -130.5q114 0 204 36t177 103l131 -241q-110 -80 -211 -124t-231 -54q48 -46 71 -100t23 -103 q0 -67 -28 -116.5t-72 -75.5t-88.5 -38t-87.5 -12q-115 0 -197 63.5t-127 165.5l156 72q50 -108 129 -108q98 0 98 100q0 33 -20 78.5t-72 81.5q-196 29 -343.5 135t-223.5 260t-76 334z" />
<glyph unicode="&#xc8;" horiz-adv-x="1218" d="M170 0v1434h952v-252h-635v-353h551v-251h-551v-326h635v-252h-952zM287 1851h321l178 -315h-221z" />
<glyph unicode="&#xc9;" horiz-adv-x="1218" d="M170 0v1434h952v-252h-635v-353h551v-251h-551v-326h635v-252h-952zM430 1536l178 315h322l-279 -315h-221z" />
<glyph unicode="&#xca;" horiz-adv-x="1218" d="M170 0v1434h952v-252h-635v-353h551v-251h-551v-326h635v-252h-952zM285 1536l204 315h302l206 -315h-209l-147 162l-147 -162h-209z" />
<glyph unicode="&#xcb;" horiz-adv-x="1218" d="M170 0v1434h952v-252h-635v-353h551v-251h-551v-326h635v-252h-952zM205 1692q0 71 47.5 112t126.5 41q76 0 125 -41.5t49 -111.5q0 -68 -49.5 -109t-124.5 -41q-78 0 -126 40.5t-48 109.5zM713 1692q0 71 48 112t124 41q77 0 126.5 -41.5t49.5 -111.5q0 -68 -50 -109 t-126 -41t-124 41t-48 109z" />
<glyph unicode="&#xcc;" horiz-adv-x="657" d="M-2 1851h321l179 -315h-222zM170 0h317v1434h-317v-1434z" />
<glyph unicode="&#xcd;" horiz-adv-x="657" d="M162 1536l178 315h322l-279 -315h-221zM170 0h317v1434h-317v-1434z" />
<glyph unicode="&#xce;" horiz-adv-x="657" d="M-27 1536l205 315h301l207 -315h-209l-147 162l-148 -162h-209zM170 0h317v1434h-317v-1434z" />
<glyph unicode="&#xcf;" horiz-adv-x="657" d="M-98 1692q0 71 47.5 112t126.5 41q76 0 125 -41.5t49 -111.5q0 -68 -49.5 -109t-124.5 -41q-78 0 -126 40.5t-48 109.5zM170 0h317v1434h-317v-1434zM410 1692q0 71 48 112t124 41q77 0 126.5 -41.5t49.5 -111.5q0 -68 -50 -109t-126 -41t-124 41t-48 109z" />
<glyph unicode="&#xd0;" horiz-adv-x="1570" d="M23 600v221h167v613h537q172 0 316.5 -56.5t241 -154t150.5 -228t54 -278.5t-54 -278.5t-150.5 -228t-241 -154t-316.5 -56.5h-537v600h-167zM508 252h219q199 0 320.5 134t121.5 331t-121.5 331t-320.5 134h-219v-361h305v-221h-305v-348z" />
<glyph unicode="&#xd1;" horiz-adv-x="1529" d="M168 2h317v870l633 -872h242v1434h-318v-865l-630 865h-244v-1432zM362 1587q35 125 88.5 187.5t147.5 62.5q65 0 161 -35t124 -35q41 0 63 20t45 68l154 -45q-35 -125 -88.5 -187t-147.5 -62q-65 0 -160.5 34.5t-123.5 34.5q-41 0 -64 -20.5t-45 -67.5z" />
<glyph unicode="&#xd2;" horiz-adv-x="1648" d="M80 717q0 150 59 287t158.5 236t237.5 157.5t290 58.5q202 0 373 -99t271 -269t100 -371q0 -150 -59 -287t-158.5 -236.5t-237.5 -158t-289 -58.5q-152 0 -290 58.5t-237.5 158t-158.5 236.5t-59 287zM393 717q0 -194 125.5 -321.5t306.5 -127.5t305.5 127.5t124.5 321.5 t-124.5 321t-305.5 127t-306.5 -127t-125.5 -321zM461 1851h321l179 -315h-222z" />
<glyph unicode="&#xd3;" horiz-adv-x="1648" d="M80 717q0 150 59 287t158.5 236t237.5 157.5t290 58.5q202 0 373 -99t271 -269t100 -371q0 -150 -59 -287t-158.5 -236.5t-237.5 -158t-289 -58.5q-152 0 -290 58.5t-237.5 158t-158.5 236.5t-59 287zM393 717q0 -194 125.5 -321.5t306.5 -127.5t305.5 127.5t124.5 321.5 t-124.5 321t-305.5 127t-306.5 -127t-125.5 -321zM647 1536l178 315h322l-279 -315h-221z" />
<glyph unicode="&#xd4;" horiz-adv-x="1648" d="M80 717q0 150 59 287t158.5 236t237.5 157.5t290 58.5q202 0 373 -99t271 -269t100 -371q0 -150 -59 -287t-158.5 -236.5t-237.5 -158t-289 -58.5q-152 0 -290 58.5t-237.5 158t-158.5 236.5t-59 287zM393 717q0 -194 125.5 -321.5t306.5 -127.5t305.5 127.5t124.5 321.5 t-124.5 321t-305.5 127t-306.5 -127t-125.5 -321zM467 1536l205 315h301l207 -315h-209l-148 162l-147 -162h-209z" />
<glyph unicode="&#xd5;" horiz-adv-x="1648" d="M80 717q0 150 59 287t158.5 236t237.5 157.5t290 58.5q202 0 373 -99t271 -269t100 -371q0 -150 -59 -287t-158.5 -236.5t-237.5 -158t-289 -58.5q-152 0 -290 58.5t-237.5 158t-158.5 236.5t-59 287zM393 717q0 -194 125.5 -321.5t306.5 -127.5t305.5 127.5t124.5 321.5 t-124.5 321t-305.5 127t-306.5 -127t-125.5 -321zM432 1587q35 125 88.5 187.5t147.5 62.5q65 0 160.5 -35t123.5 -35q41 0 64 20.5t45 67.5l153 -45q-35 -125 -88 -187t-147 -62q-65 0 -161 34.5t-124 34.5q-41 0 -63 -20t-45 -68z" />
<glyph unicode="&#xd6;" horiz-adv-x="1648" d="M80 717q0 150 59 287t158.5 236t237.5 157.5t290 58.5q202 0 373 -99t271 -269t100 -371q0 -150 -59 -287t-158.5 -236.5t-237.5 -158t-289 -58.5q-152 0 -290 58.5t-237.5 158t-158.5 236.5t-59 287zM393 717q0 -194 125.5 -321.5t306.5 -127.5t305.5 127.5t124.5 321.5 t-124.5 321t-305.5 127t-306.5 -127t-125.5 -321zM395 1692q0 71 47.5 112t126.5 41q76 0 125 -41.5t49 -111.5q0 -68 -49.5 -109t-124.5 -41q-78 0 -126 40.5t-48 109.5zM903 1692q0 71 48 112t124 41q77 0 126.5 -41.5t49.5 -111.5q0 -68 -50 -109t-126 -41t-124 41 t-48 109z" />
<glyph unicode="&#xd7;" horiz-adv-x="1114" d="M84 332l297 295l-293 295l184 184l293 -295l295 297l170 -170l-297 -295l295 -293l-184 -184l-295 293l-295 -297z" />
<glyph unicode="&#xd8;" horiz-adv-x="1648" d="M80 717q0 150 59 287t158.5 236t237.5 157.5t290 58.5q173 0 336 -80l99 146l157 -109l-98 -145q119 -105 184.5 -246.5t65.5 -304.5q0 -150 -59 -287t-158.5 -236.5t-237.5 -158t-289 -58.5q-171 0 -325 74l-109 -160l-158 109l105 156q-121 107 -189.5 252t-68.5 309z M393 717q0 -181 115 -309l487 722q-81 35 -170 35q-181 0 -306.5 -127t-125.5 -321zM666 297q82 -29 159 -29q181 0 305.5 127.5t124.5 321.5q0 171 -106 299z" />
<glyph unicode="&#xd9;" horiz-adv-x="1492" d="M154 543v891h317v-891q0 -143 78.5 -221t195.5 -78t197 78.5t80 220.5v891h317v-891q0 -135 -47.5 -243.5t-129 -178.5t-188.5 -107t-229 -37t-228.5 37t-187.5 107t-128 178.5t-47 243.5zM446 1851h322l178 -315h-221z" />
<glyph unicode="&#xda;" horiz-adv-x="1492" d="M154 543v891h317v-891q0 -143 78.5 -221t195.5 -78t197 78.5t80 220.5v891h317v-891q0 -135 -47.5 -243.5t-129 -178.5t-188.5 -107t-229 -37t-228.5 37t-187.5 107t-128 178.5t-47 243.5zM528 1536l179 315h321l-278 -315h-222z" />
<glyph unicode="&#xdb;" horiz-adv-x="1492" d="M154 543v891h317v-891q0 -143 78.5 -221t195.5 -78t197 78.5t80 220.5v891h317v-891q0 -135 -47.5 -243.5t-129 -178.5t-188.5 -107t-229 -37t-228.5 37t-187.5 107t-128 178.5t-47 243.5zM389 1536l205 315h301l207 -315h-209l-148 162l-147 -162h-209z" />
<glyph unicode="&#xdc;" horiz-adv-x="1492" d="M154 543v891h317v-891q0 -143 78.5 -221t195.5 -78t197 78.5t80 220.5v891h317v-891q0 -135 -47.5 -243.5t-129 -178.5t-188.5 -107t-229 -37t-228.5 37t-187.5 107t-128 178.5t-47 243.5zM317 1692q0 71 48 112t127 41q76 0 125 -41.5t49 -111.5q0 -68 -49.5 -109 t-124.5 -41q-79 0 -127 41t-48 109zM825 1692q0 71 48 112t124 41q77 0 127 -41.5t50 -111.5q0 -68 -50 -109t-127 -41q-76 0 -124 41t-48 109z" />
<glyph unicode="&#xdd;" horiz-adv-x="1492" d="M37 1393v41h369l339 -560h3l339 560h369v-41l-551 -805v-588h-317v584zM551 1536l178 315h322l-279 -315h-221z" />
<glyph unicode="&#xde;" horiz-adv-x="1310" d="M170 0v1434h317v-308h392q107 0 195 -57.5t135.5 -151t47.5 -200.5q0 -166 -108 -287t-279 -121h-383v-309h-317zM487 561h304q71 0 108 45.5t37 110.5q0 68 -33.5 112.5t-111.5 44.5h-304v-313z" />
<glyph unicode="&#xdf;" horiz-adv-x="1275" d="M133 0v1038q0 223 131 345t352 122q219 0 349.5 -113t130.5 -296q0 -91 -43.5 -167.5t-132.5 -115.5q130 -36 210 -138.5t80 -240.5q0 -192 -139.5 -313t-368.5 -121h-122l-43 252h165q99 0 151 54.5t52 133.5q0 91 -88.5 164.5t-245.5 73.5l-30 182q121 23 183 80.5 t62 138.5q0 71 -48.5 115.5t-121.5 44.5q-77 0 -127.5 -55.5t-50.5 -145.5v-1038h-305z" />
<glyph unicode="&#xe0;" d="M70 530q0 112 33.5 209.5t95.5 172.5t159 118t217 43q102 0 191 -45.5t145 -120.5v144h306v-1051h-306v154q-61 -87 -139 -132t-190 -45q-155 0 -273 74.5t-178.5 199.5t-60.5 279zM328 1536h321l203 -354h-221zM375 528q0 -131 73 -217t197 -86q118 0 196.5 75.5 t78.5 211.5q0 145 -78 229t-205 84q-122 0 -192 -85t-70 -212z" />
<glyph unicode="&#xe1;" d="M70 530q0 112 33.5 209.5t95.5 172.5t159 118t217 43q102 0 191 -45.5t145 -120.5v144h306v-1051h-306v154q-61 -87 -139 -132t-190 -45q-155 0 -273 74.5t-178.5 199.5t-60.5 279zM375 528q0 -131 73 -217t197 -86q118 0 196.5 75.5t78.5 211.5q0 145 -78 229t-205 84 q-122 0 -192 -85t-70 -212zM502 1182l203 354h321l-303 -354h-221z" />
<glyph unicode="&#xe2;" d="M70 530q0 112 33.5 209.5t95.5 172.5t159 118t217 43q102 0 191 -45.5t145 -120.5v144h306v-1051h-306v154q-61 -87 -139 -132t-190 -45q-155 0 -273 74.5t-178.5 199.5t-60.5 279zM303 1182l215 354h301l217 -354h-215l-151 188l-152 -188h-215zM375 528q0 -131 73 -217 t197 -86q118 0 196.5 75.5t78.5 211.5q0 145 -78 229t-205 84q-122 0 -192 -85t-70 -212z" />
<glyph unicode="&#xe3;" d="M70 530q0 112 33.5 209.5t95.5 172.5t159 118t217 43q102 0 191 -45.5t145 -120.5v144h306v-1051h-306v154q-61 -87 -139 -132t-190 -45q-155 0 -273 74.5t-178.5 199.5t-60.5 279zM279 1243q35 125 88 187.5t147 62.5q65 0 161 -35t124 -35q41 0 63 20t45 68l154 -45 q-35 -125 -88.5 -187t-147.5 -62q-65 0 -160.5 34.5t-123.5 34.5q-41 0 -64 -20.5t-45 -67.5zM375 528q0 -131 73 -217t197 -86q118 0 196.5 75.5t78.5 211.5q0 145 -78 229t-205 84q-122 0 -192 -85t-70 -212z" />
<glyph unicode="&#xe4;" d="M70 530q0 112 33.5 209.5t95.5 172.5t159 118t217 43q102 0 191 -45.5t145 -120.5v144h306v-1051h-306v154q-61 -87 -139 -132t-190 -45q-155 0 -273 74.5t-178.5 199.5t-60.5 279zM240 1360q0 72 50 119t128 47q74 0 126 -47.5t52 -118.5q0 -69 -52 -115.5t-126 -46.5 q-77 0 -127.5 46.5t-50.5 115.5zM375 528q0 -131 73 -217t197 -86q118 0 196.5 75.5t78.5 211.5q0 145 -78 229t-205 84q-122 0 -192 -85t-70 -212zM748 1360q0 72 50.5 119t125.5 47q76 0 128 -47.5t52 -118.5q0 -69 -52.5 -115.5t-127.5 -46.5t-125.5 46.5t-50.5 115.5z " />
<glyph unicode="&#xe5;" d="M70 530q0 112 33.5 209.5t95.5 172.5t159 118t217 43q102 0 191 -45.5t145 -120.5v144h306v-1051h-306v154q-61 -87 -139 -132t-190 -45q-155 0 -273 74.5t-178.5 199.5t-60.5 279zM375 528q0 -131 73 -217t197 -86q118 0 196.5 75.5t78.5 211.5q0 145 -78 229t-205 84 q-122 0 -192 -85t-70 -212zM418 1397q0 104 73 170.5t179 66.5q108 0 181 -66.5t73 -170.5q0 -103 -73.5 -169.5t-180.5 -66.5q-106 0 -179 66.5t-73 169.5zM559 1397q0 -47 31.5 -77t79.5 -30t79 30t31 77t-31 75.5t-79 28.5t-79.5 -28.5t-31.5 -75.5z" />
<glyph unicode="&#xe6;" horiz-adv-x="1910" d="M59 326q0 147 125 239t322 92q134 0 278 -43v27q0 44 -21.5 79t-54.5 55.5t-68 31t-65 10.5h-13.5h-20t-25 -1t-31 -2.5t-34 -5t-38.5 -8.5t-40.5 -12.5t-43.5 -17.5t-44 -23.5t-45 -29.5l-113 192q164 164 467 164q248 0 371 -153q124 153 360 153q111 0 206.5 -38 t169 -111.5t115.5 -193t42 -271.5h-789q5 -106 80 -169t231 -63q92 0 147.5 31.5t106.5 93.5l176 -168q-107 -117 -213 -162t-239 -45q-288 0 -457 177q-93 -96 -196 -136.5t-226 -40.5q-84 0 -159 22.5t-133.5 65t-93 110t-34.5 151.5zM369 346q0 -54 43 -86.5t118 -32.5 q163 0 269 95q-29 80 -31 131q-111 30 -203 30q-58 0 -98.5 -13t-60.5 -34.5t-28.5 -43.5t-8.5 -46zM1085 643h469q-13 96 -74.5 140t-148.5 44q-85 0 -152.5 -43.5t-93.5 -140.5z" />
<glyph unicode="&#xe7;" horiz-adv-x="1124" d="M68 526q0 238 161 392.5t426 154.5q220 0 430 -155l-139 -224q-67 60 -142 82.5t-134 22.5q-134 0 -215.5 -75.5t-81.5 -197.5t81.5 -197t215.5 -75q161 0 276 104l125 -223q-166 -123 -315 -147q57 -48 85.5 -104t28.5 -107q0 -67 -28 -116.5t-72 -75.5t-88.5 -38 t-87.5 -12q-115 0 -197 63.5t-127 165.5l156 72q50 -108 129 -108q98 0 98 100q0 50 -36 98.5t-103 65.5q-208 41 -327 185.5t-119 348.5z" />
<glyph unicode="&#xe8;" horiz-adv-x="1261" d="M66 520q0 153 73.5 279.5t206.5 200t299 73.5q88 0 170 -23.5t155 -74t127 -122t85.5 -174t31.5 -224.5h-845q5 -101 91 -164.5t230 -63.5q79 0 156 34.5t135 90.5l176 -168q-53 -59 -117.5 -101t-130.5 -64t-124.5 -32t-116.5 -10q-142 0 -257.5 42.5t-190 117 t-114.5 172.5t-40 211zM242 1536h321l203 -354h-221zM375 639h526q-9 63 -53.5 107t-97.5 61.5t-109 17.5q-54 0 -104 -16t-97 -60t-65 -110z" />
<glyph unicode="&#xe9;" horiz-adv-x="1261" d="M66 520q0 153 73.5 279.5t206.5 200t299 73.5q88 0 170 -23.5t155 -74t127 -122t85.5 -174t31.5 -224.5h-845q5 -101 91 -164.5t230 -63.5q79 0 156 34.5t135 90.5l176 -168q-53 -59 -117.5 -101t-130.5 -64t-124.5 -32t-116.5 -10q-142 0 -257.5 42.5t-190 117 t-114.5 172.5t-40 211zM375 639h526q-9 63 -53.5 107t-97.5 61.5t-109 17.5q-54 0 -104 -16t-97 -60t-65 -110zM483 1182l203 354h322l-303 -354h-222z" />
<glyph unicode="&#xea;" horiz-adv-x="1261" d="M66 520q0 153 73.5 279.5t206.5 200t299 73.5q88 0 170 -23.5t155 -74t127 -122t85.5 -174t31.5 -224.5h-845q5 -101 91 -164.5t230 -63.5q79 0 156 34.5t135 90.5l176 -168q-53 -59 -117.5 -101t-130.5 -64t-124.5 -32t-116.5 -10q-142 0 -257.5 42.5t-190 117 t-114.5 172.5t-40 211zM268 1182l215 354h301l217 -354h-215l-151 188l-152 -188h-215zM375 639h526q-9 63 -53.5 107t-97.5 61.5t-109 17.5q-54 0 -104 -16t-97 -60t-65 -110z" />
<glyph unicode="&#xeb;" horiz-adv-x="1261" d="M66 520q0 153 73.5 279.5t206.5 200t299 73.5q88 0 170 -23.5t155 -74t127 -122t85.5 -174t31.5 -224.5h-845q5 -101 91 -164.5t230 -63.5q79 0 156 34.5t135 90.5l176 -168q-53 -59 -117.5 -101t-130.5 -64t-124.5 -32t-116.5 -10q-142 0 -257.5 42.5t-190 117 t-114.5 172.5t-40 211zM203 1360q0 72 50 119t128 47q74 0 126 -47.5t52 -118.5q0 -69 -52 -115.5t-126 -46.5q-77 0 -127.5 46.5t-50.5 115.5zM375 639h526q-9 63 -53.5 107t-97.5 61.5t-109 17.5q-54 0 -104 -16t-97 -60t-65 -110zM711 1360q0 72 50.5 119t125.5 47 q76 0 128 -47.5t52 -118.5q0 -69 -52.5 -115.5t-127.5 -46.5t-125.5 46.5t-50.5 115.5z" />
<glyph unicode="&#xec;" horiz-adv-x="577" d="M-92 1536h321l203 -354h-221zM137 0v1051h305v-1051h-305z" />
<glyph unicode="&#xed;" horiz-adv-x="577" d="M135 0v1051h305v-1051h-305zM145 1182l203 354h322l-303 -354h-222z" />
<glyph unicode="&#xee;" horiz-adv-x="579" d="M-76 1182l215 354h301l217 -354h-215l-151 188l-152 -188h-215zM137 0v1051h305v-1051h-305z" />
<glyph unicode="&#xef;" horiz-adv-x="579" d="M-141 1360q0 72 50 119t128 47q74 0 126 -47.5t52 -118.5q0 -69 -52 -115.5t-126 -46.5q-77 0 -127.5 46.5t-50.5 115.5zM137 0v1051h305v-1051h-305zM367 1360q0 72 50.5 119t125.5 47q76 0 128 -47.5t52 -118.5q0 -69 -52.5 -115.5t-127.5 -46.5t-125.5 46.5 t-50.5 115.5z" />
<glyph unicode="&#xf0;" horiz-adv-x="1224" d="M63 494q0 109 45 198.5t116.5 143.5t154.5 83t166 29q36 0 91 -8.5t83 -19.5q-60 96 -174 204l-234 -102l-59 131l178 78l-156 133l230 156q91 -74 194 -172l226 100l67 -131l-184 -80q159 -172 253.5 -360t94.5 -373q0 -122 -45 -223.5t-120 -167t-171.5 -101 t-202.5 -35.5q-153 0 -279.5 67t-200 186t-73.5 264zM369 494q0 -114 66 -187.5t175 -73.5q111 0 175.5 71.5t64.5 189.5q0 116 -63.5 179.5t-176.5 63.5q-111 0 -176 -65.5t-65 -177.5z" />
<glyph unicode="&#xf1;" horiz-adv-x="1255" d="M131 0v1051h305v-144q119 166 326 166q375 0 375 -502v-571h-306v565q0 117 -47 186.5t-147 69.5q-101 0 -151 -71t-50 -187v-563h-305zM236 1243q35 125 88 187.5t147 62.5q65 0 161 -35t124 -35q41 0 63 20t45 68l154 -45q-35 -125 -88.5 -187t-147.5 -62 q-65 0 -160.5 34.5t-123.5 34.5q-41 0 -64 -20.5t-45 -67.5z" />
<glyph unicode="&#xf2;" horiz-adv-x="1286" d="M66 526q0 120 47.5 223.5t126.5 173.5t184 110t219 40t219 -40t184.5 -110.5t127 -174t47.5 -222.5q0 -120 -47.5 -223.5t-127 -174.5t-184.5 -111t-219 -40q-153 0 -284 67.5t-212 194.5t-81 287zM229 1536h322l203 -354h-222zM362 526q0 -122 83 -204t198 -82 q117 0 199 82t82 204q0 120 -82 202.5t-199 82.5q-115 0 -198 -82t-83 -203z" />
<glyph unicode="&#xf3;" horiz-adv-x="1286" d="M66 526q0 120 47.5 223.5t126.5 173.5t184 110t219 40t219 -40t184.5 -110.5t127 -174t47.5 -222.5q0 -120 -47.5 -223.5t-127 -174.5t-184.5 -111t-219 -40q-153 0 -284 67.5t-212 194.5t-81 287zM362 526q0 -122 83 -204t198 -82q117 0 199 82t82 204q0 120 -82 202.5 t-199 82.5q-115 0 -198 -82t-83 -203zM506 1182l203 354h321l-303 -354h-221z" />
<glyph unicode="&#xf4;" horiz-adv-x="1286" d="M66 526q0 120 47.5 223.5t126.5 173.5t184 110t219 40t219 -40t184.5 -110.5t127 -174t47.5 -222.5q0 -120 -47.5 -223.5t-127 -174.5t-184.5 -111t-219 -40q-153 0 -284 67.5t-212 194.5t-81 287zM276 1182l216 354h301l217 -354h-215l-152 188l-151 -188h-216zM362 526 q0 -122 83 -204t198 -82q117 0 199 82t82 204q0 120 -82 202.5t-199 82.5q-115 0 -198 -82t-83 -203z" />
<glyph unicode="&#xf5;" horiz-adv-x="1286" d="M66 526q0 120 47.5 223.5t126.5 173.5t184 110t219 40t219 -40t184.5 -110.5t127 -174t47.5 -222.5q0 -120 -47.5 -223.5t-127 -174.5t-184.5 -111t-219 -40q-153 0 -284 67.5t-212 194.5t-81 287zM252 1243q35 125 88 187.5t147 62.5q65 0 161 -35t124 -35q41 0 64 20.5 t45 67.5l153 -45q-35 -125 -88 -187t-147 -62q-65 0 -161 34.5t-124 34.5q-41 0 -63 -20t-45 -68zM362 526q0 -122 83 -204t198 -82q117 0 199 82t82 204q0 120 -82 202.5t-199 82.5q-115 0 -198 -82t-83 -203z" />
<glyph unicode="&#xf6;" horiz-adv-x="1286" d="M66 526q0 120 47.5 223.5t126.5 173.5t184 110t219 40t219 -40t184.5 -110.5t127 -174t47.5 -222.5q0 -120 -47.5 -223.5t-127 -174.5t-184.5 -111t-219 -40q-153 0 -284 67.5t-212 194.5t-81 287zM211 1360q0 72 50 119t128 47q74 0 126 -47.5t52 -118.5 q0 -69 -52 -115.5t-126 -46.5q-77 0 -127.5 46.5t-50.5 115.5zM362 526q0 -122 83 -204t198 -82q117 0 199 82t82 204q0 120 -82 202.5t-199 82.5q-115 0 -198 -82t-83 -203zM719 1360q0 72 50.5 119t125.5 47q76 0 128 -47.5t52 -118.5q0 -69 -52.5 -115.5t-127.5 -46.5 t-125.5 46.5t-50.5 115.5z" />
<glyph unicode="&#xf7;" horiz-adv-x="1280" d="M84 510v246h1114v-246h-1114zM449 221q0 77 53 121.5t139 44.5q84 0 139.5 -45t55.5 -121q0 -73 -55.5 -117.5t-139.5 -44.5q-86 0 -139 44t-53 118zM449 1044q0 77 53 121.5t139 44.5q84 0 139.5 -45t55.5 -121q0 -73 -55.5 -117t-139.5 -44q-86 0 -139 43.5t-53 117.5z " />
<glyph unicode="&#xf8;" horiz-adv-x="1286" d="M66 526q0 120 47.5 223.5t126.5 173.5t184 110t219 40q164 0 305 -80l113 127l125 -116l-105 -117q140 -153 140 -361q0 -120 -47.5 -223.5t-127 -174.5t-184.5 -111t-219 -40q-165 0 -299 76l-115 -129l-125 117l105 117q-143 156 -143 368zM362 526q0 -84 39 -149 l361 405q-63 29 -119 29q-115 0 -198 -82t-83 -203zM528 264q52 -24 115 -24q117 0 199 82t82 204q0 81 -37 142z" />
<glyph unicode="&#xf9;" horiz-adv-x="1257" d="M119 479v572h305v-566q0 -117 47 -186.5t147 -69.5q101 0 151 71t50 187v564h305v-1051h-305v143q-119 -166 -325 -166q-375 0 -375 502zM295 1536h321l203 -354h-221z" />
<glyph unicode="&#xfa;" horiz-adv-x="1257" d="M119 479v572h305v-566q0 -117 47 -186.5t147 -69.5q101 0 151 71t50 187v564h305v-1051h-305v143q-119 -166 -325 -166q-375 0 -375 502zM473 1182l203 354h321l-303 -354h-221z" />
<glyph unicode="&#xfb;" horiz-adv-x="1257" d="M119 479v572h305v-566q0 -117 47 -186.5t147 -69.5q101 0 151 71t50 187v564h305v-1051h-305v143q-119 -166 -325 -166q-375 0 -375 502zM262 1182l215 354h301l217 -354h-215l-151 188l-152 -188h-215z" />
<glyph unicode="&#xfc;" horiz-adv-x="1257" d="M119 479v572h305v-566q0 -117 47 -186.5t147 -69.5q101 0 151 71t50 187v564h305v-1051h-305v143q-119 -166 -325 -166q-375 0 -375 502zM197 1360q0 72 50 119t128 47q74 0 126 -47.5t52 -118.5q0 -69 -52 -115.5t-126 -46.5q-77 0 -127.5 46.5t-50.5 115.5zM705 1360 q0 72 50.5 119t125.5 47q76 0 128 -47.5t52 -118.5q0 -69 -52.5 -115.5t-127.5 -46.5t-125.5 46.5t-50.5 115.5z" />
<glyph unicode="&#xfd;" horiz-adv-x="1218" d="M23 1051h344l249 -658l250 658h336l-680 -1530h-307l240 567zM453 1182l202 354h322l-303 -354h-221z" />
<glyph unicode="&#xfe;" horiz-adv-x="1349" d="M133 -479v1960h305v-574q56 75 145 120.5t191 45.5q159 0 275.5 -75t173.5 -196.5t57 -271.5q0 -154 -60.5 -279t-178.5 -199.5t-273 -74.5q-112 0 -191 45t-139 132v-633h-305zM430 512q0 -136 78.5 -211.5t196.5 -75.5q124 0 197 86t73 217q0 127 -70 212t-192 85 q-127 0 -205 -84t-78 -229z" />
<glyph unicode="&#xff;" horiz-adv-x="1218" d="M23 1051h344l249 -658l250 658h336l-680 -1530h-307l240 567zM168 1360q0 72 50 119t128 47q74 0 126 -47.5t52 -118.5q0 -69 -52 -115.5t-126 -46.5q-77 0 -127.5 46.5t-50.5 115.5zM676 1360q0 72 50.5 119t125.5 47q76 0 128 -47.5t52 -118.5q0 -69 -52.5 -115.5 t-127.5 -46.5t-125.5 46.5t-50.5 115.5z" />
<glyph unicode="&#x152;" horiz-adv-x="1918" d="M82 737q0 202 95 361.5t261.5 247.5t374.5 88h92h918v-252h-600v-353h516v-251h-516v-326h600v-252h-1010q-154 0 -290.5 58t-233 157t-152 235t-55.5 287zM395 737q0 -132 54.5 -243t150.5 -176.5t213 -65.5h94v930h-94q-181 0 -299.5 -123.5t-118.5 -321.5z" />
<glyph unicode="&#x153;" horiz-adv-x="1990" d="M66 526q0 120 47.5 223.5t126.5 173.5t184 110t219 40q214 0 365 -121q153 121 366 121q88 0 170.5 -23.5t155 -74t127 -122t86 -174t31.5 -224.5h-838q5 -101 87 -164.5t226 -63.5q79 0 156 34.5t135 90.5l176 -168q-53 -59 -117.5 -101t-130.5 -64t-124.5 -32 t-116.5 -10q-241 0 -396 117q-155 -117 -358 -117q-153 0 -284 67.5t-212 194.5t-81 287zM362 526q0 -122 83 -204t198 -82q114 0 193 82q-33 85 -33 198q0 112 37 205q-77 86 -197 86q-115 0 -198 -82t-83 -203zM1112 639h518q-9 63 -53.5 107t-97.5 61.5t-109 17.5 q-86 0 -158.5 -44.5t-99.5 -141.5z" />
<glyph unicode="&#x178;" horiz-adv-x="1492" d="M37 1393v41h369l339 -560h3l339 560h369v-41l-551 -805v-588h-317v584zM317 1692q0 71 48 112t127 41q76 0 125 -41.5t49 -111.5q0 -68 -49.5 -109t-124.5 -41q-79 0 -127 41t-48 109zM825 1692q0 71 48 112t124 41q77 0 127 -41.5t50 -111.5q0 -68 -50 -109t-127 -41 q-76 0 -124 41t-48 109z" />
<glyph unicode="&#x2c6;" horiz-adv-x="1327" d="M297 1182l215 354h301l217 -354h-215l-151 188l-152 -188h-215z" />
<glyph unicode="&#x2dc;" horiz-adv-x="1015" d="M117 1243q35 125 88 187.5t147 62.5q65 0 161 -35t124 -35q41 0 63 20t45 68l154 -45q-35 -125 -88 -187t-147 -62q-65 0 -161 34.5t-124 34.5q-41 0 -64 -20.5t-45 -67.5z" />
<glyph unicode="&#x2000;" horiz-adv-x="927" />
<glyph unicode="&#x2001;" horiz-adv-x="1855" />
<glyph unicode="&#x2002;" horiz-adv-x="927" />
<glyph unicode="&#x2003;" horiz-adv-x="1855" />
<glyph unicode="&#x2004;" horiz-adv-x="618" />
<glyph unicode="&#x2005;" horiz-adv-x="463" />
<glyph unicode="&#x2006;" horiz-adv-x="309" />
<glyph unicode="&#x2007;" horiz-adv-x="309" />
<glyph unicode="&#x2008;" horiz-adv-x="231" />
<glyph unicode="&#x2009;" horiz-adv-x="371" />
<glyph unicode="&#x200a;" horiz-adv-x="103" />
<glyph unicode="&#x2010;" horiz-adv-x="976" d="M123 520v246h731v-246h-731z" />
<glyph unicode="&#x2011;" horiz-adv-x="976" d="M123 520v246h731v-246h-731z" />
<glyph unicode="&#x2012;" horiz-adv-x="976" d="M123 520v246h731v-246h-731z" />
<glyph unicode="&#x2013;" horiz-adv-x="1202" d="M125 510v246h954v-246h-954z" />
<glyph unicode="&#x2014;" horiz-adv-x="1638" d="M125 510v246h1391v-246h-1391z" />
<glyph unicode="&#x2018;" horiz-adv-x="526" d="M86 1065q0 142 68 257t202 157l68 -113q-150 -52 -150 -184q63 4 110.5 -44.5t47.5 -105.5q5 -70 -41 -118t-133 -48q-49 0 -85 21t-53.5 54t-25.5 64t-8 60z" />
<glyph unicode="&#x2019;" horiz-adv-x="520" d="M98 1315q-5 70 41 118t133 48q49 0 85 -21t53.5 -54t25.5 -64t8 -60q0 -142 -68 -257t-202 -157l-68 113q150 53 150 184q-63 -4 -110.5 44.5t-47.5 105.5z" />
<glyph unicode="&#x201a;" horiz-adv-x="538" d="M94 160q-5 70 41 118t133 48q49 0 85 -21t53.5 -54t25.5 -64t8 -60q0 -142 -68 -257t-202 -157l-68 113q150 53 150 184q-63 -4 -110.5 44.5t-47.5 105.5z" />
<glyph unicode="&#x201c;" horiz-adv-x="1046" d="M86 1065q0 142 68 257t202 157l68 -113q-150 -52 -150 -184q63 4 110.5 -44.5t47.5 -105.5q5 -70 -41 -118t-133 -48q-49 0 -85 21t-53.5 54t-25.5 64t-8 60zM606 1065q0 91 27 171.5t90 147.5t154 95l67 -113q-149 -52 -149 -184q63 4 110 -44.5t47 -105.5 q5 -70 -41 -118t-133 -48q-49 0 -85 21t-53.5 54t-25.5 64t-8 60z" />
<glyph unicode="&#x201d;" horiz-adv-x="1040" d="M98 1315q-5 70 41 118t133 48q49 0 85 -21t53.5 -54t25.5 -64t8 -60q0 -142 -68 -257t-202 -157l-68 113q150 53 150 184q-63 -4 -110.5 44.5t-47.5 105.5zM618 1315q-5 70 41.5 118t133.5 48q49 0 85 -21t53.5 -54t25.5 -64t8 -60q0 -91 -27 -171.5t-90 -147.5t-154 -95 l-67 113q149 52 149 184q-63 -4 -110.5 44.5t-47.5 105.5z" />
<glyph unicode="&#x201e;" horiz-adv-x="1058" d="M94 160q-5 70 41 118t133 48q49 0 85 -21t53.5 -54t25.5 -64t8 -60q0 -142 -68 -257t-202 -157l-68 113q150 53 150 184q-63 -4 -110.5 44.5t-47.5 105.5zM614 160q-5 70 41 118t133 48q49 0 85 -21t54 -54t26 -64t8 -60q0 -91 -27 -171.5t-90 -147.5t-154 -95l-67 113 q149 52 149 184q-63 -4 -110.5 44.5t-47.5 105.5z" />
<glyph unicode="&#x2022;" horiz-adv-x="825" d="M137 522q0 117 77.5 197t197.5 80t198 -80t78 -197q0 -118 -78 -198t-198 -80q-121 0 -198 79t-77 199z" />
<glyph unicode="&#x2026;" horiz-adv-x="1822" d="M92 154q0 78 54.5 129t138.5 51q82 0 138 -51t56 -129q0 -75 -56 -126t-138 -51q-84 0 -138.5 50.5t-54.5 126.5zM719 154q0 78 54 129t138 51q82 0 138.5 -51.5t56.5 -128.5q0 -75 -56.5 -126t-138.5 -51q-84 0 -138 50.5t-54 126.5zM1346 154q0 78 54 129t138 51 q82 0 138.5 -51.5t56.5 -128.5q0 -75 -56.5 -126t-138.5 -51q-84 0 -138 50.5t-54 126.5z" />
<glyph unicode="&#x202f;" horiz-adv-x="371" />
<glyph unicode="&#x2039;" horiz-adv-x="729" d="M70 588v57l407 469l172 -156l-295 -342l293 -337l-170 -158z" />
<glyph unicode="&#x203a;" horiz-adv-x="729" d="M80 958l172 156l407 -469v-57l-407 -467l-170 158l293 337z" />
<glyph unicode="&#x205f;" horiz-adv-x="463" />
<glyph unicode="&#x20ac;" horiz-adv-x="1443" d="M76 504v149h213q-9 70 -2 125h-211v150h225q25 115 81 210.5t141 167t204.5 111t263.5 39.5q202 0 385 -108l-94 -248q-27 16 -53.5 28.5t-47 20.5t-44 14t-37 9t-34 4.5t-27.5 1.5h-23h-17q-280 0 -374 -250h589l-57 -150h-565q-8 -59 2 -125h516l-57 -149h-424 q43 -114 140.5 -181t236.5 -67t292 53v-270q-127 -62 -286 -62q-291 0 -476 145.5t-233 381.5h-227z" />
<glyph unicode="&#x2122;" horiz-adv-x="1855" d="M72 1300v181h714v-181h-258v-585h-198v585h-258zM807 715l76 766h176l213 -504l209 504h182l70 -766h-195l-35 377l-160 -351h-143l-160 351l-34 -377h-199z" />
<glyph unicode="&#x25fc;" horiz-adv-x="1054" d="M0 0v1055h1055v-1055h-1055z" />
</font>
</defs>
</svg>
