<?xml version="1.0" standalone="no"?>
<!DOCTYPE svg PUBLIC "-//W3C//DTD SVG 1.1//EN" "http://www.w3.org/Graphics/SVG/1.1/DTD/svg11.dtd" >
<svg xmlns="http://www.w3.org/2000/svg" xmlns:xlink="http://www.w3.org/1999/xlink" version="1.1">
<metadata></metadata>
<defs>
<font id="filson_promedium_italic" horiz-adv-x="1333" >
<font-face units-per-em="2048" ascent="1481" descent="-567" />
<missing-glyph horiz-adv-x="520" />
<glyph unicode="&#xfb01;" horiz-adv-x="1372" d="M207 844l35 192h155l11 64q65 401 516 401q61 0 117.5 -14t107 -42.5t86 -78t47.5 -115.5l-127 -32l-127 -35q-10 53 -52 80.5t-89 27.5q-191 0 -223 -192l-11 -64h754l-182 -1036h-252l147 844h-504l-147 -844h-256l147 844h-153z" />
<glyph unicode="&#xfb02;" horiz-adv-x="1337" d="M207 844l35 192h155l11 64q16 98 57 171t94 116.5t126 69.5t142.5 35t153.5 9q267 0 451 -135l-242 -1366h-252l219 1241q-90 51 -229 51q-48 0 -86 -6.5t-76.5 -25t-65 -57t-36.5 -95.5l-13 -72h252l-35 -192h-252l-147 -844h-256l147 844h-153z" />
<glyph unicode="&#xfb03;" horiz-adv-x="2162" d="M207 844l35 192h153l13 70q70 395 516 395q195 0 276 -143l-184 -139q-19 36 -55 54.5t-74 18.5q-191 0 -223 -192l-11 -64h535l10 64q65 401 516 401q61 0 117.5 -14t107.5 -42.5t86.5 -78t47.5 -115.5l-127 -32l-127 -35q-10 53 -52.5 80.5t-89.5 27.5 q-191 0 -223 -192l-10 -64h754l-183 -1036h-252l148 844h-504l-147 -844h-256l147 844h-535l-147 -844h-256l147 844h-153z" />
<glyph unicode="&#xfb04;" horiz-adv-x="2127" d="M207 844l35 192h153l13 70q70 395 516 395q195 0 276 -143l-184 -139q-19 36 -55 54.5t-74 18.5q-191 0 -223 -192l-11 -64h535l10 64q16 98 57 171t94.5 116.5t126.5 69.5t142.5 35t153.5 9q266 0 450 -135l-242 -1366h-251l219 1241q-90 51 -230 51q-48 0 -86 -6.5 t-76.5 -25t-65 -57t-36.5 -95.5l-12 -72h252l-35 -192h-252l-147 -844h-256l147 844h-535l-147 -844h-256l147 844h-153z" />
<glyph horiz-adv-x="0" />
<glyph horiz-adv-x="682" />
<glyph horiz-adv-x="0" />
<glyph horiz-adv-x="0" />
<glyph unicode="&#xd;" horiz-adv-x="512" />
<glyph unicode=" "  horiz-adv-x="520" />
<glyph unicode="&#x09;" horiz-adv-x="520" />
<glyph unicode="&#xa0;" horiz-adv-x="520" />
<glyph unicode="!" horiz-adv-x="561" d="M133 139q13 72 71 119t132 47q73 0 113.5 -47.5t27.5 -118.5q-14 -69 -70 -115.5t-128 -46.5q-74 0 -116.5 46.5t-29.5 115.5zM274 463l103 940l4 31h303l-4 -31l-229 -940h-177z" />
<glyph unicode="&#x22;" horiz-adv-x="933" d="M313 901l60 580h254l-146 -580h-168zM766 901l59 580h256l-145 -580h-170z" />
<glyph unicode="#" horiz-adv-x="1560" d="M125 330l76 190h278l185 430h-277l86 189h277l124 295h207l-127 -295h260l121 295h213l-129 -295h273l-80 -189h-273l-184 -430h275l-82 -190h-269l-141 -330h-213l141 330h-254l-141 -330h-209l139 330h-276zM688 520h254l186 430h-256z" />
<glyph unicode="$" horiz-adv-x="1126" d="M135 393q40 9 118 25.5t118 25.5q5 -79 52 -128.5t132 -59.5l66 362q-88 32 -151 71t-96.5 78.5t-52 83t-18 85t5.5 84.5q19 105 85 186.5t160 128t206 58.5l35 200h127l-35 -204q134 -17 215 -94.5t98 -204.5l-225 -89q-22 134 -129 162l-60 -344l54 -20q83 -32 142 -77 t89 -95t40 -101t1 -102q-19 -115 -89 -200.5t-166.5 -131t-213.5 -59.5l-33 -195h-127l33 195q-173 12 -277 110t-104 250zM555 1020q-7 -41 13.5 -76t95.5 -78l57 301q-65 -13 -110 -50t-56 -97zM682 260q73 14 121.5 53.5t58.5 98.5q10 52 -20 86t-101 75z" />
<glyph unicode="%" horiz-adv-x="1937" d="M260 1081q28 158 158 266.5t293 108.5q162 0 251.5 -108t61.5 -267q-29 -156 -157.5 -263t-291.5 -107q-162 0 -253 107t-62 263zM459 1081q-17 -84 28.5 -139t122.5 -55q79 0 140.5 54t78.5 140q17 87 -26.5 143t-122.5 56q-76 0 -140 -56.5t-81 -142.5zM469 0 l1049 1434h188l-1049 -1434h-188zM1165 348q28 158 157 265.5t290 107.5q163 0 254 -107.5t63 -265.5q-29 -156 -156.5 -263.5t-289.5 -107.5q-163 0 -255 108t-63 263zM1364 348q-17 -84 26.5 -139t120.5 -55q79 0 143 54.5t81 139.5q17 86 -28 142.5t-124 56.5 q-76 0 -139 -56t-80 -143z" />
<glyph unicode="&#x26;" horiz-adv-x="1628" d="M143 383q54 272 441 436q-57 63 -83 142.5t-9 162.5q12 71 45.5 128.5t77.5 95t99 62.5t109.5 35.5t110.5 10.5q173 0 261 -96t62 -232q-19 -108 -116 -203.5t-228 -158.5l181 -254l219 246h237l-8 -41l-334 -369l66 -92q40 -57 119 -61q103 0 178 67l55 -170 q-135 -115 -285 -115q-92 0 -154.5 35.5t-117.5 104.5l-29 39q-80 -86 -202 -132.5t-254 -46.5q-105 0 -193.5 27.5t-150 78t-88.5 128.5t-9 172zM399 395q-17 -92 48.5 -151.5t177.5 -59.5q157 0 299 142l-232 331q-106 -34 -191.5 -102.5t-101.5 -159.5zM731 1112 q-15 -100 72 -207q97 48 151.5 103.5t65.5 111.5q11 54 -20 98t-99 44q-61 0 -110.5 -42t-59.5 -108z" />
<glyph unicode="'" horiz-adv-x="479" d="M313 901l60 580h254l-146 -580h-168z" />
<glyph unicode="(" horiz-adv-x="665" d="M158 285.5q-6 138.5 22 281.5q25 139 79 281t116.5 252.5t134 211t129 165t104.5 106.5l144 -96q-46 -54 -89.5 -111.5t-104 -152t-109 -190t-92.5 -220.5t-66 -248q-22 -122 -22 -245.5t14.5 -220t41 -190.5t50.5 -153.5t51 -111.5l-180 -95q-32 41 -66 106t-71.5 164.5 t-58.5 213.5t-27 252.5z" />
<glyph unicode=")" horiz-adv-x="665" d="M-18 -356q372 462 454 921q22 123 22.5 247.5t-14 221t-40.5 190t-50 152.5t-51 111l176 96q27 -34 55.5 -85.5t60 -124t55.5 -163t39.5 -190t14.5 -218t-22 -235.5q-25 -141 -79 -283.5t-116.5 -253t-134 -211t-129 -164.5t-104.5 -106z" />
<glyph unicode="*" horiz-adv-x="929" d="M274 1133l86 170l238 -101l35 279h182l-67 -279l280 101l25 -168l-281 -74l135 -219l-159 -103l-111 230l-201 -232l-121 105l213 215z" />
<glyph unicode="+" horiz-adv-x="1142" d="M168 528l37 207h385l67 381h217l-67 -381h383l-37 -207h-383l-68 -383h-217l68 383h-385z" />
<glyph unicode="," horiz-adv-x="526" d="M41 -207q87 28 151 97.5t72 134.5q-70 -11 -105 28t-30 99q11 64 60.5 105.5t127.5 41.5q44 0 73.5 -20.5t38.5 -49t13.5 -60t-2.5 -52.5q-26 -135 -126 -256t-236 -160z" />
<glyph unicode="-" horiz-adv-x="978" d="M221 526l37 215h719l-37 -215h-719z" />
<glyph unicode="." horiz-adv-x="548" d="M125 139q13 72 71 119t132 47q73 0 113.5 -47.5t27.5 -118.5q-12 -69 -69.5 -115.5t-129.5 -46.5q-74 0 -116 46.5t-29 115.5z" />
<glyph unicode="/" horiz-adv-x="1114" d="M37 -78l1065 1587h225l-1067 -1587h-223z" />
<glyph unicode="0" horiz-adv-x="1456" d="M210.5 483.5q-5.5 110.5 12.5 233.5q27 154 94.5 288.5t165 234.5t227.5 158t273 58q114 0 208 -37.5t156.5 -104.5t102.5 -159.5t46 -203t-13 -234.5q-26 -152 -94.5 -287.5t-167 -235.5t-228.5 -158.5t-272 -58.5q-115 0 -208.5 38t-155.5 105t-101.5 160t-45 203.5z M467 513.5q11 -95.5 44 -166t97.5 -111.5t151.5 -41q171 0 301 150t168 372q20 109 9 204.5t-44.5 166.5t-98.5 112t-151 41q-114 0 -213 -70.5t-164 -189t-90 -264.5q-21 -108 -10 -203.5z" />
<glyph unicode="1" horiz-adv-x="804" d="M238 1206l534 228h137l-252 -1434h-254l201 1135l-338 -131z" />
<glyph unicode="2" horiz-adv-x="1257" d="M129 160l666 520q223 168 252 321q20 110 -39 173t-181 63q-76 0 -135 -22t-93 -58t-53 -73t-26 -76h-252q9 55 34.5 113t75 119t115.5 108t163 77.5t210 30.5q232 0 350.5 -123t81.5 -329q-14 -79 -49.5 -150.5t-91.5 -133.5t-105.5 -106.5t-119.5 -97.5l-412 -313 q-2 -2 -2 -4q82 10 277 10h413l-37 -209h-1040z" />
<glyph unicode="3" horiz-adv-x="1261" d="M84 145l166 164q89 -68 170 -90t186 -22q150 0 256 86t125 192q20 114 -50.5 187t-191.5 73q-118 0 -208 -53l-82 139l510 402h-619l37 211h985l-27 -154l-475 -362q118 0 212 -57t140 -159t25 -225q-18 -102 -74.5 -192.5t-142.5 -159t-206 -108.5t-257 -40 q-324 0 -479 168z" />
<glyph unicode="4" horiz-adv-x="1368" d="M109 371l30 159l961 904h166l-150 -850h299l-39 -213h-299l-63 -371h-254l63 371h-714zM446 584h416l82 458z" />
<glyph unicode="5" horiz-adv-x="1253" d="M111 145l163 164q68 -56 167 -84t186 -28q161 0 259.5 81.5t121.5 206.5q19 100 -46.5 179t-207.5 79q-86 0 -176.5 -26.5t-155.5 -77.5l-164 72l174 723h893l-37 -211h-667l-91 -363h7q63 45 148 69.5t161 24.5q141 0 244 -64.5t147 -171.5t23 -233q-42 -230 -219 -369 t-451 -139q-157 0 -281.5 44.5t-197.5 123.5z" />
<glyph unicode="6" horiz-adv-x="1310" d="M219 684q30 162 95.5 301.5t161 245t225.5 165.5t278 60q139 0 247.5 -49t166.5 -135l-185 -146q-42 57 -114.5 83t-147.5 26q-72 0 -145 -33.5t-135 -94t-110.5 -152t-70.5 -199.5h4q65 93 171 140.5t217 47.5q99 0 186 -33.5t150 -93.5t90.5 -152.5t7.5 -201.5 q-37 -210 -215 -348t-416 -138q-181 0 -299 89t-159 248.5t-3 369.5zM461 471q-20 -116 51 -195t201 -79q123 0 222.5 76t119.5 192q23 122 -46 196t-200 74q-134 0 -230.5 -75.5t-117.5 -188.5z" />
<glyph unicode="7" horiz-adv-x="1138" d="M143 0l893 1223h-760l37 211h1051l-29 -164l-907 -1270h-285z" />
<glyph unicode="8" horiz-adv-x="1351" d="M170 428q21 106 112.5 202.5t215.5 137.5q-86 37 -130.5 117.5t-27.5 167.5q32 178 198 290.5t396 112.5q228 0 355 -112.5t95 -290.5q-18 -88 -89.5 -168.5t-168.5 -116.5q109 -40 168 -138t39 -202q-37 -200 -221 -325.5t-440 -125.5q-254 0 -396 126t-106 325z M428 428q-18 -100 60 -166.5t223 -66.5t248 67t118 166q18 97 -53 165.5t-223 68.5h-8q-156 0 -251 -67.5t-114 -166.5zM598 1053q-14 -85 40.5 -148t180.5 -63h8q124 0 206 64.5t95 146.5q18 79 -47 133.5t-186 54.5q-119 0 -199 -53.5t-98 -134.5z" />
<glyph unicode="9" horiz-adv-x="1308" d="M166 162l186 145q42 -57 115.5 -82.5t148.5 -25.5q151 0 282 131t179 348h-4q-65 -93 -174 -141t-219 -48q-99 0 -185.5 33.5t-148.5 94t-89 153t-7 201.5q37 211 214 348t417 137q181 0 298 -89t157.5 -248t2.5 -369q-30 -162 -94.5 -301.5t-158.5 -245t-223.5 -166 t-278.5 -60.5q-139 0 -248 49.5t-170 135.5zM506 969q-23 -122 46.5 -196.5t199.5 -74.5q134 0 229.5 76t116.5 189q20 116 -50 195t-198 79q-125 0 -224.5 -75.5t-119.5 -192.5z" />
<glyph unicode=":" horiz-adv-x="606" d="M154 139q13 72 70.5 119t131.5 47q73 0 114 -47.5t28 -118.5q-12 -69 -69.5 -115.5t-129.5 -46.5q-74 0 -116 46.5t-29 115.5zM289 893q12 72 68 119t130 47q73 0 115.5 -47.5t30.5 -118.5q-10 -68 -70 -115t-133 -47t-113 46.5t-28 115.5z" />
<glyph unicode=";" horiz-adv-x="606" d="M84 -201q86 27 149.5 95t71.5 133q-72 -11 -108.5 30t-28.5 101q6 65 57.5 109t134.5 44q45 0 76 -21t41 -50.5t13.5 -61.5t-5.5 -55q-21 -137 -123.5 -257t-240.5 -159zM289 893q12 72 68 119t130 47q73 0 115.5 -47.5t30.5 -118.5q-12 -68 -71 -115t-132 -47t-113 46.5 t-28 115.5z" />
<glyph unicode="&#x3c;" horiz-adv-x="1189" d="M152 463l34 203l1049 411h25l-39 -223l-793 -289l690 -289l-41 -223h-24z" />
<glyph unicode="=" horiz-adv-x="1259" d="M188 305l37 211h985l-36 -211h-986zM285 850l37 209h985l-37 -209h-985z" />
<glyph unicode="&#x3e;" horiz-adv-x="1191" d="M129 53l39 223l795 289l-693 289l39 223h25l907 -411l-35 -203l-1052 -410h-25z" />
<glyph unicode="?" horiz-adv-x="1091" d="M260 1071q9 50 31 100t65 102.5t100.5 92t143.5 65t188 25.5q212 0 327 -111t83 -298q-13 -76 -51.5 -143.5t-100 -124.5t-126 -101t-150.5 -92q-71 -41 -80 -123h-233q8 53 14 80t17.5 58t30.5 51t48 42.5t76 48.5q145 80 214.5 144t86.5 157q17 91 -38 143t-161 52 q-94 0 -162 -44.5t-81 -117.5q-7 -28 4 -94h-242q-9 34 -4 88zM344 139q13 72 70 119t129 47q73 0 115.5 -47.5t29.5 -118.5q-13 -69 -72 -115.5t-131 -46.5t-113 46.5t-28 115.5z" />
<glyph unicode="@" horiz-adv-x="2099" d="M174 500q48 277 213.5 501.5t410 352t519.5 127.5q167 0 307.5 -43t240.5 -122.5t165 -191.5t81.5 -250.5t-8.5 -298.5q-59 -323 -200.5 -472.5t-343.5 -149.5q-271 0 -232 248q-61 -81 -161.5 -123.5t-200.5 -42.5q-126 0 -214.5 63t-124 168.5t-14.5 233.5 q38 197 184 330t341 133q201 0 284 -154l21 133h186l-123 -717q-13 -59 12 -89t70 -30q120 2 208 116.5t134 352.5q38 211 -29 379t-227 263.5t-387 95.5q-169 0 -327.5 -62.5t-282.5 -170.5t-211 -258.5t-117 -321.5q-41 -228 21 -412t217.5 -290.5t376.5 -106.5 q243 0 423 82l54 -148q-238 -102 -504 -102q-274 0 -465.5 127.5t-268.5 349.5t-28 500zM801 500q-22 -128 40 -213.5t189 -85.5q122 0 215 80.5t117 214.5q25 132 -38 216.5t-191 84.5t-219.5 -85.5t-112.5 -211.5z" />
<glyph unicode="A" horiz-adv-x="1417" d="M18 0l805 1434h273l305 -1434h-268l-60 281h-631l-153 -281h-271zM553 494h481l-119 673z" />
<glyph unicode="B" horiz-adv-x="1353" d="M184 0l252 1434h527q140 0 243 -44t152 -132q34 -61 34 -137q0 -32 -6 -68q-20 -107 -101.5 -193t-211.5 -123q143 -21 213 -119q54 -76 54 -169q0 -28 -5 -58q-29 -177 -183.5 -284t-377.5 -107h-590zM481 209h328q99 0 171 51.5t89 136.5q4 22 4 42q0 23 -5 43 q-10 38 -41 71.5t-96 52.5t-159 19h-217zM590 815h178q164 0 248 64.5t98 158.5q3 18 3 34q1 64 -43 102q-54 48 -148 49h-264z" />
<glyph unicode="C" horiz-adv-x="1411" d="M211 717q27 150 105.5 284t195 235t276 160.5t336.5 59.5q154 0 262 -43t203 -125l-141 -196q-156 131 -365 131q-119 0 -224.5 -40t-182 -108.5t-128 -160.5t-69.5 -197q-10 -54 -10 -104q0 -80 25 -151q40 -114 146.5 -182.5t264.5 -68.5q210 0 412 131l65 -199 q-123 -82 -244.5 -124t-275.5 -42q-177 0 -315.5 59.5t-219.5 161t-112 235.5q-17 72 -17 148q0 66 13 136z" />
<glyph unicode="D" horiz-adv-x="1521" d="M184 0l252 1432h508q106 0 200.5 -25.5t167.5 -72.5t129.5 -112.5t87.5 -144.5t41 -171q4 -32 4 -63q0 -61 -13 -126q-27 -146 -106 -277.5t-192.5 -228.5t-262.5 -154t-308 -57h-508zM481 209h246q204 0 366 148t199 360q9 52 9 101q0 82 -25 154q-40 116 -137 183.5 t-232 67.5h-245z" />
<glyph unicode="E" horiz-adv-x="1216" d="M184 0l252 1434h932l-37 -211h-669l-74 -416h583l-36 -209h-584l-70 -389h670l-35 -209h-932z" />
<glyph unicode="F" horiz-adv-x="1193" d="M184 0l252 1434h932l-37 -211h-669l-74 -416h583l-36 -209h-584l-105 -598h-262z" />
<glyph unicode="G" horiz-adv-x="1507" d="M211 715q36 201 163.5 370.5t321.5 270t410 100.5q156 0 273.5 -42t217.5 -130l-157 -197q-172 134 -371 134q-117 0 -221.5 -42.5t-179.5 -114t-125 -162.5t-66 -189q-8 -49 -8 -95q0 -81 25 -153q39 -112 143 -181t258 -69q166 0 311 74l45 250h-383l37 209h625 l-98 -562q-266 -209 -584 -209q-162 0 -295.5 59t-216.5 158.5t-118 235.5q-19 76 -19 157q0 63 12 128z" />
<glyph unicode="H" horiz-adv-x="1499" d="M184 0l252 1434h262l-114 -646h606l115 646h262l-252 -1434h-262l102 580h-606l-103 -580h-262z" />
<glyph unicode="I" horiz-adv-x="630" d="M184 0l252 1434h262l-252 -1434h-262z" />
<glyph unicode="J" horiz-adv-x="1357" d="M130 382q2 52 9 105q8 49 34.5 110t59.5 97h244q-64 -93 -84 -190q-4 -33 -4 -68v-14q1 -41 19 -80.5t45 -70.5t74.5 -49.5t107.5 -18.5q331 0 407 438l142 793h262l-139 -793q-60 -327 -242 -495.5t-469 -168.5q-83 0 -153 15.5t-119.5 42.5t-88.5 65t-60 83t-34 95 q-11 44 -11 90v14z" />
<glyph unicode="K" horiz-adv-x="1329" d="M182 0l252 1434h262l-118 -680l583 680h273l-4 -33l-613 -690l166 -340q57 -104 90 -137t92 -33q70 0 135 43q28 -95 62 -185q-59 -41 -134 -61.5t-143 -20.5q-71 0 -128.5 23.5t-99 67t-69.5 88.5t-53 104l-178 387l-113 -647h-262z" />
<glyph unicode="L" horiz-adv-x="1134" d="M184 0l252 1434h262l-217 -1225h652l-35 -209h-914z" />
<glyph unicode="M" horiz-adv-x="1935" d="M121 0l385 1434h274l254 -1055l625 1055h274l-116 -1434h-263l86 1001l-583 -985h-178l-236 985l-260 -1001h-262z" />
<glyph unicode="N" horiz-adv-x="1538" d="M184 0l252 1434h199l539 -961l169 961h263l-252 -1434h-197l-541 967l-170 -967h-262z" />
<glyph unicode="O" horiz-adv-x="1667" d="M209 717q35 200 167 370.5t322.5 269.5t391.5 99q151 0 279 -58.5t210.5 -157.5t118.5 -236q21 -80 21 -163q0 -61 -11 -124q-26 -150 -111 -287t-203.5 -236.5t-267.5 -158t-299 -58.5q-151 0 -279 58.5t-210.5 158t-118.5 236.5q-21 80 -21 163q0 61 11 124zM475 717 q-9 -51 -9 -98q0 -151 88 -261q115 -144 316 -143q130 0 252.5 64.5t209 180.5t110.5 257q9 51 9 98q0 151 -88 261q-115 144 -316 143q-130 0 -252.5 -64.5t-209 -180.5t-110.5 -257z" />
<glyph unicode="P" horiz-adv-x="1300" d="M184 0l252 1434h602q85 0 153.5 -24t113.5 -66.5t73 -101.5q30 -58 34 -126q1 -20 0 -40q0 -50 -7 -103q-34 -192 -176 -320.5t-350 -128.5h-340l-93 -524h-262zM573 731h299q103 0 174.5 67t92.5 177q5 32 5 61q0 71 -33 119q-47 68 -150 68h-299z" />
<glyph unicode="Q" horiz-adv-x="1671" d="M209 717q34 200 167 370.5t324.5 269.5t393.5 99q151 0 279 -58.5t210.5 -157.5t118.5 -236q21 -80 21 -163q0 -61 -11 -124q-49 -262 -256.5 -465t-470.5 -258v-16q0 -76 45 -119q50 -47 152 -47q45 0 113 20t114 49l51 -184q-152 -100 -336 -100q-104 0 -183.5 32.5 t-124.5 87.5t-66 123q-18 57 -18 120q0 12 1 24q-131 18 -239.5 83t-179.5 161t-100 224q-16 69 -16 142q0 61 11 123zM477 717q-9 -51 -9 -98q0 -151 88 -261q115 -143 316 -143q130 0 252.5 64.5t209 180.5t110.5 257q9 52 9 99q0 150 -87 260q-114 143 -315 143 q-130 0 -253 -64.5t-210 -180.5t-111 -257z" />
<glyph unicode="R" horiz-adv-x="1423" d="M182 0l252 1434h619q104 0 183 -37.5t122 -100.5q42 -64 60 -148q8 -40 9 -82q0 -46 -10 -93q-30 -159 -136.5 -277.5t-260.5 -154.5q0 -63 9 -118t29 -106.5t60 -81.5t96 -30q99 0 168 63l62 -180q-76 -57 -147 -84t-160 -27q-69 0 -126.5 22t-94.5 58.5t-66.5 84 t-43.5 99.5q-12 53 -22 105q-8 45 -9 85q1 6 1 13q2 46 2 82h-241l-93 -526h-262zM573 735h316q102 0 173.5 66.5t90.5 173.5q5 29 5 56q0 67 -35 117q-49 68 -148 69h-316z" />
<glyph unicode="S" horiz-adv-x="1198" d="M125 367l248 53q6 -94 74.5 -152.5t183.5 -58.5q114 0 194 48.5t97 133.5q2 14 2 26q0 107 -156 165l-174 63q-68 24 -120 55.5t-83 67t-51 72t-26.5 75t-6.5 70.5t6 64q21 122 102.5 216t198 142.5t248.5 48.5q178 0 286.5 -86.5t131.5 -241.5l-240 -92 q-32 187 -221 187q-93 0 -160.5 -44t-80.5 -126q-5 -18 -1.5 -42t13.5 -46t42 -47t83 -44l174 -67q75 -25 133 -62t91 -78t53 -87q20 -48 22 -92q0 -9 1 -17q0 -35 -5 -70q-24 -133 -112.5 -231t-211.5 -145.5t-264 -47.5q-210 0 -340.5 109t-130.5 281z" />
<glyph unicode="T" horiz-adv-x="1224" d="M256 1223l37 211h1143l-37 -211h-443l-215 -1223h-262l215 1223h-438z" />
<glyph unicode="U" horiz-adv-x="1490" d="M260 537l158 897h262l-158 -897q-8 -43 -7 -81q1 -102 55 -166q76 -87 212 -87q135 0 241 87t134 247l158 897h262l-158 -897q-24 -134 -89.5 -242t-157.5 -176.5t-202 -105t-229 -36.5q-120 0 -218 36.5t-166 104.5q-69 69 -95 177q-14 57 -13 121q0 57 11 121z" />
<glyph unicode="V" horiz-adv-x="1353" d="M301 1434h272l162 -1100l551 1100h273l-756 -1434h-252q-232 1331 -250 1434z" />
<glyph unicode="W" horiz-adv-x="2033" d="M305 1434h264l131 -985l461 937h201l127 -937l479 985h264l-700 -1434h-213l-131 973l-471 -973h-215z" />
<glyph unicode="X" horiz-adv-x="1417" d="M2 0l2 25l688 733l-387 643l4 33h297l271 -476l438 476h297l-4 -33l-617 -643l426 -733l-2 -25h-303l-309 547l-498 -547h-303z" />
<glyph unicode="Y" horiz-adv-x="1441" d="M293 1407l2 27h293l276 -615l494 615h293l-2 -27l-695 -819l-102 -588h-262l102 586z" />
<glyph unicode="Z" horiz-adv-x="1345" d="M59 0l29 180l1012 1043h-768l37 211h1116l-33 -183l-1016 -1042h881l-35 -209h-1223z" />
<glyph unicode="[" horiz-adv-x="743" d="M61 -442l349 1970h551l-35 -199h-314l-278 -1573h313l-35 -198h-551z" />
<glyph unicode="\" horiz-adv-x="1114" d="M319 1509h226l499 -1587h-223z" />
<glyph unicode="]" horiz-adv-x="743" d="M-25 -442l33 198h309l279 1573h-311l34 199h551l-348 -1970h-547z" />
<glyph unicode="^" horiz-adv-x="1095" d="M209 717l504 739h188l236 -739h-232l-143 502q-42 -67 -169.5 -265.5t-154.5 -236.5h-229z" />
<glyph unicode="_" horiz-adv-x="1458" d="M-57 -332l39 213h1454l-39 -213h-1454z" />
<glyph unicode="`" horiz-adv-x="1089" d="M530 1507h273l131 -329h-199z" />
<glyph unicode="a" d="M166 522q20 110 72.5 207.5t129.5 171t181 116t221 42.5q108 0 192 -44t130 -132l28 153h252l-182 -1036h-252l27 156q-72 -86 -172 -132.5t-215 -46.5q-149 0 -253.5 73.5t-144.5 197.5q-24 74 -25 158q0 56 11 116zM420 520q-7 -39 -7 -75q1 -95 49 -163 q66 -94 204 -94q135 0 238.5 86.5t127.5 235.5q7 41 7 78q1 99 -51 167q-70 93 -212 93q-136 0 -233 -94.5t-123 -233.5z" />
<glyph unicode="b" horiz-adv-x="1331" d="M141 0l260 1481h252l-106 -598q76 88 175.5 132t207.5 44q154 0 259.5 -73.5t145.5 -195.5q24 -73 23 -154q0 -55 -10 -114q-28 -151 -112 -274.5t-214 -197t-281 -73.5q-115 0 -197.5 46t-123.5 133l-27 -156h-252zM477 510q-7 -40 -7 -75q0 -97 52 -161q72 -86 205 -86 q138 0 239 94.5t126 237.5q7 40 7 76q0 90 -46 158q-65 94 -203 94q-140 0 -244 -93.5t-129 -244.5z" />
<glyph unicode="c" horiz-adv-x="1101" d="M162 512q43 237 226.5 392t451.5 155q212 0 377 -139l-152 -181q-95 95 -252 95q-151 0 -261.5 -88t-135.5 -228q-6 -33 -6 -63q0 -95 61 -163q80 -88 231 -89q29 0 64.5 4.5t101 27.5t119.5 62l86 -178q-211 -142 -424 -142q-176 0 -297 71q-122 71 -170 192 q-31 77 -30 165q0 52 10 107z" />
<glyph unicode="d" d="M166 522q27 148 108 269t210.5 194.5t283.5 73.5q108 0 192 -44t132 -132l106 598h252l-260 -1481h-252l27 156q-72 -86 -173 -132.5t-217 -46.5q-149 0 -252.5 73.5t-143.5 197.5q-24 74 -24 157q0 57 11 117zM420 520q-7 -39 -7 -75q1 -95 49 -163q66 -94 204 -94 q133 0 236.5 86.5t127.5 235.5q7 41 7 78q1 99 -51 167q-70 93 -212 93q-137 0 -232.5 -94t-121.5 -234z" />
<glyph unicode="e" horiz-adv-x="1239" d="M162 514q42 231 229 388t432 157q108 0 198 -34t157 -105q66 -70 90 -178q12 -54 12 -118q0 -65 -12 -141h-860q-4 -26 -5 -51q1 -94 65 -159q80 -83 243 -83q94 0 173.5 31.5t162.5 95.5l118 -141q-212 -199 -503 -199q-136 0 -242 42.5t-168.5 115.5t-86.5 171 q-13 52 -13 108q0 49 10 100zM449 653h589q-2 57 -26 99t-61.5 64t-77 32t-82.5 10q-45 0 -89.5 -10t-91.5 -32t-89.5 -64t-71.5 -99z" />
<glyph unicode="f" horiz-adv-x="790" d="M207 844l35 192h153l13 70q16 92 49.5 162.5t75 113.5t95 70.5t104 38t106.5 10.5q107 0 174.5 -40.5t89.5 -102.5q12 -37 12 -80q0 -29 -6 -61q-14 -42 -21 -58h-202q5 7 10 35q3 15 3 27q0 29 -16 46q-22 25 -71 25t-87.5 -38t-51.5 -109l-21 -109h252l-35 -192h-252 l-147 -844h-256l147 844h-153z" />
<glyph unicode="g" horiz-adv-x="1331" d="M106 -344q24 33 68 98.5t68 98.5q56 -56 140 -90.5t175 -34.5q69 0 130 17t114 51.5t90 95t51 141.5l21 121q-67 -82 -171 -129.5t-214 -47.5q-149 0 -253 73.5t-144 197.5q-24 74 -24 157q0 57 11 117q27 148 108 269t210.5 194.5t283.5 73.5q108 0 192 -44t130 -132 l28 153h252l-164 -923q-28 -157 -88.5 -274.5t-147 -189t-192 -106.5t-231.5 -35q-288 0 -443 148zM420 520q-7 -39 -7 -75q0 -94 49 -163q66 -94 204 -94q135 0 238.5 86.5t127.5 235.5q7 41 7 78q0 99 -51 167q-71 93 -212 93q-136 0 -233 -94.5t-123 -233.5z" />
<glyph unicode="h" horiz-adv-x="1243" d="M143 0l260 1481h252l-108 -619q127 197 366 197q191 0 267 -128q49 -82 49 -207q0 -69 -15 -151l-100 -573h-252l101 571q8 47 8 86q0 72 -27 118q-42 71 -137 71q-39 0 -77.5 -11t-77.5 -36.5t-71 -62.5t-58 -93.5t-38 -124.5l-90 -518h-252z" />
<glyph unicode="i" horiz-adv-x="546" d="M147 0l183 1036h252l-183 -1036h-252zM348 1343q11 68 66 114t127 46q71 0 111 -46q31 -36 31 -85q0 -14 -3 -29q-10 -67 -67 -112t-130 -45q-71 0 -109 44q-29 34 -28 83q0 15 2 30z" />
<glyph unicode="j" horiz-adv-x="624" d="M-225 -205q14 57 30 84h207q-4 -9 -14 -59q-2 -16 -2 -29q0 -74 76 -74q47 0 79.5 30.5t43.5 80.5l213 1208h251l-210 -1190q-15 -89 -56 -156t-98 -105.5t-120 -57.5t-130 -19q-79 0 -137 23.5t-89.5 63.5t-42.5 91q-6 27 -6 55q0 26 5 54zM424 1343q11 68 65.5 114 t126.5 46q71 0 111 -46q31 -36 31 -86q0 -13 -2 -28q-10 -67 -67 -112t-130 -45q-71 0 -109 44q-28 35 -28 83q0 15 2 30z" />
<glyph unicode="k" horiz-adv-x="1163" d="M141 0l260 1481h252l-153 -873l401 428h279l-6 -30l-439 -445l113 -242q32 -65 59.5 -89.5t81.5 -24.5q73 0 129 37l60 -174q-108 -91 -265 -91q-110 0 -174 50t-104 139l-154 336l-88 -502h-252z" />
<glyph unicode="l" horiz-adv-x="546" d="M147 0l261 1481h251l-260 -1481h-252z" />
<glyph unicode="m" horiz-adv-x="1878" d="M143 0l183 1036h252l-31 -174q59 95 148 146t190 51q233 0 291 -195q130 195 372 195q196 0 270 -127q47 -81 47 -204q0 -70 -16 -155l-100 -573h-252l100 571q9 51 9 93q0 68 -24 112q-38 70 -130 70q-96 0 -175 -78t-114 -238l-92 -530h-250l101 571q9 51 9 94 q1 69 -23 111q-38 70 -132 70q-97 0 -177 -78.5t-110 -237.5l-94 -530h-252z" />
<glyph unicode="n" horiz-adv-x="1243" d="M143 0l183 1036h252l-31 -174q127 197 368 197q191 0 266 -128q48 -82 48 -206q0 -69 -15 -152l-100 -573h-252l101 571q8 48 8 88q0 71 -26 116q-41 71 -136 71q-116 0 -206 -85t-118 -243l-90 -518h-252z" />
<glyph unicode="o" horiz-adv-x="1267" d="M162 518q27 147 125.5 272t239.5 197t290 72t267 -73q117 -72 172 -198q37 -84 36 -177q0 -45 -8 -93q-24 -147 -123 -272.5t-241.5 -197t-292.5 -71.5q-110 0 -206 43t-159 115q-64 73 -92 173q-16 59 -16 120q0 44 8 90zM414 518q-6 -34 -6 -66q0 -93 54 -164 q73 -95 202 -95q131 0 236 94.5t130 230.5q6 35 6 67q0 93 -53 164q-72 95 -203 95q-128 0 -234.5 -95t-131.5 -231z" />
<glyph unicode="p" d="M57 -469l269 1505h252l-29 -155q149 178 385 178q150 0 255 -72.5t145 -196.5q25 -74 25 -159q0 -56 -11 -117q-20 -110 -73 -207.5t-130.5 -171t-182 -116t-221.5 -42.5q-108 0 -191.5 44.5t-129.5 132.5l-111 -623h-252zM481 526q-8 -44 -8 -84q0 -95 49 -161 q71 -93 213 -93q138 0 235.5 94.5t123.5 233.5q7 39 7 74q0 95 -49 164q-68 94 -206 94q-133 0 -237 -86.5t-128 -235.5z" />
<glyph unicode="q" horiz-adv-x="1327" d="M156 346q-2 23 -2 48q0 58 10 120q21 114 74.5 214t131 173t180 115.5t214.5 42.5q116 0 200.5 -46t125.5 -132l28 155h252l-268 -1505h-252l111 623q-77 -88 -177.5 -132.5t-208.5 -44.5q-93 0 -169.5 27.5t-127.5 77t-83.5 117t-38.5 147.5zM416 516q-6 -36 -6 -70 q0 -50 13 -94q21 -73 80.5 -118.5t151.5 -45.5q140 0 246 94t131 244q7 40 7 76q0 96 -53 160q-72 86 -206 86q-137 0 -238 -95t-126 -237z" />
<glyph unicode="r" horiz-adv-x="786" d="M143 0l183 1036h247l-41 -229q46 123 139.5 187.5t186.5 64.5q28 0 86 -15l-45 -247q-50 20 -115 20q-41 0 -81.5 -13.5t-87 -47t-84 -105t-54.5 -172.5l-82 -479h-252z" />
<glyph unicode="s" horiz-adv-x="946" d="M94 246l215 84q6 -74 61.5 -112t133.5 -38q64 0 114 26t60 83q2 9 2 16q0 27 -19 46q-24 24 -75 48l-142 58q-68 27 -115 64t-66.5 74t-27.5 77q-4 19 -4 36q0 19 5 37q24 142 146.5 228t285.5 86q54 0 102 -10.5t94.5 -35t79.5 -72t45 -114.5l-213 -73 q-10 57 -49.5 81.5t-89.5 24.5q-55 0 -101 -28.5t-53 -79.5q-1 -7 -1 -13q0 -29 20 -49q24 -24 69 -45l144 -55q59 -21 103 -50t66 -60t36 -65q13 -32 12 -60q0 -24 -4 -62q-16 -99 -87 -172t-169 -108.5t-207 -35.5q-92 0 -167.5 25t-133 87.5t-70.5 156.5z" />
<glyph unicode="t" horiz-adv-x="894" d="M188 844l35 192h174l95 277h194l-49 -277h309l-35 -192h-309l-96 -543q-4 -18 -4 -33q0 -28 13 -48q20 -32 73 -32q47 0 80 29.5t41 77.5q6 22 5.5 43.5t-5.5 42.5h206q9 -33 9 -66.5t-6 -50.5q-22 -122 -121 -204.5t-258 -82.5q-55 0 -100.5 10t-87 34.5t-64.5 65 t-33 102.5q-4 24 -5 51q0 44 11 96l90 508h-162z" />
<glyph unicode="u" horiz-adv-x="1243" d="M211 463l102 573h252l-102 -571q-10 -52 -9 -94q0 -172 162 -172q47 0 95 20.5t95.5 63.5t86 121.5t57.5 183.5l80 448h254l-184 -1036h-252l31 174q-129 -197 -369 -197q-188 0 -263 129q-49 85 -49 213q0 66 13 144z" />
<glyph unicode="v" horiz-adv-x="1169" d="M217 1036h272l142 -755l413 755h273l-600 -1036h-264z" />
<glyph unicode="w" horiz-adv-x="1687" d="M223 1036h271l102 -694l328 666h190l96 -666l346 694h273l-555 -1036h-225l-93 653l-319 -653h-223z" />
<glyph unicode="x" horiz-adv-x="1204" d="M16 0l2 25l519 512l-310 479l4 20h291l203 -334l322 334h290l-4 -20l-481 -479l338 -512l-2 -25h-291l-231 369l-359 -369h-291z" />
<glyph unicode="y" horiz-adv-x="1175" d="M172 -469l305 530l-266 975h285l155 -710l398 710h282l-911 -1505h-248z" />
<glyph unicode="z" horiz-adv-x="1167" d="M61 0l25 152l762 686h-604l37 198h964l-28 -151l-762 -684h680l-33 -201h-1041z" />
<glyph unicode="{" horiz-adv-x="716" d="M104 -156q8 46 34.5 113t44 102.5t59.5 118.5q87 156 98 215q3 18 -9 31t-36 20.5t-47 12t-51 8t-39 6.5l26 137q13 2 38 6.5t40.5 7.5t37.5 7.5t36 9.5t27.5 12t21 15.5t8.5 19.5q3 22 0 51q-2 54 -13 127t-20 125t-13.5 123.5t5.5 122.5q28 146 136.5 219.5t250.5 73.5 q27 0 185 -15l-33 -165q-82 12 -150 12q-132 0 -155 -146q-9 -55 -2 -124.5t19.5 -124t19.5 -120t-2 -112.5q-12 -63 -55.5 -114.5t-116.5 -67.5l-3 -12l-4 -13q69 -16 95 -66.5t14 -113.5q-11 -60 -57.5 -146.5t-92.5 -176t-57 -158.5q-27 -146 105 -146h12q15 0 145 13 l-31 -166q-157 -15 -186 -15q-67 0 -123 17.5t-98.5 51.5t-60 92t-3.5 132z" />
<glyph unicode="|" horiz-adv-x="452" d="M55 -469l361 2030h170l-361 -2030h-170z" />
<glyph unicode="}" horiz-adv-x="718" d="M-12 -434l28 166q123 -13 138 -13h12q129 0 156 146q9 55 2 124t-19.5 123.5t-19.5 120t2 113.5q12 63 55.5 113.5t116.5 66.5v4q0 7 2 9l2 12q-67 16 -93 67.5t-14 114.5q11 59 57.5 145.5t92.5 176.5t57 159q11 70 -12 108t-92 38t-158 -12l31 165q158 15 184 15 q67 0 124 -17t99.5 -51.5t60 -92t3.5 -132.5q-12 -72 -49 -155t-90.5 -182t-79.5 -161q-13 -24 -17 -51q-1 -8 1.5 -15.5t9.5 -13.5t14 -10.5t20 -9t23 -7.5t27 -6t27.5 -5.5t29.5 -5.5t29 -5l-27 -137q-9 -2 -37.5 -6t-53 -8.5t-51.5 -12.5t-44.5 -21t-20.5 -30 q-5 -10 -2 -48.5t6 -56.5t10 -57.5t9 -52.5q37 -226 18 -334q-28 -145 -137.5 -219t-251.5 -74q-30 0 -178 15z" />
<glyph unicode="~" horiz-adv-x="1220" d="M225 614q38 83 126 142t188 59q51 0 106.5 -23.5t95 -51t92 -51t99.5 -23.5q118 0 201 120l84 -141q-48 -93 -134 -149t-184 -56q-59 0 -113.5 23t-90.5 51t-86.5 51t-102.5 23q-59 0 -112 -30t-87 -89z" />
<glyph unicode="&#xa1;" horiz-adv-x="538" d="M43 -397l6 30l232 940h176l-105 -940l-6 -30h-303zM256 897q12 69 69 115.5t130 46.5q72 0 114.5 -46.5t30.5 -115.5q-12 -71 -72 -118.5t-133 -47.5t-112 47t-27 119z" />
<glyph unicode="&#xa2;" horiz-adv-x="1157" d="M180 512q20 112 76 210.5t139.5 172.5t197.5 118t243 46l67 182h137l-69 -194q136 -23 262 -127l-152 -181q-74 72 -190 88l-221 -620q16 -6 57 -6q28 0 62.5 4.5t97.5 27.5t117 62l86 -178q-208 -140 -422 -140q-33 0 -80 7l-72 -199h-137l80 223q-165 54 -238 188.5 t-41 315.5zM432 518q-17 -90 13.5 -161t99.5 -113l207 583q-123 -20 -210 -103.5t-110 -205.5z" />
<glyph unicode="&#xa3;" horiz-adv-x="1304" d="M80 0l35 209q99 4 169.5 24t109 53.5t56.5 68.5t25 79q11 70 2 150h-254l23 133h203q-12 53 -19 90t-12.5 81t-4.5 83.5t7 77.5q32 181 191.5 294t367.5 113q69 0 127.5 -12.5t100 -34.5t74.5 -52t51 -64.5t29.5 -73t10.5 -77t-6 -75.5h-242q14 75 -33.5 122.5 t-148.5 47.5q-110 0 -181.5 -52.5t-88.5 -144.5q-19 -108 28 -323h375l-22 -133h-328q9 -69 -4 -144q-12 -68 -55 -131.5t-113 -99.5l-2 -10q102 10 254 10h448l-34 -209h-1139z" />
<glyph unicode="&#xa4;" horiz-adv-x="1101" d="M164 358l133 113q-37 91 -16 199q21 102 86 188q-8 8 -47 56t-46 55l164 139l88 -109q97 54 209 54q106 0 191 -54l125 109l112 -139q-8 -8 -63.5 -55.5t-63.5 -55.5q34 -86 15 -188q-22 -117 -90 -199l98 -113l-162 -139l-98 117q-94 -49 -201 -49q-109 0 -182 49 l-142 -117zM475 668q-14 -82 32 -140.5t124 -58.5q79 0 146 59t79 140q13 86 -31.5 143t-122.5 57t-146.5 -58.5t-80.5 -141.5z" />
<glyph unicode="&#xa5;" horiz-adv-x="1490" d="M293 301l24 141h373l27 140h-373l21 139h282l-334 686v27h301l277 -615l485 615h301v-27l-590 -686h283l-20 -139h-371l-27 -140h371l-25 -141h-370l-51 -301h-263l52 301h-373z" />
<glyph unicode="&#xa6;" horiz-adv-x="477" d="M68 -469l151 848h170l-151 -848h-170zM279 715l151 848h170l-151 -848h-170z" />
<glyph unicode="&#xa7;" horiz-adv-x="1226" d="M61 -125l121 174q184 -164 414 -164q126 0 199 44t86 110q7 57 -41.5 91.5t-130.5 55.5l-187 50q-64 19 -114 44.5t-81.5 53t-54 58.5t-30.5 61.5t-11.5 61.5t2.5 58q14 82 73 152t157 117q-90 57 -119.5 127t-15.5 141q18 102 98.5 182t196.5 122t245 42q231 0 435 -115 l-132 -186q-169 96 -331 96q-107 0 -177.5 -35t-82.5 -100q-6 -38 25.5 -76t121.5 -63l178 -47q181 -49 261.5 -129t58.5 -209q-13 -79 -69.5 -158t-147.5 -127q158 -97 127 -258q-29 -157 -184.5 -262.5t-393.5 -105.5q-174 0 -302 54.5t-194 139.5zM477 592 q-19 -108 111 -141l221 -60q68 20 113.5 65t56.5 101q8 47 -13.5 85t-80.5 56l-246 62q-144 -57 -162 -168z" />
<glyph unicode="&#xa8;" horiz-adv-x="1329" d="M510 1343q10 63 62 105.5t118 42.5t102.5 -42.5t24.5 -105.5q-11 -62 -61.5 -103.5t-116.5 -41.5t-103 41.5t-26 103.5zM983 1343q11 63 61.5 105.5t116.5 42.5t103.5 -42.5t25.5 -105.5q-11 -62 -62.5 -103.5t-117.5 -41.5t-102 41.5t-25 103.5z" />
<glyph unicode="&#xa9;" horiz-adv-x="1634" d="M219 717q27 151 107 287.5t193.5 235.5t258.5 157.5t295 58.5t274 -58.5t202 -157.5t110 -235.5t6 -287.5q-36 -201 -160.5 -371t-309 -269.5t-384.5 -99.5t-348.5 99.5t-213.5 269t-30 371.5zM354 717q-30 -165 23.5 -304t175.5 -219.5t283 -80.5q164 0 313 80.5 t250 219t131 304.5q29 164 -23 302.5t-173 220t-285 81.5q-162 0 -312 -81.5t-252 -220t-131 -302.5zM553 715q29 163 162.5 275t316.5 112q79 0 134 -24t118 -74l-102 -127q-72 63 -178 63q-110 0 -184 -67t-87 -156q-16 -92 31.5 -157.5t159.5 -65.5q99 0 202 61l56 -127 q-85 -50 -145.5 -73t-139.5 -23q-184 0 -279 111.5t-65 271.5z" />
<glyph unicode="&#xaa;" horiz-adv-x="1028" d="M231 418l27 145h696l-26 -145h-697zM324 1092q26 151 131 253.5t252 102.5q64 0 118.5 -27t81.5 -88l17 101h194l-121 -686h-194l18 102q-44 -56 -113.5 -85.5t-132.5 -29.5q-97 0 -160.5 48.5t-85.5 128.5t-5 180zM524 1094q-14 -80 23.5 -132.5t114.5 -52.5 q75 0 130.5 48t73.5 133q14 82 -24.5 133t-116.5 51q-76 0 -132.5 -53t-68.5 -127z" />
<glyph unicode="&#xab;" horiz-adv-x="1212" d="M184 590l9 45l473 452l125 -124l-365 -351l240 -346l-168 -127zM682 590l8 45l475 452l123 -124l-364 -351l241 -346l-168 -127z" />
<glyph unicode="&#xac;" horiz-adv-x="1275" d="M242 745l37 216h1017l-100 -568h-215l63 352h-802z" />
<glyph unicode="&#xad;" horiz-adv-x="1103" d="M231 561l37 215h838l-37 -215h-838z" />
<glyph unicode="&#xae;" horiz-adv-x="1634" d="M219 717q27 151 107 287.5t193.5 235.5t258.5 157.5t295 58.5t274 -58.5t202 -157.5t110 -235.5t6 -287.5q-36 -201 -160.5 -371t-309 -269.5t-384.5 -99.5t-348.5 99.5t-213.5 269t-30 371.5zM354 717q-30 -166 22.5 -304.5t174 -219t285.5 -80.5q162 0 311.5 80.5 t251.5 219t131 304.5q29 164 -24.5 303t-174.5 220t-282 81q-164 0 -314 -81.5t-251 -220t-130 -302.5zM618 346l132 744h317q110 0 163 -73t32 -175q-14 -79 -63 -137t-126 -82q86 -190 111 -277h-185l-94 260h-69l-43 -260h-175zM862 743h123q37 0 64.5 28.5t35.5 70.5 q7 38 -10.5 73t-52.5 35h-123z" />
<glyph unicode="&#xaf;" horiz-adv-x="1140" d="M483 1235l31 184h608l-30 -184h-609z" />
<glyph unicode="&#xb0;" horiz-adv-x="864" d="M281 1130q25 146 145 248.5t266 102.5q148 0 231 -102t58 -249q-25 -143 -144.5 -243.5t-267.5 -100.5t-230.5 100t-57.5 244zM444 1130q-14 -82 29.5 -137t124.5 -55q84 0 145.5 54.5t75.5 137.5q14 86 -28 142.5t-125 56.5q-82 0 -145 -57t-77 -142z" />
<glyph unicode="&#xb1;" horiz-adv-x="1265" d="M158 119l35 198h985l-35 -198h-985zM266 731l37 201h383l53 293h222l-54 -293h381l-37 -201h-381l-51 -295h-221l51 295h-383z" />
<glyph unicode="&#xb2;" horiz-adv-x="679" d="M227 895v92l344 260q98 69 111 146q7 47 -15.5 71.5t-70.5 24.5q-60 0 -94 -33.5t-39 -75.5h-158q7 39 28 79t57.5 78.5t97 62.5t133.5 24q121 0 180 -64.5t41 -166.5q-21 -129 -180 -246l-170 -129q41 6 106 6h205l-25 -129h-551z" />
<glyph unicode="&#xb3;" horiz-adv-x="673" d="M217 971l100 102q73 -63 175 -63q61 0 104.5 35t54.5 85q10 53 -21 88t-83 35q-55 0 -98 -20l-48 80l234 174h-297l22 125h519l-17 -88l-225 -176q97 -10 146 -71t32 -147q-18 -106 -113.5 -176.5t-234.5 -70.5q-81 0 -142 19t-108 69z" />
<glyph unicode="&#xb4;" horiz-adv-x="1089" d="M471 1178l250 329h272l-325 -329h-197z" />
<glyph unicode="&#xb5;" horiz-adv-x="1241" d="M76 -319l241 1355h254l-106 -594q-23 -121 19.5 -186.5t136.5 -65.5q116 0 205.5 85t117.5 243l92 518h252l-182 -1036h-252l31 174q-65 -100 -161.5 -148.5t-211.5 -48.5q-67 0 -137 25l-58 -321h-241z" />
<glyph unicode="&#xb6;" horiz-adv-x="1355" d="M258 1094q28 142 142 241t253 99h330l-2 -29q-42 -28 -69.5 -66t-39.5 -106l-270 -1524h-168l187 1047h-86q-141 0 -221.5 98.5t-55.5 239.5zM721 -291l266 1501q24 118 109 182t194 64q124 0 179.5 -62.5t37.5 -160.5q-5 -26 -8 -33q-10 -39 -26 -65h-158q8 13 13.5 27 t7.5 22t3.5 16.5t1.5 9.5q10 41 -14 64.5t-63 23.5q-41 0 -72 -24.5t-41 -71.5l-264 -1493h-166z" />
<glyph unicode="&#xb7;" horiz-adv-x="577" d="M217 569q12 69 69.5 117.5t129.5 48.5t114 -48.5t31 -117.5q-13 -69 -72 -116t-131 -47t-112.5 47t-28.5 116z" />
<glyph unicode="&#xb8;" horiz-adv-x="931" d="M141 -236l131 60q35 -115 127 -115q48 0 85.5 31.5t47.5 81.5q11 42 -9.5 99t-82.5 97l6 29h121q86 -52 117.5 -128t17.5 -142q-12 -63 -46 -111.5t-80 -75t-92 -39t-91 -12.5q-105 0 -169.5 62.5t-82.5 162.5z" />
<glyph unicode="&#xb9;" horiz-adv-x="464" d="M279 1491l294 121h91l-129 -717h-164l96 543l-168 -68z" />
<glyph unicode="&#xba;" horiz-adv-x="1003" d="M225 418l27 145h696l-26 -145h-697zM319 1087q25 146 154.5 251.5t278.5 105.5q98 0 175.5 -48t113.5 -131t18 -178q-25 -147 -154.5 -253.5t-279.5 -106.5q-152 0 -241.5 104.5t-64.5 255.5zM520 1085q-14 -76 25 -128t112 -52q72 0 130.5 52.5t70.5 127.5 q14 76 -25 129.5t-110 53.5q-73 0 -131 -53.5t-72 -129.5z" />
<glyph unicode="&#xbb;" horiz-adv-x="1210" d="M137 266l365 346l-242 351l168 124l315 -452l-8 -45l-475 -451zM637 266l362 346l-241 351l170 124l313 -452l-8 -45l-473 -451z" />
<glyph unicode="&#xbc;" horiz-adv-x="1714" d="M174 -80l1401 1585h190l-1403 -1585h-188zM297 1313l293 121h90l-127 -717h-164l98 543l-172 -68zM1016 184l14 86l453 447h135l-72 -412h146l-21 -121h-145l-33 -184h-162l33 184h-348zM1206 305h185l36 211z" />
<glyph unicode="&#xbd;" horiz-adv-x="1787" d="M174 -80l1401 1585h190l-1403 -1585h-188zM297 1313l293 121h90l-127 -717h-164l98 543l-172 -68zM1155 0v92l340 260q100 71 113 146q10 46 -14.5 71t-73.5 25q-60 0 -92.5 -33t-41.5 -76h-157q7 39 28 79t57.5 78.5t96.5 62.5t133 24q121 0 180.5 -64.5t40.5 -166.5 q-21 -129 -180 -246l-170 -129q41 6 107 6h204l-20 -129h-551z" />
<glyph unicode="&#xbe;" horiz-adv-x="1808" d="M215 793l98 102q72 -64 174 -64q61 0 105 35.5t55 85.5q10 53 -22 88t-84 35q-54 0 -95 -20l-49 80l232 174h-297l22 125h518l-16 -88l-221 -177q94 -11 142.5 -71t31.5 -146q-18 -106 -111.5 -176.5t-234.5 -70.5q-81 0 -141.5 19t-106.5 69zM272 -80l1403 1585h191 l-1405 -1585h-189zM1114 184l14 86l455 447h135l-73 -412h145l-21 -121h-145l-31 -184h-161l30 184h-348zM1305 305h184l37 211z" />
<glyph unicode="&#xbf;" horiz-adv-x="1073" d="M61 -10q14 76 53 143t102 124t126 100.5t150 93.5q58 31 81 122h234q-8 -45 -13 -68t-14.5 -52.5t-21 -46t-31.5 -37.5t-46 -38t-65 -38q-146 -82 -213.5 -144.5t-83.5 -152.5q-17 -93 36.5 -146t158.5 -53q95 0 162 45t80 119q8 32 -2 92h241q11 -33 6 -86 q-9 -49 -31 -99t-65 -102.5t-101 -92.5t-144.5 -65.5t-188.5 -25.5q-210 0 -326 111.5t-84 296.5zM578 897q12 69 69 115.5t129 46.5q74 0 116 -46.5t30 -115.5q-12 -71 -70.5 -118.5t-132.5 -47.5q-72 0 -112.5 47t-28.5 119z" />
<glyph unicode="&#xc0;" horiz-adv-x="1417" d="M18 0l805 1434h273l305 -1434h-268l-60 281h-631l-153 -281h-271zM553 494h481l-119 673zM743 1851h267l112 -301h-194z" />
<glyph unicode="&#xc1;" horiz-adv-x="1417" d="M18 0l805 1434h273l305 -1434h-268l-60 281h-631l-153 -281h-271zM553 494h481l-119 673zM838 1550l225 301h266l-295 -301h-196z" />
<glyph unicode="&#xc2;" horiz-adv-x="1417" d="M18 0l805 1434h273l305 -1434h-268l-60 281h-631l-153 -281h-271zM553 494h481l-119 673zM639 1550l270 301h254l160 -301h-182l-129 170l-191 -170h-182z" />
<glyph unicode="&#xc3;" horiz-adv-x="1417" d="M18 0l805 1434h273l305 -1434h-268l-60 281h-631l-153 -281h-271zM553 494h481l-119 673zM635 1602q53 121 109.5 176t138.5 55q55 0 142 -38t116 -38q39 0 63.5 20.5t57.5 73.5l114 -36q-57 -123 -112 -177.5t-136 -54.5q-56 0 -142.5 38t-115.5 38q-39 0 -63 -20 t-57 -74z" />
<glyph unicode="&#xc4;" horiz-adv-x="1417" d="M18 0l805 1434h273l305 -1434h-268l-60 281h-631l-153 -281h-271zM553 494h481l-119 673zM621 1692q10 63 59 102t115 39t101.5 -39t25.5 -102q-10 -61 -60 -99.5t-117 -38.5q-66 0 -100.5 38t-23.5 100zM1094 1692q10 63 59 102t115 39t101.5 -39t25.5 -102 q-10 -61 -60 -99.5t-116 -38.5t-100.5 38.5t-24.5 99.5z" />
<glyph unicode="&#xc5;" horiz-adv-x="1417" d="M18 0l805 1434h273l305 -1434h-268l-60 281h-631l-153 -281h-271zM553 494h481l-119 673zM782 1745q17 96 94 155.5t177 59.5q101 0 158 -59.5t40 -155.5t-95 -153.5t-179 -57.5t-156.5 57.5t-38.5 153.5zM903 1745q-7 -46 18.5 -73t73.5 -27q49 0 86.5 27t44.5 73 t-19.5 73t-74.5 27q-49 0 -85.5 -27t-43.5 -73z" />
<glyph unicode="&#xc6;" horiz-adv-x="1882" d="M-12 0l1020 1434h1026l-37 -211h-623l-78 -439h547l-37 -209h-546l-66 -366h623l-35 -209h-885l98 567h-333q-66 -95 -224 -320t-174 -247h-276zM799 774h233l74 418h-21q-62 -93 -286 -418z" />
<glyph unicode="&#xc7;" horiz-adv-x="1411" d="M211 717q27 150 106 284t196 235t276.5 160.5t336.5 59.5q154 0 261 -42.5t202 -125.5l-139 -196q-156 131 -365 131q-237 0 -402.5 -144.5t-203.5 -361.5q-25 -141 15 -255t146.5 -182.5t264.5 -68.5q214 0 412 131l67 -199q-114 -76 -225 -116.5t-248 -46.5 q73 -95 54 -203q-12 -63 -46 -111.5t-80 -75t-92.5 -39t-91.5 -12.5q-106 0 -172 63t-80 162q21 11 65 29.5t64 30.5q38 -115 130 -115q46 0 83.5 30.5t47.5 82.5q15 95 -45 162q-199 24 -333.5 129.5t-185.5 262.5t-18 341z" />
<glyph unicode="&#xc8;" horiz-adv-x="1216" d="M184 0l252 1434h932l-37 -211h-669l-74 -416h583l-36 -209h-584l-70 -389h670l-35 -209h-932zM672 1851h266l113 -301h-195z" />
<glyph unicode="&#xc9;" horiz-adv-x="1216" d="M184 0l252 1434h932l-37 -211h-669l-74 -416h583l-36 -209h-584l-70 -389h670l-35 -209h-932zM748 1550l225 301h266l-295 -301h-196z" />
<glyph unicode="&#xca;" horiz-adv-x="1216" d="M184 0l252 1434h932l-37 -211h-669l-74 -416h583l-36 -209h-584l-70 -389h670l-35 -209h-932zM563 1550l271 301h253l160 -301h-182l-129 170l-191 -170h-182z" />
<glyph unicode="&#xcb;" horiz-adv-x="1216" d="M184 0l252 1434h932l-37 -211h-669l-74 -416h583l-36 -209h-584l-70 -389h670l-35 -209h-932zM541 1692q10 63 59 102t115 39t101.5 -39t25.5 -102q-10 -61 -60 -99.5t-116 -38.5t-100.5 38.5t-24.5 99.5zM1014 1692q10 63 59 102t115 39t101.5 -39t25.5 -102 q-10 -61 -60 -99.5t-116 -38.5t-100.5 38.5t-24.5 99.5z" />
<glyph unicode="&#xcc;" horiz-adv-x="630" d="M184 0l252 1434h262l-252 -1434h-262zM350 1851h266l113 -301h-194z" />
<glyph unicode="&#xcd;" horiz-adv-x="630" d="M184 0l252 1434h262l-252 -1434h-262zM449 1550l225 301h266l-295 -301h-196z" />
<glyph unicode="&#xce;" horiz-adv-x="630" d="M184 0l252 1434h262l-252 -1434h-262zM248 1550l270 301h254l160 -301h-182l-129 170l-191 -170h-182z" />
<glyph unicode="&#xcf;" horiz-adv-x="630" d="M184 0l252 1434h262l-252 -1434h-262zM229 1692q10 63 59 102t115 39t101.5 -39t25.5 -102q-10 -61 -60 -99.5t-116 -38.5t-100.5 38.5t-24.5 99.5zM702 1692q10 63 59.5 102t115.5 39t101.5 -39t25.5 -102q-10 -61 -60 -99.5t-117 -38.5q-66 0 -100.5 38.5t-24.5 99.5z " />
<glyph unicode="&#xd0;" horiz-adv-x="1521" d="M164 621l33 182h129l110 629h508q106 0 200.5 -25.5t167.5 -72.5t129.5 -112.5t87.5 -144.5t41.5 -170.5t-9.5 -189.5q-27 -146 -106 -277.5t-192.5 -228.5t-262.5 -154t-308 -57h-508l109 621h-129zM483 209h246q204 0 365 148t198 360q24 139 -16 254.5t-137 183.5 t-232 68h-245l-74 -420h352l-33 -182h-352z" />
<glyph unicode="&#xd1;" horiz-adv-x="1538" d="M184 0l252 1434h199l539 -961l169 961h263l-252 -1434h-197l-541 967l-170 -967h-262zM694 1602q53 121 110 176t140 55q53 0 141 -38t117 -38q39 0 63.5 20.5t55.5 73.5l117 -36q-57 -123 -112.5 -177.5t-137.5 -54.5q-53 0 -141 38t-117 38q-39 0 -63.5 -20.5 t-55.5 -73.5z" />
<glyph unicode="&#xd2;" horiz-adv-x="1667" d="M209 717q35 200 167 370.5t322.5 269.5t391.5 99q151 0 279 -58.5t210.5 -157.5t118.5 -236t10 -287t-111 -287t-203.5 -236.5t-267.5 -158t-299 -58.5q-151 0 -279 58.5t-210.5 158t-118.5 236.5t-10 287zM475 717q-36 -215 79 -358.5t316 -143.5q130 0 252.5 64.5 t209 180.5t110.5 257q36 215 -79 358.5t-316 143.5q-130 0 -252.5 -64.5t-209 -180.5t-110.5 -257zM838 1851h266l113 -301h-197z" />
<glyph unicode="&#xd3;" horiz-adv-x="1667" d="M209 717q35 200 167 370.5t322.5 269.5t391.5 99q151 0 279 -58.5t210.5 -157.5t118.5 -236t10 -287t-111 -287t-203.5 -236.5t-267.5 -158t-299 -58.5q-151 0 -279 58.5t-210.5 158t-118.5 236.5t-10 287zM475 717q-36 -215 79 -358.5t316 -143.5q130 0 252.5 64.5 t209 180.5t110.5 257q36 215 -79 358.5t-316 143.5q-130 0 -252.5 -64.5t-209 -180.5t-110.5 -257zM967 1550l225 301h266l-297 -301h-194z" />
<glyph unicode="&#xd4;" horiz-adv-x="1667" d="M209 717q35 200 167 370.5t322.5 269.5t391.5 99q151 0 279 -58.5t210.5 -157.5t118.5 -236t10 -287t-111 -287t-203.5 -236.5t-267.5 -158t-299 -58.5q-151 0 -279 58.5t-210.5 158t-118.5 236.5t-10 287zM475 717q-36 -215 79 -358.5t316 -143.5q130 0 252.5 64.5 t209 180.5t110.5 257q36 215 -79 358.5t-316 143.5q-130 0 -252.5 -64.5t-209 -180.5t-110.5 -257zM762 1550l270 301h256l158 -301h-182l-127 170l-193 -170h-182z" />
<glyph unicode="&#xd5;" horiz-adv-x="1667" d="M209 717q35 200 167 370.5t322.5 269.5t391.5 99q151 0 279 -58.5t210.5 -157.5t118.5 -236t10 -287t-111 -287t-203.5 -236.5t-267.5 -158t-299 -58.5q-151 0 -279 58.5t-210.5 158t-118.5 236.5t-10 287zM475 717q-36 -215 79 -358.5t316 -143.5q130 0 252.5 64.5 t209 180.5t110.5 257q36 215 -79 358.5t-316 143.5q-130 0 -252.5 -64.5t-209 -180.5t-110.5 -257zM764 1602q53 121 110 176t140 55q53 0 141 -38t117 -38q39 0 62.5 20t56.5 74l114 -36q-57 -123 -112.5 -177.5t-137.5 -54.5q-53 0 -141 38t-117 38q-39 0 -61.5 -20 t-56.5 -74z" />
<glyph unicode="&#xd6;" horiz-adv-x="1667" d="M209 717q35 200 167 370.5t322.5 269.5t391.5 99q151 0 279 -58.5t210.5 -157.5t118.5 -236t10 -287t-111 -287t-203.5 -236.5t-267.5 -158t-299 -58.5q-151 0 -279 58.5t-210.5 158t-118.5 236.5t-10 287zM475 717q-36 -215 79 -358.5t316 -143.5q130 0 252.5 64.5 t209 180.5t110.5 257q36 215 -79 358.5t-316 143.5q-130 0 -252.5 -64.5t-209 -180.5t-110.5 -257zM741 1692q10 62 61 101.5t118 39.5q66 0 101 -39t23 -102q-10 -61 -60 -99.5t-116 -38.5t-101.5 38.5t-25.5 99.5zM1214 1692q10 62 60 101.5t117 39.5t103 -39.5t24 -101.5 q-10 -61 -61 -99.5t-118 -38.5q-66 0 -100.5 38.5t-24.5 99.5z" />
<glyph unicode="&#xd7;" horiz-adv-x="1091" d="M160 336l346 293l-240 291l180 153l240 -291l344 293l123 -147l-348 -291l242 -293l-183 -154l-239 293l-346 -295z" />
<glyph unicode="&#xd8;" horiz-adv-x="1667" d="M209 717q28 150 112.5 287t202.5 236t267 157.5t301 58.5q177 0 331 -88l131 154l125 -99l-131 -153q101 -106 144.5 -249t15.5 -304q-26 -150 -111 -287t-203.5 -236.5t-267.5 -158t-299 -58.5q-174 0 -313 74l-131 -149l-123 98l123 145q-108 108 -156 256t-18 316z M475 717q-20 -108 2.5 -202.5t79.5 -162.5l696 815q-91 52 -204 52q-130 0 -253 -64.5t-210 -180.5t-111 -257zM686 254q79 -39 184 -39q130 0 252.5 64.5t209 180.5t110.5 257q35 197 -70 344z" />
<glyph unicode="&#xd9;" horiz-adv-x="1490" d="M260 537l160 897h260l-158 -897q-28 -160 47.5 -247t212.5 -87q135 0 241 87t134 247l158 897h264l-160 -897q-24 -134 -89.5 -242t-157.5 -176.5t-202 -105t-229 -36.5q-120 0 -218 36.5t-166 105t-94.5 176.5t-2.5 242zM797 1851h266l113 -301h-197z" />
<glyph unicode="&#xda;" horiz-adv-x="1490" d="M260 537l160 897h260l-158 -897q-28 -160 47.5 -247t212.5 -87q135 0 241 87t134 247l158 897h264l-160 -897q-24 -134 -89.5 -242t-157.5 -176.5t-202 -105t-229 -36.5q-120 0 -218 36.5t-166 105t-94.5 176.5t-2.5 242zM846 1550l227 301h266l-297 -301h-196z" />
<glyph unicode="&#xdb;" horiz-adv-x="1490" d="M260 537l160 897h260l-158 -897q-28 -160 47.5 -247t212.5 -87q135 0 241 87t134 247l158 897h264l-160 -897q-24 -134 -89.5 -242t-157.5 -176.5t-202 -105t-229 -36.5q-120 0 -218 36.5t-166 105t-94.5 176.5t-2.5 242zM676 1550l270 301h256l158 -301h-182l-127 170 l-193 -170h-182z" />
<glyph unicode="&#xdc;" horiz-adv-x="1490" d="M260 537l160 897h260l-158 -897q-28 -160 47.5 -247t212.5 -87q135 0 241 87t134 247l158 897h264l-160 -897q-24 -134 -89.5 -242t-157.5 -176.5t-202 -105t-229 -36.5q-120 0 -218 36.5t-166 105t-94.5 176.5t-2.5 242zM655 1692q10 62 61 101.5t118 39.5 q66 0 100.5 -39t23.5 -102q-10 -61 -60 -99.5t-116 -38.5t-101.5 38.5t-25.5 99.5zM1128 1692q10 62 60 101.5t117 39.5q66 0 101.5 -39t25.5 -102q-10 -61 -61 -99.5t-118 -38.5q-66 0 -100.5 38.5t-24.5 99.5z" />
<glyph unicode="&#xdd;" horiz-adv-x="1441" d="M293 1407l2 27h293l276 -615l494 615h293l-2 -27l-695 -819l-102 -588h-262l102 586zM838 1550l223 301h266l-295 -301h-194z" />
<glyph unicode="&#xde;" horiz-adv-x="1302" d="M184 0l252 1434h260l-55 -320h438q103 0 177 -56t103 -146.5t9 -194.5q-31 -162 -154 -280t-284 -118h-430l-56 -319h-260zM537 530h348q90 0 146 55t69 132q14 80 -19 134t-131 54h-348z" />
<glyph unicode="&#xdf;" horiz-adv-x="1245" d="M143 0l185 1044q38 217 179 333t353 116q214 0 315 -104.5t68 -284.5q-20 -103 -89 -181.5t-183 -115.5q148 -25 225.5 -133t50.5 -260q-33 -182 -186.5 -298t-372.5 -116h-121q-3 36 -5 104.5t-5 104.5h166q106 0 179 60.5t91 150.5q21 111 -67.5 191.5t-261.5 80.5 l-13 172q151 10 233 70t101 153q17 90 -29 136.5t-141 46.5q-85 0 -150.5 -64t-82.5 -162l-185 -1044h-254z" />
<glyph unicode="&#xe0;" horiz-adv-x="1331" d="M164 522q20 110 72.5 207.5t129.5 171t181 116t221 42.5q108 0 192 -44t130 -132l28 153h252l-182 -1036h-252l27 156q-72 -86 -172.5 -132.5t-215.5 -46.5q-149 0 -253 73.5t-144.5 197.5t-13.5 274zM418 520q-25 -143 41.5 -237.5t204.5 -94.5q135 0 238.5 86.5 t127.5 235.5q26 152 -44.5 245t-211.5 93q-136 0 -233 -94.5t-123 -233.5zM580 1507h272l131 -329h-199z" />
<glyph unicode="&#xe1;" d="M166 522q20 110 72.5 207.5t129.5 171t181 116t221 42.5q108 0 192 -44t130 -132l28 153h252l-182 -1036h-252l27 156q-72 -86 -172 -132.5t-215 -46.5q-149 0 -253.5 73.5t-145 197.5t-13.5 274zM420 520q-25 -143 41.5 -237.5t204.5 -94.5q135 0 238.5 86.5 t127.5 235.5q26 152 -44.5 245t-211.5 93q-136 0 -233 -94.5t-123 -233.5zM733 1178l250 329h272l-325 -329h-197z" />
<glyph unicode="&#xe2;" d="M166 522q20 110 72.5 207.5t129.5 171t181 116t221 42.5q108 0 192 -44t130 -132l28 153h252l-182 -1036h-252l27 156q-72 -86 -172 -132.5t-215 -46.5q-149 0 -253.5 73.5t-145 197.5t-13.5 274zM420 520q-25 -143 41.5 -237.5t204.5 -94.5q135 0 238.5 86.5 t127.5 235.5q26 152 -44.5 245t-211.5 93q-136 0 -233 -94.5t-123 -233.5zM530 1178l287 329h256l170 -329h-186l-137 188l-205 -188h-185z" />
<glyph unicode="&#xe3;" d="M166 522q20 110 72.5 207.5t129.5 171t181 116t221 42.5q108 0 192 -44t130 -132l28 153h252l-182 -1036h-252l27 156q-72 -86 -172 -132.5t-215 -46.5q-149 0 -253.5 73.5t-145 197.5t-13.5 274zM420 520q-25 -143 41.5 -237.5t204.5 -94.5q135 0 238.5 86.5 t127.5 235.5q26 152 -44.5 245t-211.5 93q-136 0 -233 -94.5t-123 -233.5zM545 1235q53 121 109.5 176t138.5 55q55 0 142 -37.5t116 -37.5q39 0 63 20t57 74l115 -37q-57 -122 -113 -176.5t-137 -54.5q-56 0 -142 37.5t-114 37.5q-39 0 -63.5 -20.5t-57.5 -73.5z" />
<glyph unicode="&#xe4;" d="M166 522q20 110 72.5 207.5t129.5 171t181 116t221 42.5q108 0 192 -44t130 -132l28 153h252l-182 -1036h-252l27 156q-72 -86 -172 -132.5t-215 -46.5q-149 0 -253.5 73.5t-145 197.5t-13.5 274zM420 520q-25 -143 41.5 -237.5t204.5 -94.5q135 0 238.5 86.5 t127.5 235.5q26 152 -44.5 245t-211.5 93q-136 0 -233 -94.5t-123 -233.5zM500 1343q10 63 62 105.5t118 42.5t102.5 -42.5t24.5 -105.5q-11 -62 -61.5 -103.5t-116.5 -41.5t-103 41.5t-26 103.5zM973 1343q11 63 61.5 105.5t116.5 42.5t103.5 -42.5t25.5 -105.5 q-11 -62 -62.5 -103.5t-117.5 -41.5t-102 41.5t-25 103.5z" />
<glyph unicode="&#xe5;" d="M166 522q20 110 72.5 207.5t129.5 171t181 116t221 42.5q108 0 192 -44t130 -132l28 153h252l-182 -1036h-252l27 156q-72 -86 -172 -132.5t-215 -46.5q-149 0 -253.5 73.5t-145 197.5t-13.5 274zM420 520q-25 -143 41.5 -237.5t204.5 -94.5q135 0 238.5 86.5 t127.5 235.5q26 152 -44.5 245t-211.5 93q-136 0 -233 -94.5t-123 -233.5zM676 1393q17 97 96.5 162t177.5 65q99 0 156.5 -65t38.5 -162q-17 -96 -96.5 -161t-178.5 -65t-155 64t-39 162zM797 1393q-10 -47 18 -79t76 -32q47 0 82.5 31.5t46.5 79.5q7 47 -19 77.5t-73 30.5 t-83.5 -30.5t-47.5 -77.5z" />
<glyph unicode="&#xe6;" horiz-adv-x="1906" d="M113 317q25 143 157.5 234.5t327.5 91.5q174 0 293 -45l6 31q12 56 -2 99.5t-46 67.5t-70.5 36t-80.5 12q-190 0 -344 -107l-65 168q183 154 465 154q266 0 348 -168q168 168 414 168q107 0 193 -34t148 -104.5t82 -179t-4 -258.5h-825q-21 -128 56 -210.5t239 -82.5 q91 0 161 31t148 96l119 -141q-117 -110 -232.5 -154.5t-244.5 -44.5q-157 0 -266 54t-166 151q-180 -205 -457 -205q-113 0 -198.5 37.5t-130 116t-25.5 186.5zM371 328q-11 -65 31 -107.5t141 -42.5q177 0 323 146q-9 61 0 125q-128 36 -256 36q-113 0 -171.5 -47 t-67.5 -110zM1153 653h551q-2 57 -22 99t-52.5 64t-69 32t-79.5 10q-96 0 -183.5 -47.5t-144.5 -157.5z" />
<glyph unicode="&#xe7;" horiz-adv-x="1101" d="M162 512q43 237 226.5 392t451.5 155q212 0 377 -139l-150 -181q-101 95 -254 95q-151 0 -261.5 -88t-135.5 -228q-25 -138 55 -226.5t231 -88.5q158 0 287 94l84 -178q-195 -130 -395 -142q77 -95 59 -202q-12 -64 -46 -112t-80 -74t-92 -38t-91 -12q-106 0 -172 63 t-80 160l131 62q35 -115 129 -115q46 0 82.5 30t46.5 83q7 44 -7.5 93t-55.5 79q-193 41 -285 183.5t-55 334.5z" />
<glyph unicode="&#xe8;" horiz-adv-x="1239" d="M162 514q42 231 229 388t432 157q108 0 198 -34t157 -104.5t90.5 -179t-0.5 -258.5h-860q-21 -127 59.5 -210t243.5 -83q94 0 173.5 31.5t162.5 95.5l118 -141q-212 -199 -503 -199q-136 0 -242 42.5t-168.5 115.5t-86.5 171t-3 208zM449 653h589q-2 57 -26 99t-61.5 64 t-77 32t-82.5 10q-45 0 -89.5 -10t-91.5 -32t-89.5 -64t-71.5 -99zM559 1507h272l132 -329h-199z" />
<glyph unicode="&#xe9;" horiz-adv-x="1239" d="M162 514q42 231 229 388t432 157q108 0 198 -34t157 -104.5t90.5 -179t-0.5 -258.5h-860q-21 -127 59.5 -210t243.5 -83q94 0 173.5 31.5t162.5 95.5l118 -141q-212 -199 -503 -199q-136 0 -242 42.5t-168.5 115.5t-86.5 171t-3 208zM449 653h589q-2 57 -26 99t-61.5 64 t-77 32t-82.5 10q-45 0 -89.5 -10t-91.5 -32t-89.5 -64t-71.5 -99zM711 1178l250 329h272l-326 -329h-196z" />
<glyph unicode="&#xea;" horiz-adv-x="1239" d="M162 514q42 231 229 388t432 157q108 0 198 -34t157 -104.5t90.5 -179t-0.5 -258.5h-860q-21 -127 59.5 -210t243.5 -83q94 0 173.5 31.5t162.5 95.5l118 -141q-212 -199 -503 -199q-136 0 -242 42.5t-168.5 115.5t-86.5 171t-3 208zM449 653h589q-2 57 -26 99t-61.5 64 t-77 32t-82.5 10q-45 0 -89.5 -10t-91.5 -32t-89.5 -64t-71.5 -99zM473 1178l287 329h256l170 -329h-187l-137 188l-205 -188h-184z" />
<glyph unicode="&#xeb;" horiz-adv-x="1239" d="M162 514q42 231 229 388t432 157q108 0 198 -34t157 -104.5t90.5 -179t-0.5 -258.5h-860q-21 -127 59.5 -210t243.5 -83q94 0 173.5 31.5t162.5 95.5l118 -141q-212 -199 -503 -199q-136 0 -242 42.5t-168.5 115.5t-86.5 171t-3 208zM449 653h589q-2 57 -26 99t-61.5 64 t-77 32t-82.5 10q-45 0 -89.5 -10t-91.5 -32t-89.5 -64t-71.5 -99zM469 1343q10 63 62 105.5t118 42.5t102.5 -42.5t24.5 -105.5q-11 -62 -61.5 -103.5t-116.5 -41.5t-103 41.5t-26 103.5zM942 1343q11 63 61.5 105.5t116.5 42.5t103.5 -42.5t25.5 -105.5 q-11 -62 -62.5 -103.5t-117.5 -41.5t-102 41.5t-25 103.5z" />
<glyph unicode="&#xec;" horiz-adv-x="546" d="M147 0l183 1036h252l-183 -1036h-252zM205 1507h270l131 -329h-196q-30 50 -99.5 159t-105.5 170z" />
<glyph unicode="&#xed;" horiz-adv-x="546" d="M147 0l183 1036h252l-183 -1036h-252zM354 1178l250 329h273l-324 -329h-199z" />
<glyph unicode="&#xee;" horiz-adv-x="546" d="M123 1178q48 57 143.5 164.5t143.5 164.5h254l170 -329h-185l-139 188l-203 -188h-184zM147 0l183 1036h252l-183 -1036h-252z" />
<glyph unicode="&#xef;" horiz-adv-x="546" d="M119 1343q11 63 61.5 105.5t116.5 42.5t102 -42.5t25 -105.5q-11 -62 -61.5 -103.5t-116.5 -41.5t-102 41.5t-25 103.5zM147 0l183 1036h252l-183 -1036h-252zM590 1343q11 63 61.5 105.5t116.5 42.5t103 -42.5t26 -105.5q-11 -62 -62.5 -103.5t-117.5 -41.5t-102 41.5 t-25 103.5z" />
<glyph unicode="&#xf0;" horiz-adv-x="1236" d="M160 502q20 109 79.5 202t140.5 154t175 95t186 34q27 0 57 -2.5t72.5 -14t59.5 -30.5q-40 92 -146 217l-258 -104l-30 118l198 82q-111 111 -131 125l213 131q3 -3 36.5 -35t45.5 -43.5t35.5 -36t40.5 -44.5l246 100l41 -119l-205 -82q296 -395 231 -747 q-21 -122 -82.5 -222.5t-147.5 -166t-188 -101t-208 -35.5q-154 0 -268.5 70t-165.5 190t-27 265zM414 502q-20 -132 46 -220.5t189 -88.5q137 0 228.5 86.5t115.5 226.5q25 131 -36 211t-193 80q-133 0 -229 -82t-121 -213z" />
<glyph unicode="&#xf1;" horiz-adv-x="1243" d="M143 0l183 1036h252l-31 -174q127 197 368 197q191 0 266 -128t33 -358l-100 -573h-252l101 571q23 133 -18 204t-136 71q-116 0 -206 -85t-118 -243l-90 -518h-252zM477 1235q53 120 110.5 175.5t139.5 55.5q57 0 142.5 -37.5t113.5 -37.5q39 0 63.5 20.5t57.5 73.5 l115 -37q-57 -122 -112 -176.5t-136 -54.5q-55 0 -142 37.5t-116 37.5q-39 0 -63.5 -20.5t-57.5 -73.5z" />
<glyph unicode="&#xf2;" horiz-adv-x="1267" d="M162 518q27 147 125.5 272t239.5 197t290 72t266.5 -73t172.5 -198.5t28 -269.5q-24 -147 -123 -272.5t-241.5 -197t-292.5 -71.5q-110 0 -206 43t-159.5 115t-91.5 172.5t-8 210.5zM414 518q-25 -135 48 -230t202 -95q131 0 236 94.5t130 230.5t-47 231t-203 95 q-128 0 -234.5 -95t-131.5 -231zM537 1507h272l131 -329h-199z" />
<glyph unicode="&#xf3;" horiz-adv-x="1267" d="M162 518q27 147 125.5 272t239.5 197t290 72t266.5 -73t172.5 -198.5t28 -269.5q-24 -147 -123 -272.5t-241.5 -197t-292.5 -71.5q-110 0 -206 43t-159.5 115t-91.5 172.5t-8 210.5zM414 518q-25 -135 48 -230t202 -95q131 0 236 94.5t130 230.5t-47 231t-203 95 q-128 0 -234.5 -95t-131.5 -231zM709 1178l249 329h273l-326 -329h-196z" />
<glyph unicode="&#xf4;" horiz-adv-x="1267" d="M162 518q27 147 125.5 272t239.5 197t290 72t266.5 -73t172.5 -198.5t28 -269.5q-24 -147 -123 -272.5t-241.5 -197t-292.5 -71.5q-110 0 -206 43t-159.5 115t-91.5 172.5t-8 210.5zM414 518q-25 -135 48 -230t202 -95q131 0 236 94.5t130 230.5t-47 231t-203 95 q-128 0 -234.5 -95t-131.5 -231zM485 1178l287 329h256l170 -329h-186l-138 188l-204 -188h-185z" />
<glyph unicode="&#xf5;" horiz-adv-x="1267" d="M162 518q27 147 125.5 272t239.5 197t290 72t266.5 -73t172.5 -198.5t28 -269.5q-24 -147 -123 -272.5t-241.5 -197t-292.5 -71.5q-110 0 -206 43t-159.5 115t-91.5 172.5t-8 210.5zM414 518q-25 -135 48 -230t202 -95q131 0 236 94.5t130 230.5t-47 231t-203 95 q-128 0 -234.5 -95t-131.5 -231zM500 1235q53 121 109.5 176t138.5 55q56 0 143 -37.5t115 -37.5q39 0 63 20t57 74l115 -37q-57 -122 -113 -176.5t-137 -54.5q-55 0 -141 37.5t-115 37.5q-39 0 -63.5 -20.5t-57.5 -73.5z" />
<glyph unicode="&#xf6;" horiz-adv-x="1267" d="M162 518q27 147 125.5 272t239.5 197t290 72t266.5 -73t172.5 -198.5t28 -269.5q-24 -147 -123 -272.5t-241.5 -197t-292.5 -71.5q-110 0 -206 43t-159.5 115t-91.5 172.5t-8 210.5zM414 518q-25 -135 48 -230t202 -95q131 0 236 94.5t130 230.5t-47 231t-203 95 q-128 0 -234.5 -95t-131.5 -231zM479 1343q10 63 62 105.5t118 42.5t102.5 -42.5t24.5 -105.5q-11 -62 -61.5 -103.5t-116.5 -41.5t-103 41.5t-26 103.5zM952 1343q11 63 61.5 105.5t116.5 42.5t104 -42.5t26 -105.5q-10 -61 -62.5 -103t-118.5 -42t-102 41.5t-25 103.5z " />
<glyph unicode="&#xf7;" horiz-adv-x="1284" d="M193 522l36 213h1086l-37 -213h-1085zM510 229q12 69 69.5 113.5t131.5 44.5q73 0 114.5 -45t28.5 -113q-12 -68 -69 -111.5t-130 -43.5q-74 0 -115.5 43.5t-29.5 111.5zM653 1032q12 71 68.5 115.5t130.5 44.5q73 0 115 -44.5t32 -115.5q-17 -69 -73.5 -112t-128.5 -43 q-74 0 -115 43.5t-29 111.5z" />
<glyph unicode="&#xf8;" horiz-adv-x="1265" d="M111 35l133 125q-118 157 -82 358q27 147 125.5 272t239.5 197t290 72q169 0 287 -88l133 125l96 -103l-127 -119q115 -153 78 -356q-27 -148 -125.5 -272.5t-240.5 -196.5t-291 -72q-168 0 -283 86l-137 -129zM414 518q-23 -114 20 -180l494 465q-65 41 -148 41 q-128 0 -234.5 -95t-131.5 -231zM524 233q58 -40 142 -40q131 0 236 94.5t130 230.5q20 96 -16 176z" />
<glyph unicode="&#xf9;" horiz-adv-x="1243" d="M211 463l102 573h252l-102 -571q-49 -266 153 -266q47 0 95 20.5t95.5 63.5t86 121.5t57.5 183.5l80 448h254l-184 -1036h-252l31 174q-129 -197 -369 -197q-188 0 -263 129t-36 357zM580 1507h272l129 -329h-197z" />
<glyph unicode="&#xfa;" horiz-adv-x="1243" d="M211 463l102 573h252l-102 -571q-49 -266 153 -266q47 0 95 20.5t95.5 63.5t86 121.5t57.5 183.5l80 448h254l-184 -1036h-252l31 174q-129 -197 -369 -197q-188 0 -263 129t-36 357zM696 1178l252 329h273l-328 -329h-197z" />
<glyph unicode="&#xfb;" horiz-adv-x="1243" d="M211 463l102 573h252l-102 -571q-49 -266 153 -266q47 0 95 20.5t95.5 63.5t86 121.5t57.5 183.5l80 448h254l-184 -1036h-252l31 174q-129 -197 -369 -197q-188 0 -263 129t-36 357zM471 1178l291 329h254l168 -329h-185l-137 188l-205 -188h-186z" />
<glyph unicode="&#xfc;" horiz-adv-x="1243" d="M211 463l102 573h252l-102 -571q-49 -266 153 -266q47 0 95 20.5t95.5 63.5t86 121.5t57.5 183.5l80 448h254l-184 -1036h-252l31 174q-129 -197 -369 -197q-188 0 -263 129t-36 357zM473 1343q10 63 62 105.5t118 42.5t102 -42.5t25 -105.5q-11 -62 -62.5 -103.5 t-117.5 -41.5t-102 41.5t-25 103.5zM946 1343q11 63 61.5 105.5t116.5 42.5t103 -42.5t26 -105.5q-10 -61 -63 -103t-119 -42q-65 0 -100.5 41.5t-24.5 103.5z" />
<glyph unicode="&#xfd;" horiz-adv-x="1175" d="M172 -469l305 530l-266 975h285l155 -710l398 710h282l-911 -1505h-248zM641 1178l250 329h272l-325 -329h-197z" />
<glyph unicode="&#xfe;" d="M57 -469l346 1950h252l-106 -598q77 88 177 132t208 44q153 0 258 -73.5t145 -195t13 -268.5q-42 -231 -211 -388t-394 -157q-115 0 -198.5 46.5t-124.5 132.5l-113 -625h-252zM479 510q-26 -150 45.5 -236t204.5 -86q138 0 239 94.5t126 237.5q26 139 -37 233.5 t-203 94.5q-142 0 -246 -93.5t-129 -244.5z" />
<glyph unicode="&#xff;" horiz-adv-x="1175" d="M172 -469l305 530l-266 975h285l155 -710l398 710h282l-911 -1505h-248zM432 1343q11 63 61.5 105.5t116.5 42.5t103 -42.5t26 -105.5q-12 -62 -63 -103.5t-117 -41.5t-102 41.5t-25 103.5zM905 1343q11 63 60.5 105.5t115.5 42.5t103.5 -42.5t27.5 -105.5 q-12 -62 -64 -103.5t-118 -41.5q-65 0 -100.5 41.5t-24.5 103.5z" />
<glyph unicode="&#x152;" horiz-adv-x="1957" d="M217 737q37 202 160.5 361.5t305.5 247.5t390 88h1038l-38 -211h-648l-69 -410h559l-39 -211h-559l-70 -393h647l-34 -209h-1039q-204 0 -355.5 98.5t-218 267.5t-30.5 371zM483 737q-24 -143 14.5 -264t133 -192.5t225.5 -71.5h131l178 1014h-131q-132 0 -249 -60 t-197.5 -171.5t-104.5 -254.5z" />
<glyph unicode="&#x153;" horiz-adv-x="1914" d="M158 518q20 110 83.5 211t152 173t199 114.5t220.5 42.5q188 0 317 -119q167 119 371 119q108 0 197 -34t156 -104.5t90.5 -179t-0.5 -258.5h-828q-22 -131 45 -212t228 -81q94 0 173 31.5t162 95.5l119 -141q-212 -199 -504 -199q-232 0 -360 119q-167 -119 -356 -119 q-148 0 -263.5 72t-170.5 197t-31 272zM412 518q-25 -136 46 -230.5t201 -94.5q115 0 218 77q-33 102 -11 244q23 128 99 248q-66 82 -189 82q-129 0 -234 -95t-130 -231zM1153 653h563q-2 57 -26 99t-62 64t-77.5 32t-82.5 10q-209 0 -315 -205z" />
<glyph unicode="&#x178;" horiz-adv-x="1441" d="M293 1407l2 27h293l276 -615l494 615h293l-2 -27l-695 -819l-102 -588h-262l102 586zM631 1692q10 63 59.5 102t116.5 39q66 0 101.5 -39t25.5 -102q-10 -61 -60 -99.5t-116 -38.5t-101.5 38.5t-25.5 99.5zM1104 1692q10 63 59 102t115 39q67 0 103 -39t26 -102 q-10 -61 -60.5 -99.5t-117.5 -38.5q-66 0 -100.5 38.5t-24.5 99.5z" />
<glyph unicode="&#x2c6;" horiz-adv-x="1290" d="M496 1178l286 329h256l170 -329h-186l-137 188l-205 -188h-184z" />
<glyph unicode="&#x2dc;" horiz-adv-x="1015" d="M373 1235q53 121 109.5 176t138.5 55q55 0 142 -37.5t116 -37.5q39 0 61.5 19.5t58.5 74.5l113 -37q-57 -122 -112 -176.5t-136 -54.5q-56 0 -142 37.5t-114 37.5q-39 0 -63.5 -20.5t-59.5 -73.5z" />
<glyph unicode="&#x2000;" horiz-adv-x="980" />
<glyph unicode="&#x2001;" horiz-adv-x="1960" />
<glyph unicode="&#x2002;" horiz-adv-x="980" />
<glyph unicode="&#x2003;" horiz-adv-x="1960" />
<glyph unicode="&#x2004;" horiz-adv-x="653" />
<glyph unicode="&#x2005;" horiz-adv-x="490" />
<glyph unicode="&#x2006;" horiz-adv-x="326" />
<glyph unicode="&#x2007;" horiz-adv-x="326" />
<glyph unicode="&#x2008;" horiz-adv-x="245" />
<glyph unicode="&#x2009;" horiz-adv-x="392" />
<glyph unicode="&#x200a;" horiz-adv-x="108" />
<glyph unicode="&#x2010;" horiz-adv-x="978" d="M221 526l37 215h719l-37 -215h-719z" />
<glyph unicode="&#x2011;" horiz-adv-x="978" d="M221 526l37 215h719l-37 -215h-719z" />
<glyph unicode="&#x2012;" horiz-adv-x="978" d="M221 526l37 215h719l-37 -215h-719z" />
<glyph unicode="&#x2013;" horiz-adv-x="1183" d="M223 522l37 213h920l-37 -213h-920z" />
<glyph unicode="&#x2014;" horiz-adv-x="1636" d="M223 522l37 213h1372l-37 -213h-1372z" />
<glyph unicode="&#x2018;" horiz-adv-x="516" d="M283.5 1057q1.5 23 1.5 41q26 136 111 238.5t220 142.5l35 -93q-165 -52 -190 -196q70 11 106.5 -29t28.5 -98q-11 -64 -58.5 -106t-125.5 -42q-37 0 -63.5 13.5t-38.5 34.5t-20 46t-6.5 48z" />
<glyph unicode="&#x2019;" horiz-adv-x="512" d="M291 1010q166 53 190 196q-70 -11 -106.5 27.5t-28.5 97.5q11 64 59.5 107t126.5 43q36 0 62 -13.5t38 -34.5t20 -46.5t6.5 -49t-3.5 -41.5q-24 -135 -107.5 -237.5t-217.5 -143.5z" />
<glyph unicode="&#x201a;" horiz-adv-x="524" d="M72 -180q164 52 188 196q-69 -11 -104.5 27t-30.5 98q11 64 60.5 107t127.5 43q35 0 61 -13.5t39 -34.5t21 -46.5t7 -49t-3 -41.5q-26 -135 -111 -237t-221 -143z" />
<glyph unicode="&#x201c;" horiz-adv-x="976" d="M283.5 1057q1.5 23 1.5 41q26 136 111 238.5t220 142.5l35 -93q-165 -52 -190 -196q70 11 106.5 -29t28.5 -98q-11 -64 -58.5 -106t-125.5 -42q-37 0 -63.5 13.5t-38.5 34.5t-20 46t-6.5 48zM743.5 1057q1.5 23 1.5 41q26 136 110.5 238.5t219.5 142.5l37 -93 q-165 -52 -190 -196q70 11 106.5 -29t28.5 -98q-11 -64 -59 -106t-126 -42q-37 0 -63.5 13.5t-38.5 34.5t-20 46t-6.5 48z" />
<glyph unicode="&#x201d;" horiz-adv-x="972" d="M291 1010q164 53 188 196q-70 -11 -105.5 27t-27.5 98q8 64 57 107t127 43q36 0 62.5 -13.5t39 -34.5t20.5 -46.5t6 -49t-3 -41.5q-24 -135 -107.5 -237.5t-217.5 -143.5zM752 1010q164 53 188 196q-70 -11 -105.5 27t-27.5 98q8 64 57 107t127 43q36 0 62.5 -13.5 t39 -34.5t20.5 -46.5t6 -49t-3 -41.5q-24 -135 -108.5 -237.5t-219.5 -143.5z" />
<glyph unicode="&#x201e;" horiz-adv-x="985" d="M72 -180q164 52 188 196q-69 -11 -104.5 27t-30.5 98q11 64 60.5 107t127.5 43q35 0 61 -13.5t39 -34.5t21 -46.5t7 -49t-3 -41.5q-26 -135 -109.5 -237t-219.5 -143zM532 -180q165 52 189 196q-69 -11 -104.5 27t-30.5 98q11 64 60.5 107t127.5 43q35 0 61 -13.5 t39 -34.5t21 -46.5t7 -49t-3 -41.5q-26 -135 -111 -237t-221 -143z" />
<glyph unicode="&#x2022;" horiz-adv-x="829" d="M244 514q21 109 108.5 185.5t198.5 76.5q112 0 174.5 -77t40.5 -185q-22 -109 -110 -185.5t-199 -76.5q-110 0 -171.5 76t-41.5 186z" />
<glyph unicode="&#x2026;" horiz-adv-x="1742" d="M125 139q13 72 71 119t132 47q73 0 113.5 -47.5t27.5 -118.5q-12 -69 -69.5 -115.5t-129.5 -46.5q-74 0 -116 46.5t-29 115.5zM723 139q13 72 71 119t130 47q73 0 114.5 -47.5t28.5 -118.5q-12 -69 -70.5 -115.5t-130.5 -46.5q-73 0 -114.5 47t-28.5 115zM1319 139 q13 72 71 119t132 47q73 0 113.5 -47.5t27.5 -118.5q-12 -69 -69.5 -115.5t-129.5 -46.5q-74 0 -116 46.5t-29 115.5z" />
<glyph unicode="&#x202f;" horiz-adv-x="392" />
<glyph unicode="&#x2039;" horiz-adv-x="712" d="M184 590l9 45l473 452l125 -124l-365 -351l240 -346l-168 -127z" />
<glyph unicode="&#x203a;" horiz-adv-x="710" d="M137 266l363 346l-242 351l170 124l313 -452l-8 -45l-473 -451z" />
<glyph unicode="&#x205f;" horiz-adv-x="490" />
<glyph unicode="&#x20ac;" horiz-adv-x="1406" d="M168 506l27 143h198l4 60q1 10 3.5 20.5t7 23.5t6.5 21h-197l25 146h213q90 244 290 390t484 146q194 0 346 -98l-115 -205q-51 35 -126.5 53.5t-123.5 18.5q-348 0 -491 -305h627l-76 -146h-602q-13 -39 -15 -57l-6 -68h559l-78 -143h-477q21 -139 113 -219t254 -80 q142 0 282 49l-38 -223q-144 -56 -279 -56q-149 0 -263 39.5t-186 111.5t-109.5 167t-41.5 211h-215z" />
<glyph unicode="&#x2122;" horiz-adv-x="1822" d="M309 1333l27 148h682l-27 -148h-258l-108 -602h-166l108 602h-258zM920 731l208 750h154l125 -520l309 520h162l-68 -750h-161l39 440l-256 -423h-121l-107 423l-119 -440h-165z" />
<glyph unicode="&#x25fc;" horiz-adv-x="1034" d="M0 0v1034h1034v-1034h-1034z" />
</font>
</defs>
</svg>
