<?xml version="1.0" standalone="no"?>
<!DOCTYPE svg PUBLIC "-//W3C//DTD SVG 1.1//EN" "http://www.w3.org/Graphics/SVG/1.1/DTD/svg11.dtd" >
<svg xmlns="http://www.w3.org/2000/svg" xmlns:xlink="http://www.w3.org/1999/xlink" version="1.1">
<metadata></metadata>
<defs>
<font id="filson_proregular" horiz-adv-x="1234" >
<font-face units-per-em="2048" ascent="1481" descent="-567" />
<missing-glyph horiz-adv-x="540" />
<glyph unicode="&#xfb01;" horiz-adv-x="1316" d="M61 868v156h162v74q0 96 25.5 169.5t65.5 117t97 70.5t111.5 36.5t116.5 9.5q56 0 109 -12.5t103.5 -40t89.5 -76.5t58 -115l-176 -38q-40 112 -178 112q-217 0 -217 -233v-74h725v-1024h-199v868h-526v-868h-205v868h-162z" />
<glyph unicode="&#xfb02;" horiz-adv-x="1288" d="M61 868v156h162v74q0 96 30.5 170t76.5 117t110 70t122.5 36.5t121.5 9.5q109 0 237 -20t203 -49v-1432h-198v1296q-96 31 -236 31q-36 0 -69.5 -5.5t-69.5 -21t-62.5 -40t-43.5 -66t-17 -96.5v-74h268v-156h-268v-868h-205v868h-162z" />
<glyph unicode="&#xfb03;" horiz-adv-x="2078" d="M61 868v156h162v74q0 96 25.5 169.5t65.5 117t97 70.5t111.5 36.5t116.5 9.5q81 0 157.5 -32t131.5 -93l-137 -112q-58 67 -146 67q-217 0 -217 -233v-74h557v74q0 96 25.5 169.5t65.5 117t97 70.5t111.5 36.5t116.5 9.5q56 0 109 -12.5t103.5 -40t89.5 -76.5t58 -115 l-176 -38q-40 112 -178 112q-217 0 -217 -233v-74h725v-1024h-199v868h-526v-868h-205v868h-557v-868h-205v868h-162z" />
<glyph unicode="&#xfb04;" horiz-adv-x="2050" d="M61 868v156h162v74q0 96 25.5 169.5t65.5 117t97 70.5t111.5 36.5t116.5 9.5q185 0 289 -115l-137 -112q-50 57 -146 57q-217 0 -217 -233v-74h557v74q0 96 30.5 170t76.5 117t110 70t122.5 36.5t121.5 9.5q109 0 237 -20t203 -49v-1432h-198v1296q-96 31 -236 31 q-36 0 -69.5 -5.5t-69.5 -21t-62.5 -40t-43.5 -66t-17 -96.5v-74h268v-156h-268v-868h-205v868h-557v-868h-205v868h-162z" />
<glyph horiz-adv-x="0" />
<glyph horiz-adv-x="682" />
<glyph horiz-adv-x="0" />
<glyph horiz-adv-x="0" />
<glyph unicode="&#xd;" horiz-adv-x="512" />
<glyph unicode=" "  horiz-adv-x="540" />
<glyph unicode="&#x09;" horiz-adv-x="540" />
<glyph unicode="&#xa0;" horiz-adv-x="540" />
<glyph unicode="!" horiz-adv-x="528" d="M117 127q0 63 43 107.5t106 44.5t107.5 -44.5t44.5 -107.5t-44.5 -106.5t-107.5 -43.5t-106 43.5t-43 106.5zM145 1434h234l-45 -985h-144z" />
<glyph unicode="&#x22;" horiz-adv-x="892" d="M135 1481h197l-21 -572h-155zM561 1481h197l-21 -572h-155z" />
<glyph unicode="#" horiz-adv-x="1544" d="M72 340l41 158h295l118 477h-295l41 158h291l80 301h172l-76 -301h269l77 301h175l-76 -301h289l-41 -158h-287l-117 -477h289l-43 -158h-287l-86 -340h-176l86 340h-268l-86 -340h-174l84 340h-295zM584 498h268l117 477h-271z" />
<glyph unicode="$" horiz-adv-x="1110" d="M72 358l176 48q18 -77 87.5 -133t170.5 -66v434l-64 23q-93 29 -157.5 73.5t-96 95t-44.5 96t-13 93.5q0 151 107 247.5t268 114.5v232h121v-234q145 -17 239 -99.5t121 -207.5l-168 -53q-38 159 -192 184v-415l69 -27q154 -48 239 -145t85 -207q0 -158 -107 -258 t-286 -121v-215h-121v215q-173 12 -286.5 101.5t-147.5 223.5zM328 1026q0 -26 5 -45.5t20.5 -45t51.5 -49.5t91 -46l10 -4v372q-79 -13 -128.5 -60t-49.5 -122zM627 209q94 17 145 67t51 125q0 70 -48 115.5t-138 77.5l-10 4v-389z" />
<glyph unicode="%" horiz-adv-x="1818" d="M72 1094q0 154 104 258t258 104t258.5 -104t104.5 -258q0 -152 -104.5 -255.5t-258.5 -103.5t-258 103.5t-104 255.5zM236 1094q0 -92 56 -151.5t142 -59.5q88 0 144.5 59.5t56.5 151.5q0 93 -57 154t-144 61q-86 0 -142 -61t-56 -154zM428 0l797 1434h161l-796 -1434 h-162zM1022 336q0 154 104 258t258 104t258.5 -104t104.5 -258q0 -152 -104.5 -255.5t-258.5 -103.5t-258 103.5t-104 255.5zM1186 336q0 -92 56 -151.5t142 -59.5q88 0 144.5 59.5t56.5 151.5q0 93 -57 154t-144 61q-86 0 -142 -61t-56 -154z" />
<glyph unicode="&#x26;" horiz-adv-x="1628" d="M84 375q0 278 389 442q-74 57 -121 143.5t-47 172.5q0 71 27 128.5t68.5 92.5t94.5 59t101.5 33.5t93.5 9.5q146 0 247 -93.5t101 -219.5q0 -113 -89.5 -214t-213.5 -155l277 -311l198 272h199v-18l-285 -381l101 -113q39 -39 72 -55t77 -16t90 15.5t74 43.5l68 -137 q-94 -97 -240 -97q-90 0 -154.5 34t-132.5 104l-59 67q-61 -97 -179.5 -151t-254.5 -54q-138 0 -250.5 45.5t-182 137.5t-69.5 215zM285 383q0 -104 87.5 -173t213.5 -69q191 0 319 170l-325 375q-51 -16 -99.5 -42t-94 -63t-73.5 -88.5t-28 -109.5zM506 1124 q0 -127 127 -241q107 54 160 121t53 133q0 64 -46 112.5t-124 48.5q-72 0 -121 -46t-49 -128z" />
<glyph unicode="'" horiz-adv-x="466" d="M135 1481h197l-21 -572h-155z" />
<glyph unicode="(" horiz-adv-x="643" d="M92 584q0 144 29 284t70.5 243.5t96.5 198.5t97.5 150.5t83.5 98.5l127 -78q-40 -57 -70.5 -106t-78 -143t-78.5 -184.5t-54.5 -216t-23.5 -251.5q0 -105 14.5 -207t43.5 -191t56.5 -159t69 -143.5t64 -109.5t57.5 -89l-127 -76q-41 43 -83.5 98t-97.5 150.5t-96.5 199 t-70.5 244.5t-29 287z" />
<glyph unicode=")" horiz-adv-x="643" d="M47 -319q35 53 57.5 89t64 109.5t69 143.5t56.5 159t43.5 191t14.5 207q0 126 -23.5 251.5t-54.5 216t-78.5 184.5t-78 143t-70.5 106l127 78q41 -43 83.5 -98.5t97.5 -150.5t96.5 -198.5t70.5 -243.5t29 -284q0 -146 -29 -287t-70.5 -244.5t-96.5 -199t-97.5 -150.5 t-83.5 -98z" />
<glyph unicode="*" horiz-adv-x="942" d="M88 1147l49 147l266 -102l-14 289h160l-14 -289l268 102l51 -145l-281 -78l183 -225l-125 -92l-158 239l-162 -239l-125 90l181 225z" />
<glyph unicode="+" horiz-adv-x="1122" d="M84 543v174h391v389h174v-389h389v-174h-389v-391h-174v391h-391z" />
<glyph unicode="," horiz-adv-x="522" d="M115 -193q82 27 120.5 93t38.5 135q-67 -23 -111 11.5t-44 90.5q-2 57 35.5 94t107.5 37q40 0 70 -18t44 -46t20.5 -54t6.5 -50q0 -131 -64.5 -230t-184.5 -136z" />
<glyph unicode="-" horiz-adv-x="958" d="M137 535v182h684v-182h-684z" />
<glyph unicode="." horiz-adv-x="530" d="M115 127q0 63 43 107.5t106 44.5t107.5 -44.5t44.5 -107.5t-44.5 -106.5t-107.5 -43.5t-106 43.5t-43 106.5z" />
<glyph unicode="/" horiz-adv-x="1085" d="M53 -80l778 1585h201l-780 -1585h-199z" />
<glyph unicode="0" horiz-adv-x="1447" d="M106 717q0 123 27 234.5t80 203.5t126.5 160t172 105.5t211.5 37.5q186 0 328.5 -100t216 -267.5t73.5 -373.5q0 -205 -73.5 -372t-216 -267.5t-328.5 -100.5q-141 0 -258.5 58t-195 159t-120.5 235.5t-43 287.5zM305 717q0 -156 49.5 -283.5t145.5 -203.5t223 -76 t224 76t146.5 203t49.5 284q0 158 -49.5 285t-146 203.5t-224.5 76.5q-127 0 -223 -76.5t-145.5 -204t-49.5 -284.5z" />
<glyph unicode="1" horiz-adv-x="763" d="M33 1212l475 222h100v-1434h-198v1192l-326 -145z" />
<glyph unicode="2" horiz-adv-x="1245" d="M100 1042q0 52 14.5 105t51 109.5t91 100t143.5 71.5t200 28q229 0 364.5 -120t135.5 -322q0 -64 -15 -123t-37.5 -103t-60 -91t-69.5 -79t-80 -75l-422 -375v-8q93 8 323 8h418v-168h-1028l-27 131l596 539q96 82 149.5 163.5t53.5 176.5q0 127 -82 198.5t-219 71.5 q-69 0 -123 -16t-86 -40t-52.5 -57t-28 -63.5t-7.5 -61.5h-203z" />
<glyph unicode="3" horiz-adv-x="1245" d="M72 143l116 131q93 -69 174 -92.5t205 -23.5q91 0 164.5 28.5t117.5 74.5t67.5 99.5t23.5 108.5q0 124 -93.5 205.5t-230.5 81.5q-47 0 -105.5 -15t-100.5 -53l-99 117l471 461h-651v168h961v-125l-435 -400q91 0 176 -29t154 -82.5t110.5 -138.5t41.5 -188t-38.5 -192.5 t-109.5 -156.5t-180.5 -106t-243.5 -39q-314 0 -495 166z" />
<glyph unicode="4" horiz-adv-x="1374" d="M47 385v133l834 916h123v-879h313v-170h-313v-385h-199v385h-758zM297 555h508v549z" />
<glyph unicode="5" horiz-adv-x="1230" d="M98 143l117 131q46 -46 163.5 -81t209.5 -35q181 0 273.5 90.5t92.5 230.5q0 55 -21 106.5t-61.5 94.5t-106.5 68.5t-149 25.5q-192 0 -335 -106l-142 63l45 703h858v-168h-677l-35 -424q115 112 313 112q115 0 211.5 -39.5t159.5 -106t98 -151.5t35 -178 q0 -226 -148.5 -364t-414.5 -138q-151 0 -279.5 47.5t-206.5 118.5z" />
<glyph unicode="6" horiz-adv-x="1290" d="M109 684q0 161 40.5 301t115.5 245t191 165.5t259 60.5q128 0 231 -44.5t168 -115.5l-133 -120q-40 47 -113.5 73.5t-150.5 26.5q-177 0 -291.5 -149t-114.5 -396q136 203 394 203q135 0 249 -58t184 -169t70 -252q0 -208 -145 -343t-373 -135q-270 0 -425.5 194 t-155.5 513zM334 457q0 -131 103 -215t243 -84q138 0 233 83.5t95 215.5t-95 215.5t-233 83.5q-140 0 -243 -84t-103 -215z" />
<glyph unicode="7" horiz-adv-x="1116" d="M61 1266v168h1029v-140l-717 -1294h-219l718 1266h-811z" />
<glyph unicode="8" horiz-adv-x="1347" d="M102 420q0 111 78.5 207t202.5 141q-99 43 -159 123t-60 172q0 167 144.5 280t365.5 113t365.5 -113t144.5 -280q0 -92 -60 -172t-159 -123q124 -45 202 -140.5t78 -207.5q0 -122 -72.5 -223t-204 -160.5t-294.5 -59.5q-247 0 -409.5 128.5t-162.5 314.5zM303 420 q0 -112 104 -189t267 -77t266.5 77t103.5 189q0 109 -95 184.5t-267 75.5h-16q-173 0 -268 -75t-95 -185zM365 1063q0 -95 78.5 -165.5t222.5 -70.5h14q142 0 222.5 71t80.5 165t-85 155.5t-224 61.5t-224 -61.5t-85 -155.5z" />
<glyph unicode="9" horiz-adv-x="1282" d="M84 979q0 208 145 342.5t373 134.5q270 0 421 -192.5t151 -513.5q0 -217 -69 -390t-208.5 -278t-329.5 -105q-128 0 -231 44.5t-168 115.5l133 121q40 -47 113.5 -73.5t150.5 -26.5q184 0 301 162t117 413q-29 -64 -76 -111t-101.5 -72.5t-108.5 -37.5t-109 -12 q-135 0 -249 58t-184.5 169t-70.5 252zM285 977q0 -132 94.5 -215.5t232.5 -83.5q140 0 238 83.5t98 215.5t-98 215.5t-238 83.5q-138 0 -232.5 -83.5t-94.5 -215.5z" />
<glyph unicode=":" horiz-adv-x="575" d="M137 127q0 63 43.5 107.5t106.5 44.5t107 -44.5t44 -107.5t-44 -106.5t-107 -43.5t-106.5 43.5t-43.5 106.5zM137 895q0 63 43.5 107.5t106.5 44.5t107 -44.5t44 -107.5t-44 -106.5t-107 -43.5t-106.5 43.5t-43.5 106.5z" />
<glyph unicode=";" horiz-adv-x="569" d="M135 895q0 63 43.5 107.5t106.5 44.5t107 -44.5t44 -107.5t-44 -106.5t-107 -43.5t-106.5 43.5t-43.5 106.5zM137 -193q82 27 121 93t39 135q-68 -23 -112 11.5t-44 90.5q-2 57 35.5 94t108.5 37q40 0 70 -18t44 -46t20.5 -54t6.5 -50q0 -131 -65 -230t-185 -136z" />
<glyph unicode="&#x3c;" horiz-adv-x="1173" d="M78 471v180l971 402v-179l-803 -313l803 -313v-178z" />
<glyph unicode="=" horiz-adv-x="1245" d="M145 328v174h955v-174h-955zM145 872v175h955v-175h-955z" />
<glyph unicode="&#x3e;" horiz-adv-x="1173" d="M125 70v178l803 313l-803 313v179l971 -402v-180z" />
<glyph unicode="?" horiz-adv-x="1073" d="M74 1116q0 45 14.5 90.5t48.5 91t83.5 80t126.5 56.5t171 22q133 0 240.5 -48t171 -139.5t63.5 -211.5q0 -50 -13.5 -98t-33 -85.5t-51.5 -76t-59 -64t-66 -55.5t-62.5 -45t-58 -36.5t-43.5 -27.5q-25 -16 -31 -39t-6 -81h-184q0 53 0.5 75.5t4.5 53.5t11 43t23 31.5 t36.5 33t55.5 33.5q141 83 204.5 157t63.5 175v6q0 105 -73 166t-203 61q-116 0 -182 -52t-66 -145q0 -32 8 -63h-178q-16 37 -16 92zM328 127q0 63 43 107.5t106 44.5t107.5 -44.5t44.5 -107.5t-44.5 -106.5t-107.5 -43.5t-106 43.5t-43 106.5z" />
<glyph unicode="@" horiz-adv-x="2119" d="M94 498q0 208 73.5 390.5t201 312.5t308 205t386.5 75q210 0 387.5 -67.5t301 -186.5t192.5 -288t69 -366q0 -322 -115 -471t-317 -149q-146 0 -208 70.5t-62 197.5q-42 -88 -140 -137t-202 -49q-124 0 -223 62.5t-153 168t-54 232.5q0 194 122.5 327t315.5 133 q205 0 321 -172v152h172v-717q0 -64 32.5 -97.5t78.5 -31.5q127 5 199.5 122.5t72.5 358.5q0 162 -58 301.5t-160.5 239t-250.5 156.5t-321 57q-230 0 -415.5 -109t-289.5 -298.5t-104 -421.5t96 -420t273.5 -297t404.5 -109q248 0 412 80l69 -135q-98 -46 -227 -72 t-254 -26q-274 0 -487.5 127t-330 349.5t-116.5 502.5zM711 498q0 -133 80.5 -222.5t212.5 -89.5q129 0 210.5 84.5t81.5 223.5q0 137 -82 225t-215 88q-134 0 -211 -88t-77 -221z" />
<glyph unicode="A" horiz-adv-x="1394" d="M27 0l551 1434h237l553 -1434h-207l-112 297h-701l-110 -297h-211zM410 463h577l-291 774z" />
<glyph unicode="B" horiz-adv-x="1347" d="M201 0v1434h510q208 0 340.5 -100t132.5 -269q0 -118 -69.5 -208t-205.5 -124q165 -17 254.5 -114.5t89.5 -237.5q0 -172 -131.5 -276.5t-345.5 -104.5h-575zM406 168h370q118 0 192 60t74 159q0 51 -21.5 95.5t-64.5 80.5t-116 57t-168 21h-266v-473zM406 801h223 q91 0 159.5 21t107.5 57.5t58 79.5t19 92q0 101 -76 158t-186 57h-305v-465z" />
<glyph unicode="C" horiz-adv-x="1398" d="M94 717q0 150 53.5 284t150.5 235t244.5 160.5t325.5 59.5q149 0 261 -39t212 -114l-79 -154q-74 55 -180 89t-214 34q-174 0 -304 -76t-195.5 -201t-65.5 -278t65.5 -278t195.5 -201t304 -76q108 0 214 34t180 89l79 -154q-100 -75 -212 -114.5t-261 -39.5 q-178 0 -325.5 59.5t-244.5 161t-150.5 235.5t-53.5 284z" />
<glyph unicode="D" horiz-adv-x="1490" d="M201 0v1434h456q169 0 309 -56.5t233.5 -154t144.5 -228t51 -278.5t-51 -278.5t-144.5 -228t-233.5 -154t-309 -56.5h-456zM406 168h251q160 0 281.5 74.5t184.5 198.5t63 276t-63 276t-184.5 198.5t-281.5 74.5h-251v-1098z" />
<glyph unicode="E" horiz-adv-x="1212" d="M201 0v1434h911v-168h-706v-480h616v-168h-616v-450h706v-168h-911z" />
<glyph unicode="F" horiz-adv-x="1187" d="M201 0v1434h911v-168h-706v-480h616v-168h-616v-618h-205z" />
<glyph unicode="G" horiz-adv-x="1505" d="M94 713q0 203 100 374.5t271 270t373 98.5q158 0 283 -36.5t239 -121.5l-80 -157q-73 47 -134 75.5t-119 39.5t-92.5 13.5t-96.5 2.5q-145 0 -268 -74t-195 -202t-72 -281q0 -107 36 -204.5t103.5 -176t177.5 -125.5t246 -47q189 0 338 96v293h-403v166h590v-539 q-123 -112 -263.5 -156.5t-271.5 -44.5q-162 0 -304.5 58.5t-242 158t-157.5 235t-58 284.5z" />
<glyph unicode="H" horiz-adv-x="1480" d="M201 0v1434h205v-668h669v668h205v-1434h-205v600h-669v-600h-205z" />
<glyph unicode="I" horiz-adv-x="606" d="M201 0v1434h205v-1434h-205z" />
<glyph unicode="J" horiz-adv-x="1363" d="M61 494q0 33 11.5 90.5t27.5 85.5h195q-16 -38 -25.5 -87.5t-9.5 -78.5q0 -69 20 -129t59.5 -108.5t106.5 -76.5t154 -28q189 0 286 127t97 360v785h205v-785q0 -328 -151.5 -500t-434.5 -172q-140 0 -247 44t-169.5 118.5t-93.5 164t-31 190.5z" />
<glyph unicode="K" horiz-adv-x="1300" d="M199 0v1434h204v-701l506 701h221v-23l-528 -721l268 -362q123 -172 228 -172q86 0 151 53l74 -143q-36 -44 -111.5 -66.5t-136.5 -22.5q-44 0 -85.5 11t-72.5 25t-64.5 41.5t-53 46t-47.5 54t-37.5 49.5t-32.5 48l-279 385v-637h-204z" />
<glyph unicode="L" horiz-adv-x="1091" d="M201 0v1434h205v-1266h655v-168h-860z" />
<glyph unicode="M" horiz-adv-x="1957" d="M137 0l135 1434h230l477 -1143l477 1143h230l135 -1434h-207l-98 1130l-461 -1112h-152l-461 1112l-98 -1130h-207z" />
<glyph unicode="N" horiz-adv-x="1544" d="M201 0v1434h151l785 -1057v1057h206v-1434h-151l-786 1061v-1061h-205z" />
<glyph unicode="O" horiz-adv-x="1675" d="M94 717q0 201 100 371t271 269t373 99q151 0 288.5 -58.5t237 -157.5t158.5 -236t59 -287t-59 -287t-158.5 -236.5t-237 -158t-288.5 -58.5t-289 58.5t-237.5 158t-158.5 236.5t-59 287zM303 717q0 -155 72 -283t194.5 -200t268.5 -72t268.5 72t194 200t71.5 283 t-71.5 283t-194 200t-268.5 72t-268.5 -72t-194.5 -200t-72 -283z" />
<glyph unicode="P" horiz-adv-x="1277" d="M201 0v1434h573q132 0 232 -63t150 -164.5t50 -223.5q0 -121 -51 -220t-150.5 -159.5t-230.5 -60.5h-368v-543h-205zM406 707h325q121 0 191.5 76.5t70.5 201.5q0 126 -70.5 203.5t-191.5 77.5h-325v-559z" />
<glyph unicode="Q" horiz-adv-x="1673" d="M92 717q0 201 100 371t271 269t373 99q151 0 288.5 -58.5t237 -157.5t158.5 -236t59 -287q0 -179 -80.5 -335.5t-221 -259.5t-312.5 -132q44 -205 256 -205q44 0 104 19.5t90 45.5l74 -147q-114 -88 -279 -88q-87 0 -157.5 22.5t-116.5 57t-81.5 85t-55 98t-33.5 104.5 q-186 16 -340.5 117.5t-244 265t-89.5 352.5zM301 717q0 -155 72 -283t194.5 -200t268.5 -72t268.5 72t194 200t71.5 283t-71.5 283t-194 200t-268.5 72t-268.5 -72t-194.5 -200t-72 -283z" />
<glyph unicode="R" horiz-adv-x="1402" d="M199 0v1434h598q132 0 232 -63t150 -164.5t50 -223.5q0 -164 -89.5 -281.5t-248.5 -150.5q9 -85 41 -173t94 -157t137 -69q103 0 168 65l72 -139q-95 -101 -252 -101q-96 0 -174.5 43t-126.5 105.5t-83 143.5t-50 147.5t-21 126.5h-293v-543h-204zM403 707h351 q121 0 191.5 76.5t70.5 201.5q0 126 -70.5 203.5t-191.5 77.5h-351v-559z" />
<glyph unicode="S" horiz-adv-x="1187" d="M68 336l192 49q21 -95 111.5 -160t220.5 -65q138 0 220.5 61.5t82.5 157.5q0 147 -211 225l-215 74q-332 108 -332 383q0 119 65 210.5t169 138t227 46.5q188 0 312 -93.5t157 -246.5l-184 -55q-51 211 -285 211q-107 0 -180.5 -56t-73.5 -151q0 -28 6 -50.5t23.5 -50 t57 -54t99.5 -50.5l218 -82q114 -35 194.5 -98.5t117 -136.5t36.5 -150q0 -190 -136.5 -303t-363.5 -113q-207 0 -348.5 102t-179.5 257z" />
<glyph unicode="T" horiz-adv-x="1232" d="M37 1266v168h1159v-168h-477v-1266h-205v1266h-477z" />
<glyph unicode="U" horiz-adv-x="1495" d="M180 530v904h205v-904q0 -177 103.5 -272.5t259.5 -95.5q155 0 258.5 95.5t103.5 272.5v904h205v-904q0 -131 -45 -237.5t-123.5 -174.5t-180.5 -104.5t-218 -36.5t-218.5 36.5t-180.5 104.5t-123.5 174.5t-45.5 237.5z" />
<glyph unicode="V" horiz-adv-x="1310" d="M51 1434h209l395 -1182l396 1182h209l-500 -1434h-209z" />
<glyph unicode="W" horiz-adv-x="2035" d="M63 1434h205l342 -1090l324 1042h168l323 -1042l342 1090h205l-446 -1434h-176l-332 1077l-332 -1077h-176z" />
<glyph unicode="X" horiz-adv-x="1437" d="M2 0v23l598 737l-534 651v23h225l428 -523l428 523h225v-23l-534 -651l598 -737v-23h-234l-483 596l-483 -596h-234z" />
<glyph unicode="Y" horiz-adv-x="1388" d="M49 1411v23h225l418 -670l422 670h225v-23l-542 -821v-590h-205v590z" />
<glyph unicode="Z" horiz-adv-x="1316" d="M61 0v156l873 1110h-819v168h1089v-156l-880 -1110h927v-168h-1190z" />
<glyph unicode="[" horiz-adv-x="669" d="M150 -403v1923h468v-156h-286v-1612h286v-155h-468z" />
<glyph unicode="\" horiz-adv-x="1085" d="M53 1505h201l778 -1585h-198z" />
<glyph unicode="]" horiz-adv-x="669" d="M51 -248h287v1612h-287v156h469v-1923h-469v155z" />
<glyph unicode="^" horiz-adv-x="1054" d="M94 764l359 717h149l359 -717h-187l-248 520l-247 -520h-185z" />
<glyph unicode="_" horiz-adv-x="1443" d="M0 -111h1444v-182h-1444v182z" />
<glyph unicode="`" horiz-adv-x="1028" d="M264 1481h223l179 -307h-174z" />
<glyph unicode="a" horiz-adv-x="1316" d="M82 512q0 148 62 269t179 193.5t267 72.5q239 0 371 -187v164h198v-1024h-198v164q-132 -187 -371 -187q-150 0 -267 72.5t-179 193.5t-62 269zM281 512q0 -152 89.5 -255t243.5 -103q155 0 253 101t98 257t-98 257t-253 101q-154 0 -243.5 -103t-89.5 -255z" />
<glyph unicode="b" horiz-adv-x="1318" d="M158 0v1481h198v-621q132 187 371 187q150 0 267 -72.5t179 -193.5t62 -269t-62 -269t-179 -193.5t-267 -72.5q-239 0 -371 187v-164h-198zM352 512q0 -155 99 -256.5t251 -101.5q154 0 244 103t90 255t-90 255t-244 103q-152 0 -251 -101.5t-99 -256.5z" />
<glyph unicode="c" horiz-adv-x="1081" d="M82 500q0 114 38.5 213t109.5 173.5t181 117.5t246 43q200 0 367 -125l-94 -136q-112 84 -264 84q-167 0 -276 -100.5t-109 -257.5t109 -257.5t276 -100.5q152 0 264 84l94 -136q-167 -125 -367 -125q-133 0 -242.5 41t-181.5 112t-111.5 166t-39.5 204z" />
<glyph unicode="d" horiz-adv-x="1318" d="M84 512q0 148 62 269t179 193.5t267 72.5q239 0 371 -187v621h198v-1481h-198v164q-132 -187 -371 -187q-150 0 -267 72.5t-179 193.5t-62 269zM283 512q0 -152 89.5 -255t243.5 -103q155 0 253 101t98 257t-98 257t-253 101q-154 0 -243.5 -103t-89.5 -255z" />
<glyph unicode="e" horiz-adv-x="1218" d="M80 508q0 112 41.5 211t114 171.5t175.5 114.5t220 42q82 0 158 -20.5t142.5 -65t115.5 -108.5t77.5 -156t28.5 -203h-874v-13q1 -139 103 -231q108 -96 277 -96q186 0 336 129l111 -115q-170 -191 -449 -191q-173 0 -306 73t-202 193t-69 265zM297 647h651 q-67 225 -313 225q-49 0 -95 -10.5t-93 -34.5t-86.5 -70t-63.5 -110z" />
<glyph unicode="f" horiz-adv-x="761" d="M61 868v156h162v78q0 117 29.5 199.5t81 124t107 58.5t122.5 17q145 0 225 -72t80 -186q0 -10 -2 -16q0 -20 -8 -39h-170q4 28 4 35q0 104 -127 104q-58 0 -97.5 -46.5t-39.5 -152.5v-104h268v-156h-268v-868h-205v868h-162z" />
<glyph unicode="g" horiz-adv-x="1316" d="M82 512q0 148 62 269t179 193.5t267 72.5q239 0 371 -187v164h198v-1016q0 -123 -43.5 -219t-118.5 -153.5t-169.5 -87t-202.5 -29.5q-149 0 -251.5 39t-187.5 108l80 156q149 -129 359 -129q154 0 245 86t91 248v137q-132 -187 -371 -187q-150 0 -267 72.5t-179 193.5 t-62 269zM281 512q0 -152 89.5 -255t243.5 -103q155 0 253 101t98 257t-98 257t-253 101q-154 0 -243.5 -103t-89.5 -255z" />
<glyph unicode="h" d="M158 0v1481h198v-662q32 109 123.5 168.5t220.5 59.5q85 0 155 -27.5t124.5 -83t84.5 -147t30 -211.5v-578h-199v578q0 152 -59 222t-150 70q-36 0 -75.5 -9.5t-86 -37t-83 -69.5t-61 -114.5t-24.5 -164.5v-475h-198z" />
<glyph unicode="i" horiz-adv-x="526" d="M125 1354q0 60 38.5 99.5t98.5 39.5t99.5 -39.5t39.5 -99.5t-39.5 -98.5t-99.5 -38.5t-98.5 38.5t-38.5 98.5zM164 0h198v1024h-198v-1024z" />
<glyph unicode="j" horiz-adv-x="602" d="M-184 -221q0 -115 79.5 -187.5t223.5 -72.5q84 0 154.5 30t117.5 97t47 159v1219h-198v-1208q0 -60 -34.5 -91.5t-88.5 -31.5q-51 0 -85 29t-34 83q0 49 16 84h-180q-13 -39 -16 -71q-2 -12 -2 -39zM201 1354q0 60 38.5 99.5t98.5 39.5t99.5 -39.5t39.5 -99.5 t-39.5 -98.5t-99.5 -38.5t-98.5 38.5t-38.5 98.5z" />
<glyph unicode="k" horiz-adv-x="1103" d="M156 0v1481h198v-887l353 430h221v-23l-375 -448l174 -264q6 -8 21 -29.5t20 -28t18 -22.5t19.5 -21t19.5 -14.5t24 -12.5t26 -6t32 -3q87 0 133 38l68 -133q-80 -80 -223 -80q-36 0 -68.5 6.5t-57 15.5t-48.5 25.5t-39.5 30t-34.5 36t-28 35.5t-25.5 36.5t-22.5 32.5 l-207 331v-526h-198z" />
<glyph unicode="l" horiz-adv-x="526" d="M164 0v1481h198v-1481h-198z" />
<glyph unicode="m" horiz-adv-x="1896" d="M158 0v1024h198v-205q31 110 120 169t208 59q229 0 326 -216q98 216 348 216q190 0 292.5 -114.5t102.5 -354.5v-578h-199v578q0 152 -58.5 222t-149.5 70q-33 0 -66.5 -8t-74 -33t-71.5 -64.5t-53.5 -108.5t-25.5 -158v-498h-199v578q0 152 -59 222t-150 70 q-35 0 -71 -9.5t-77 -37t-71.5 -70t-51 -114.5t-20.5 -164v-475h-198z" />
<glyph unicode="n" horiz-adv-x="1236" d="M158 0v1024h198v-205q32 109 123.5 168.5t220.5 59.5q85 0 155 -27.5t124.5 -83t84.5 -147t30 -211.5v-578h-199v578q0 152 -59 222t-150 70q-36 0 -75.5 -9.5t-86 -37t-83 -69.5t-61 -114.5t-24.5 -164.5v-475h-198z" />
<glyph unicode="o" d="M80 512q0 145 72 268.5t195.5 195t268.5 71.5q146 0 270 -71.5t196.5 -195t72.5 -268.5t-72.5 -268.5t-196.5 -195t-270 -71.5q-109 0 -208 42t-171 113.5t-114.5 171t-42.5 208.5zM279 510q0 -148 98.5 -252t238.5 -104q141 0 240.5 104t99.5 252t-99.5 254t-240.5 106 q-139 0 -238 -106t-99 -254z" />
<glyph unicode="p" horiz-adv-x="1316" d="M158 -459v1483h198v-164q132 187 371 187q150 0 267 -72.5t179 -193.5t62 -269t-62 -269t-179 -193.5t-267 -72.5q-239 0 -371 187v-623h-198zM352 512q0 -155 99 -256.5t251 -101.5q154 0 244 103t90 255t-90 255t-244 103q-152 0 -251 -101.5t-99 -256.5z" />
<glyph unicode="q" horiz-adv-x="1316" d="M82 512q0 148 62 269t179 193.5t267 72.5q239 0 371 -187v164h198v-1483h-198v623q-132 -187 -371 -187q-150 0 -267 72.5t-179 193.5t-62 269zM281 512q0 -152 89.5 -255t243.5 -103q155 0 253 101t98 257t-98 257t-253 101q-154 0 -243.5 -103t-89.5 -255z" />
<glyph unicode="r" horiz-adv-x="749" d="M158 0v1024h198v-231q26 120 101 187t174 67q43 0 94 -23v-195q-49 27 -109 27q-18 0 -36 -3t-45 -14.5t-50 -30.5t-47.5 -54.5t-42 -83.5t-28.5 -121t-11 -162v-387h-198z" />
<glyph unicode="s" horiz-adv-x="903" d="M59 246l177 43q19 -62 81 -102t140 -40q77 0 126.5 40t49.5 100q0 50 -33.5 78.5t-95.5 50.5l-137 47q-252 75 -252 278q0 131 94 218.5t244 87.5q117 0 211 -58t131 -186l-177 -39q-41 113 -159 113q-68 0 -110 -37.5t-42 -94.5q0 -46 33 -73.5t90 -48.5l148 -50 q245 -74 245 -288q0 -141 -106.5 -224.5t-261.5 -83.5q-141 0 -250.5 71t-145.5 198z" />
<glyph unicode="t" horiz-adv-x="858" d="M39 868v156h168l45 295h154v-295h325v-156h-325v-559q0 -81 33.5 -119t88.5 -38q51 0 88 29t37 83q0 49 -16 84h174q13 -38 16 -69q2 -14 2 -41q0 -115 -79.5 -188t-223.5 -73q-64 0 -118.5 18t-101 56.5t-73 108.5t-26.5 164v544h-168z" />
<glyph unicode="u" d="M141 446v578h199v-578q0 -152 59 -222t150 -70q36 0 75.5 9.5t86 37t83 69.5t61 114.5t24.5 164.5v475h198v-1024h-198v205q-32 -109 -123.5 -168.5t-220.5 -59.5q-85 0 -155 27.5t-124.5 83t-84.5 147t-30 211.5z" />
<glyph unicode="v" horiz-adv-x="1110" d="M47 1024h209l299 -805l299 805h209l-395 -1024h-226z" />
<glyph unicode="w" horiz-adv-x="1683" d="M51 1024h207l266 -758l234 727h168l233 -727l266 758h207l-370 -1024h-189l-231 713l-232 -713h-188z" />
<glyph unicode="x" horiz-adv-x="1179" d="M16 0l441 530l-412 494h223l322 -379l321 379h224l-412 -494l440 -530h-235l-338 408l-338 -408h-236z" />
<glyph unicode="y" horiz-adv-x="1134" d="M37 1024h227l314 -764l290 764h232l-629 -1483h-192l190 494z" />
<glyph unicode="z" horiz-adv-x="1140" d="M61 0v125l693 739h-648v160h926v-125l-692 -739h737l-2 -160h-1014z" />
<glyph unicode="{" horiz-adv-x="659" d="M84 504v106l104 19q49 10 67.5 29.5t18.5 46.5q0 6 -4 34q-12 55 -47 156.5t-60.5 193t-25.5 160.5q0 134 86.5 202.5t212.5 68.5q40 0 150 -13v-137q-68 8 -131 8q-64 0 -95.5 -35t-31.5 -112q0 -56 19 -125.5t41.5 -123.5t41.5 -118.5t19 -111.5q0 -68 -34.5 -122.5 t-99.5 -64.5v-8v-8q65 -10 99.5 -64.5t34.5 -122.5q0 -47 -19 -111.5t-41.5 -118.5t-41.5 -123.5t-19 -125.5q0 -77 31.5 -112t95.5 -35q63 0 131 8v-137q-110 -13 -150 -13q-127 0 -213 69t-86 202q0 92 62.5 281t70.5 229q4 28 4 35q0 27 -18 46t-68 29z" />
<glyph unicode="|" horiz-adv-x="464" d="M150 -459v2026h165v-2026h-165z" />
<glyph unicode="}" horiz-adv-x="659" d="M74 -256q68 -8 131 -8q64 0 95.5 35t31.5 112q0 56 -19 125.5t-41.5 123.5t-41.5 118.5t-19 111.5q0 68 34 122.5t99 64.5v8v8q-65 10 -99 64.5t-34 122.5q0 47 19 111.5t41.5 118.5t41.5 123.5t19 125.5q0 77 -31.5 112t-95.5 35q-63 0 -131 -8v137q111 13 149 13 q126 0 212.5 -68.5t86.5 -202.5q0 -69 -25.5 -160.5t-60.5 -193t-47 -156.5q-4 -28 -4 -34q0 -27 18.5 -46.5t67.5 -29.5l104 -19v-106l-104 -19q-50 -10 -68 -29t-18 -46q0 -7 4 -35q8 -40 70.5 -229t62.5 -281q0 -133 -86 -202t-213 -69q-39 0 -149 13v137z" />
<glyph unicode="~" horiz-adv-x="1269" d="M135 606q25 90 98.5 151.5t178.5 61.5q60 0 124.5 -28.5t111 -62.5t102 -62.5t100.5 -28.5q126 0 184 149l105 -118q-31 -100 -105.5 -159.5t-175.5 -59.5q-50 0 -98.5 18.5t-88 45.5t-78.5 54t-84.5 45.5t-90.5 18.5q-59 0 -109 -39t-73 -109z" />
<glyph unicode="&#xa1;" horiz-adv-x="503" d="M104 897q0 63 43.5 106.5t106.5 43.5t107.5 -43.5t44.5 -106.5t-44.5 -107.5t-107.5 -44.5t-106.5 44.5t-43.5 107.5zM133 -410h234l-45 985h-144z" />
<glyph unicode="&#xa2;" horiz-adv-x="1134" d="M96 500q0 111 36.5 208t104.5 171.5t173.5 119t234.5 48.5l37 194h117l-37 -203q154 -26 276 -116l-94 -136q-92 67 -213 80l-129 -706q38 -6 78 -6q152 0 264 84l94 -136q-167 -125 -366 -125q-54 0 -103 9l-37 -209h-116l41 231q-171 53 -266 185.5t-95 306.5zM295 512 q0 -109 51.5 -190.5t145.5 -126.5l120 671q-141 -21 -229 -117t-88 -237z" />
<glyph unicode="&#xa3;" horiz-adv-x="1302" d="M82 0v168q74 0 130 11t91 32t57.5 44.5t32.5 57t13.5 60.5t3.5 63q0 62 -29 162h-258v119h215q-31 76 -47 119t-31.5 106.5t-15.5 114.5q0 120 63.5 211.5t171 139.5t240.5 48q94 0 171.5 -21.5t128 -56.5t85.5 -81t50 -93.5t15 -95.5h-196q0 79 -65 127.5t-179 48.5 q-130 0 -203 -61t-73 -166q0 -19 1 -37t5.5 -40t6.5 -35.5t10 -39.5t10.5 -35.5t13 -40t12.5 -35.5t15 -40t14 -37h389v-119h-348q30 -98 30 -172q0 -201 -149 -258v-6q59 6 285 6h462v-168h-1128z" />
<glyph unicode="&#xa4;" horiz-adv-x="1081" d="M119 365l102 100q-59 89 -59 205q0 104 55 194l-98 99l121 120l96 -96q91 60 205 60q113 0 204 -60l97 96l121 -120l-99 -99q56 -91 56 -194q0 -114 -60 -205l103 -100l-121 -121l-107 102q-89 -53 -194 -53q-106 0 -195 53l-106 -102zM324 668q0 -93 64 -160.5 t153 -67.5t153 67.5t64 160.5q0 94 -64 161.5t-153 67.5t-153 -67.5t-64 -161.5z" />
<glyph unicode="&#xa5;" horiz-adv-x="1439" d="M68 1423v11h233l418 -670l422 670h233v-11l-463 -698h306v-123h-386l-8 -12v-115h394v-123h-394v-352h-205v352h-397v123h397v115l-8 12h-389v123h307z" />
<glyph unicode="&#xa6;" horiz-adv-x="489" d="M162 397h166v-856h-166v856zM162 713v856h166v-856h-166z" />
<glyph unicode="&#xa7;" horiz-adv-x="1210" d="M88 -150l72 140q208 -156 448 -156q146 0 219.5 50t73.5 132q0 37 -20.5 68t-55 52.5t-70.5 35t-77 23.5l-201 51q-98 26 -168 65.5t-105.5 84.5t-51 86t-15.5 83q0 92 56 165.5t155 115.5q-116 56 -163.5 130.5t-47.5 149.5q0 98 63.5 174t169 116t232.5 40 q246 0 434 -102l-78 -150q-101 52 -180.5 70t-163.5 18q-127 0 -199.5 -40.5t-72.5 -125.5q0 -45 43 -90.5t152 -74.5l194 -50q187 -46 281 -122t94 -199q0 -87 -51.5 -166t-143.5 -133q195 -89 195 -262q0 -155 -133 -257t-367 -102q-170 0 -304.5 50.5t-213.5 129.5z M344 588q0 -132 139 -164l238 -64q84 23 131 76.5t49 122.5q0 112 -119 152l-241 61q-90 -31 -143.5 -78.5t-53.5 -105.5z" />
<glyph unicode="&#xa8;" horiz-adv-x="1226" d="M266 1327q0 55 36.5 92t90.5 37q55 0 92 -37t37 -92q0 -54 -37 -90.5t-92 -36.5q-54 0 -90.5 36.5t-36.5 90.5zM705 1327q0 55 36 92t90 37q56 0 93 -37t37 -92q0 -54 -37.5 -90.5t-92.5 -36.5q-54 0 -90 36.5t-36 90.5z" />
<glyph unicode="&#xa9;" horiz-adv-x="1650" d="M102 717q0 151 56 287.5t151.5 235.5t230 157.5t285.5 58.5t285.5 -58.5t230 -157.5t151.5 -235.5t56 -287.5q0 -202 -94.5 -371.5t-261 -269t-367.5 -99.5t-367.5 99.5t-261 269t-94.5 371.5zM225 717q0 -168 79 -309.5t217 -224.5t304 -83t304 83t217 224.5t79 309.5 t-79 309.5t-217 224t-304 82.5t-304 -82.5t-217 -224t-79 -309.5zM436 715q0 161 118 273t300 112q77 0 128.5 -21.5t125.5 -70.5l-72 -107q-51 30 -90 43.5t-94 13.5q-67 0 -117.5 -22t-78.5 -58t-42 -77t-14 -84t14 -84t42 -77.5t78.5 -58.5t117.5 -22q55 0 94 13.5 t90 43.5l72 -106q-50 -33 -79 -49.5t-75 -29.5t-100 -13q-181 0 -299.5 112t-118.5 269z" />
<glyph unicode="&#xaa;" horiz-adv-x="1030" d="M150 1100q0 148 92 249t241 101q142 0 222 -102v86h153v-674h-153v90q-40 -48 -103 -76.5t-125 -28.5q-141 0 -234 103t-93 252zM162 444v125h688v-125h-688zM303 1100q0 -93 55 -154t146 -61q88 0 143 57t55 154q0 94 -55.5 154.5t-146.5 60.5q-93 0 -145 -60t-52 -151z " />
<glyph unicode="&#xab;" horiz-adv-x="1130" d="M92 594v33l381 436l121 -94l-311 -359l311 -356l-121 -94zM522 594v33l381 436l121 -94l-311 -359l311 -356l-121 -94z" />
<glyph unicode="&#xac;" horiz-adv-x="1267" d="M125 762v182h987l-2 -536h-176v354h-809z" />
<glyph unicode="&#xad;" horiz-adv-x="1173" d="M160 604v182h854v-182h-854z" />
<glyph unicode="&#xae;" horiz-adv-x="1650" d="M102 717q0 151 56 287.5t151.5 235.5t230 157.5t285.5 58.5t285.5 -58.5t230 -157.5t151.5 -235.5t56 -287.5q0 -202 -94.5 -371.5t-261 -269t-367.5 -99.5t-367.5 99.5t-261 269t-94.5 371.5zM225 717q0 -168 79 -309.5t217 -224.5t304 -83t304 83t217 224.5t79 309.5 t-79 309.5t-217 224t-304 82.5t-304 -82.5t-217 -224t-79 -309.5zM590 358v734h297q105 0 167 -69.5t62 -170.5q0 -80 -39.5 -136t-113.5 -79l159 -279h-170l-129 269h-86v-269h-147zM737 745h129q46 0 72.5 29.5t26.5 77.5q0 50 -27 85.5t-72 35.5h-129v-228z" />
<glyph unicode="&#xaf;" horiz-adv-x="1103" d="M266 1235v156h572v-156h-572z" />
<glyph unicode="&#xb0;" horiz-adv-x="872" d="M88 1133q0 143 103 245.5t245 102.5t245 -102.5t103 -245.5q0 -142 -102.5 -243.5t-245.5 -101.5t-245.5 101.5t-102.5 243.5zM242 1133q0 -85 57 -145t137 -60q84 0 140.5 59t56.5 146q0 86 -57.5 148t-139.5 62q-80 0 -137 -62t-57 -148z" />
<glyph unicode="&#xb1;" horiz-adv-x="1261" d="M154 160v168h954v-168h-954zM154 774v174h391v314h174v-314h389v-174h-389v-315h-174v315h-391z" />
<glyph unicode="&#xb2;" horiz-adv-x="684" d="M61 1432q0 37 14.5 74t44.5 72.5t86.5 58t129.5 22.5q118 0 186 -66t68 -163q0 -75 -32.5 -130.5t-94.5 -109.5l-189 -156q22 0 52 0.5t52.5 1t24.5 0.5h226v-108h-551l-15 78l308 264q88 77 88 157q0 56 -33 85.5t-90 29.5q-68 0 -100.5 -34t-32.5 -76h-142z" />
<glyph unicode="&#xb3;" horiz-adv-x="669" d="M49 1008l72 88q39 -36 91 -55t99 -19q73 0 116.5 39t43.5 96q0 60 -45.5 101.5t-106.5 41.5q-63 0 -104 -24l-55 67l227 205h-313v101h510v-72l-209 -193q104 -10 165.5 -74t61.5 -157q0 -104 -78 -172t-215 -68q-154 0 -260 95z" />
<glyph unicode="&#xb4;" horiz-adv-x="1028" d="M264 1174l178 307h224l-228 -307h-174z" />
<glyph unicode="&#xb5;" horiz-adv-x="1222" d="M143 -305v1329h199v-625q0 -64 18.5 -113t49 -77t66.5 -41.5t75 -13.5q36 0 75.5 9.5t86 37t83 69.5t61 114.5t24.5 164.5v475h198v-1024h-198v205q-32 -109 -123.5 -168.5t-220.5 -59.5q-111 0 -193 43v-325h-201z" />
<glyph unicode="&#xb6;" horiz-adv-x="1335" d="M72 1098q0 140 97 238t237 98h325v-19q-37 -29 -57.5 -67.5t-20.5 -108.5v-1526h-153v1051h-94q-141 0 -237.5 96.5t-96.5 237.5zM764 -287v1504q0 117 72 178t182 61q120 0 186 -60.5t66 -156.5q0 -23 -2 -33q-3 -40 -13 -59h-145q12 23 12 70q0 45 -30 69.5t-72 24.5 q-45 0 -73.5 -26t-28.5 -77v-1495h-154z" />
<glyph unicode="&#xb7;" horiz-adv-x="571" d="M135 565q0 63 43.5 107.5t106.5 44.5t107 -44.5t44 -107.5t-44 -106t-107 -43t-106.5 43t-43.5 106z" />
<glyph unicode="&#xb8;" horiz-adv-x="931" d="M205 -238l88 50q26 -57 70 -89t98 -32q47 0 84 34t37 91q0 42 -22 97t-66 105v17h84q149 -111 149 -260q0 -59 -24 -105t-63 -73t-83.5 -40.5t-89.5 -13.5q-97 0 -167.5 61.5t-94.5 157.5z" />
<glyph unicode="&#xb9;" horiz-adv-x="434" d="M25 1532l247 117h72v-723h-135v573l-152 -67z" />
<glyph unicode="&#xba;" horiz-adv-x="1001" d="M147 1092q0 146 103.5 249t249.5 103q147 0 250.5 -103.5t103.5 -248.5q0 -146 -103 -249.5t-251 -103.5q-146 0 -249.5 103.5t-103.5 249.5zM158 444v125h686v-125h-686zM301 1090q0 -87 58 -149t141 -62t141.5 62t58.5 149q0 88 -58.5 151.5t-141.5 63.5t-141 -63.5 t-58 -151.5z" />
<glyph unicode="&#xbb;" horiz-adv-x="1130" d="M106 254l312 356l-312 359l121 94l381 -436v-33l-381 -434zM537 254l311 356l-311 359l120 94l381 -436v-33l-381 -434z" />
<glyph unicode="&#xbc;" horiz-adv-x="1681" d="M68 1317l247 117h72v-723h-135v573l-152 -67zM205 -80l1118 1585h145l-1120 -1585h-143zM971 190v72l395 461h88v-434h148v-99h-148v-190h-131v190h-352zM1112 289h211v233z" />
<glyph unicode="&#xbd;" horiz-adv-x="1742" d="M68 1317l247 117h72v-723h-135v573l-152 -67zM205 -80l1118 1585h145l-1120 -1585h-143zM1094 504q0 37 14.5 74t44.5 72.5t86 58t129 22.5q118 0 186 -66t68 -163q0 -75 -32.5 -130.5t-94.5 -109.5l-188 -156q22 0 52 1t52.5 1.5t24.5 0.5h225v-109h-551l-14 78l307 264 q88 77 88 158q0 56 -33 85t-90 29q-68 0 -100.5 -34t-32.5 -76h-141z" />
<glyph unicode="&#xbe;" horiz-adv-x="1734" d="M84 793l72 88q39 -36 91 -55t99 -19q73 0 116.5 39t43.5 96q0 60 -45.5 101.5t-106.5 41.5q-63 0 -104 -24l-55 67l227 205h-313v101h509v-72l-208 -193q104 -10 165.5 -74t61.5 -157q0 -104 -78 -172t-215 -68q-154 0 -260 95zM252 -80l1118 1585h146l-1121 -1585h-143z M1032 190v72l395 461h89v-434h147v-99h-147v-190h-132v190h-352zM1174 289h210v233z" />
<glyph unicode="&#xbf;" horiz-adv-x="1052" d="M68 -33q0 50 13.5 98t33 85.5t51.5 76t59 64t66 55.5t62.5 45t58 36.5t43.5 27.5q25 16 31 39t6 81h184q0 -53 -0.5 -75.5t-4.5 -53.5t-11 -43t-23 -31.5t-36.5 -33t-55.5 -33.5q-142 -85 -205.5 -157.5t-63.5 -174.5v-6q0 -105 73.5 -166t203.5 -61q116 0 182 52t66 145 q0 32 -8 63h178q16 -37 16 -92q0 -45 -14.5 -90.5t-48.5 -91t-83.5 -80t-126.5 -56.5t-171 -22q-133 0 -240.5 48t-171 139.5t-63.5 211.5zM432 897q0 63 44.5 106.5t107.5 43.5t106 -43.5t43 -106.5t-43 -107.5t-106 -44.5t-107.5 44.5t-44.5 107.5z" />
<glyph unicode="&#xc0;" horiz-adv-x="1394" d="M27 0h211l110 297h701l112 -297h207l-553 1434h-237zM410 463l286 774l291 -774h-577zM455 1851h211l159 -284h-170z" />
<glyph unicode="&#xc1;" horiz-adv-x="1394" d="M27 0h211l110 297h701l112 -297h207l-553 1434h-237zM410 463l286 774l291 -774h-577zM565 1567l160 284h211l-201 -284h-170z" />
<glyph unicode="&#xc2;" horiz-adv-x="1394" d="M27 0h211l110 297h701l112 -297h207l-553 1434h-237zM369 1567l223 284h209l223 -284h-156l-172 176l-172 -176h-155zM410 463l286 774l291 -774h-577z" />
<glyph unicode="&#xc3;" horiz-adv-x="1394" d="M27 0h211l110 297h701l112 -297h207l-553 1434h-237zM373 1616q29 115 70.5 164t109.5 49q47 0 136.5 -41t119.5 -41q35 0 54.5 21t43.5 79l90 -26q-29 -115 -70.5 -164t-109.5 -49q-47 0 -136.5 41t-119.5 41q-35 0 -54 -21t-44 -80zM410 463l286 774l291 -774h-577z " />
<glyph unicode="&#xc4;" horiz-adv-x="1394" d="M27 0h211l110 297h701l112 -297h207l-553 1434h-237zM348 1694q0 55 36.5 92t90.5 37q55 0 92 -36.5t37 -92.5q0 -54 -37 -90.5t-92 -36.5q-54 0 -90.5 36.5t-36.5 90.5zM410 463l286 774l291 -774h-577zM786 1694q0 55 36.5 92t90.5 37q55 0 92 -36.5t37 -92.5 q0 -54 -37 -90.5t-92 -36.5q-54 0 -90.5 36.5t-36.5 90.5z" />
<glyph unicode="&#xc5;" horiz-adv-x="1394" d="M27 0h211l110 297h701l112 -297h207l-553 1434h-237zM410 463l286 774l291 -774h-577zM481 1737q0 91 61.5 149t153.5 58q93 0 155 -58t62 -149q0 -90 -62 -147.5t-155 -57.5q-92 0 -153.5 57.5t-61.5 147.5zM584 1737q0 -47 32.5 -80t79.5 -33t80 33t33 80t-32.5 78.5 t-80.5 31.5q-47 0 -79.5 -31.5t-32.5 -78.5z" />
<glyph unicode="&#xc6;" horiz-adv-x="1898" d="M-12 0l774 1434h1032v-168h-674v-502h606v-168h-606v-428h674v-168h-879v598h-393l-313 -598h-221zM610 764h305v502h-41z" />
<glyph unicode="&#xc7;" horiz-adv-x="1398" d="M94 717q0 150 53.5 284t150.5 235t244.5 160.5t325.5 59.5q149 0 261 -39t212 -114l-79 -154q-74 55 -180 89t-214 34q-174 0 -304 -76t-195.5 -201t-65.5 -278t65.5 -278t195.5 -201t304 -76q108 0 214 34t180 89l79 -154q-100 -75 -212 -114.5t-261 -39.5h-12 q86 -94 86 -202q0 -59 -24 -105t-63 -73t-83.5 -40.5t-89.5 -13.5q-97 0 -167.5 61.5t-94.5 157.5l88 50q26 -57 70 -89t98 -32q47 0 84 34t37 91q0 86 -64 172q-148 20 -269.5 86.5t-202 164t-124 220.5t-43.5 258z" />
<glyph unicode="&#xc8;" horiz-adv-x="1212" d="M201 0v1434h911v-168h-706v-480h616v-168h-616v-450h706v-168h-911zM401 1851h211l160 -284h-170z" />
<glyph unicode="&#xc9;" horiz-adv-x="1212" d="M201 0v1434h911v-168h-706v-480h616v-168h-616v-450h706v-168h-911zM522 1567l160 284h211l-201 -284h-170z" />
<glyph unicode="&#xca;" horiz-adv-x="1212" d="M201 0v1434h911v-168h-706v-480h616v-168h-616v-450h706v-168h-911zM299 1567l223 284h209l223 -284h-155l-172 176l-172 -176h-156z" />
<glyph unicode="&#xcb;" horiz-adv-x="1212" d="M201 0v1434h911v-168h-706v-480h616v-168h-616v-450h706v-168h-911zM279 1694q0 55 36.5 92t90.5 37q56 0 92.5 -36.5t36.5 -92.5q0 -54 -37 -90.5t-92 -36.5q-54 0 -90.5 36.5t-36.5 90.5zM717 1694q0 55 36.5 92t90.5 37q56 0 92.5 -36.5t36.5 -92.5q0 -54 -37 -90.5 t-92 -36.5q-54 0 -90.5 36.5t-36.5 90.5z" />
<glyph unicode="&#xcc;" horiz-adv-x="606" d="M45 1851h211l160 -284h-170zM201 0h205v1434h-205v-1434z" />
<glyph unicode="&#xcd;" horiz-adv-x="606" d="M190 1567l160 284h211l-201 -284h-170zM201 0h205v1434h-205v-1434z" />
<glyph unicode="&#xce;" horiz-adv-x="606" d="M-23 1567l224 284h209l223 -284h-156l-172 176l-172 -176h-156zM201 0h205v1434h-205v-1434z" />
<glyph unicode="&#xcf;" horiz-adv-x="606" d="M-43 1694q0 55 36.5 92t90.5 37q56 0 92.5 -36.5t36.5 -92.5q0 -54 -37 -90.5t-92 -36.5q-54 0 -90.5 36.5t-36.5 90.5zM201 0h205v1434h-205v-1434zM395 1694q0 55 36.5 92t90.5 37q56 0 92.5 -36.5t36.5 -92.5q0 -54 -37 -90.5t-92 -36.5q-54 0 -90.5 36.5t-36.5 90.5z " />
<glyph unicode="&#xd0;" horiz-adv-x="1492" d="M43 643v143h160v648h456q169 0 309 -56.5t233.5 -154t144.5 -228t51 -278.5t-51 -278.5t-144.5 -228t-233.5 -154t-309 -56.5h-456v643h-160zM408 168h251q160 0 281.5 74.5t184.5 198.5t63 276t-63 276t-184.5 198.5t-281.5 74.5h-251v-480h331v-143h-331v-475z" />
<glyph unicode="&#xd1;" horiz-adv-x="1544" d="M201 0h205v1061l786 -1061h151v1434h-206v-1057l-785 1057h-151v-1434zM459 1616q29 115 70.5 164t109.5 49q47 0 136.5 -41t119.5 -41q35 0 54.5 21t43.5 79l90 -26q-29 -115 -70.5 -164t-109.5 -49q-47 0 -136.5 41t-119.5 41q-35 0 -54 -21t-44 -80z" />
<glyph unicode="&#xd2;" horiz-adv-x="1675" d="M94 717q0 201 100 371t271 269t373 99q151 0 288.5 -58.5t237 -157.5t158.5 -236t59 -287t-59 -287t-158.5 -236.5t-237 -158t-288.5 -58.5t-289 58.5t-237.5 158t-158.5 236.5t-59 287zM303 717q0 -155 72 -283t194.5 -200t268.5 -72t268.5 72t194 200t71.5 283 t-71.5 283t-194 200t-268.5 72t-268.5 -72t-194.5 -200t-72 -283zM555 1851h211l160 -284h-170z" />
<glyph unicode="&#xd3;" horiz-adv-x="1675" d="M94 717q0 201 100 371t271 269t373 99q151 0 288.5 -58.5t237 -157.5t158.5 -236t59 -287t-59 -287t-158.5 -236.5t-237 -158t-288.5 -58.5t-289 58.5t-237.5 158t-158.5 236.5t-59 287zM303 717q0 -155 72 -283t194.5 -200t268.5 -72t268.5 72t194 200t71.5 283 t-71.5 283t-194 200t-268.5 72t-268.5 -72t-194.5 -200t-72 -283zM739 1567l160 284h211l-201 -284h-170z" />
<glyph unicode="&#xd4;" horiz-adv-x="1675" d="M94 717q0 201 100 371t271 269t373 99q151 0 288.5 -58.5t237 -157.5t158.5 -236t59 -287t-59 -287t-158.5 -236.5t-237 -158t-288.5 -58.5t-289 58.5t-237.5 158t-158.5 236.5t-59 287zM303 717q0 -155 72 -283t194.5 -200t268.5 -72t268.5 72t194 200t71.5 283 t-71.5 283t-194 200t-268.5 72t-268.5 -72t-194.5 -200t-72 -283zM510 1567l223 284h209l223 -284h-155l-172 176l-172 -176h-156z" />
<glyph unicode="&#xd5;" horiz-adv-x="1675" d="M94 717q0 201 100 371t271 269t373 99q151 0 288.5 -58.5t237 -157.5t158.5 -236t59 -287t-59 -287t-158.5 -236.5t-237 -158t-288.5 -58.5t-289 58.5t-237.5 158t-158.5 236.5t-59 287zM303 717q0 -155 72 -283t194.5 -200t268.5 -72t268.5 72t194 200t71.5 283 t-71.5 283t-194 200t-268.5 72t-268.5 -72t-194.5 -200t-72 -283zM526 1616q29 115 71 164t110 49q47 0 136.5 -41t119.5 -41q35 0 54.5 21t43.5 79l90 -26q-29 -115 -70.5 -164t-109.5 -49q-47 0 -136.5 41t-119.5 41q-35 0 -55 -21.5t-44 -79.5z" />
<glyph unicode="&#xd6;" horiz-adv-x="1675" d="M94 717q0 201 100 371t271 269t373 99q151 0 288.5 -58.5t237 -157.5t158.5 -236t59 -287t-59 -287t-158.5 -236.5t-237 -158t-288.5 -58.5t-289 58.5t-237.5 158t-158.5 236.5t-59 287zM303 717q0 -155 72 -283t194.5 -200t268.5 -72t268.5 72t194 200t71.5 283 t-71.5 283t-194 200t-268.5 72t-268.5 -72t-194.5 -200t-72 -283zM489 1694q0 55 36.5 92t90.5 37q56 0 92.5 -36.5t36.5 -92.5q0 -54 -37 -90.5t-92 -36.5q-54 0 -90.5 36.5t-36.5 90.5zM928 1694q0 55 36.5 92t90.5 37q55 0 92 -36.5t37 -92.5q0 -54 -37 -90.5t-92 -36.5 q-54 0 -90.5 36.5t-36.5 90.5z" />
<glyph unicode="&#xd7;" horiz-adv-x="1056" d="M115 340l291 291l-291 289l125 122l288 -288l289 288l125 -122l-291 -289l291 -291l-123 -125l-291 293l-290 -293z" />
<glyph unicode="&#xd8;" horiz-adv-x="1675" d="M94 717q0 201 100 371t271 269t373 99q193 0 362 -94l109 160l129 -88l-111 -162q119 -105 186.5 -248.5t67.5 -306.5q0 -150 -59 -287t-158.5 -236.5t-237 -158t-288.5 -58.5q-181 0 -330 76l-96 -141l-129 88l92 137q-132 105 -206.5 255t-74.5 325zM303 717 q0 -127 47 -235.5t133 -184.5l611 907q-120 68 -256 68q-146 0 -268.5 -72t-194.5 -200t-72 -283zM614 211q107 -49 224 -49q146 0 268.5 72t194 200t71.5 283q0 235 -153 391z" />
<glyph unicode="&#xd9;" horiz-adv-x="1495" d="M180 530v904h205v-904q0 -177 103.5 -272.5t259.5 -95.5q155 0 258.5 95.5t103.5 272.5v904h205v-904q0 -131 -45 -237.5t-123.5 -174.5t-180.5 -104.5t-218 -36.5t-218.5 36.5t-180.5 104.5t-123.5 174.5t-45.5 237.5zM492 1851h210l160 -284h-170z" />
<glyph unicode="&#xda;" horiz-adv-x="1495" d="M180 530v904h205v-904q0 -177 103.5 -272.5t259.5 -95.5q155 0 258.5 95.5t103.5 272.5v904h205v-904q0 -131 -45 -237.5t-123.5 -174.5t-180.5 -104.5t-218 -36.5t-218.5 36.5t-180.5 104.5t-123.5 174.5t-45.5 237.5zM623 1567l159 284h211l-200 -284h-170z" />
<glyph unicode="&#xdb;" horiz-adv-x="1495" d="M180 530v904h205v-904q0 -177 103.5 -272.5t259.5 -95.5q155 0 258.5 95.5t103.5 272.5v904h205v-904q0 -131 -45 -237.5t-123.5 -174.5t-180.5 -104.5t-218 -36.5t-218.5 36.5t-180.5 104.5t-123.5 174.5t-45.5 237.5zM420 1567l223 284h209l223 -284h-155l-172 176 l-173 -176h-155z" />
<glyph unicode="&#xdc;" horiz-adv-x="1495" d="M180 530v904h205v-904q0 -177 103.5 -272.5t259.5 -95.5q155 0 258.5 95.5t103.5 272.5v904h205v-904q0 -131 -45 -237.5t-123.5 -174.5t-180.5 -104.5t-218 -36.5t-218.5 36.5t-180.5 104.5t-123.5 174.5t-45.5 237.5zM399 1694q0 55 36.5 92t90.5 37q56 0 92.5 -36.5 t36.5 -92.5q0 -54 -37 -90.5t-92 -36.5q-54 0 -90.5 36.5t-36.5 90.5zM838 1694q0 55 36.5 92t90.5 37q55 0 92 -36.5t37 -92.5q0 -54 -37 -90.5t-92 -36.5q-54 0 -90.5 36.5t-36.5 90.5z" />
<glyph unicode="&#xdd;" horiz-adv-x="1388" d="M49 1411v23h225l418 -670l422 670h225v-23l-542 -821v-590h-205v590zM578 1567l159 284h211l-200 -284h-170z" />
<glyph unicode="&#xde;" horiz-adv-x="1296" d="M201 0v1434h205v-330h485q96 0 174.5 -54.5t122 -143t43.5 -189.5q0 -102 -42 -189.5t-123 -141.5t-183 -54h-477v-332h-205zM406 500h393q109 0 164 63t55 154q0 45 -10.5 81.5t-34 69t-68 50.5t-106.5 18h-393v-436z" />
<glyph unicode="&#xdf;" horiz-adv-x="1224" d="M158 0v1065q0 208 112.5 318t313.5 110q203 0 316.5 -97.5t113.5 -271.5q0 -116 -67 -196.5t-204 -114.5q176 -18 290 -128.5t114 -278.5q0 -175 -130.5 -290.5t-340.5 -115.5h-117l-47 168h164q114 0 190 71.5t76 172.5q0 138 -120 223.5t-316 85.5l-43 160 q178 0 261 63.5t83 165.5q0 105 -59 162t-164 57q-110 0 -168 -68t-58 -196v-1065h-200z" />
<glyph unicode="&#xe0;" horiz-adv-x="1318" d="M84 512q0 -148 62 -269t179 -193.5t267 -72.5q239 0 371 187v-164h198v1024h-198v-164q-132 187 -371 187q-150 0 -267 -72.5t-179 -193.5t-62 -269zM283 512q0 152 89.5 255t243.5 103q155 0 253 -101t98 -257t-98 -257t-253 -101q-154 0 -243.5 103t-89.5 255z M338 1481h223l178 -307h-174z" />
<glyph unicode="&#xe1;" horiz-adv-x="1316" d="M82 512q0 -148 62 -269t179 -193.5t267 -72.5q239 0 371 187v-164h198v1024h-198v-164q-132 187 -371 187q-150 0 -267 -72.5t-179 -193.5t-62 -269zM281 512q0 152 89.5 255t243.5 103q155 0 253 -101t98 -257t-98 -257t-253 -101q-154 0 -243.5 103t-89.5 255z M520 1174l178 307h224l-228 -307h-174z" />
<glyph unicode="&#xe2;" horiz-adv-x="1316" d="M82 512q0 -148 62 -269t179 -193.5t267 -72.5q239 0 371 187v-164h198v1024h-198v-164q-132 187 -371 187q-150 0 -267 -72.5t-179 -193.5t-62 -269zM281 512q0 152 89.5 255t243.5 103q155 0 253 -101t98 -257t-98 -257t-253 -101q-154 0 -243.5 103t-89.5 255z M289 1174l241 307h209l242 -307h-156l-190 188l-191 -188h-155z" />
<glyph unicode="&#xe3;" horiz-adv-x="1316" d="M82 512q0 -148 62 -269t179 -193.5t267 -72.5q239 0 371 187v-164h198v1024h-198v-164q-132 187 -371 187q-150 0 -267 -72.5t-179 -193.5t-62 -269zM281 512q0 152 89.5 255t243.5 103q155 0 253 -101t98 -257t-98 -257t-253 -101q-154 0 -243.5 103t-89.5 255z M330 1227q29 115 70.5 164t109.5 49q47 0 136.5 -41t119.5 -41q35 0 54.5 21t43.5 79l90 -26q-29 -115 -70.5 -164t-109.5 -49q-47 0 -136.5 40.5t-119.5 40.5q-35 0 -54.5 -21t-43.5 -79z" />
<glyph unicode="&#xe4;" horiz-adv-x="1316" d="M82 512q0 -148 62 -269t179 -193.5t267 -72.5q239 0 371 187v-164h198v1024h-198v-164q-132 187 -371 187q-150 0 -267 -72.5t-179 -193.5t-62 -269zM281 512q0 152 89.5 255t243.5 103q155 0 253 -101t98 -257t-98 -257t-253 -101q-154 0 -243.5 103t-89.5 255z M295 1327q0 55 36.5 92t90.5 37q56 0 92.5 -37t36.5 -92q0 -54 -37 -90.5t-92 -36.5q-54 0 -90.5 36.5t-36.5 90.5zM733 1327q0 55 36.5 92t90.5 37q56 0 92.5 -37t36.5 -92q0 -54 -37 -90.5t-92 -36.5q-54 0 -90.5 36.5t-36.5 90.5z" />
<glyph unicode="&#xe5;" horiz-adv-x="1316" d="M82 512q0 -148 62 -269t179 -193.5t267 -72.5q239 0 371 187v-164h198v1024h-198v-164q-132 187 -371 187q-150 0 -267 -72.5t-179 -193.5t-62 -269zM281 512q0 152 89.5 255t243.5 103q155 0 253 -101t98 -257t-98 -257t-253 -101q-154 0 -243.5 103t-89.5 255z M414 1389q0 91 63 154t152 63q91 0 154 -63t63 -154q0 -89 -63 -152t-154 -63q-89 0 -152 63t-63 152zM516 1389q0 -47 33 -80t80 -33t79.5 33t32.5 80t-32.5 79.5t-79.5 32.5t-80 -32.5t-33 -79.5z" />
<glyph unicode="&#xe6;" horiz-adv-x="1912" d="M63 309q0 141 106 231.5t302 90.5q195 0 324 -47v34q0 71 -21.5 122t-59.5 78.5t-83 39.5t-101 12q-177 0 -317 -110l-74 143q70 73 181 108.5t227 35.5q294 0 385 -185q74 88 178 136.5t231 48.5q103 0 193 -34t161 -100t111.5 -173.5t40.5 -245.5h-862 q-4 -148 104.5 -244t280.5 -96q91 0 165.5 31t154.5 98l110 -115q-170 -191 -432 -191q-162 0 -283.5 62.5t-191.5 171.5q-50 -104 -160 -169t-262 -65q-112 0 -203 37.5t-148 114t-57 180.5zM262 311q0 -72 60.5 -126t179.5 -54q91 0 175.5 48.5t147.5 148.5l-14 116 q-82 22 -178.5 32.5t-143.5 10.5q-62 0 -108 -16t-70.5 -42.5t-36.5 -56t-12 -61.5zM1008 647h634q-67 225 -296 225q-49 0 -95 -10.5t-93 -34.5t-86.5 -70t-63.5 -110z" />
<glyph unicode="&#xe7;" horiz-adv-x="1083" d="M82 500q0 114 38.5 213t109.5 173.5t181 117.5t246 43q200 0 367 -125l-94 -136q-112 84 -264 84q-167 0 -276 -100.5t-109 -257.5t109 -257.5t276 -100.5q152 0 264 84l94 -136q-153 -112 -348 -125q86 -94 86 -202q0 -59 -24 -105t-63 -73t-83.5 -40.5t-89.5 -13.5 q-97 0 -167.5 61.5t-94.5 157.5l88 50q26 -57 70 -89t98 -32q46 0 83 34t37 91q0 81 -61 170q-221 29 -347 171t-126 343z" />
<glyph unicode="&#xe8;" horiz-adv-x="1218" d="M80 508q0 112 41.5 211t114 171.5t175.5 114.5t220 42q82 0 158 -20.5t142.5 -65t115.5 -108.5t77.5 -156t28.5 -203h-874q-5 -148 102.5 -244t277.5 -96q186 0 336 129l111 -115q-170 -191 -449 -191q-173 0 -306 73t-202 193t-69 265zM297 647h651q-67 225 -313 225 q-49 0 -95 -10.5t-93 -34.5t-86.5 -70t-63.5 -110zM346 1481h223l179 -307h-175z" />
<glyph unicode="&#xe9;" horiz-adv-x="1218" d="M80 508q0 112 41.5 211t114 171.5t175.5 114.5t220 42q82 0 158 -20.5t142.5 -65t115.5 -108.5t77.5 -156t28.5 -203h-874q-5 -148 102.5 -244t277.5 -96q186 0 336 129l111 -115q-170 -191 -449 -191q-173 0 -306 73t-202 193t-69 265zM297 647h651q-67 225 -313 225 q-49 0 -95 -10.5t-93 -34.5t-86.5 -70t-63.5 -110zM500 1174l178 307h223l-227 -307h-174z" />
<glyph unicode="&#xea;" horiz-adv-x="1218" d="M80 508q0 112 41.5 211t114 171.5t175.5 114.5t220 42q82 0 158 -20.5t142.5 -65t115.5 -108.5t77.5 -156t28.5 -203h-874q-5 -148 102.5 -244t277.5 -96q186 0 336 129l111 -115q-170 -191 -449 -191q-173 0 -306 73t-202 193t-69 265zM264 1174l242 307h209l241 -307 h-155l-191 188l-190 -188h-156zM297 647h651q-67 225 -313 225q-49 0 -95 -10.5t-93 -34.5t-86.5 -70t-63.5 -110z" />
<glyph unicode="&#xeb;" horiz-adv-x="1218" d="M80 508q0 112 41.5 211t114 171.5t175.5 114.5t220 42q82 0 158 -20.5t142.5 -65t115.5 -108.5t77.5 -156t28.5 -203h-874q-5 -148 102.5 -244t277.5 -96q186 0 336 129l111 -115q-170 -191 -449 -191q-173 0 -306 73t-202 193t-69 265zM264 1327q0 55 36.5 92t90.5 37 q55 0 92 -37t37 -92q0 -54 -37 -90.5t-92 -36.5q-54 0 -90.5 36.5t-36.5 90.5zM297 647h651q-67 225 -313 225q-49 0 -95 -10.5t-93 -34.5t-86.5 -70t-63.5 -110zM702 1327q0 55 36.5 92t90.5 37q55 0 92 -37t37 -92q0 -54 -37 -90.5t-92 -36.5q-54 0 -90.5 36.5t-36.5 90.5 z" />
<glyph unicode="&#xec;" horiz-adv-x="526" d="M-29 1481h224l178 -307h-174zM164 0h198v1024h-198v-1024z" />
<glyph unicode="&#xed;" horiz-adv-x="526" d="M154 1174l178 307h223l-227 -307h-174zM164 0h198v1024h-198v-1024z" />
<glyph unicode="&#xee;" horiz-adv-x="526" d="M-90 1174l242 307h208l242 -307h-156l-190 188l-190 -188h-156zM164 0h198v1024h-198v-1024z" />
<glyph unicode="&#xef;" horiz-adv-x="526" d="M-90 1327q0 55 36.5 92t90.5 37q55 0 92 -37t37 -92q0 -54 -37 -90.5t-92 -36.5q-54 0 -90.5 36.5t-36.5 90.5zM164 0h198v1024h-198v-1024zM348 1327q0 55 36.5 92t90.5 37q55 0 92 -37t37 -92q0 -54 -37 -90.5t-92 -36.5q-54 0 -90.5 36.5t-36.5 90.5z" />
<glyph unicode="&#xf0;" horiz-adv-x="1243" d="M82 510q0 145 68.5 264.5t184.5 186.5t253 67q163 0 217 -65q-74 111 -197 227l-246 -105l-45 107l193 84q-17 14 -154 119l154 104q14 -11 43.5 -34t47.5 -37t42.5 -35.5t44.5 -40.5l234 100l53 -106l-195 -84q171 -176 274 -372.5t103 -387.5q0 -161 -74 -282.5 t-192.5 -182t-261.5 -60.5q-114 0 -216 42t-174.5 113.5t-114.5 170t-42 207.5zM281 512q0 -151 99 -254.5t241 -103.5q161 0 249 101.5t88 262.5q0 145 -89.5 242.5t-237.5 97.5q-153 0 -251.5 -98.5t-98.5 -247.5z" />
<glyph unicode="&#xf1;" horiz-adv-x="1236" d="M158 0h198v475q0 92 24.5 164.5t61 114.5t83 69.5t86 37t75.5 9.5q91 0 150 -70t59 -222v-578h199v578q0 120 -30 211.5t-84.5 147t-124.5 83t-155 27.5q-129 0 -220.5 -59.5t-123.5 -168.5v205h-198v-1024zM285 1227q29 115 70.5 164t109.5 49q47 0 136.5 -41t119.5 -41 q35 0 54.5 21t43.5 79l90 -26q-29 -115 -70.5 -164t-109.5 -49q-47 0 -136.5 40.5t-119.5 40.5q-35 0 -54.5 -21t-43.5 -79z" />
<glyph unicode="&#xf2;" d="M80 512q0 145 72 268.5t195.5 195t268.5 71.5q146 0 270 -71.5t196.5 -195t72.5 -268.5t-72.5 -268.5t-196.5 -195t-270 -71.5q-109 0 -208 42t-171 113.5t-114.5 171t-42.5 208.5zM279 510q0 -148 98.5 -252t238.5 -104q141 0 240.5 104t99.5 252t-99.5 254t-240.5 106 q-139 0 -238 -106t-99 -254zM311 1481h224l178 -307h-174z" />
<glyph unicode="&#xf3;" d="M80 512q0 145 72 268.5t195.5 195t268.5 71.5q146 0 270 -71.5t196.5 -195t72.5 -268.5t-72.5 -268.5t-196.5 -195t-270 -71.5q-109 0 -208 42t-171 113.5t-114.5 171t-42.5 208.5zM279 510q0 -148 98.5 -252t238.5 -104q141 0 240.5 104t99.5 252t-99.5 254t-240.5 106 q-139 0 -238 -106t-99 -254zM504 1174l178 307h223l-227 -307h-174z" />
<glyph unicode="&#xf4;" d="M80 512q0 145 72 268.5t195.5 195t268.5 71.5q146 0 270 -71.5t196.5 -195t72.5 -268.5t-72.5 -268.5t-196.5 -195t-270 -71.5q-109 0 -208 42t-171 113.5t-114.5 171t-42.5 208.5zM272 1174l242 307h209l242 -307h-156l-191 188l-190 -188h-156zM279 510 q0 -148 98.5 -252t238.5 -104q141 0 240.5 104t99.5 252t-99.5 254t-240.5 106q-139 0 -238 -106t-99 -254z" />
<glyph unicode="&#xf5;" d="M80 512q0 145 72 268.5t195.5 195t268.5 71.5q146 0 270 -71.5t196.5 -195t72.5 -268.5t-72.5 -268.5t-196.5 -195t-270 -71.5q-109 0 -208 42t-171 113.5t-114.5 171t-42.5 208.5zM279 510q0 -148 98.5 -252t238.5 -104q141 0 240.5 104t99.5 252t-99.5 254t-240.5 106 q-139 0 -238 -106t-99 -254zM301 1227q29 115 70.5 164t109.5 49q47 0 136.5 -41t119.5 -41q35 0 55 21t44 79l90 -26q-29 -115 -71 -164t-110 -49q-47 0 -136.5 40.5t-119.5 40.5q-35 0 -54.5 -21t-43.5 -79z" />
<glyph unicode="&#xf6;" d="M80 512q0 145 72 268.5t195.5 195t268.5 71.5q146 0 270 -71.5t196.5 -195t72.5 -268.5t-72.5 -268.5t-196.5 -195t-270 -71.5q-109 0 -208 42t-171 113.5t-114.5 171t-42.5 208.5zM270 1327q0 55 36.5 92t90.5 37q55 0 92 -37t37 -92q0 -54 -37 -90.5t-92 -36.5 q-54 0 -90.5 36.5t-36.5 90.5zM279 510q0 -148 98.5 -252t238.5 -104q141 0 240.5 104t99.5 252t-99.5 254t-240.5 106q-139 0 -238 -106t-99 -254zM709 1327q0 55 36.5 92t90.5 37q56 0 92.5 -37t36.5 -92q0 -54 -37 -90.5t-92 -36.5q-54 0 -90.5 36.5t-36.5 90.5z" />
<glyph unicode="&#xf7;" horiz-adv-x="1284" d="M113 535v182h1058v-182h-1058zM492 238q0 63 43 107t106 44t107.5 -44t44.5 -107t-44.5 -106.5t-107.5 -43.5t-106 43.5t-43 106.5zM492 1022q0 63 43 107.5t106 44.5t107.5 -44.5t44.5 -107.5t-44.5 -106.5t-107.5 -43.5t-106 43.5t-43 106.5z" />
<glyph unicode="&#xf8;" horiz-adv-x="1236" d="M82 512q0 145 72 268.5t195.5 195t268.5 71.5q160 0 302 -95l104 119l98 -88l-102 -117q137 -157 137 -354q0 -145 -72.5 -268.5t-196.5 -195t-270 -71.5q-159 0 -303 93l-112 -127l-99 88l113 127q-135 154 -135 354zM281 510q0 -120 63 -209l455 514q-82 55 -181 55 q-139 0 -238 -106t-99 -254zM438 209q82 -55 180 -55q141 0 240.5 104t99.5 252q0 119 -65 213z" />
<glyph unicode="&#xf9;" d="M141 446q0 -120 30 -211.5t84.5 -147t124.5 -83t155 -27.5q129 0 220.5 59.5t123.5 168.5v-205h198v1024h-198v-475q0 -92 -24.5 -164.5t-61 -114.5t-83 -69.5t-86 -37t-75.5 -9.5q-91 0 -150 70t-59 222v578h-199v-578zM330 1481h223l178 -307h-174z" />
<glyph unicode="&#xfa;" d="M141 446q0 -120 30 -211.5t84.5 -147t124.5 -83t155 -27.5q129 0 220.5 59.5t123.5 168.5v-205h198v1024h-198v-475q0 -92 -24.5 -164.5t-61 -114.5t-83 -69.5t-86 -37t-75.5 -9.5q-91 0 -150 70t-59 222v578h-199v-578zM506 1174l178 307h223l-227 -307h-174z" />
<glyph unicode="&#xfb;" d="M141 446q0 -120 30 -211.5t84.5 -147t124.5 -83t155 -27.5q129 0 220.5 59.5t123.5 168.5v-205h198v1024h-198v-475q0 -92 -24.5 -164.5t-61 -114.5t-83 -69.5t-86 -37t-75.5 -9.5q-91 0 -150 70t-59 222v578h-199v-578zM268 1174l242 307h209l242 -307h-156l-191 188 l-190 -188h-156z" />
<glyph unicode="&#xfc;" d="M141 446q0 -120 30 -211.5t84.5 -147t124.5 -83t155 -27.5q129 0 220.5 59.5t123.5 168.5v-205h198v1024h-198v-475q0 -92 -24.5 -164.5t-61 -114.5t-83 -69.5t-86 -37t-75.5 -9.5q-91 0 -150 70t-59 222v578h-199v-578zM276 1327q0 55 36.5 92t90.5 37q55 0 92 -37 t37 -92q0 -54 -37 -90.5t-92 -36.5q-54 0 -90.5 36.5t-36.5 90.5zM715 1327q0 55 36.5 92t90.5 37q56 0 92.5 -37t36.5 -92q0 -54 -37 -90.5t-92 -36.5q-54 0 -90.5 36.5t-36.5 90.5z" />
<glyph unicode="&#xfd;" horiz-adv-x="1134" d="M37 1024h227l314 -764l290 764h232l-629 -1483h-192l190 494zM442 1174l179 307h223l-228 -307h-174z" />
<glyph unicode="&#xfe;" horiz-adv-x="1316" d="M158 -459v1940h198v-621q132 187 371 187q150 0 267 -72.5t179 -193.5t62 -269t-62 -269t-179 -193.5t-267 -72.5q-239 0 -371 187v-623h-198zM352 512q0 -155 99 -256.5t251 -101.5q154 0 244 103t90 255t-90 255t-244 103q-152 0 -251 -101.5t-99 -256.5z" />
<glyph unicode="&#xff;" horiz-adv-x="1134" d="M37 1024h227l314 -764l290 764h232l-629 -1483h-192l190 494zM221 1327q0 55 36.5 92t90.5 37q56 0 92.5 -37t36.5 -92q0 -54 -37 -90.5t-92 -36.5q-54 0 -90.5 36.5t-36.5 90.5zM659 1327q0 55 36.5 92t90.5 37q56 0 92.5 -37t36.5 -92q0 -54 -37 -90.5t-92 -36.5 q-54 0 -90.5 36.5t-36.5 90.5z" />
<glyph unicode="&#x152;" horiz-adv-x="1984" d="M96 739q0 200 94.5 359.5t259 247.5t367.5 88h1067v-168h-692v-469h600v-168h-600v-461h-2h694v-168h-1067q-151 0 -285 58.5t-229.5 157.5t-151 235.5t-55.5 287.5zM301 739q0 -156 67.5 -287t186 -207.5t262.5 -76.5h170v1098h-170q-146 0 -263 -65t-185 -186t-68 -276 z" />
<glyph unicode="&#x153;" horiz-adv-x="1902" d="M80 512q0 145 72 268.5t195.5 195t268.5 71.5q196 0 351 -129q142 129 352 129q104 0 195 -34t163.5 -99.5t115 -174t42.5 -245.5h-838q-5 -152 88.5 -246t262.5 -94q185 0 335 129l111 -115q-170 -191 -448 -191q-237 0 -379 129q-155 -129 -351 -129q-109 0 -208 42 t-171 113.5t-114.5 171t-42.5 208.5zM279 510q0 -148 98.5 -252t238.5 -104q138 0 238 100q-57 117 -57 254t59 258q-104 104 -240 104q-139 0 -238 -106t-99 -254zM1008 647h628q-67 225 -313 225q-101 0 -185 -51t-130 -174z" />
<glyph unicode="&#x178;" horiz-adv-x="1388" d="M49 1411v23h225l418 -670l422 670h225v-23l-542 -821v-590h-205v590zM346 1694q0 55 36.5 92t90.5 37q55 0 92 -36.5t37 -92.5q0 -54 -37 -90.5t-92 -36.5q-54 0 -90.5 36.5t-36.5 90.5zM784 1694q0 55 36.5 92t90.5 37q55 0 92 -36.5t37 -92.5q0 -54 -37 -90.5 t-92 -36.5q-54 0 -90.5 36.5t-36.5 90.5z" />
<glyph unicode="&#x2c6;" horiz-adv-x="1253" d="M281 1174l241 307h209l242 -307h-156l-190 188l-191 -188h-155z" />
<glyph unicode="&#x2dc;" horiz-adv-x="1015" d="M195 1227q29 115 70.5 164t109.5 49q47 0 136.5 -41t119.5 -41q35 0 54.5 21t43.5 79l90 -26q-29 -115 -70.5 -164t-109.5 -49q-47 0 -136.5 40.5t-119.5 40.5q-35 0 -54.5 -21t-43.5 -79z" />
<glyph unicode="&#x2000;" horiz-adv-x="972" />
<glyph unicode="&#x2001;" horiz-adv-x="1944" />
<glyph unicode="&#x2002;" horiz-adv-x="972" />
<glyph unicode="&#x2003;" horiz-adv-x="1944" />
<glyph unicode="&#x2004;" horiz-adv-x="648" />
<glyph unicode="&#x2005;" horiz-adv-x="486" />
<glyph unicode="&#x2006;" horiz-adv-x="324" />
<glyph unicode="&#x2007;" horiz-adv-x="324" />
<glyph unicode="&#x2008;" horiz-adv-x="243" />
<glyph unicode="&#x2009;" horiz-adv-x="388" />
<glyph unicode="&#x200a;" horiz-adv-x="108" />
<glyph unicode="&#x2010;" horiz-adv-x="958" d="M137 535v182h684v-182h-684z" />
<glyph unicode="&#x2011;" horiz-adv-x="958" d="M137 535v182h684v-182h-684z" />
<glyph unicode="&#x2012;" horiz-adv-x="958" d="M137 535v182h684v-182h-684z" />
<glyph unicode="&#x2013;" horiz-adv-x="1161" d="M137 535v182h887v-182h-887z" />
<glyph unicode="&#x2014;" horiz-adv-x="1630" d="M137 535v182h1356v-182h-1356z" />
<glyph unicode="&#x2018;" horiz-adv-x="505" d="M102 1133q0 128 66 219t188 129l35 -74q-85 -28 -122.5 -84.5t-37.5 -124.5q68 23 112 -11.5t44 -90.5q2 -57 -35.5 -94t-107.5 -37q-40 0 -70 18t-44.5 46t-21 54t-6.5 50z" />
<glyph unicode="&#x2019;" horiz-adv-x="503" d="M123 1038q85 28 122.5 84.5t37.5 124.5q-67 -23 -111.5 12t-44.5 91q-2 57 35.5 94t107.5 37q40 0 70 -18t44.5 -46t21 -54t6.5 -50q0 -129 -64 -219.5t-186 -128.5z" />
<glyph unicode="&#x201a;" horiz-adv-x="524" d="M115 -186q85 28 122 84.5t37 124.5q-67 -23 -111 11.5t-44 90.5q-2 57 35.5 94t107.5 37q40 0 70 -18t44 -46t20.5 -54t6.5 -50q0 -128 -65.5 -219t-187.5 -129z" />
<glyph unicode="&#x201c;" horiz-adv-x="907" d="M102 1133q0 128 66 219t188 129l35 -74q-85 -28 -122.5 -84.5t-37.5 -124.5q68 23 112 -11.5t44 -90.5q2 -57 -35.5 -94t-107.5 -37q-40 0 -70 18t-44.5 46t-21 54t-6.5 50zM504 1133q0 129 64 219.5t186 128.5l39 -74q-85 -28 -122.5 -84.5t-37.5 -124.5 q67 23 111 -11.5t44 -90.5q2 -57 -35 -94t-108 -37q-40 0 -70 18t-44 46t-20.5 54t-6.5 50z" />
<glyph unicode="&#x201d;" horiz-adv-x="903" d="M123 1038q85 28 122.5 84.5t37.5 124.5q-67 -23 -111.5 12t-44.5 91q-2 57 35.5 94t107.5 37q40 0 70 -18t44.5 -46t21 -54t6.5 -50q0 -129 -64 -219.5t-186 -128.5zM524 1038q85 28 122.5 84.5t37.5 124.5q-67 -23 -111.5 12t-44.5 91q-2 57 35.5 94t108.5 37 q40 0 70 -18t44 -46t20.5 -54t6.5 -50q0 -128 -66 -219t-188 -129z" />
<glyph unicode="&#x201e;" horiz-adv-x="925" d="M115 -186q85 28 122 84.5t37 124.5q-67 -23 -111 11.5t-44 90.5q-2 57 35.5 94t107.5 37q40 0 70 -18t44 -46t20.5 -54t6.5 -50q0 -129 -63.5 -219.5t-185.5 -128.5zM516 -186q85 28 122.5 84.5t37.5 124.5q-68 -23 -112 11.5t-44 90.5q-2 57 35.5 94t108.5 37 q40 0 70 -18t44 -46t20.5 -54t6.5 -50q0 -128 -66 -219t-188 -129z" />
<glyph unicode="&#x2022;" horiz-adv-x="823" d="M166 508q0 101 72.5 173.5t173.5 72.5q102 0 174.5 -72t72.5 -174t-72.5 -174t-174.5 -72t-174 71t-72 175z" />
<glyph unicode="&#x2026;" horiz-adv-x="1665" d="M115 127q0 63 43 107.5t106 44.5t107.5 -44.5t44.5 -107.5t-44.5 -106.5t-107.5 -43.5t-106 43.5t-43 106.5zM682 127q0 63 43 107.5t106 44.5t107.5 -44.5t44.5 -107.5t-44.5 -106.5t-107.5 -43.5t-106 43.5t-43 106.5zM1249 127q0 63 43.5 107.5t106.5 44.5t107 -44.5 t44 -107.5t-44 -106.5t-107 -43.5t-106.5 43.5t-43.5 106.5z" />
<glyph unicode="&#x202f;" horiz-adv-x="388" />
<glyph unicode="&#x2039;" horiz-adv-x="700" d="M92 594v16v17l381 436l121 -94l-311 -359l311 -356l-121 -94z" />
<glyph unicode="&#x203a;" horiz-adv-x="700" d="M106 254l312 356l-312 359l121 94l381 -436v-17v-16l-381 -434z" />
<glyph unicode="&#x205f;" horiz-adv-x="486" />
<glyph unicode="&#x20ac;" horiz-adv-x="1368" d="M82 508v139h184q-4 46 -4 68v57h-180v139h199q23 120 74.5 217.5t131.5 172t197 115t262 40.5q191 0 344 -88l-61 -162q-121 68 -275 68q-193 0 -310.5 -97.5t-156.5 -265.5h664l-45 -139h-641v-51q0 -24 4 -74h600l-43 -139h-532q43 -161 158 -254.5t300 -93.5 q163 0 260 43v-176q-129 -50 -251 -50q-149 0 -268.5 39.5t-201 112t-132.5 167.5t-74 212h-203z" />
<glyph unicode="&#x2122;" horiz-adv-x="1783" d="M76 1319v115h649v-115h-258v-619h-133v619h-258zM780 700l70 734h133l225 -535l222 535h139l65 -734h-129l-45 506l-203 -497h-98l-203 495l-45 -504h-131z" />
<glyph unicode="&#x25fc;" horiz-adv-x="1024" d="M0 0v1024h1024v-1024h-1024z" />
</font>
</defs>
</svg>
